<svg width="48" height="48" viewBox="0 0 48 48" fill="none" xmlns="http://www.w3.org/2000/svg">
<rect width="48" height="48" rx="4" fill="#F8F9FA"/>
<g clip-path="url(#clip0_1285_1466)">
<path d="M9.28716 27.418C8.85606 27.418 8.47189 27.3432 8.13464 27.1936C7.79739 27.0412 7.53052 26.8168 7.33403 26.5206C7.14048 26.2215 7.0437 25.8491 7.0437 25.4033C7.0437 25.0279 7.11262 24.7127 7.25045 24.4576C7.38829 24.2024 7.57597 23.9971 7.81351 23.8417C8.05106 23.6863 8.32086 23.569 8.62292 23.4898C8.92791 23.4107 9.24757 23.3549 9.58188 23.3227C9.97486 23.2816 10.2916 23.2435 10.5321 23.2083C10.7725 23.1702 10.947 23.1145 11.0555 23.0411C11.164 22.9678 11.2183 22.8593 11.2183 22.7156V22.6892C11.2183 22.4106 11.1303 22.1951 10.9543 22.0426C10.7813 21.8901 10.535 21.8139 10.2153 21.8139C9.87808 21.8139 9.60974 21.8887 9.41033 22.0382C9.21091 22.1848 9.07894 22.3696 9.01442 22.5925L7.28124 22.4517C7.36922 22.0411 7.54225 21.6863 7.80032 21.3872C8.05839 21.0851 8.39124 20.8535 8.79888 20.6922C9.20944 20.5279 9.68453 20.4458 10.2241 20.4458C10.5995 20.4458 10.9588 20.4898 11.3019 20.5778C11.6479 20.6658 11.9544 20.8021 12.2212 20.9869C12.491 21.1716 12.7036 21.4092 12.8591 21.6995C13.0145 21.9869 13.0922 22.3315 13.0922 22.7332V27.2904H11.3151V26.3534H11.2623C11.1538 26.5646 11.0086 26.7508 10.8268 26.9121C10.645 27.0705 10.4265 27.1951 10.1713 27.286C9.9162 27.374 9.62148 27.418 9.28716 27.418ZM9.82383 26.1247C10.0995 26.1247 10.3429 26.0705 10.5541 25.962C10.7652 25.8505 10.9309 25.701 11.0511 25.5133C11.1714 25.3256 11.2315 25.113 11.2315 24.8755V24.1585C11.1728 24.1966 11.0922 24.2318 10.9895 24.264C10.8898 24.2934 10.7769 24.3212 10.6508 24.3476C10.5247 24.371 10.3986 24.3931 10.2725 24.4136C10.1464 24.4312 10.032 24.4473 9.9294 24.462C9.70945 24.4942 9.51737 24.5455 9.35314 24.6159C9.18891 24.6863 9.06135 24.7816 8.97043 24.9018C8.87952 25.0192 8.83407 25.1658 8.83407 25.3417C8.83407 25.5969 8.92644 25.7919 9.1112 25.9268C9.29889 26.0588 9.53643 26.1247 9.82383 26.1247ZM18.14 20.5338V21.9414H14.071V20.5338H18.14ZM14.9948 18.915H16.8687V25.2142C16.8687 25.3872 16.8951 25.5221 16.9479 25.6189C17.0007 25.7127 17.074 25.7787 17.1678 25.8168C17.2646 25.8549 17.3761 25.874 17.5022 25.874C17.5902 25.874 17.6781 25.8667 17.7661 25.852C17.8541 25.8344 17.9215 25.8212 17.9684 25.8124L18.2632 27.2068C18.1693 27.2361 18.0374 27.2699 17.8673 27.308C17.6972 27.3491 17.4904 27.374 17.247 27.3828C16.7954 27.4004 16.3995 27.3403 16.0593 27.2024C15.7221 27.0646 15.4596 26.8505 15.2719 26.5602C15.0842 26.2699 14.9918 25.9033 14.9948 25.4605V18.915ZM22.9546 20.5338V21.9414H18.8856V20.5338H22.9546ZM19.8094 18.915H21.6833V25.2142C21.6833 25.3872 21.7097 25.5221 21.7625 25.6189C21.8153 25.7127 21.8886 25.7787 21.9825 25.8168C22.0792 25.8549 22.1907 25.874 22.3168 25.874C22.4048 25.874 22.4927 25.8667 22.5807 25.852C22.6687 25.8344 22.7362 25.8212 22.7831 25.8124L23.0778 27.2068C22.984 27.2361 22.852 27.2699 22.6819 27.308C22.5118 27.3491 22.3051 27.374 22.0617 27.3828C21.61 27.4004 21.2141 27.3403 20.8739 27.2024C20.5367 27.0646 20.2742 26.8505 20.0865 26.5602C19.8989 26.2699 19.8065 25.9033 19.8094 25.4605V18.915ZM24.1753 27.2904V20.5338H25.9921V21.7127H26.0625C26.1857 21.2933 26.3924 20.9766 26.6827 20.7626C26.9731 20.5455 27.3074 20.437 27.6857 20.437C27.7795 20.437 27.8807 20.4429 27.9892 20.4546C28.0977 20.4664 28.193 20.4825 28.2751 20.503V22.1658C28.1872 22.1394 28.0655 22.1159 27.91 22.0954C27.7546 22.0749 27.6124 22.0646 27.4834 22.0646C27.2077 22.0646 26.9613 22.1247 26.7443 22.245C26.5303 22.3622 26.3602 22.5265 26.234 22.7376C26.1109 22.9488 26.0493 23.1922 26.0493 23.4678V27.2904H24.1753ZM36.5375 27.2904V18.2816H38.4114V21.6687H38.4686C38.5507 21.4869 38.6695 21.3021 38.8249 21.1145C38.9833 20.9238 39.1886 20.7655 39.4408 20.6394C39.6959 20.5104 40.0126 20.4458 40.3909 20.4458C40.8836 20.4458 41.3382 20.5749 41.7546 20.8329C42.171 21.0881 42.5039 21.4737 42.7531 21.9898C43.0024 22.503 43.127 23.1467 43.127 23.9209C43.127 24.6746 43.0053 25.311 42.7619 25.83C42.5215 26.3461 42.193 26.7376 41.7766 27.0045C41.3631 27.2684 40.8997 27.4004 40.3865 27.4004C40.0229 27.4004 39.7135 27.3403 39.4583 27.22C39.2061 27.0998 38.9994 26.9488 38.8381 26.7669C38.6768 26.5822 38.5536 26.396 38.4686 26.2083H38.385V27.2904H36.5375ZM38.3718 23.9121C38.3718 24.3139 38.4275 24.6643 38.539 24.9634C38.6504 25.2626 38.8117 25.4957 39.0228 25.6629C39.234 25.8271 39.4906 25.9092 39.7927 25.9092C40.0976 25.9092 40.3557 25.8256 40.5669 25.6585C40.778 25.4884 40.9378 25.2537 41.0464 24.9546C41.1578 24.6526 41.2135 24.3051 41.2135 23.9121C41.2135 23.5221 41.1593 23.179 41.0508 22.8828C40.9423 22.5866 40.7824 22.3549 40.5713 22.1878C40.3601 22.0206 40.1006 21.9371 39.7927 21.9371C39.4877 21.9371 39.2296 22.0177 39.0185 22.179C38.8102 22.3403 38.6504 22.569 38.539 22.8652C38.4275 23.1614 38.3718 23.5103 38.3718 23.9121Z" fill="#A2AAB8"/>
<path d="M30.4021 29.8251C30.1646 29.8251 29.9417 29.806 29.7334 29.7679C29.5282 29.7327 29.3581 29.6873 29.2232 29.6316L29.6455 28.2327C29.8654 28.3002 30.0634 28.3369 30.2393 28.3427C30.4182 28.3486 30.5722 28.3075 30.7012 28.2195C30.8332 28.1316 30.9402 27.982 31.0223 27.7708L31.1323 27.4849L28.7085 20.5348H30.6792L32.0781 25.4967H32.1485L33.5605 20.5348H35.5444L32.9183 28.0216C32.7922 28.3852 32.6206 28.7019 32.4036 28.9717C32.1895 29.2445 31.9183 29.4541 31.5898 29.6008C31.2613 29.7503 30.8655 29.8251 30.4021 29.8251Z" fill="#A2AAB8"/>
</g>
<defs>
<clipPath id="clip0_1285_1466">
<rect width="36.388" height="12" fill="white" transform="translate(7 18)"/>
</clipPath>
</defs>
</svg>