<svg width="52" height="54" viewBox="0 0 52 54" fill="none" xmlns="http://www.w3.org/2000/svg">
<g filter="url(#filter0_d_13_31344)">
<rect x="2" y="1" width="48" height="49.92" rx="10" fill="white"/>
<g clip-path="url(#clip0_13_31344)">
<path d="M10.2871 29.4181C9.856 29.4181 9.47183 29.3433 9.13458 29.1938C8.79733 29.0413 8.53045 28.8169 8.33397 28.5208C8.14042 28.2216 8.04364 27.8492 8.04364 27.4034C8.04364 27.0281 8.11256 26.7128 8.25039 26.4577C8.38822 26.2025 8.57591 25.9973 8.81345 25.8419C9.051 25.6864 9.3208 25.5691 9.62286 25.4899C9.92785 25.4108 10.2475 25.355 10.5818 25.3228C10.9748 25.2817 11.2915 25.2436 11.532 25.2084C11.7725 25.1703 11.947 25.1146 12.0555 25.0413C12.164 24.9679 12.2182 24.8594 12.2182 24.7157V24.6893C12.2182 24.4108 12.1303 24.1952 11.9543 24.0427C11.7813 23.8902 11.5349 23.814 11.2153 23.814C10.878 23.814 10.6097 23.8888 10.4103 24.0383C10.2108 24.185 10.0789 24.3697 10.0144 24.5926L8.28118 24.4518C8.36916 24.0413 8.54219 23.6864 8.80026 23.3873C9.05833 23.0853 9.39118 22.8536 9.79882 22.6923C10.2094 22.5281 10.6845 22.446 11.2241 22.446C11.5994 22.446 11.9587 22.49 12.3018 22.5779C12.6479 22.6659 12.9543 22.8023 13.2212 22.987C13.491 23.1718 13.7036 23.4093 13.859 23.6996C14.0145 23.987 14.0922 24.3316 14.0922 24.7334V29.2905H12.315V28.3536H12.2622C12.1537 28.5647 12.0086 28.751 11.8267 28.9122C11.6449 29.0706 11.4264 29.1952 11.1713 29.2861C10.9161 29.3741 10.6214 29.4181 10.2871 29.4181ZM10.8238 28.1248C11.0994 28.1248 11.3428 28.0706 11.554 27.9621C11.7651 27.8507 11.9308 27.7011 12.0511 27.5134C12.1713 27.3257 12.2314 27.1131 12.2314 26.8756V26.1586C12.1728 26.1967 12.0921 26.2319 11.9895 26.2641C11.8898 26.2935 11.7769 26.3213 11.6508 26.3477C11.5247 26.3712 11.3986 26.3932 11.2725 26.4137C11.1464 26.4313 11.032 26.4474 10.9293 26.4621C10.7094 26.4943 10.5173 26.5457 10.3531 26.616C10.1889 26.6864 10.0613 26.7817 9.97037 26.902C9.87946 27.0193 9.83401 27.1659 9.83401 27.3419C9.83401 27.597 9.92638 27.792 10.1111 27.9269C10.2988 28.0589 10.5364 28.1248 10.8238 28.1248ZM19.1399 22.5339V23.9416H15.0709V22.5339H19.1399ZM15.9947 20.9152H17.8686V27.2143C17.8686 27.3873 17.8951 27.5222 17.9479 27.619C18.0006 27.7128 18.0739 27.7788 18.1678 27.8169C18.2645 27.8551 18.376 27.8741 18.5021 27.8741C18.5901 27.8741 18.6781 27.8668 18.766 27.8521C18.854 27.8345 18.9215 27.8213 18.9684 27.8125L19.2631 29.207C19.1693 29.2363 19.0373 29.27 18.8672 29.3081C18.6971 29.3492 18.4904 29.3741 18.247 29.3829C17.7953 29.4005 17.3994 29.3404 17.0592 29.2025C16.722 29.0647 16.4595 28.8506 16.2718 28.5603C16.0842 28.27 15.9918 27.9035 15.9947 27.4606V20.9152ZM23.9546 22.5339V23.9416H19.8855V22.5339H23.9546ZM20.8093 20.9152H22.6833V27.2143C22.6833 27.3873 22.7097 27.5222 22.7625 27.619C22.8152 27.7128 22.8886 27.7788 22.9824 27.8169C23.0792 27.8551 23.1906 27.8741 23.3167 27.8741C23.4047 27.8741 23.4927 27.8668 23.5807 27.8521C23.6687 27.8345 23.7361 27.8213 23.783 27.8125L24.0778 29.207C23.9839 29.2363 23.852 29.27 23.6819 29.3081C23.5118 29.3492 23.305 29.3741 23.0616 29.3829C22.61 29.4005 22.2141 29.3404 21.8739 29.2025C21.5366 29.0647 21.2742 28.8506 21.0865 28.5603C20.8988 28.27 20.8064 27.9035 20.8093 27.4606V20.9152ZM25.1753 29.2905V22.5339H26.992V23.7128H27.0624C27.1856 23.2935 27.3924 22.9768 27.6827 22.7627C27.973 22.5457 28.3073 22.4372 28.6856 22.4372C28.7795 22.4372 28.8807 22.443 28.9892 22.4548C29.0977 22.4665 29.193 22.4826 29.2751 22.5031V24.1659C29.1871 24.1395 29.0654 24.1161 28.91 24.0955C28.7545 24.075 28.6123 24.0647 28.4833 24.0647C28.2076 24.0647 27.9613 24.1248 27.7443 24.2451C27.5302 24.3624 27.3601 24.5266 27.234 24.7377C27.1108 24.9489 27.0492 25.1923 27.0492 25.468V29.2905H25.1753ZM37.5374 29.2905V20.2817H39.4113V23.6688H39.4685C39.5506 23.487 39.6694 23.3023 39.8248 23.1146C39.9832 22.924 40.1885 22.7656 40.4407 22.6395C40.6958 22.5105 41.0126 22.446 41.3908 22.446C41.8836 22.446 42.3381 22.575 42.7545 22.8331C43.1709 23.0882 43.5038 23.4738 43.7531 23.9899C44.0023 24.5032 44.127 25.1469 44.127 25.9211C44.127 26.6747 44.0053 27.3111 43.7619 27.8301C43.5214 28.3463 43.1929 28.7378 42.7765 29.0046C42.363 29.2685 41.8997 29.4005 41.3865 29.4005C41.0228 29.4005 40.7134 29.3404 40.4583 29.2202C40.2061 29.0999 39.9993 28.9489 39.838 28.7671C39.6767 28.5823 39.5536 28.3961 39.4685 28.2084H39.3849V29.2905H37.5374ZM39.3717 25.9122C39.3717 26.314 39.4275 26.6644 39.5389 26.9635C39.6503 27.2627 39.8116 27.4958 40.0228 27.663C40.2339 27.8272 40.4906 27.9093 40.7926 27.9093C41.0976 27.9093 41.3557 27.8257 41.5668 27.6586C41.7779 27.4885 41.9378 27.2539 42.0463 26.9548C42.1577 26.6527 42.2134 26.3052 42.2134 25.9122C42.2134 25.5222 42.1592 25.1791 42.0507 24.8829C41.9422 24.5867 41.7824 24.3551 41.5712 24.1879C41.3601 24.0208 41.1005 23.9372 40.7926 23.9372C40.4876 23.9372 40.2295 24.0178 40.0184 24.1791C39.8102 24.3404 39.6503 24.5691 39.5389 24.8653C39.4275 25.1615 39.3717 25.5105 39.3717 25.9122Z" fill="#1D2939"/>
<path d="M31.4021 31.8253C31.1646 31.8253 30.9417 31.8062 30.7334 31.768C30.5282 31.7329 30.3581 31.6874 30.2232 31.6317L30.6455 30.2329C30.8654 30.3003 31.0634 30.337 31.2393 30.3428C31.4182 30.3487 31.5722 30.3076 31.7012 30.2197C31.8332 30.1317 31.9402 29.9821 32.0223 29.771L32.1323 29.4851L29.7085 22.5349H31.6792L33.0781 27.4968H33.1485L34.5605 22.5349H36.5444L33.9183 30.0217C33.7922 30.3854 33.6206 30.7021 33.4036 30.9719C33.1895 31.2446 32.9183 31.4543 32.5898 31.6009C32.2613 31.7505 31.8655 31.8253 31.4021 31.8253Z" fill="#1D2939"/>
</g>
<rect x="2.5" y="1.5" width="47" height="48.92" rx="9.5" stroke="#EAECF0"/>
</g>
<defs>
<filter id="filter0_d_13_31344" x="0" y="0" width="52" height="53.9199" filterUnits="userSpaceOnUse" color-interpolation-filters="sRGB">
<feFlood flood-opacity="0" result="BackgroundImageFix"/>
<feColorMatrix in="SourceAlpha" type="matrix" values="0 0 0 0 0 0 0 0 0 0 0 0 0 0 0 0 0 0 127 0" result="hardAlpha"/>
<feOffset dy="1"/>
<feGaussianBlur stdDeviation="1"/>
<feColorMatrix type="matrix" values="0 0 0 0 0.0627451 0 0 0 0 0.0941176 0 0 0 0 0.156863 0 0 0 0.05 0"/>
<feBlend mode="normal" in2="BackgroundImageFix" result="effect1_dropShadow_13_31344"/>
<feBlend mode="normal" in="SourceGraphic" in2="effect1_dropShadow_13_31344" result="shape"/>
</filter>
<clipPath id="clip0_13_31344">
<rect width="36.388" height="12" fill="white" transform="translate(8 20)"/>
</clipPath>
</defs>
</svg>
