<svg width="72" height="72" viewBox="0 0 72 72" fill="none" xmlns="http://www.w3.org/2000/svg">
<circle cx="36" cy="36" r="36" fill="#713BDB" fill-opacity="0.08"/>
<circle opacity="0.24" cx="18.7529" cy="11.2168" r="2" transform="rotate(-20 18.7529 11.2168)" fill="#FF8B58"/>
<circle opacity="0.24" cx="61.3652" cy="27.0586" r="2" transform="rotate(-20 61.3652 27.0586)" fill="#6F96FF"/>
<circle opacity="0.24" cx="29.8154" cy="60.6739" r="2" transform="rotate(-20 29.8154 60.6739)" fill="#713BDB"/>
<g filter="url(#filter0_d)">
<path d="M18 26C18 21.5817 21.5817 18 26 18H46C50.4183 18 54 21.5817 54 26V46C54 50.4183 50.4183 54 46 54H26C21.5817 54 18 50.4183 18 46V26Z" fill="url(#paint0_linear)"/>
</g>
<path fill-rule="evenodd" clip-rule="evenodd" d="M24.8853 35.7949C24.8853 35.2426 25.333 34.7949 25.8853 34.7949H45.8429C46.3952 34.7949 46.8429 35.2426 46.8429 35.7949C46.8429 36.3472 46.3952 36.7949 45.8429 36.7949H25.8853C25.333 36.7949 24.8853 36.3472 24.8853 35.7949Z" fill="#EDE5FD"/>
<path fill-rule="evenodd" clip-rule="evenodd" d="M25.0415 41.7949C25.0415 41.2426 25.4892 40.7949 26.0415 40.7949H45.9992C46.5515 40.7949 46.9992 41.2426 46.9992 41.7949C46.9992 42.3472 46.5515 42.7949 45.9992 42.7949H26.0415C25.4892 42.7949 25.0415 42.3472 25.0415 41.7949Z" fill="#EDE5FD"/>
<path fill-rule="evenodd" clip-rule="evenodd" d="M24.8853 29.7949C24.8853 29.2426 25.333 28.7949 25.8853 28.7949H30.8747C31.427 28.7949 31.8747 29.2426 31.8747 29.7949C31.8747 30.3472 31.427 30.7949 30.8747 30.7949H25.8853C25.333 30.7949 24.8853 30.3472 24.8853 29.7949Z" fill="#EDE5FD"/>
<path d="M58 44C58 51.732 51.732 58 44 58C36.268 58 30 51.732 30 44C30 36.268 36.268 30 44 30C51.732 30 58 36.268 58 44Z" fill="url(#paint1_linear)"/>
<path d="M45.4582 36.709H39.6248C39.2381 36.709 38.8671 36.8626 38.5936 37.1361C38.3201 37.4096 38.1665 37.7805 38.1665 38.1673V49.834C38.1665 50.2208 38.3201 50.5917 38.5936 50.8652C38.8671 51.1387 39.2381 51.2923 39.6248 51.2923H48.3748C48.7616 51.2923 49.1325 51.1387 49.406 50.8652C49.6795 50.5917 49.8332 50.2208 49.8332 49.834V41.084L45.4582 36.709Z" stroke="white" stroke-width="1.25" stroke-linecap="round" stroke-linejoin="round"/>
<path d="M45.4585 36.709V41.084H49.8335" stroke="white" stroke-width="1.25" stroke-linecap="round" stroke-linejoin="round"/>
<defs>
<filter id="filter0_d" x="10" y="10" width="52" height="52" filterUnits="userSpaceOnUse" color-interpolation-filters="sRGB">
<feFlood flood-opacity="0" result="BackgroundImageFix"/>
<feColorMatrix in="SourceAlpha" type="matrix" values="0 0 0 0 0 0 0 0 0 0 0 0 0 0 0 0 0 0 127 0" result="hardAlpha"/>
<feOffset/>
<feGaussianBlur stdDeviation="4"/>
<feColorMatrix type="matrix" values="0 0 0 0 0.443137 0 0 0 0 0.231373 0 0 0 0 0.858824 0 0 0 0.8 0"/>
<feBlend mode="normal" in2="BackgroundImageFix" result="effect1_dropShadow"/>
<feBlend mode="normal" in="SourceGraphic" in2="effect1_dropShadow" result="shape"/>
</filter>
<linearGradient id="paint0_linear" x1="23" y1="21" x2="49.5" y2="54" gradientUnits="userSpaceOnUse">
<stop stop-color="#B792FF"/>
<stop offset="1" stop-color="#713BDB"/>
</linearGradient>
<linearGradient id="paint1_linear" x1="54.9349" y1="55.7604" x2="36.8172" y2="26.0082" gradientUnits="userSpaceOnUse">
<stop stop-color="#FF8B58"/>
<stop offset="1" stop-color="#FFD058"/>
</linearGradient>
</defs>
</svg>
