<svg width="52" height="54" viewBox="0 0 52 54" fill="none" xmlns="http://www.w3.org/2000/svg">
<g filter="url(#filter0_d_13_31330)">
<rect x="2" y="1" width="48" height="49.92" rx="10" fill="white"/>
<mask id="path-3-inside-1_13_31330" fill="white">
<path d="M25.5476 23.5122C26.5737 22.9406 27.3699 22.0309 27.8004 20.9381C28.231 19.8452 28.2693 18.6369 27.9089 17.519C27.5485 16.4011 26.8116 15.4428 25.8238 14.8073C24.836 14.1718 23.6584 13.8984 22.4916 14.0339C21.3249 14.1693 20.2412 14.705 19.4252 15.5499C18.6092 16.3948 18.1114 17.4964 18.0166 18.6672C17.9218 19.8379 18.2358 21.0053 18.9052 21.9704C19.5747 22.9356 20.558 23.6388 21.6878 23.9602L21.9462 23.0519C21.0265 22.7903 20.2261 22.2179 19.6812 21.4323C19.1363 20.6466 18.8806 19.6964 18.9578 18.7434C19.035 17.7904 19.4402 16.8936 20.1044 16.2059C20.7686 15.5182 21.6508 15.0821 22.6005 14.9719C23.5502 14.8616 24.5088 15.0841 25.3129 15.6014C26.1169 16.1187 26.7168 16.8988 27.0102 17.8088C27.3036 18.7188 27.2724 19.7023 26.9219 20.5919C26.5714 21.4814 25.9233 22.2219 25.088 22.6872L25.5476 23.5122Z"/>
</mask>
<path d="M25.5476 23.5122C26.5737 22.9406 27.3699 22.0309 27.8004 20.9381C28.231 19.8452 28.2693 18.6369 27.9089 17.519C27.5485 16.4011 26.8116 15.4428 25.8238 14.8073C24.836 14.1718 23.6584 13.8984 22.4916 14.0339C21.3249 14.1693 20.2412 14.705 19.4252 15.5499C18.6092 16.3948 18.1114 17.4964 18.0166 18.6672C17.9218 19.8379 18.2358 21.0053 18.9052 21.9704C19.5747 22.9356 20.558 23.6388 21.6878 23.9602L21.9462 23.0519C21.0265 22.7903 20.2261 22.2179 19.6812 21.4323C19.1363 20.6466 18.8806 19.6964 18.9578 18.7434C19.035 17.7904 19.4402 16.8936 20.1044 16.2059C20.7686 15.5182 21.6508 15.0821 22.6005 14.9719C23.5502 14.8616 24.5088 15.0841 25.3129 15.6014C26.1169 16.1187 26.7168 16.8988 27.0102 17.8088C27.3036 18.7188 27.2724 19.7023 26.9219 20.5919C26.5714 21.4814 25.9233 22.2219 25.088 22.6872L25.5476 23.5122Z" stroke="#EAECF0" stroke-width="0.987036" mask="url(#path-3-inside-1_13_31330)"/>
<mask id="path-4-inside-2_13_31330" fill="white">
<path d="M25.057 21.63C25.6139 21.1981 26.0143 20.596 26.1972 19.9154C26.3801 19.2347 26.3354 18.513 26.0699 17.8601C25.8045 17.2073 25.3329 16.6591 24.727 16.2992C24.121 15.9393 23.414 15.7874 22.7138 15.8667C22.0135 15.9459 21.3583 16.252 20.8481 16.7382C20.338 17.2244 20.0008 17.8641 19.888 18.5598C19.7752 19.2555 19.8929 19.9689 20.2233 20.5915C20.5536 21.214 21.0785 21.7114 21.7178 22.0079L22.093 21.199C21.6301 20.9843 21.2501 20.6242 21.0109 20.1735C20.7717 19.7228 20.6865 19.2062 20.7682 18.7025C20.8498 18.1989 21.094 17.7357 21.4633 17.3837C21.8327 17.0317 22.307 16.8101 22.814 16.7527C23.321 16.6953 23.8329 16.8053 24.2716 17.0659C24.7103 17.3265 25.0517 17.7233 25.2439 18.196C25.4361 18.6687 25.4684 19.1912 25.336 19.684C25.2036 20.1767 24.9137 20.6127 24.5105 20.9254L25.057 21.63Z"/>
</mask>
<path d="M25.057 21.63C25.6139 21.1981 26.0143 20.596 26.1972 19.9154C26.3801 19.2347 26.3354 18.513 26.0699 17.8601C25.8045 17.2073 25.3329 16.6591 24.727 16.2992C24.121 15.9393 23.414 15.7874 22.7138 15.8667C22.0135 15.9459 21.3583 16.252 20.8481 16.7382C20.338 17.2244 20.0008 17.8641 19.888 18.5598C19.7752 19.2555 19.8929 19.9689 20.2233 20.5915C20.5536 21.214 21.0785 21.7114 21.7178 22.0079L22.093 21.199C21.6301 20.9843 21.2501 20.6242 21.0109 20.1735C20.7717 19.7228 20.6865 19.2062 20.7682 18.7025C20.8498 18.1989 21.094 17.7357 21.4633 17.3837C21.8327 17.0317 22.307 16.8101 22.814 16.7527C23.321 16.6953 23.8329 16.8053 24.2716 17.0659C24.7103 17.3265 25.0517 17.7233 25.2439 18.196C25.4361 18.6687 25.4684 19.1912 25.336 19.684C25.2036 20.1767 24.9137 20.6127 24.5105 20.9254L25.057 21.63Z" stroke="#EAECF0" stroke-width="1.57926" mask="url(#path-4-inside-2_13_31330)"/>
<path d="M22.0654 28.7693L20.2156 31.2358C19.9571 31.5804 19.8273 32.0045 19.8485 32.4347C19.8697 32.8649 20.0407 33.2741 20.3319 33.5915L23.8248 37.402C24.1737 37.7832 24.6666 38.0002 25.1845 38.0002H29.45C31.6654 38.0002 33.1423 36.154 33.1423 34.3078V26.3961C33.1423 24.2859 30.3731 24.2859 30.3731 26.3961V26.9232" stroke="#344054" stroke-width="1.25" stroke-linecap="round" stroke-linejoin="round"/>
<path d="M30.3733 26.9232V25.3411C30.3733 23.2309 27.6041 23.2309 27.6041 25.3411V26.9232V24.6155C27.6041 22.5054 24.8348 22.5054 24.8348 24.6155M24.8348 26.9232V24.6155M24.8348 24.6155V20.9223C24.8346 20.5552 24.6886 20.2033 24.429 19.9438C24.1693 19.6843 23.8173 19.5386 23.4502 19.5386C23.083 19.5386 22.7308 19.6845 22.4712 19.9441C22.2115 20.2038 22.0656 20.556 22.0656 20.9232V31.5386" stroke="#344054" stroke-width="1.25" stroke-linecap="round" stroke-linejoin="round"/>
<rect x="2.5" y="1.5" width="47" height="48.92" rx="9.5" stroke="#EAECF0"/>
</g>
<defs>
<filter id="filter0_d_13_31330" x="0" y="0" width="52" height="53.9199" filterUnits="userSpaceOnUse" color-interpolation-filters="sRGB">
<feFlood flood-opacity="0" result="BackgroundImageFix"/>
<feColorMatrix in="SourceAlpha" type="matrix" values="0 0 0 0 0 0 0 0 0 0 0 0 0 0 0 0 0 0 127 0" result="hardAlpha"/>
<feOffset dy="1"/>
<feGaussianBlur stdDeviation="1"/>
<feColorMatrix type="matrix" values="0 0 0 0 0.0627451 0 0 0 0 0.0941176 0 0 0 0 0.156863 0 0 0 0.05 0"/>
<feBlend mode="normal" in2="BackgroundImageFix" result="effect1_dropShadow_13_31330"/>
<feBlend mode="normal" in="SourceGraphic" in2="effect1_dropShadow_13_31330" result="shape"/>
</filter>
</defs>
</svg>
