<svg width="241" height="240" viewBox="0 0 241 240" fill="none" xmlns="http://www.w3.org/2000/svg">
<rect x="0.25" width="240" height="240" rx="120" fill="#F4EBFF"/>
<path fill-rule="evenodd" clip-rule="evenodd" d="M110.208 103.647C110.152 103.647 110.045 103.647 109.989 103.647C109.065 103.535 108.305 102.689 108.305 101.73C108.25 100.827 107.76 79.7277 119.662 74.9327C122.652 73.7478 125.426 73.9734 127.763 75.7225C130.641 77.8098 132.707 81.9844 133.957 88.0772C134.825 92.3647 134.988 96.0878 134.988 96.2573C135.043 97.1597 134.339 97.837 133.412 97.6676C132.488 97.5547 131.728 96.7087 131.728 95.8058C131.565 91.9698 130.315 81.4204 126.186 78.3738C124.881 77.4149 123.249 77.3019 121.294 78.0918C111.076 82.2099 111.565 102.012 111.565 102.237C111.565 103.027 111.024 103.647 110.208 103.647Z" fill="#595961"/>
<path opacity="0.46" fill-rule="evenodd" clip-rule="evenodd" d="M127.161 75.8353C124.987 74.2555 122.436 74.03 119.661 75.1019C114.825 77.0762 111.401 82.2665 109.717 90.1646C108.467 95.9751 108.631 101.222 108.631 101.447C108.631 101.729 108.738 102.012 108.957 102.237C109.172 102.463 109.391 102.632 109.662 102.632C109.717 102.632 109.773 102.632 109.825 102.632C110.315 102.632 110.696 102.237 110.696 101.729C110.696 101.504 110.207 81.3637 120.696 77.1327C122.814 76.2867 124.661 76.3993 126.186 77.5276C130.584 80.7432 131.89 91.6314 132.053 95.524C132.053 96.088 132.543 96.6524 133.14 96.7085C133.685 96.7649 134.119 96.37 134.119 95.806C134.063 95.1291 133.466 80.4612 127.161 75.8353Z" fill="#B2B2C2"/>
<path opacity="0.46" fill-rule="evenodd" clip-rule="evenodd" d="M109.718 101.955C109.662 101.955 109.662 101.955 109.61 101.955C109.284 101.898 109.009 101.56 108.957 101.222C108.957 100.996 108.794 95.8621 110.044 90.0513C111.673 82.3227 115.1 77.1888 119.825 75.2706C122.488 74.1987 124.88 74.4246 126.946 75.8914C133.033 80.348 133.63 94.7903 133.63 95.4107C133.63 95.7492 133.359 95.9747 133.033 95.9186C132.706 95.8621 132.436 95.5801 132.38 95.1852C132.38 95.0158 131.783 80.8559 126.293 76.7939C124.662 75.6094 122.651 75.44 120.37 76.3425C109.718 80.7994 110.208 101.222 110.208 101.447C110.259 101.729 110.044 101.955 109.718 101.955Z" fill="#B2B2C2"/>
<path opacity="0.62" fill-rule="evenodd" clip-rule="evenodd" d="M114.12 85.8209C114.554 84.9749 114.988 84.1285 115.37 83.2261C115.207 83.5081 114.12 86.4417 110.804 85.9903C110.748 85.9903 112.759 86.6108 114.12 85.8209Z" fill="#595961"/>
<path opacity="0.62" fill-rule="evenodd" clip-rule="evenodd" d="M112.923 89.4307C113.249 88.5279 113.575 87.569 113.794 86.6665C113.687 87.005 113.141 90.0512 109.662 90.0512C109.662 90.0512 111.673 90.4461 112.923 89.4307Z" fill="#595961"/>
<path opacity="0.62" fill-rule="evenodd" clip-rule="evenodd" d="M131.998 82.1539C131.564 81.1382 131.074 80.1792 130.585 79.1638C130.748 79.5023 132.38 82.7179 130.533 85.0307C130.533 85.0307 131.946 83.9027 131.998 82.1539Z" fill="#595961"/>
<path opacity="0.62" fill-rule="evenodd" clip-rule="evenodd" d="M129.013 77.077C128.141 76.3435 127.273 75.6666 126.401 75.0461C126.728 75.3281 129.61 77.4154 129.446 80.575C129.391 80.575 129.881 78.7132 129.013 77.077Z" fill="#595961"/>
<path opacity="0.62" fill-rule="evenodd" clip-rule="evenodd" d="M115.696 82.7171C116.349 82.0401 116.89 81.3067 117.487 80.5168C117.272 80.7424 115.477 83.0555 112.273 82.2092C112.273 82.2092 114.12 83.225 115.696 82.7171Z" fill="#595961"/>
<path opacity="0.62" fill-rule="evenodd" clip-rule="evenodd" d="M117.707 80.1224C118.467 79.5584 119.172 78.994 119.88 78.3735C119.609 78.543 117.38 80.4043 114.283 79.0505C114.283 79.0505 116.075 80.3479 117.707 80.1224Z" fill="#595961"/>
<path opacity="0.62" fill-rule="evenodd" clip-rule="evenodd" d="M120.64 78.2601C121.564 77.9781 122.436 77.6396 123.304 77.3012C122.977 77.4137 120.206 78.4292 117.488 76.2854C117.543 76.2854 118.956 77.9781 120.64 78.2601Z" fill="#595961"/>
<path opacity="0.62" fill-rule="evenodd" clip-rule="evenodd" d="M123.304 77.2457C124.064 77.3586 124.825 77.4151 125.585 77.4716C125.314 77.4151 122.922 77.2457 121.564 74.989C121.564 74.989 122.11 76.5123 123.304 77.2457Z" fill="#595961"/>
<path opacity="0.62" fill-rule="evenodd" clip-rule="evenodd" d="M126.456 78.4857C126.998 79.1065 127.598 79.727 128.247 80.291C128.032 80.0654 126.185 78.2037 126.619 75.8909C126.564 75.8909 125.967 77.1883 126.456 78.4857Z" fill="#595961"/>
<path opacity="0.74" fill-rule="evenodd" clip-rule="evenodd" d="M133.033 95.129C133.033 94.5082 132.436 80.2353 126.512 75.8917C125.37 75.0453 124.12 74.6504 122.814 74.6504C121.835 74.6504 120.804 74.8759 119.717 75.3273C114.988 77.1891 111.673 82.21 110.044 89.8822C108.794 95.6365 108.957 100.77 108.957 100.996C108.957 101.165 109.121 101.334 109.284 101.334H109.336C109.499 101.334 109.61 101.222 109.61 101.052C109.61 100.827 109.065 80.2353 119.988 75.8352C122.38 74.8759 124.446 75.0453 126.186 76.3427C131.835 80.4612 132.436 94.847 132.436 95.0161C132.436 95.1855 132.599 95.3545 132.762 95.3545C132.762 95.3545 132.762 95.3545 132.814 95.3545C132.925 95.411 133.033 95.298 133.033 95.129Z" fill="url(#paint0_linear_616_139491)"/>
<path fill-rule="evenodd" clip-rule="evenodd" d="M133.956 88.0777C132.706 81.9849 130.641 77.8664 127.762 75.7227C126.186 74.5947 124.498 74.0868 122.651 74.1997C124.12 74.3123 125.478 74.8202 126.728 75.7227C129.61 77.8103 131.676 81.9849 132.925 88.0777C133.793 92.3652 133.956 96.0883 133.956 96.2577C133.956 96.9347 133.63 97.4426 133.085 97.6116C133.196 97.6681 133.304 97.6681 133.359 97.6681C134.283 97.781 134.988 97.1602 134.936 96.2577C134.988 96.0883 134.824 92.4216 133.956 88.0777Z" fill="url(#paint1_linear_616_139491)"/>
<path fill-rule="evenodd" clip-rule="evenodd" d="M120.263 78.0921C110.045 82.2102 110.534 102.012 110.534 102.237C110.534 102.914 110.208 103.422 109.662 103.591C109.774 103.648 109.826 103.648 109.937 103.648C109.989 103.648 110.1 103.648 110.152 103.648C110.968 103.648 111.509 103.027 111.509 102.237C111.509 102.012 111.024 82.2667 121.238 78.1486C121.947 77.8666 122.599 77.6972 123.197 77.6407C122.325 77.4717 121.35 77.6407 120.263 78.0921Z" fill="url(#paint2_linear_616_139491)"/>
<path fill-rule="evenodd" clip-rule="evenodd" d="M135.748 82.9991L89.6634 97.7795C89.6634 97.7795 87.7088 98.3438 87.2192 98.9643C86.7296 99.5848 86.622 101.334 86.622 101.334L79.5005 158.312L132.977 168.693L137.109 82.9426C136.512 82.8297 135.911 82.9426 135.748 82.9991Z" fill="url(#paint3_linear_616_139491)"/>
<path fill-rule="evenodd" clip-rule="evenodd" d="M151.675 90.3336C151.675 90.3336 151.619 89.8821 151.348 89.7131C151.13 89.5437 150.859 89.5437 150.859 89.5437L143.304 88.9797L137.762 83.2818C137.543 83.1124 137.325 82.9998 137.054 82.9434L132.926 168.694L161.889 162.206L151.675 90.3336Z" fill="url(#paint4_linear_616_139491)"/>
<path fill-rule="evenodd" clip-rule="evenodd" d="M116.728 130.613C115.912 129.484 114.936 128.469 113.957 127.566C112.978 126.664 111.947 125.93 110.912 125.253C110.207 124.802 109.555 124.351 109.009 123.899C108.468 123.448 108.034 122.997 107.708 122.602C107.381 122.15 107.11 121.755 106.947 121.304C106.784 120.853 106.728 120.402 106.728 119.95C106.728 119.33 106.892 118.709 107.11 118.201C107.325 117.694 107.708 117.242 108.086 116.847C108.524 116.453 109.009 116.171 109.61 115.945C110.207 115.719 110.912 115.607 111.672 115.55C112.488 115.494 113.304 115.55 114.065 115.607C114.825 115.663 115.534 115.832 116.238 116.001C116.891 116.171 117.544 116.396 118.085 116.622C118.631 116.847 119.172 117.073 119.554 117.299L123.141 106.242C122.599 105.96 121.947 105.677 121.238 105.508C120.478 105.282 119.662 105.113 118.738 105C117.815 104.888 116.835 104.831 115.804 104.831C114.773 104.831 113.687 104.888 112.544 105.057C110.1 105.395 107.923 106.072 105.968 107.088C104.121 108.047 102.489 109.288 101.131 110.811C99.8258 112.278 98.7946 113.97 98.0343 115.889C97.3258 117.75 96.892 119.838 96.7844 122.094C96.7288 123.448 96.8363 124.689 97.1627 125.817C97.4335 126.946 97.8711 128.018 98.4682 129.033C99.0098 130.048 99.7182 130.951 100.479 131.797C101.239 132.644 102.162 133.434 103.086 134.167C103.846 134.731 104.499 135.295 105.044 135.803C105.586 136.311 106.024 136.818 106.346 137.383C106.673 137.89 106.891 138.398 107.055 138.962C107.218 139.47 107.274 140.034 107.218 140.598C107.218 141.162 107.055 141.726 106.836 142.178C106.621 142.629 106.346 143.08 105.912 143.419C105.534 143.757 105.045 143.983 104.499 144.096C103.958 144.208 103.305 144.265 102.597 144.152C101.784 144.039 100.968 143.814 100.208 143.475C99.4474 143.193 98.6835 142.798 97.9788 142.403C97.2741 142.009 96.6213 141.557 96.0761 141.162C95.4789 140.767 94.9893 140.316 94.6109 139.977L92.1628 148.383C92.5449 148.947 93.0865 149.455 93.6837 149.963C94.2845 150.471 94.9893 150.978 95.8053 151.486C96.6213 151.937 97.4892 152.388 98.4128 152.783C99.3363 153.178 100.371 153.517 101.402 153.799H101.458H101.51H101.565H101.621C103.846 154.307 105.968 154.42 107.978 154.138C110.044 153.855 111.947 153.122 113.575 151.994C115.259 150.809 116.62 149.229 117.651 147.142C118.686 145.055 119.283 142.516 119.391 139.639C119.447 137.834 119.228 136.254 118.738 134.787C118.249 133.095 117.544 131.797 116.728 130.613Z" fill="url(#paint5_linear_616_139491)"/>
<path opacity="0.226763" fill-rule="evenodd" clip-rule="evenodd" d="M92.5151 148.843C92.389 148.694 92.2702 148.541 92.1626 148.384L94.6107 139.978C94.6441 140.01 94.6811 140.042 94.7182 140.075C95.0817 140.4 95.5343 140.805 96.0758 141.163C96.6211 141.558 97.2739 142.009 97.9786 142.404C98.6833 142.799 99.4472 143.194 100.208 143.476C100.968 143.815 101.784 144.04 102.596 144.153C103.305 144.266 103.958 144.21 104.499 144.097C105.044 143.984 105.534 143.758 105.912 143.42C106.346 143.081 106.621 142.63 106.836 142.178C107.055 141.727 107.218 141.163 107.218 140.599C107.273 140.035 107.218 139.471 107.054 138.963C106.891 138.399 106.672 137.891 106.346 137.383C106.038 136.847 105.63 136.362 105.122 135.879C105.389 136.181 105.615 136.491 105.805 136.819C106.131 137.327 106.346 137.834 106.509 138.399C106.673 138.906 106.728 139.471 106.673 140.035C106.673 140.599 106.509 141.163 106.294 141.614C106.075 142.066 105.805 142.517 105.371 142.855C104.989 143.194 104.499 143.42 103.958 143.532C103.412 143.645 102.76 143.702 102.055 143.589C101.239 143.476 100.423 143.25 99.6624 142.912C98.902 142.63 98.1416 142.235 97.4332 141.84C96.7285 141.445 96.0758 140.994 95.5343 140.599C94.9891 140.241 94.5366 139.836 94.1731 139.511C94.136 139.478 94.1024 139.446 94.0653 139.414L91.6211 147.82C91.8622 148.179 92.1701 148.515 92.5151 148.843ZM100.523 131.849C100.319 131.648 100.122 131.443 99.9331 131.234C99.1728 130.388 98.4681 129.485 97.9229 128.47C97.3257 127.454 96.8917 126.382 96.621 125.254C96.2946 124.126 96.1832 122.885 96.2388 121.531C96.3464 119.274 96.7842 117.187 97.4889 115.325C98.2493 113.407 99.2842 111.715 100.586 110.248C101.947 108.725 103.575 107.483 105.422 106.525C107.381 105.509 109.554 104.832 111.999 104.494C113.141 104.324 114.228 104.268 115.259 104.268C116.294 104.268 117.273 104.324 118.196 104.437C119.12 104.55 119.936 104.719 120.696 104.945C121.401 105.114 122.054 105.396 122.599 105.678L122.514 105.942C122.121 105.771 121.69 105.617 121.238 105.509C120.478 105.284 119.662 105.114 118.738 105.001C117.814 104.889 116.835 104.832 115.804 104.832C114.773 104.832 113.686 104.889 112.544 105.058C110.1 105.396 107.922 106.073 105.968 107.089C104.121 108.048 102.489 109.289 101.131 110.812C99.8256 112.279 98.7944 113.971 98.034 115.889C97.3256 117.751 96.8917 119.838 96.7842 122.095C96.7285 123.449 96.8361 124.69 97.1625 125.818C97.4332 126.947 97.8708 128.019 98.468 129.034C99.0095 130.049 99.7179 130.952 100.478 131.798C100.493 131.815 100.508 131.832 100.523 131.849ZM107.904 122.834C108.201 123.169 108.572 123.535 109.009 123.9C109.554 124.351 110.207 124.803 110.912 125.254C111.947 125.931 112.978 126.665 113.957 127.567C114.243 127.83 114.525 128.102 114.806 128.384C114.354 127.897 113.883 127.437 113.412 127.003C112.436 126.1 111.402 125.367 110.37 124.69C109.662 124.239 109.009 123.787 108.468 123.336C108.264 123.168 108.078 122.999 107.904 122.834Z" fill="black"/>
<path opacity="0.41" fill-rule="evenodd" clip-rule="evenodd" d="M145.15 152.728L143.303 88.9798L142.976 88.6414L143.848 151.826C143.848 151.826 136.185 163.898 135.043 163.56C133.359 163.052 138.358 83.9025 138.358 83.9025L137.813 83.3385C137.598 83.1691 137.324 83.0565 137.108 83L133.032 167.565L132.977 168.75L134.39 166.888L145.15 152.728Z" fill="url(#paint6_linear_616_139491)"/>
<path fill-rule="evenodd" clip-rule="evenodd" d="M124.334 86.6667C123.685 89.3179 122.87 91.8002 122.272 93.3235C121.89 94.2263 122.324 95.0723 123.14 95.1852C124.012 95.2982 124.987 94.6773 125.314 93.7749C125.369 93.6055 126.834 89.9388 127.762 85.5948V85.5383L124.334 86.6667Z" fill="url(#paint7_linear_616_139491)"/>
<path fill-rule="evenodd" clip-rule="evenodd" d="M99.8256 94.5646C99.0652 96.257 98.3048 97.7238 97.7596 98.7392C97.2737 99.5855 97.5444 100.488 98.3604 100.714C99.1727 100.996 100.259 100.488 100.749 99.6416C100.805 99.5291 102.381 96.7648 103.794 93.2668L99.8256 94.5646Z" fill="url(#paint8_linear_616_139491)"/>
<path opacity="0.32" fill-rule="evenodd" clip-rule="evenodd" d="M132.977 168.693L145.15 152.727L162 162.205L132.977 168.693Z" fill="url(#paint9_linear_616_139491)"/>
<path opacity="0.19" fill-rule="evenodd" clip-rule="evenodd" d="M132.977 168.693L145.042 152.727L162 162.205L132.977 168.693Z" fill="url(#paint10_linear_616_139491)"/>
<path opacity="0.19" fill-rule="evenodd" clip-rule="evenodd" d="M132.977 168.693L145.042 152.727L162 162.205L132.977 168.693Z" fill="url(#paint11_linear_616_139491)"/>
<path opacity="0.6" fill-rule="evenodd" clip-rule="evenodd" d="M121.131 124.014C127.436 132.871 131.675 142.461 133.793 151.769L137.109 82.8873C136.512 82.7747 135.911 82.8873 135.748 82.9437L89.6632 97.781C89.6632 97.781 89.2291 97.8936 88.6838 98.1194C100.371 102.294 112.055 111.264 121.131 124.014Z" fill="url(#paint12_linear_616_139491)"/>
<path fill-rule="evenodd" clip-rule="evenodd" d="M151.4 89.7696C151.674 89.9955 151.674 90.3339 151.674 90.3339L161.781 162.149L145.15 152.672L143.303 88.9236L150.751 89.4876C150.803 89.544 151.129 89.544 151.4 89.7696Z" fill="url(#paint13_linear_616_139491)"/>
<path fill-rule="evenodd" clip-rule="evenodd" d="M150.206 89.9391C150.206 89.9391 150.532 89.9391 150.803 90.2211C151.074 90.447 151.129 90.7854 151.129 90.7854L161.077 161.811L161.837 162.263L151.726 90.3905C151.726 90.3905 151.674 90.052 151.456 89.8265C151.185 89.6006 150.803 89.6006 150.803 89.6006L143.359 89.0366L150.206 89.9391Z" fill="url(#paint14_linear_616_139491)"/>
<path fill-rule="evenodd" clip-rule="evenodd" d="M79.5005 158.312L132.977 168.692L135.589 109.908L86.1507 111.314L79.5005 158.312Z" fill="url(#paint15_linear_616_139491)"/>
<path opacity="0.3" fill-rule="evenodd" clip-rule="evenodd" d="M97.0543 98.6018C96.5684 99.973 97.0468 101.414 98.1299 101.82C99.2092 102.227 100.478 101.445 100.967 100.074C101.453 98.7033 100.971 97.2623 99.8918 96.8559C98.8125 96.4492 97.5402 97.2309 97.0543 98.6018Z" fill="white"/>
<path opacity="0.89" fill-rule="evenodd" clip-rule="evenodd" d="M96.9954 97.951C96.5095 99.3219 96.9916 100.763 98.0709 101.169C99.1503 101.576 100.423 100.794 100.908 99.4234C101.394 98.0522 100.916 96.6112 99.8329 96.2048C98.7535 95.798 97.485 96.5798 96.9954 97.951Z" fill="black"/>
<path fill-rule="evenodd" clip-rule="evenodd" d="M143.358 88.9797L137.813 83.2818C137.598 83.1124 137.324 82.9998 137.108 82.9434L132.977 168.694L145.205 152.671L143.358 88.9797Z" fill="url(#paint16_linear_616_139491)"/>
<path fill-rule="evenodd" clip-rule="evenodd" d="M135.748 83.0006L89.6628 97.781C89.6628 97.781 87.7082 98.3454 87.2186 98.9658C87.163 99.0223 87.1628 99.0788 87.1108 99.1352L133.574 85.8213C133.956 85.7083 134.88 85.3699 134.772 88.1341L131.946 168.581L132.925 168.751L137.053 83.0006C136.512 82.8312 135.911 82.9441 135.748 83.0006Z" fill="url(#paint17_linear_616_139491)"/>
<path fill-rule="evenodd" clip-rule="evenodd" d="M135.748 83.0006L89.6628 97.781C89.6628 97.781 87.7082 98.3454 87.2186 98.9658C87.163 99.0223 87.1628 99.0788 87.1108 99.1352L97.8708 96.0322L134.88 84.129C135.043 84.0725 135.64 83.9595 136.237 84.0725L132.161 168.581L132.925 168.751L137.053 83.0006C136.512 82.8312 135.911 82.9441 135.748 83.0006Z" fill="url(#paint18_linear_616_139491)"/>
<path opacity="0.32" fill-rule="evenodd" clip-rule="evenodd" d="M147.599 154.082L145.151 152.671L132.926 168.693L133.575 168.524C133.575 168.524 144.338 154.138 145.314 153.687C146.022 153.405 147.599 154.082 147.599 154.082Z" fill="url(#paint19_linear_616_139491)"/>
<path opacity="0.57" fill-rule="evenodd" clip-rule="evenodd" d="M132.977 168.693L145.205 152.671C145.15 152.728 137.435 161.472 132.977 168.693Z" fill="url(#paint20_linear_616_139491)"/>
<path opacity="0.46" fill-rule="evenodd" clip-rule="evenodd" d="M162 162.205L145.205 152.727C145.15 152.727 147.108 153.066 162 162.205Z" fill="url(#paint21_linear_616_139491)"/>
<path opacity="0.3" fill-rule="evenodd" clip-rule="evenodd" d="M121.901 92.9769C121.412 94.3481 121.894 95.7891 122.973 96.1958C124.056 96.6026 125.325 95.8208 125.811 94.45C126.3 93.0788 125.818 91.6378 124.739 91.231C123.659 90.8246 122.387 91.606 121.901 92.9769Z" fill="white"/>
<path opacity="0.89" fill-rule="evenodd" clip-rule="evenodd" d="M121.843 92.3288C121.357 93.7 121.839 95.141 122.919 95.5478C123.998 95.9541 125.27 95.1728 125.756 93.8015C126.242 92.4307 125.763 90.9897 124.684 90.583C123.601 90.1762 122.333 90.958 121.843 92.3288Z" fill="black"/>
<path fill-rule="evenodd" clip-rule="evenodd" d="M98.9577 100.714C98.9021 100.714 98.7944 100.714 98.7388 100.714C97.8709 100.601 97.2738 99.7549 97.3814 98.796C97.489 97.8932 100.586 76.7941 113.304 71.9991C116.509 70.8142 119.227 71.0398 121.293 72.789C123.793 74.8762 125.151 79.0508 125.37 85.1436C125.533 89.4311 125.043 93.1542 125.043 93.3237C124.936 94.2261 124.12 94.9034 123.248 94.734C122.38 94.6211 121.727 93.7751 121.891 92.8723C122.38 89.0362 122.922 78.4868 119.283 75.4402C118.141 74.4813 116.565 74.3683 114.447 75.1582C103.524 79.2763 100.642 99.078 100.642 99.247C100.423 100.093 99.7737 100.714 98.9577 100.714Z" fill="#595961"/>
<path opacity="0.46" fill-rule="evenodd" clip-rule="evenodd" d="M120.641 72.9013C118.738 71.3219 116.238 71.0964 113.249 72.1683C108.086 74.1426 103.739 79.3326 100.749 87.1742C98.5239 92.985 97.76 98.2314 97.76 98.4573C97.7081 98.7393 97.8157 99.0213 97.9789 99.2472C98.1421 99.4727 98.3608 99.6422 98.6316 99.6422C98.6835 99.6422 98.7391 99.6422 98.7948 99.6422C99.2844 99.6422 99.7182 99.2472 99.7739 98.7393C99.8258 98.5138 102.708 78.3737 113.957 74.1426C116.238 73.2963 118.085 73.4092 119.391 74.5376C123.248 77.7532 122.707 88.641 122.217 92.5336C122.162 93.098 122.544 93.6619 123.085 93.7184C123.631 93.7749 124.172 93.3799 124.228 92.816C124.283 92.1951 126.186 77.5277 120.641 72.9013Z" fill="#B2B2C2"/>
<path opacity="0.81" fill-rule="evenodd" clip-rule="evenodd" d="M98.7389 99.0221C98.6833 99.0221 98.6833 99.0221 98.6314 99.0221C98.305 98.9656 98.0861 98.6271 98.1417 98.2886C98.1973 98.0628 98.9022 92.9293 101.131 87.1185C104.121 79.3898 108.36 74.2559 113.412 72.3377C116.294 71.2658 118.63 71.4917 120.422 72.9586C125.748 77.4151 123.901 91.8574 123.793 92.4779C123.738 92.8163 123.467 93.0418 123.085 92.9857C122.762 92.9293 122.544 92.6473 122.544 92.2523C122.544 92.0829 124.391 77.923 119.61 73.861C118.197 72.7891 116.238 72.6765 113.85 73.579C102.381 77.923 99.3918 98.2886 99.3918 98.5142C99.3361 98.7962 99.0653 99.0221 98.7389 99.0221Z" fill="#B2B2C2"/>
<path opacity="0.42" fill-rule="evenodd" clip-rule="evenodd" d="M105.912 82.8868C106.509 82.0408 107.054 81.1945 107.596 80.292C107.38 80.574 105.804 83.5076 102.544 83.0562C102.488 83.0562 104.391 83.6767 105.912 82.8868Z" fill="#595961"/>
<path opacity="0.42" fill-rule="evenodd" clip-rule="evenodd" d="M104.065 86.4966C104.554 85.5938 105.044 84.6349 105.422 83.7324C105.259 84.0709 104.172 87.1171 100.749 87.1171C100.749 87.1171 102.651 87.512 104.065 86.4966Z" fill="#595961"/>
<path opacity="0.42" fill-rule="evenodd" clip-rule="evenodd" d="M102.652 90.2214C103.086 89.2621 103.412 88.3032 103.739 87.3442C103.576 87.6827 102.978 90.7854 99.3918 91.1803C99.3918 91.1239 101.346 91.3497 102.652 90.2214Z" fill="#595961"/>
<path opacity="0.62" fill-rule="evenodd" clip-rule="evenodd" d="M124.39 79.2196C124.119 78.2038 123.848 77.2449 123.466 76.2295C123.574 76.568 124.661 79.7836 122.435 82.0964C122.435 82.0964 124.063 80.9684 124.39 79.2196Z" fill="#595961"/>
<path opacity="0.62" fill-rule="evenodd" clip-rule="evenodd" d="M122.272 74.1421C121.512 73.4087 120.748 72.7318 119.988 72.1113C120.262 72.3933 122.814 74.4806 122.109 77.6398C122.054 77.6398 122.87 75.778 122.272 74.1421Z" fill="#595961"/>
<path opacity="0.62" fill-rule="evenodd" clip-rule="evenodd" d="M124.935 84.4102C124.88 83.3948 124.716 82.3229 124.553 81.3071C124.553 81.7021 125.098 85.0306 122.487 86.8359C122.487 86.8359 124.282 86.046 124.935 84.4102Z" fill="#595961"/>
<path opacity="0.62" fill-rule="evenodd" clip-rule="evenodd" d="M125.206 89.7133C125.262 88.6979 125.262 87.626 125.206 86.6106C125.206 87.0055 125.262 90.3341 122.487 91.857C122.487 91.8009 124.39 91.2366 125.206 89.7133Z" fill="#595961"/>
<path opacity="0.42" fill-rule="evenodd" clip-rule="evenodd" d="M101.401 94.3385C101.728 93.3231 101.947 92.3077 102.162 91.3484C102.054 91.6869 101.565 94.9025 98.2488 95.6924C98.3044 95.6924 100.259 95.6359 101.401 94.3385Z" fill="#595961"/>
<path opacity="0.42" fill-rule="evenodd" clip-rule="evenodd" d="M107.978 79.7827C108.739 79.1058 109.447 78.3724 110.1 77.5825C109.825 77.808 107.652 80.1212 104.61 79.2749C104.662 79.2749 106.346 80.2906 107.978 79.7827Z" fill="#595961"/>
<path opacity="0.42" fill-rule="evenodd" clip-rule="evenodd" d="M110.422 77.1895C111.293 76.6255 112.109 76.0611 112.922 75.4407C112.599 75.6101 110.099 77.4715 107.217 76.1176C107.217 76.1176 108.738 77.415 110.422 77.1895Z" fill="#595961"/>
<path opacity="0.62" fill-rule="evenodd" clip-rule="evenodd" d="M113.739 75.328C114.718 75.0456 115.641 74.7071 116.565 74.3687C116.238 74.4816 113.305 75.497 110.912 73.3533C110.912 73.3533 112.055 75.0456 113.739 75.328Z" fill="#595961"/>
<path opacity="0.62" fill-rule="evenodd" clip-rule="evenodd" d="M116.508 74.3121C117.272 74.4251 118.033 74.4815 118.793 74.538C118.522 74.4815 116.185 74.3121 115.15 72.0554C115.206 72.0554 115.477 73.5787 116.508 74.3121Z" fill="#595961"/>
<path opacity="0.62" fill-rule="evenodd" clip-rule="evenodd" d="M119.446 75.5527C119.935 76.1731 120.421 76.7936 120.911 77.358C120.748 77.1321 119.227 75.2707 119.987 72.9575C120.043 72.9575 119.227 74.2553 119.446 75.5527Z" fill="#595961"/>
<path fill-rule="evenodd" clip-rule="evenodd" d="M123.195 92.195C123.247 91.5746 125.098 77.3017 119.935 72.9577C118.956 72.1117 117.762 71.7168 116.456 71.7168C115.477 71.7168 114.39 71.9423 113.248 72.3937C108.248 74.2555 104.064 79.2764 101.13 86.9486C98.9011 92.7029 98.1963 97.8368 98.1406 98.0623C98.1406 98.2313 98.2484 98.4008 98.4116 98.4008H98.4671C98.6303 98.4008 98.7378 98.2878 98.7378 98.1188C98.7935 97.8929 101.727 77.3017 113.411 72.9013C115.911 71.9423 118.032 72.1117 119.553 73.4091C124.497 77.5272 122.65 91.913 122.598 92.0825C122.598 92.2515 122.706 92.4209 122.869 92.4209C122.869 92.4209 122.869 92.4209 122.921 92.4209C123.084 92.4774 123.195 92.3645 123.195 92.195Z" fill="url(#paint22_linear_616_139491)"/>
<path fill-rule="evenodd" clip-rule="evenodd" d="M125.369 85.1436C125.15 79.0508 123.793 74.9323 121.293 72.7886C119.935 71.6606 118.303 71.1527 116.456 71.2657C117.869 71.3782 119.171 71.8861 120.262 72.7886C122.762 74.8762 124.119 79.0508 124.334 85.1436C124.497 89.4311 124.012 93.1542 124.012 93.3237C123.9 94.0006 123.466 94.5085 122.921 94.6775C123.032 94.734 123.084 94.734 123.195 94.734C124.063 94.8469 124.879 94.2261 124.987 93.3237C125.043 93.1542 125.532 89.4876 125.369 85.1436Z" fill="url(#paint23_linear_616_139491)"/>
<path fill-rule="evenodd" clip-rule="evenodd" d="M113.36 75.1579C102.437 79.276 99.5554 99.0776 99.5554 99.3032C99.4478 99.9801 99.01 100.488 98.4685 100.657C98.5761 100.714 98.6317 100.714 98.7393 100.714C98.7949 100.714 98.9025 100.714 98.9582 100.714C99.7742 100.714 100.423 100.093 100.534 99.3032C100.586 99.0776 103.413 79.3325 114.336 75.214C115.1 74.932 115.749 74.7629 116.35 74.7065C115.534 74.5935 114.499 74.7629 113.36 75.1579Z" fill="url(#paint24_linear_616_139491)"/>
<defs>
<linearGradient id="paint0_linear_616_139491" x1="111.791" y1="74.7777" x2="110.087" y2="97.9834" gradientUnits="userSpaceOnUse">
<stop stop-color="white" stop-opacity="0.65"/>
<stop offset="1" stop-color="white" stop-opacity="0.01"/>
</linearGradient>
<linearGradient id="paint1_linear_616_139491" x1="124.246" y1="88.0607" x2="136.246" y2="98.5712" gradientUnits="userSpaceOnUse">
<stop stop-opacity="0.01"/>
<stop offset="1" stop-opacity="0.4"/>
</linearGradient>
<linearGradient id="paint2_linear_616_139491" x1="119.436" y1="100.22" x2="132.137" y2="88.3887" gradientUnits="userSpaceOnUse">
<stop stop-opacity="0.01"/>
<stop offset="1" stop-opacity="0.4"/>
</linearGradient>
<linearGradient id="paint3_linear_616_139491" x1="103.268" y1="65.6937" x2="53.9337" y2="122.538" gradientUnits="userSpaceOnUse">
<stop stop-color="#B8D26E"/>
<stop offset="1" stop-color="#7FB525"/>
</linearGradient>
<linearGradient id="paint4_linear_616_139491" x1="170.754" y1="79.9256" x2="143.678" y2="80.4284" gradientUnits="userSpaceOnUse">
<stop stop-color="#B4E034"/>
<stop offset="1" stop-color="#60A927"/>
</linearGradient>
<linearGradient id="paint5_linear_616_139491" x1="90.2193" y1="117.829" x2="68.0208" y2="171.886" gradientUnits="userSpaceOnUse">
<stop stop-color="white"/>
<stop offset="1" stop-color="#CECEEB"/>
</linearGradient>
<linearGradient id="paint6_linear_616_139491" x1="122.046" y1="250.957" x2="157.204" y2="250.885" gradientUnits="userSpaceOnUse">
<stop stop-color="#1D1D1B" stop-opacity="0.5"/>
<stop offset="0.038033" stop-color="#1D1D1B" stop-opacity="0.4837"/>
<stop offset="0.4243" stop-color="#1D1D1B" stop-opacity="0.3185"/>
<stop offset="1" stop-color="#1D1D1B" stop-opacity="0.01"/>
</linearGradient>
<linearGradient id="paint7_linear_616_139491" x1="126.13" y1="81.7521" x2="120.297" y2="84.8912" gradientUnits="userSpaceOnUse">
<stop stop-opacity="0.01"/>
<stop offset="1" stop-opacity="0.4"/>
</linearGradient>
<linearGradient id="paint8_linear_616_139491" x1="101.676" y1="91.0629" x2="97.5763" y2="94.5866" gradientUnits="userSpaceOnUse">
<stop stop-opacity="0.01"/>
<stop offset="1" stop-opacity="0.4"/>
</linearGradient>
<linearGradient id="paint9_linear_616_139491" x1="141.671" y1="162.247" x2="142.086" y2="167.719" gradientUnits="userSpaceOnUse">
<stop stop-opacity="0.01"/>
<stop offset="1" stop-opacity="0.4"/>
</linearGradient>
<linearGradient id="paint10_linear_616_139491" x1="131.979" y1="154.237" x2="132.941" y2="168.463" gradientUnits="userSpaceOnUse">
<stop stop-color="white" stop-opacity="0.5"/>
<stop offset="0.0896271" stop-color="white" stop-opacity="0.4552"/>
<stop offset="1" stop-color="white" stop-opacity="0.01"/>
</linearGradient>
<linearGradient id="paint11_linear_616_139491" x1="130.128" y1="156.449" x2="131.84" y2="171.646" gradientUnits="userSpaceOnUse">
<stop stop-opacity="0.01"/>
<stop offset="1" stop-opacity="0.4"/>
</linearGradient>
<linearGradient id="paint12_linear_616_139491" x1="123.412" y1="69.0149" x2="79.507" y2="94.4076" gradientUnits="userSpaceOnUse">
<stop stop-color="white" stop-opacity="0.5"/>
<stop offset="1" stop-color="white" stop-opacity="0.01"/>
</linearGradient>
<linearGradient id="paint13_linear_616_139491" x1="131.883" y1="201.726" x2="170.635" y2="201.804" gradientUnits="userSpaceOnUse">
<stop stop-color="#1D1D1B" stop-opacity="0.5"/>
<stop offset="0.0896271" stop-color="#1D1D1B" stop-opacity="0.4552"/>
<stop offset="1" stop-color="#1D1D1B" stop-opacity="0.01"/>
</linearGradient>
<linearGradient id="paint14_linear_616_139491" x1="159.634" y1="86.8988" x2="154.129" y2="88.2476" gradientUnits="userSpaceOnUse">
<stop stop-color="white" stop-opacity="0.4"/>
<stop offset="1" stop-color="white" stop-opacity="0.01"/>
</linearGradient>
<linearGradient id="paint15_linear_616_139491" x1="110.245" y1="169.32" x2="113.107" y2="155.52" gradientUnits="userSpaceOnUse">
<stop stop-color="#1D1D1B" stop-opacity="0.5"/>
<stop offset="0.0896271" stop-color="#1D1D1B" stop-opacity="0.4552"/>
<stop offset="1" stop-color="#1D1D1B" stop-opacity="0.01"/>
</linearGradient>
<linearGradient id="paint16_linear_616_139491" x1="126.794" y1="249.2" x2="162.078" y2="249.23" gradientUnits="userSpaceOnUse">
<stop stop-color="#1D1D1B" stop-opacity="0.5"/>
<stop offset="1" stop-color="#1D1D1B" stop-opacity="0.01"/>
</linearGradient>
<linearGradient id="paint17_linear_616_139491" x1="94.5512" y1="78.0292" x2="77.4385" y2="143.776" gradientUnits="userSpaceOnUse">
<stop stop-color="white" stop-opacity="0.5"/>
<stop offset="1" stop-color="white" stop-opacity="0.01"/>
</linearGradient>
<linearGradient id="paint18_linear_616_139491" x1="94.5512" y1="78.0292" x2="77.4385" y2="143.776" gradientUnits="userSpaceOnUse">
<stop stop-color="white" stop-opacity="0.5"/>
<stop offset="1" stop-color="white" stop-opacity="0.01"/>
</linearGradient>
<linearGradient id="paint19_linear_616_139491" x1="136.082" y1="146.948" x2="122.556" y2="165.565" gradientUnits="userSpaceOnUse">
<stop stop-color="white" stop-opacity="0.5"/>
<stop offset="0.0896271" stop-color="white" stop-opacity="0.4552"/>
<stop offset="1" stop-color="white" stop-opacity="0.01"/>
</linearGradient>
<linearGradient id="paint20_linear_616_139491" x1="140.161" y1="151.228" x2="138.822" y2="154.23" gradientUnits="userSpaceOnUse">
<stop stop-opacity="0.01"/>
<stop offset="1" stop-opacity="0.4"/>
</linearGradient>
<linearGradient id="paint21_linear_616_139491" x1="153.443" y1="155.197" x2="153.377" y2="156.004" gradientUnits="userSpaceOnUse">
<stop stop-opacity="0.01"/>
<stop offset="1" stop-opacity="0.4"/>
</linearGradient>
<linearGradient id="paint22_linear_616_139491" x1="104.735" y1="69.8178" x2="98.8879" y2="92.9177" gradientUnits="userSpaceOnUse">
<stop stop-color="white" stop-opacity="0.65"/>
<stop offset="1" stop-color="white" stop-opacity="0.01"/>
</linearGradient>
<linearGradient id="paint23_linear_616_139491" x1="117.821" y1="83.1434" x2="127.993" y2="93.4848" gradientUnits="userSpaceOnUse">
<stop stop-opacity="0.01"/>
<stop offset="1" stop-opacity="0.4"/>
</linearGradient>
<linearGradient id="paint24_linear_616_139491" x1="111.32" y1="98.3719" x2="125.374" y2="83.9387" gradientUnits="userSpaceOnUse">
<stop stop-opacity="0.01"/>
<stop offset="1" stop-opacity="0.4"/>
</linearGradient>
</defs>
</svg>
