<svg width="241" height="240" viewBox="0 0 241 240" fill="none" xmlns="http://www.w3.org/2000/svg">
<rect x="0.75" width="240" height="240" rx="120" fill="#F4EBFF"/>
<path d="M69.8639 134.411C68.4755 134.411 67.2382 134.17 66.152 133.688C65.0658 133.197 64.2063 132.475 63.5735 131.521C62.9501 130.557 62.6384 129.358 62.6384 127.922C62.6384 126.713 62.8604 125.698 63.3043 124.876C63.7482 124.054 64.3527 123.393 65.1178 122.893C65.8828 122.392 66.7518 122.014 67.7246 121.759C68.7069 121.504 69.7364 121.325 70.8132 121.221C72.0788 121.089 73.0989 120.966 73.8734 120.852C74.6479 120.73 75.2099 120.55 75.5593 120.314C75.9088 120.078 76.0835 119.728 76.0835 119.266V119.181C76.0835 118.283 75.8002 117.589 75.2335 117.098C74.6762 116.607 73.8828 116.361 72.8533 116.361C71.7671 116.361 70.9029 116.602 70.2606 117.084C69.6184 117.556 69.1933 118.151 68.9855 118.869L63.4035 118.416C63.6868 117.093 64.2441 115.95 65.0753 114.987C65.9064 114.014 66.9785 113.268 68.2913 112.749C69.6136 112.22 71.1437 111.955 72.8816 111.955C74.0906 111.955 75.2476 112.097 76.3527 112.38C77.4672 112.664 78.4543 113.103 79.3138 113.698C80.1827 114.293 80.8675 115.058 81.3681 115.993C81.8687 116.919 82.119 118.028 82.119 119.322V134H76.3952V130.982H76.2252C75.8757 131.662 75.4082 132.262 74.8226 132.782C74.237 133.292 73.5334 133.693 72.7116 133.986C71.8899 134.269 70.9407 134.411 69.8639 134.411ZM71.5924 130.246C72.4802 130.246 73.2642 130.071 73.9442 129.721C74.6243 129.362 75.1579 128.881 75.5452 128.276C75.9324 127.672 76.126 126.987 76.126 126.222V123.913C75.9371 124.035 75.6774 124.149 75.3468 124.253C75.0257 124.347 74.662 124.437 74.2559 124.522C73.8498 124.597 73.4436 124.668 73.0375 124.734C72.6313 124.791 72.263 124.843 71.9324 124.89C71.224 124.994 70.6054 125.159 70.0764 125.386C69.5475 125.613 69.1367 125.92 68.8439 126.307C68.5511 126.685 68.4047 127.157 68.4047 127.724C68.4047 128.545 68.7022 129.174 69.2972 129.608C69.9017 130.033 70.6668 130.246 71.5924 130.246ZM98.3763 112.238V116.772H85.2713V112.238H98.3763ZM88.2465 107.025H94.2819V127.313C94.2819 127.87 94.3669 128.305 94.5369 128.616C94.7069 128.919 94.943 129.131 95.2453 129.254C95.557 129.377 95.9159 129.438 96.322 129.438C96.6054 129.438 96.8887 129.414 97.1721 129.367C97.4554 129.311 97.6727 129.268 97.8238 129.24L98.773 133.731C98.4708 133.825 98.0458 133.934 97.4979 134.057C96.9501 134.189 96.2842 134.269 95.5003 134.298C94.0458 134.354 92.7707 134.161 91.675 133.717C90.5888 133.273 89.7435 132.583 89.139 131.648C88.5345 130.713 88.237 129.532 88.2465 128.106V107.025ZM113.883 112.238V116.772H100.778V112.238H113.883ZM103.753 107.025H109.788V127.313C109.788 127.87 109.873 128.305 110.043 128.616C110.213 128.919 110.45 129.131 110.752 129.254C111.063 129.377 111.422 129.438 111.829 129.438C112.112 129.438 112.395 129.414 112.679 129.367C112.962 129.311 113.179 129.268 113.33 129.24L114.28 133.731C113.977 133.825 113.552 133.934 113.004 134.057C112.457 134.189 111.791 134.269 111.007 134.298C109.552 134.354 108.277 134.161 107.182 133.717C106.095 133.273 105.25 132.583 104.646 131.648C104.041 130.713 103.744 129.532 103.753 128.106V107.025ZM117.814 134V112.238H123.666V116.035H123.892C124.289 114.685 124.955 113.665 125.89 112.975C126.825 112.276 127.902 111.927 129.12 111.927C129.422 111.927 129.748 111.946 130.098 111.983C130.447 112.021 130.754 112.073 131.019 112.139V117.495C130.735 117.41 130.343 117.334 129.843 117.268C129.342 117.202 128.884 117.169 128.468 117.169C127.581 117.169 126.787 117.362 126.088 117.75C125.399 118.128 124.851 118.656 124.445 119.336C124.048 120.017 123.85 120.8 123.85 121.688V134H117.814ZM157.629 134V104.985H163.664V115.894H163.849C164.113 115.308 164.496 114.713 164.996 114.109C165.506 113.495 166.167 112.985 166.98 112.579C167.801 112.163 168.821 111.955 170.04 111.955C171.627 111.955 173.091 112.371 174.432 113.202C175.773 114.024 176.845 115.266 177.648 116.928C178.451 118.581 178.852 120.654 178.852 123.148C178.852 125.575 178.46 127.625 177.676 129.296C176.902 130.959 175.844 132.22 174.503 133.079C173.171 133.929 171.679 134.354 170.026 134.354C168.854 134.354 167.858 134.161 167.036 133.773C166.224 133.386 165.558 132.9 165.039 132.314C164.519 131.719 164.122 131.119 163.849 130.515H163.579V134H157.629ZM163.537 123.119C163.537 124.413 163.716 125.542 164.075 126.505C164.434 127.469 164.954 128.22 165.634 128.758C166.314 129.287 167.14 129.551 168.113 129.551C169.095 129.551 169.927 129.282 170.607 128.744C171.287 128.196 171.801 127.44 172.151 126.477C172.51 125.504 172.689 124.385 172.689 123.119C172.689 121.863 172.514 120.758 172.165 119.804C171.816 118.85 171.301 118.104 170.621 117.566C169.941 117.027 169.105 116.758 168.113 116.758C167.131 116.758 166.3 117.018 165.62 117.537C164.949 118.057 164.434 118.793 164.075 119.747C163.716 120.701 163.537 121.825 163.537 123.119Z" fill="black"/>
<path d="M137.865 142.161C137.1 142.161 136.382 142.099 135.712 141.976C135.05 141.863 134.503 141.717 134.068 141.537L135.428 137.032C136.137 137.249 136.774 137.367 137.341 137.386C137.917 137.405 138.413 137.273 138.829 136.989C139.254 136.706 139.598 136.224 139.863 135.544L140.217 134.623L132.411 112.238H138.758L143.263 128.22H143.49L148.037 112.238H154.427L145.969 136.352C145.563 137.523 145.01 138.543 144.311 139.412C143.622 140.29 142.748 140.966 141.69 141.438C140.633 141.92 139.357 142.161 137.865 142.161Z" fill="#6E40FF"/>
</svg>
