<svg width="18" height="18" viewBox="0 0 18 18" fill="none" xmlns="http://www.w3.org/2000/svg">
<g clip-path="url(#clip0_110_6715)">
<path d="M11.8421 1.12815C11.8421 0.504456 11.3411 0 10.7171 0H1.125C0.827423 -2.45557e-06 0.541963 0.118709 0.331115 0.330147C0.120267 0.541585 0.00120919 0.828524 4.41339e-06 1.12815V14.9227C-0.000521527 15.1114 0.0459674 15.2972 0.135216 15.4632C0.224464 15.6291 0.353621 15.7698 0.510863 15.8725C0.668106 15.9751 0.848411 16.0364 1.03527 16.0508C1.22214 16.0651 1.40959 16.0321 1.58047 15.9546L6.22622 13.8771L11.1726 11.6621C11.5825 11.4787 11.8421 11.0797 11.8421 10.6303V1.12815Z" fill="url(#paint0_linear_110_6715)"/>
<path fill-rule="evenodd" clip-rule="evenodd" d="M1.42108 2.75676C1.42108 2.57764 1.58555 2.43243 1.78843 2.43243H10.0537C10.2566 2.43243 10.4211 2.57764 10.4211 2.75676C10.4211 2.93588 10.2566 3.08108 10.0537 3.08108H1.78843C1.58555 3.08108 1.42108 2.93588 1.42108 2.75676Z" fill="white" fill-opacity="0.4"/>
<path fill-rule="evenodd" clip-rule="evenodd" d="M1.42108 4.05406C1.42108 3.87494 1.58555 3.72973 1.78843 3.72973H4.54627C4.74915 3.72973 4.91362 3.87494 4.91362 4.05406C4.91362 4.23318 4.74915 4.37838 4.54627 4.37838H1.78843C1.58555 4.37838 1.42108 4.23318 1.42108 4.05406Z" fill="white" fill-opacity="0.4"/>
<path fill-rule="evenodd" clip-rule="evenodd" d="M15.9209 13.9528C15.8879 13.7663 15.9102 13.5739 15.9847 13.4005C16.0556 13.2304 16.1735 13.0854 16.3237 12.9833C16.4739 12.8811 16.6499 12.8263 16.83 12.8256H16.8804C17.1773 12.8256 17.4621 12.7044 17.6721 12.4888C17.882 12.2731 18 11.9806 18 11.6757C18 11.3707 17.882 11.0782 17.6721 10.8626C17.4621 10.6469 17.1773 10.5258 16.8804 10.5258H16.7852C16.6051 10.5251 16.4291 10.4702 16.2789 10.3681C16.1287 10.2659 16.0109 10.1209 15.9399 9.95086V9.90486C15.8654 9.73145 15.8432 9.53909 15.8761 9.35258C15.909 9.16608 15.9956 8.99398 16.1246 8.85847L16.1582 8.82398C16.2623 8.71719 16.3449 8.59037 16.4012 8.45077C16.4576 8.31118 16.4866 8.16155 16.4866 8.01044C16.4866 7.85933 16.4576 7.7097 16.4012 7.57011C16.3449 7.43051 16.2623 7.30369 16.1582 7.1969C16.0542 7.08999 15.9308 7.00518 15.7948 6.94731C15.6589 6.88944 15.5132 6.85966 15.3661 6.85966C15.219 6.85966 15.0733 6.88944 14.9373 6.94731C14.8014 7.00518 14.6779 7.08999 14.574 7.1969L14.5404 7.2314C14.4084 7.36394 14.2409 7.45286 14.0593 7.48667C13.8777 7.52049 13.6904 7.49766 13.5215 7.42113C13.356 7.34825 13.2147 7.22723 13.1153 7.07298C13.0158 6.91873 12.9624 6.73798 12.9617 6.55297V6.50123C12.9617 6.19626 12.8438 5.90378 12.6338 5.68814C12.4238 5.4725 12.139 5.35135 11.8421 5.35135C11.5452 5.35135 11.2604 5.4725 11.0504 5.68814C10.8404 5.90378 10.7225 6.19626 10.7225 6.50123V6.59897C10.7218 6.78397 10.6684 6.96473 10.5689 7.11898C10.4695 7.27323 10.3282 7.39424 10.1627 7.46712H10.1179C9.94904 7.54366 9.76174 7.56649 9.58014 7.53267C9.39854 7.49885 9.23097 7.40994 9.09904 7.27739L9.06545 7.2429C8.96147 7.13599 8.83799 7.05117 8.70207 6.9933C8.56615 6.93544 8.42045 6.90565 8.27332 6.90565C8.12618 6.90565 7.98049 6.93544 7.84457 6.9933C7.70865 7.05117 7.58517 7.13599 7.48119 7.2429C7.37709 7.34969 7.29451 7.47651 7.23817 7.6161C7.18182 7.75569 7.15282 7.90532 7.15282 8.05643C7.15282 8.20755 7.18182 8.35718 7.23817 8.49677C7.29451 8.63636 7.37709 8.76318 7.48119 8.86997L7.51478 8.90447C7.64383 9.03997 7.73041 9.21207 7.76334 9.39858C7.79626 9.58509 7.77403 9.77745 7.69952 9.95086C7.63554 10.1295 7.52071 10.2843 7.36996 10.395C7.2192 10.5057 7.0395 10.5673 6.8542 10.5718H6.80382C6.50688 10.5718 6.2221 10.6929 6.01213 10.9086C5.80216 11.1242 5.6842 11.4167 5.6842 11.7217C5.6842 12.0266 5.80216 12.3191 6.01213 12.5348C6.2221 12.7504 6.50688 12.8715 6.80382 12.8715H6.89899C7.07913 12.8723 7.25513 12.9271 7.40532 13.0293C7.55551 13.1314 7.67334 13.2764 7.7443 13.4465C7.81882 13.6199 7.84105 13.8123 7.80812 13.9988C7.77519 14.1853 7.68862 14.3574 7.55956 14.4929L7.52597 14.5274C7.42188 14.6342 7.33929 14.761 7.28295 14.9006C7.22661 15.0402 7.19761 15.1898 7.19761 15.3409C7.19761 15.492 7.22661 15.6416 7.28295 15.7812C7.33929 15.9208 7.42188 16.0477 7.52597 16.1544C7.62996 16.2614 7.75344 16.3462 7.88936 16.404C8.02528 16.4619 8.17097 16.4917 8.3181 16.4917C8.46524 16.4917 8.61093 16.4619 8.74685 16.404C8.88277 16.3462 9.00625 16.2614 9.11023 16.1544L9.14382 16.1199C9.27576 15.9874 9.44333 15.8985 9.62493 15.8647C9.80653 15.8309 9.99383 15.8537 10.1627 15.9302C10.3366 15.9959 10.4873 16.1139 10.5951 16.2687C10.703 16.4235 10.7629 16.6081 10.7673 16.7984V16.8501C10.7673 17.1551 10.8852 17.4476 11.0952 17.6632C11.3052 17.8788 11.5899 18 11.8869 18C12.1838 18 12.4686 17.8788 12.6786 17.6632C12.8885 17.4476 13.0065 17.1551 13.0065 16.8501V16.7524C13.0072 16.5674 13.0606 16.3866 13.1601 16.2324C13.2595 16.0781 13.4007 15.9571 13.5663 15.8842C13.7352 15.8077 13.9225 15.7849 14.1041 15.8187C14.2857 15.8525 14.4532 15.9414 14.5852 16.074L14.6187 16.1084C14.7227 16.2154 14.8462 16.3002 14.9821 16.358C15.1181 16.4159 15.2637 16.4457 15.4109 16.4457C15.558 16.4457 15.7037 16.4159 15.8396 16.358C15.9755 16.3002 16.099 16.2154 16.203 16.1084C16.3071 16.0017 16.3897 15.8748 16.446 15.7352C16.5024 15.5957 16.5314 15.446 16.5314 15.2949C16.5314 15.1438 16.5024 14.9942 16.446 14.8546C16.3897 14.715 16.3071 14.5882 16.203 14.4814L16.1694 14.4469C16.0404 14.3114 15.9538 14.1393 15.9209 13.9528ZM13.7368 11.5799C13.7368 12.7044 12.8461 13.6161 11.7474 13.6161C10.6486 13.6161 9.75789 12.7044 9.75789 11.5799C9.75789 10.4553 10.6486 9.54361 11.7474 9.54361C12.8461 9.54361 13.7368 10.4553 13.7368 11.5799Z" fill="#9966FF"/>
<path fill-rule="evenodd" clip-rule="evenodd" d="M11.6053 5.35135C11.3848 5.39632 11.1805 5.50387 11.0189 5.66316C10.8009 5.87803 10.6784 6.16946 10.6784 6.47333V6.57071C10.6776 6.75506 10.6222 6.93516 10.519 7.08886C10.4157 7.24255 10.2691 7.36313 10.0972 7.43575H10.0507C9.87536 7.51201 9.6809 7.53475 9.49235 7.50106C9.30381 7.46736 9.12982 7.37877 8.99284 7.2467L8.95797 7.21233C8.85001 7.1058 8.72181 7.02129 8.58069 6.96363C8.43957 6.90598 8.2883 6.8763 8.13554 6.8763C7.98278 6.8763 7.83151 6.90598 7.69039 6.96363C7.54927 7.02129 7.42107 7.1058 7.31311 7.21233C7.20503 7.31874 7.11929 7.4451 7.06079 7.58419C7.00229 7.72328 6.97218 7.87237 6.97218 8.02294C6.97218 8.17351 7.00229 8.3226 7.06079 8.46169C7.11929 8.60078 7.20503 8.72714 7.31311 8.83355L7.34798 8.86792C7.48198 9.00294 7.57186 9.17442 7.60605 9.36026C7.64024 9.54609 7.61716 9.73776 7.53979 9.91055C7.47336 10.0886 7.35414 10.2428 7.19762 10.3531C7.0411 10.4634 6.85452 10.5248 6.66214 10.5292H6.60983C6.30153 10.5292 6.00586 10.65 5.78786 10.8648C5.56986 11.0797 5.44739 11.3711 5.44739 11.675C5.44739 11.9789 5.56986 12.2703 5.78786 12.4852C6.00586 12.7 6.30153 12.8207 6.60983 12.8207H6.70864C6.89567 12.8215 7.0784 12.8761 7.23433 12.9779C7.3028 13.0226 7.36478 13.0755 7.41902 13.1351L9.7609 12.1083C9.70623 11.9261 9.6769 11.7333 9.6769 11.5337C9.6769 10.4584 10.5285 9.57853 11.6053 9.50917V5.35135Z" fill="url(#paint1_linear_110_6715)"/>
</g>
<defs>
<linearGradient id="paint0_linear_110_6715" x1="5.85607" y1="1.05657" x2="5.85607" y2="9.41663" gradientUnits="userSpaceOnUse">
<stop stop-color="#11EFE3"/>
<stop offset="0.33" stop-color="#15E8E2"/>
<stop offset="0.74" stop-color="#1FD3E0"/>
<stop offset="1" stop-color="#21CFE0"/>
</linearGradient>
<linearGradient id="paint1_linear_110_6715" x1="11.6053" y1="5.35135" x2="11.6053" y2="13.1351" gradientUnits="userSpaceOnUse">
<stop stop-color="#0048E5"/>
<stop offset="1" stop-color="#9B66FF"/>
</linearGradient>
<clipPath id="clip0_110_6715">
<rect width="18" height="18" fill="white"/>
</clipPath>
</defs>
</svg>
