<svg width="44" height="44" viewBox="0 0 44 44" fill="none" xmlns="http://www.w3.org/2000/svg">
<g filter="url(#filter0_d_399_95362)">
<rect x="2" y="1" width="40" height="40" rx="8" fill="white"/>
<path d="M22.8333 12.6666L15.4112 21.5732C15.1205 21.922 14.9752 22.0964 14.9729 22.2437C14.971 22.3717 15.0281 22.4935 15.1277 22.574C15.2423 22.6666 15.4693 22.6666 15.9233 22.6666H22L21.1666 29.3333L28.5888 20.4267C28.8794 20.0779 29.0248 19.9035 29.027 19.7562C29.0289 19.6282 28.9719 19.5064 28.8723 19.4259C28.7577 19.3333 28.5307 19.3333 28.0766 19.3333H22L22.8333 12.6666Z" stroke="#344054" stroke-width="1.66667" stroke-linecap="round" stroke-linejoin="round"/>
<rect x="2.5" y="1.5" width="39" height="39" rx="7.5" stroke="#EAECF0"/>
</g>
<defs>
<filter id="filter0_d_399_95362" x="0" y="0" width="44" height="44" filterUnits="userSpaceOnUse" color-interpolation-filters="sRGB">
<feFlood flood-opacity="0" result="BackgroundImageFix"/>
<feColorMatrix in="SourceAlpha" type="matrix" values="0 0 0 0 0 0 0 0 0 0 0 0 0 0 0 0 0 0 127 0" result="hardAlpha"/>
<feOffset dy="1"/>
<feGaussianBlur stdDeviation="1"/>
<feColorMatrix type="matrix" values="0 0 0 0 0.0627451 0 0 0 0 0.0941176 0 0 0 0 0.156863 0 0 0 0.05 0"/>
<feBlend mode="normal" in2="BackgroundImageFix" result="effect1_dropShadow_399_95362"/>
<feBlend mode="normal" in="SourceGraphic" in2="effect1_dropShadow_399_95362" result="shape"/>
</filter>
</defs>
</svg>
