<svg width="460" height="44" viewBox="0 0 460 44" fill="none" xmlns="http://www.w3.org/2000/svg">
<g filter="url(#filter0_d_1115_169780)">
<rect x="2" y="1" width="240" height="40" rx="8" fill="white"/>
<path d="M35.5 19.3334H20.5M31.3333 12.6667V16M24.6667 12.6667V16M24.5 29.3334H31.5C32.9001 29.3334 33.6002 29.3334 34.135 29.0609C34.6054 28.8212 34.9878 28.4387 35.2275 27.9683C35.5 27.4336 35.5 26.7335 35.5 25.3334V18.3334C35.5 16.9332 35.5 16.2332 35.2275 15.6984C34.9878 15.228 34.6054 14.8455 34.135 14.6058C33.6002 14.3334 32.9001 14.3334 31.5 14.3334H24.5C23.0999 14.3334 22.3998 14.3334 21.865 14.6058C21.3946 14.8455 21.0122 15.228 20.7725 15.6984C20.5 16.2332 20.5 16.9332 20.5 18.3334V25.3334C20.5 26.7335 20.5 27.4336 20.7725 27.9683C21.0122 28.4387 21.3946 28.8212 21.865 29.0609C22.3998 29.3334 23.0999 29.3334 24.5 29.3334Z" stroke="#344054" stroke-width="1.66667" stroke-linecap="round" stroke-linejoin="round"/>
<path d="M51.0213 15.8182H52.8509V22.9773C52.8475 23.6335 52.7083 24.1986 52.4332 24.6726C52.1581 25.1432 51.7737 25.5062 51.2798 25.7614C50.7893 26.0133 50.2176 26.1392 49.5646 26.1392C48.968 26.1392 48.4311 26.0331 47.9538 25.821C47.4799 25.6056 47.1037 25.2874 46.8253 24.8665C46.5469 24.4455 46.4077 23.9219 46.4077 23.2955H48.2422C48.2455 23.5705 48.3052 23.8075 48.4212 24.0064C48.5405 24.2053 48.7045 24.3577 48.9134 24.4638C49.1222 24.5698 49.3625 24.6229 49.6342 24.6229C49.9292 24.6229 50.1795 24.5616 50.3849 24.4389C50.5904 24.313 50.7462 24.1274 50.8523 23.8821C50.9616 23.6368 51.018 23.3352 51.0213 22.9773V15.8182ZM56.9698 26.1541C56.4859 26.1541 56.0501 26.0679 55.6623 25.8956C55.2778 25.7199 54.9729 25.4614 54.7475 25.12C54.5254 24.7786 54.4144 24.3577 54.4144 23.8572C54.4144 23.4264 54.494 23.0701 54.6531 22.7884C54.8121 22.5066 55.0292 22.2812 55.3043 22.1122C55.5794 21.9432 55.8893 21.8156 56.234 21.7294C56.582 21.6399 56.9416 21.5753 57.3129 21.5355C57.7603 21.4891 58.1232 21.4477 58.4016 21.4112C58.68 21.3714 58.8822 21.3118 59.0082 21.2322C59.1374 21.1494 59.2021 21.0218 59.2021 20.8494V20.8196C59.2021 20.4451 59.091 20.1551 58.869 19.9496C58.6469 19.7441 58.3271 19.6413 57.9094 19.6413C57.4686 19.6413 57.119 19.7375 56.8604 19.9297C56.6052 20.1219 56.4329 20.349 56.3434 20.6108L54.663 20.3722C54.7956 19.9081 55.0143 19.5204 55.3192 19.2088C55.6242 18.8939 55.997 18.6586 56.4379 18.5028C56.8787 18.3438 57.3659 18.2642 57.8995 18.2642C58.2674 18.2642 58.6336 18.3073 58.9982 18.3935C59.3628 18.4796 59.6959 18.6222 59.9975 18.821C60.2991 19.0166 60.5411 19.2834 60.7234 19.6214C60.909 19.9595 61.0018 20.3821 61.0018 20.8892V26H59.2717V24.951H59.212C59.1026 25.1631 58.9485 25.362 58.7496 25.5476C58.5541 25.7299 58.3072 25.8774 58.0089 25.9901C57.7139 26.0994 57.3675 26.1541 56.9698 26.1541ZM57.4371 24.8317C57.7984 24.8317 58.1116 24.7604 58.3768 24.6179C58.6419 24.4721 58.8458 24.2798 58.9883 24.0412C59.1341 23.8026 59.207 23.5424 59.207 23.2607V22.3608C59.1507 22.4072 59.0546 22.4503 58.9187 22.4901C58.7861 22.5298 58.637 22.5646 58.4712 22.5945C58.3055 22.6243 58.1415 22.6508 57.979 22.674C57.8166 22.6972 57.6758 22.7171 57.5565 22.7337C57.288 22.7701 57.0477 22.8298 56.8356 22.9126C56.6235 22.9955 56.4561 23.1115 56.3335 23.2607C56.2108 23.4065 56.1495 23.5954 56.1495 23.8274C56.1495 24.1589 56.2705 24.4091 56.5124 24.5781C56.7544 24.7472 57.0626 24.8317 57.4371 24.8317ZM64.6112 21.5256V26H62.8114V18.3636H64.5316V19.6612H64.6211C64.7968 19.2337 65.0768 18.8939 65.4613 18.642C65.8491 18.3902 66.328 18.2642 66.8981 18.2642C67.4251 18.2642 67.8841 18.3769 68.2752 18.6023C68.6696 18.8277 68.9746 19.1541 69.19 19.5817C69.4087 20.0092 69.5165 20.5279 69.5131 21.1378V26H67.7134V21.4162C67.7134 20.9058 67.5808 20.5064 67.3157 20.218C67.0539 19.9297 66.6909 19.7855 66.2269 19.7855C65.9121 19.7855 65.632 19.8551 65.3867 19.9943C65.1448 20.1302 64.9542 20.3274 64.815 20.5859C64.6791 20.8445 64.6112 21.1577 64.6112 21.5256ZM78.5241 26.1392C78.0369 26.1359 77.5613 26.0514 77.0973 25.8857C76.6333 25.7166 76.2157 25.4432 75.8445 25.0653C75.4732 24.6842 75.1783 24.1787 74.9595 23.549C74.7408 22.916 74.633 22.1321 74.6364 21.1974C74.6364 20.3258 74.7292 19.5485 74.9148 18.8658C75.1004 18.183 75.3672 17.6063 75.7152 17.1357C76.0632 16.6617 76.4825 16.3004 76.973 16.0518C77.4669 15.8033 78.0187 15.679 78.6286 15.679C79.2682 15.679 79.835 15.8049 80.3288 16.0568C80.826 16.3087 81.227 16.6534 81.532 17.0909C81.8369 17.5251 82.0258 18.0156 82.0987 18.5625H80.2841C80.1913 18.1714 80.0007 17.8598 79.7124 17.6278C79.4273 17.3925 79.0661 17.2749 78.6286 17.2749C77.9226 17.2749 77.379 17.5814 76.9979 18.1946C76.62 18.8078 76.4295 19.6496 76.4261 20.7202H76.4957C76.6581 20.4285 76.8686 20.1783 77.1271 19.9695C77.3857 19.7607 77.6773 19.5999 78.0021 19.4872C78.3303 19.3712 78.6766 19.3132 79.0412 19.3132C79.6378 19.3132 80.1731 19.4557 80.647 19.7408C81.1243 20.0258 81.5021 20.4186 81.7805 20.919C82.0589 21.4162 82.1965 21.9863 82.1932 22.6293C82.1965 23.2988 82.044 23.9003 81.7358 24.4339C81.4276 24.9643 80.9983 25.3819 80.4482 25.6868C79.898 25.9917 79.2566 26.1425 78.5241 26.1392ZM78.5142 24.6477C78.8755 24.6477 79.1986 24.5599 79.4837 24.3842C79.7687 24.2086 79.9941 23.9716 80.1598 23.6733C80.3255 23.375 80.4067 23.0402 80.4034 22.669C80.4067 22.3045 80.3272 21.9747 80.1648 21.6797C80.0057 21.3847 79.7853 21.151 79.5036 20.9787C79.2218 20.8063 78.9003 20.7202 78.5391 20.7202C78.2706 20.7202 78.0204 20.7715 77.7884 20.8743C77.5563 20.977 77.3542 21.1196 77.1818 21.3018C77.0095 21.4808 76.8736 21.6896 76.7741 21.9283C76.678 22.1636 76.6283 22.4155 76.625 22.6839C76.6283 23.0386 76.7112 23.3651 76.8736 23.6634C77.036 23.9616 77.2597 24.2003 77.5447 24.3793C77.8298 24.5582 78.1529 24.6477 78.5142 24.6477ZM85.5689 24.608L85.5043 25.1548C85.4579 25.5724 85.375 25.9967 85.2557 26.4276C85.1397 26.8617 85.017 27.2611 84.8878 27.6257C84.7585 27.9903 84.6541 28.277 84.5746 28.4858H83.3615C83.4079 28.2836 83.4709 28.0085 83.5504 27.6605C83.6333 27.3125 83.7128 26.9214 83.7891 26.4872C83.8653 26.053 83.9167 25.6122 83.9432 25.1648L83.978 24.608H85.5689ZM90.7232 26V24.6676L94.258 21.2024C94.5961 20.861 94.8778 20.5578 95.1032 20.2926C95.3285 20.0275 95.4976 19.7706 95.6103 19.522C95.723 19.2734 95.7793 19.0083 95.7793 18.7266C95.7793 18.4051 95.7064 18.13 95.5605 17.9013C95.4147 17.6693 95.2142 17.4903 94.959 17.3643C94.7038 17.2384 94.4138 17.1754 94.089 17.1754C93.7542 17.1754 93.4609 17.245 93.209 17.3842C92.9571 17.5201 92.7615 17.714 92.6223 17.9659C92.4864 18.2178 92.4185 18.5178 92.4185 18.8658H90.6635C90.6635 18.2195 90.811 17.6577 91.106 17.1804C91.401 16.7031 91.807 16.3336 92.324 16.0717C92.8444 15.8099 93.441 15.679 94.1138 15.679C94.7966 15.679 95.3965 15.8066 95.9135 16.0618C96.4306 16.317 96.8316 16.6667 97.1167 17.1108C97.405 17.5549 97.5492 18.062 97.5492 18.6321C97.5492 19.0133 97.4763 19.3878 97.3304 19.7557C97.1846 20.1236 96.9277 20.5312 96.5598 20.9787C96.1953 21.4261 95.6832 21.968 95.0236 22.6044L93.2686 24.3892V24.4588H97.7033V26H90.7232ZM103.182 26.1939C102.363 26.1939 101.661 25.9867 101.074 25.5724C100.491 25.1548 100.042 24.5533 99.7267 23.7678C99.4152 22.9789 99.2594 22.0294 99.2594 20.919C99.2627 19.8087 99.4202 18.8641 99.7317 18.0852C100.047 17.303 100.496 16.7064 101.079 16.2955C101.666 15.8845 102.367 15.679 103.182 15.679C103.997 15.679 104.698 15.8845 105.285 16.2955C105.872 16.7064 106.321 17.303 106.632 18.0852C106.947 18.8674 107.105 19.812 107.105 20.919C107.105 22.0327 106.947 22.9839 106.632 23.7727C106.321 24.5582 105.872 25.1581 105.285 25.5724C104.702 25.9867 104.001 26.1939 103.182 26.1939ZM103.182 24.6378C103.818 24.6378 104.32 24.3246 104.688 23.6982C105.06 23.0684 105.245 22.142 105.245 20.919C105.245 20.1103 105.161 19.4309 104.992 18.8807C104.823 18.3305 104.584 17.9162 104.276 17.6378C103.968 17.3561 103.603 17.2152 103.182 17.2152C102.549 17.2152 102.048 17.5301 101.681 18.1598C101.313 18.7862 101.127 19.706 101.124 20.919C101.12 21.7311 101.202 22.4138 101.367 22.9673C101.536 23.5208 101.775 23.9384 102.083 24.2202C102.392 24.4986 102.758 24.6378 103.182 24.6378ZM108.756 26V24.6676L112.291 21.2024C112.629 20.861 112.911 20.5578 113.136 20.2926C113.362 20.0275 113.531 19.7706 113.643 19.522C113.756 19.2734 113.812 19.0083 113.812 18.7266C113.812 18.4051 113.74 18.13 113.594 17.9013C113.448 17.6693 113.247 17.4903 112.992 17.3643C112.737 17.2384 112.447 17.1754 112.122 17.1754C111.787 17.1754 111.494 17.245 111.242 17.3842C110.99 17.5201 110.795 17.714 110.656 17.9659C110.52 18.2178 110.452 18.5178 110.452 18.8658H108.697C108.697 18.2195 108.844 17.6577 109.139 17.1804C109.434 16.7031 109.84 16.3336 110.357 16.0717C110.878 15.8099 111.474 15.679 112.147 15.679C112.83 15.679 113.43 15.8066 113.947 16.0618C114.464 16.317 114.865 16.6667 115.15 17.1108C115.438 17.5549 115.582 18.062 115.582 18.6321C115.582 19.0133 115.509 19.3878 115.364 19.7557C115.218 20.1236 114.961 20.5312 114.593 20.9787C114.228 21.4261 113.716 21.968 113.057 22.6044L111.302 24.3892V24.4588H115.737V26H108.756ZM117.452 26V24.6676L120.987 21.2024C121.325 20.861 121.606 20.5578 121.832 20.2926C122.057 20.0275 122.226 19.7706 122.339 19.522C122.451 19.2734 122.508 19.0083 122.508 18.7266C122.508 18.4051 122.435 18.13 122.289 17.9013C122.143 17.6693 121.943 17.4903 121.688 17.3643C121.432 17.2384 121.142 17.1754 120.817 17.1754C120.483 17.1754 120.189 17.245 119.938 17.3842C119.686 17.5201 119.49 17.714 119.351 17.9659C119.215 18.2178 119.147 18.5178 119.147 18.8658H117.392C117.392 18.2195 117.54 17.6577 117.835 17.1804C118.129 16.7031 118.536 16.3336 119.053 16.0717C119.573 15.8099 120.17 15.679 120.842 15.679C121.525 15.679 122.125 15.8066 122.642 16.0618C123.159 16.317 123.56 16.6667 123.845 17.1108C124.134 17.5549 124.278 18.062 124.278 18.6321C124.278 19.0133 124.205 19.3878 124.059 19.7557C123.913 20.1236 123.656 20.5312 123.288 20.9787C122.924 21.4261 122.412 21.968 121.752 22.6044L119.997 24.3892V24.4588H124.432V26H117.452ZM135.715 20.1683V21.6499H128.715V20.1683H135.715ZM144.209 15.8182H146.038V22.9773C146.035 23.6335 145.896 24.1986 145.621 24.6726C145.346 25.1432 144.961 25.5062 144.467 25.7614C143.977 26.0133 143.405 26.1392 142.752 26.1392C142.156 26.1392 141.619 26.0331 141.141 25.821C140.667 25.6056 140.291 25.2874 140.013 24.8665C139.734 24.4455 139.595 23.9219 139.595 23.2955H141.43C141.433 23.5705 141.493 23.8075 141.609 24.0064C141.728 24.2053 141.892 24.3577 142.101 24.4638C142.31 24.5698 142.55 24.6229 142.822 24.6229C143.117 24.6229 143.367 24.5616 143.572 24.4389C143.778 24.313 143.934 24.1274 144.04 23.8821C144.149 23.6368 144.205 23.3352 144.209 22.9773V15.8182ZM150.157 26.1541C149.673 26.1541 149.238 26.0679 148.85 25.8956C148.465 25.7199 148.16 25.4614 147.935 25.12C147.713 24.7786 147.602 24.3577 147.602 23.8572C147.602 23.4264 147.681 23.0701 147.841 22.7884C148 22.5066 148.217 22.2812 148.492 22.1122C148.767 21.9432 149.077 21.8156 149.422 21.7294C149.77 21.6399 150.129 21.5753 150.5 21.5355C150.948 21.4891 151.311 21.4477 151.589 21.4112C151.868 21.3714 152.07 21.3118 152.196 21.2322C152.325 21.1494 152.39 21.0218 152.39 20.8494V20.8196C152.39 20.4451 152.279 20.1551 152.056 19.9496C151.834 19.7441 151.515 19.6413 151.097 19.6413C150.656 19.6413 150.306 19.7375 150.048 19.9297C149.793 20.1219 149.62 20.349 149.531 20.6108L147.85 20.3722C147.983 19.9081 148.202 19.5204 148.507 19.2088C148.812 18.8939 149.185 18.6586 149.625 18.5028C150.066 18.3438 150.553 18.2642 151.087 18.2642C151.455 18.2642 151.821 18.3073 152.186 18.3935C152.55 18.4796 152.883 18.6222 153.185 18.821C153.487 19.0166 153.729 19.2834 153.911 19.6214C154.096 19.9595 154.189 20.3821 154.189 20.8892V26H152.459V24.951H152.4C152.29 25.1631 152.136 25.362 151.937 25.5476C151.742 25.7299 151.495 25.8774 151.196 25.9901C150.901 26.0994 150.555 26.1541 150.157 26.1541ZM150.625 24.8317C150.986 24.8317 151.299 24.7604 151.564 24.6179C151.829 24.4721 152.033 24.2798 152.176 24.0412C152.322 23.8026 152.395 23.5424 152.395 23.2607V22.3608C152.338 22.4072 152.242 22.4503 152.106 22.4901C151.974 22.5298 151.824 22.5646 151.659 22.5945C151.493 22.6243 151.329 22.6508 151.167 22.674C151.004 22.6972 150.863 22.7171 150.744 22.7337C150.475 22.7701 150.235 22.8298 150.023 22.9126C149.811 22.9955 149.644 23.1115 149.521 23.2607C149.398 23.4065 149.337 23.5954 149.337 23.8274C149.337 24.1589 149.458 24.4091 149.7 24.5781C149.942 24.7472 150.25 24.8317 150.625 24.8317ZM157.799 21.5256V26H155.999V18.3636H157.719V19.6612H157.809C157.984 19.2337 158.264 18.8939 158.649 18.642C159.037 18.3902 159.516 18.2642 160.086 18.2642C160.613 18.2642 161.072 18.3769 161.463 18.6023C161.857 18.8277 162.162 19.1541 162.377 19.5817C162.596 20.0092 162.704 20.5279 162.701 21.1378V26H160.901V21.4162C160.901 20.9058 160.768 20.5064 160.503 20.218C160.241 19.9297 159.878 19.7855 159.414 19.7855C159.1 19.7855 158.819 19.8551 158.574 19.9943C158.332 20.1302 158.142 20.3274 158.002 20.5859C157.867 20.8445 157.799 21.1577 157.799 21.5256ZM172.124 15.8182V26H170.28V17.6129H170.22L167.839 19.1342V17.4439L170.369 15.8182H172.124ZM178.364 26.1392C177.648 26.1392 177.011 26.0166 176.455 25.7713C175.901 25.526 175.464 25.1847 175.142 24.7472C174.821 24.3097 174.65 23.8042 174.63 23.2308H176.499C176.516 23.5059 176.607 23.7462 176.773 23.9517C176.938 24.1539 177.159 24.3113 177.434 24.424C177.709 24.5367 178.017 24.593 178.359 24.593C178.723 24.593 179.046 24.5301 179.328 24.4041C179.61 24.2749 179.83 24.0959 179.989 23.8672C180.148 23.6385 180.226 23.375 180.223 23.0767C180.226 22.7685 180.147 22.4967 179.984 22.2614C179.822 22.026 179.587 21.8421 179.278 21.7095C178.973 21.5769 178.606 21.5107 178.175 21.5107H177.275V20.0888H178.175C178.529 20.0888 178.839 20.0275 179.104 19.9048C179.373 19.7822 179.583 19.6098 179.736 19.3878C179.888 19.1624 179.963 18.9022 179.96 18.6072C179.963 18.3189 179.898 18.0687 179.766 17.8565C179.636 17.6411 179.452 17.4737 179.214 17.3544C178.978 17.2351 178.702 17.1754 178.384 17.1754C178.072 17.1754 177.784 17.2318 177.518 17.3445C177.253 17.4571 177.04 17.6179 176.877 17.8267C176.715 18.0322 176.629 18.2775 176.619 18.5625H174.844C174.857 17.9924 175.021 17.492 175.336 17.0611C175.654 16.6269 176.078 16.2888 176.609 16.0469C177.139 15.8016 177.734 15.679 178.393 15.679C179.073 15.679 179.663 15.8066 180.163 16.0618C180.667 16.3137 181.057 16.6534 181.332 17.081C181.607 17.5085 181.744 17.9808 181.744 18.4979C181.748 19.0713 181.579 19.5518 181.237 19.9396C180.899 20.3274 180.455 20.581 179.905 20.7003V20.7798C180.621 20.8793 181.169 21.1444 181.55 21.5753C181.935 22.0028 182.125 22.5348 182.122 23.1712C182.122 23.7412 181.96 24.2517 181.635 24.7024C181.313 25.1499 180.869 25.5012 180.303 25.7564C179.739 26.0116 179.093 26.1392 178.364 26.1392ZM185.661 24.608L185.596 25.1548C185.55 25.5724 185.467 25.9967 185.347 26.4276C185.231 26.8617 185.109 27.2611 184.98 27.6257C184.85 27.9903 184.746 28.277 184.666 28.4858H183.453C183.5 28.2836 183.563 28.0085 183.642 27.6605C183.725 27.3125 183.805 26.9214 183.881 26.4872C183.957 26.053 184.008 25.6122 184.035 25.1648L184.07 24.608H185.661ZM190.815 26V24.6676L194.35 21.2024C194.688 20.861 194.97 20.5578 195.195 20.2926C195.42 20.0275 195.589 19.7706 195.702 19.522C195.815 19.2734 195.871 19.0083 195.871 18.7266C195.871 18.4051 195.798 18.13 195.652 17.9013C195.507 17.6693 195.306 17.4903 195.051 17.3643C194.796 17.2384 194.506 17.1754 194.181 17.1754C193.846 17.1754 193.553 17.245 193.301 17.3842C193.049 17.5201 192.853 17.714 192.714 17.9659C192.578 18.2178 192.51 18.5178 192.51 18.8658H190.755C190.755 18.2195 190.903 17.6577 191.198 17.1804C191.493 16.7031 191.899 16.3336 192.416 16.0717C192.936 15.8099 193.533 15.679 194.206 15.679C194.888 15.679 195.488 15.8066 196.005 16.0618C196.522 16.317 196.923 16.6667 197.208 17.1108C197.497 17.5549 197.641 18.062 197.641 18.6321C197.641 19.0133 197.568 19.3878 197.422 19.7557C197.276 20.1236 197.02 20.5312 196.652 20.9787C196.287 21.4261 195.775 21.968 195.115 22.6044L193.36 24.3892V24.4588H197.795V26H190.815ZM203.274 26.1939C202.455 26.1939 201.752 25.9867 201.166 25.5724C200.583 25.1548 200.133 24.5533 199.819 23.7678C199.507 22.9789 199.351 22.0294 199.351 20.919C199.355 19.8087 199.512 18.8641 199.824 18.0852C200.138 17.303 200.587 16.7064 201.171 16.2955C201.757 15.8845 202.458 15.679 203.274 15.679C204.089 15.679 204.79 15.8845 205.377 16.2955C205.963 16.7064 206.413 17.303 206.724 18.0852C207.039 18.8674 207.196 19.812 207.196 20.919C207.196 22.0327 207.039 22.9839 206.724 23.7727C206.413 24.5582 205.963 25.1581 205.377 25.5724C204.793 25.9867 204.092 26.1939 203.274 26.1939ZM203.274 24.6378C203.91 24.6378 204.412 24.3246 204.78 23.6982C205.151 23.0684 205.337 22.142 205.337 20.919C205.337 20.1103 205.252 19.4309 205.083 18.8807C204.914 18.3305 204.676 17.9162 204.368 17.6378C204.059 17.3561 203.695 17.2152 203.274 17.2152C202.641 17.2152 202.14 17.5301 201.772 18.1598C201.404 18.7862 201.219 19.706 201.216 20.919C201.212 21.7311 201.293 22.4138 201.459 22.9673C201.628 23.5208 201.867 23.9384 202.175 24.2202C202.483 24.4986 202.85 24.6378 203.274 24.6378ZM208.848 26V24.6676L212.383 21.2024C212.721 20.861 213.003 20.5578 213.228 20.2926C213.454 20.0275 213.623 19.7706 213.735 19.522C213.848 19.2734 213.904 19.0083 213.904 18.7266C213.904 18.4051 213.831 18.13 213.686 17.9013C213.54 17.6693 213.339 17.4903 213.084 17.3643C212.829 17.2384 212.539 17.1754 212.214 17.1754C211.879 17.1754 211.586 17.245 211.334 17.3842C211.082 17.5201 210.887 17.714 210.747 17.9659C210.611 18.2178 210.544 18.5178 210.544 18.8658H208.789C208.789 18.2195 208.936 17.6577 209.231 17.1804C209.526 16.7031 209.932 16.3336 210.449 16.0717C210.969 15.8099 211.566 15.679 212.239 15.679C212.922 15.679 213.521 15.8066 214.039 16.0618C214.556 16.317 214.957 16.6667 215.242 17.1108C215.53 17.5549 215.674 18.062 215.674 18.6321C215.674 19.0133 215.601 19.3878 215.455 19.7557C215.31 20.1236 215.053 20.5312 214.685 20.9787C214.32 21.4261 213.808 21.968 213.149 22.6044L211.394 24.3892V24.4588H215.828V26H208.848ZM217.544 26V24.6676L221.078 21.2024C221.416 20.861 221.698 20.5578 221.923 20.2926C222.149 20.0275 222.318 19.7706 222.431 19.522C222.543 19.2734 222.6 19.0083 222.6 18.7266C222.6 18.4051 222.527 18.13 222.381 17.9013C222.235 17.6693 222.035 17.4903 221.779 17.3643C221.524 17.2384 221.234 17.1754 220.909 17.1754C220.575 17.1754 220.281 17.245 220.029 17.3842C219.777 17.5201 219.582 17.714 219.443 17.9659C219.307 18.2178 219.239 18.5178 219.239 18.8658H217.484C217.484 18.2195 217.631 17.6577 217.926 17.1804C218.221 16.7031 218.627 16.3336 219.144 16.0717C219.665 15.8099 220.261 15.679 220.934 15.679C221.617 15.679 222.217 15.8066 222.734 16.0618C223.251 16.317 223.652 16.6667 223.937 17.1108C224.225 17.5549 224.369 18.062 224.369 18.6321C224.369 19.0133 224.297 19.3878 224.151 19.7557C224.005 20.1236 223.748 20.5312 223.38 20.9787C223.016 21.4261 222.503 21.968 221.844 22.6044L220.089 24.3892V24.4588H224.524V26H217.544Z" fill="#344054"/>
<rect x="2.5" y="1.5" width="239" height="39" rx="7.5" stroke="#D0D5DD"/>
</g>
<g filter="url(#filter1_d_1115_169780)">
<rect x="254" y="1" width="204" height="40" rx="8" fill="#6E40FF"/>
<path d="M280 15.1667V26.8334M274.167 21H285.834" stroke="white" stroke-width="1.66667" stroke-linecap="round" stroke-linejoin="round"/>
<path d="M307.719 19.2536H305.86C305.807 18.9486 305.709 18.6785 305.567 18.4432C305.424 18.2045 305.247 18.0024 305.035 17.8366C304.823 17.6709 304.581 17.5466 304.309 17.4638C304.04 17.3776 303.75 17.3345 303.439 17.3345C302.885 17.3345 302.395 17.4737 301.967 17.7521C301.54 18.0272 301.205 18.4316 300.963 18.9652C300.721 19.4955 300.6 20.1435 300.6 20.9091C300.6 21.688 300.721 22.3442 300.963 22.8778C301.208 23.4081 301.543 23.8092 301.967 24.081C302.395 24.3494 302.884 24.4837 303.434 24.4837C303.739 24.4837 304.024 24.4439 304.289 24.3643C304.558 24.2815 304.798 24.1605 305.01 24.0014C305.225 23.8423 305.406 23.6468 305.552 23.4148C305.701 23.1828 305.804 22.9176 305.86 22.6193L307.719 22.6293C307.65 23.1132 307.499 23.5672 307.267 23.9915C307.038 24.4157 306.738 24.7902 306.367 25.1151C305.996 25.4366 305.562 25.6884 305.065 25.8707C304.567 26.0497 304.016 26.1392 303.409 26.1392C302.514 26.1392 301.715 25.9321 301.013 25.5178C300.31 25.1035 299.757 24.5052 299.352 23.723C298.948 22.9408 298.746 22.0028 298.746 20.9091C298.746 19.812 298.95 18.8741 299.357 18.0952C299.765 17.313 300.32 16.7147 301.023 16.3004C301.725 15.8861 302.521 15.679 303.409 15.679C303.976 15.679 304.503 15.7585 304.99 15.9176C305.477 16.0767 305.911 16.3104 306.293 16.6186C306.674 16.9235 306.987 17.2981 307.232 17.7422C307.481 18.183 307.643 18.6868 307.719 19.2536ZM309.329 26V18.3636H311.074V19.6364H311.154C311.293 19.1955 311.531 18.8558 311.869 18.6172C312.211 18.3752 312.6 18.2543 313.038 18.2543C313.137 18.2543 313.248 18.2592 313.371 18.2692C313.497 18.2758 313.601 18.2874 313.684 18.304V19.9595C313.608 19.933 313.487 19.9098 313.321 19.8899C313.159 19.8667 313.001 19.8551 312.849 19.8551C312.521 19.8551 312.226 19.9264 311.964 20.0689C311.705 20.2081 311.502 20.402 311.352 20.6506C311.203 20.8991 311.129 21.1858 311.129 21.5107V26H309.329ZM317.946 26.1491C317.18 26.1491 316.519 25.9901 315.962 25.6719C315.409 25.3504 314.983 24.8963 314.685 24.3097C314.386 23.7197 314.237 23.0253 314.237 22.2266C314.237 21.4411 314.386 20.7517 314.685 20.1584C314.986 19.5618 315.407 19.0978 315.947 18.7663C316.488 18.4316 317.122 18.2642 317.852 18.2642C318.322 18.2642 318.766 18.3404 319.184 18.4929C319.605 18.642 319.976 18.8741 320.298 19.1889C320.622 19.5038 320.878 19.9048 321.063 20.392C321.249 20.8759 321.342 21.4527 321.342 22.1222V22.674H315.082V21.4609H319.616C319.613 21.1162 319.539 20.8097 319.393 20.5412C319.247 20.2694 319.043 20.0556 318.781 19.8999C318.523 19.7441 318.221 19.6662 317.876 19.6662C317.509 19.6662 317.185 19.7557 316.907 19.9347C316.629 20.1103 316.411 20.3423 316.256 20.6307C316.103 20.9157 316.025 21.2289 316.022 21.5703V22.6293C316.022 23.0734 316.103 23.4545 316.266 23.7727C316.428 24.0876 316.655 24.3295 316.947 24.4986C317.238 24.6643 317.58 24.7472 317.971 24.7472C318.233 24.7472 318.47 24.7107 318.682 24.6378C318.894 24.5616 319.078 24.4505 319.234 24.3047C319.389 24.1589 319.507 23.9782 319.587 23.7628L321.267 23.9517C321.161 24.3958 320.959 24.7836 320.661 25.1151C320.366 25.4432 319.988 25.6984 319.527 25.8807C319.066 26.0597 318.539 26.1491 317.946 26.1491ZM325.062 26.1541C324.578 26.1541 324.142 26.0679 323.754 25.8956C323.37 25.7199 323.065 25.4614 322.839 25.12C322.617 24.7786 322.506 24.3577 322.506 23.8572C322.506 23.4264 322.586 23.0701 322.745 22.7884C322.904 22.5066 323.121 22.2812 323.396 22.1122C323.671 21.9432 323.981 21.8156 324.326 21.7294C324.674 21.6399 325.033 21.5753 325.405 21.5355C325.852 21.4891 326.215 21.4477 326.493 21.4112C326.772 21.3714 326.974 21.3118 327.1 21.2322C327.229 21.1494 327.294 21.0218 327.294 20.8494V20.8196C327.294 20.4451 327.183 20.1551 326.961 19.9496C326.739 19.7441 326.419 19.6413 326.001 19.6413C325.56 19.6413 325.211 19.7375 324.952 19.9297C324.697 20.1219 324.525 20.349 324.435 20.6108L322.755 20.3722C322.887 19.9081 323.106 19.5204 323.411 19.2088C323.716 18.8939 324.089 18.6586 324.53 18.5028C324.97 18.3438 325.458 18.2642 325.991 18.2642C326.359 18.2642 326.725 18.3073 327.09 18.3935C327.455 18.4796 327.788 18.6222 328.089 18.821C328.391 19.0166 328.633 19.2834 328.815 19.6214C329.001 19.9595 329.094 20.3821 329.094 20.8892V26H327.363V24.951H327.304C327.194 25.1631 327.04 25.362 326.841 25.5476C326.646 25.7299 326.399 25.8774 326.101 25.9901C325.806 26.0994 325.459 26.1541 325.062 26.1541ZM325.529 24.8317C325.89 24.8317 326.203 24.7604 326.469 24.6179C326.734 24.4721 326.938 24.2798 327.08 24.0412C327.226 23.8026 327.299 23.5424 327.299 23.2607V22.3608C327.242 22.4072 327.146 22.4503 327.01 22.4901C326.878 22.5298 326.729 22.5646 326.563 22.5945C326.397 22.6243 326.233 22.6508 326.071 22.674C325.908 22.6972 325.768 22.7171 325.648 22.7337C325.38 22.7701 325.14 22.8298 324.927 22.9126C324.715 22.9955 324.548 23.1115 324.425 23.2607C324.303 23.4065 324.241 23.5954 324.241 23.8274C324.241 24.1589 324.362 24.4091 324.604 24.5781C324.846 24.7472 325.154 24.8317 325.529 24.8317ZM334.716 18.3636V19.7557H330.327V18.3636H334.716ZM331.41 16.5341H333.21V23.7031C333.21 23.9451 333.247 24.1307 333.319 24.2599C333.396 24.3859 333.495 24.4721 333.618 24.5185C333.74 24.5649 333.876 24.5881 334.025 24.5881C334.138 24.5881 334.241 24.5798 334.334 24.5632C334.43 24.5466 334.503 24.5317 334.552 24.5185L334.856 25.9254C334.76 25.9586 334.622 25.995 334.443 26.0348C334.267 26.0746 334.052 26.0978 333.797 26.1044C333.346 26.1177 332.94 26.0497 332.579 25.9006C332.217 25.7481 331.931 25.5128 331.719 25.1946C331.51 24.8764 331.407 24.4787 331.41 24.0014V16.5341ZM339.52 26.1491C338.755 26.1491 338.093 25.9901 337.537 25.6719C336.983 25.3504 336.557 24.8963 336.259 24.3097C335.961 23.7197 335.811 23.0253 335.811 22.2266C335.811 21.4411 335.961 20.7517 336.259 20.1584C336.56 19.5618 336.981 19.0978 337.522 18.7663C338.062 18.4316 338.697 18.2642 339.426 18.2642C339.896 18.2642 340.341 18.3404 340.758 18.4929C341.179 18.642 341.55 18.8741 341.872 19.1889C342.197 19.5038 342.452 19.9048 342.637 20.392C342.823 20.8759 342.916 21.4527 342.916 22.1222V22.674H336.657V21.4609H341.191C341.187 21.1162 341.113 20.8097 340.967 20.5412C340.821 20.2694 340.617 20.0556 340.355 19.8999C340.097 19.7441 339.795 19.6662 339.451 19.6662C339.083 19.6662 338.76 19.7557 338.481 19.9347C338.203 20.1103 337.986 20.3423 337.83 20.6307C337.677 20.9157 337.6 21.2289 337.596 21.5703V22.6293C337.596 23.0734 337.677 23.4545 337.84 23.7727C338.002 24.0876 338.229 24.3295 338.521 24.4986C338.813 24.6643 339.154 24.7472 339.545 24.7472C339.807 24.7472 340.044 24.7107 340.256 24.6378C340.468 24.5616 340.652 24.4505 340.808 24.3047C340.964 24.1589 341.081 23.9782 341.161 23.7628L342.841 23.9517C342.735 24.3958 342.533 24.7836 342.235 25.1151C341.94 25.4432 341.562 25.6984 341.101 25.8807C340.641 26.0597 340.114 26.1491 339.52 26.1491ZM356.358 15.8182V26H354.717L349.92 19.0646H349.835V26H347.991V15.8182H349.641L354.434 22.7585H354.523V15.8182H356.358ZM361.669 26.1491C360.903 26.1491 360.242 25.9901 359.685 25.6719C359.132 25.3504 358.706 24.8963 358.407 24.3097C358.109 23.7197 357.96 23.0253 357.96 22.2266C357.96 21.4411 358.109 20.7517 358.407 20.1584C358.709 19.5618 359.13 19.0978 359.67 18.7663C360.21 18.4316 360.845 18.2642 361.574 18.2642C362.045 18.2642 362.489 18.3404 362.907 18.4929C363.328 18.642 363.699 18.8741 364.02 19.1889C364.345 19.5038 364.6 19.9048 364.786 20.392C364.971 20.8759 365.064 21.4527 365.064 22.1222V22.674H358.805V21.4609H363.339C363.336 21.1162 363.261 20.8097 363.115 20.5412C362.97 20.2694 362.766 20.0556 362.504 19.8999C362.245 19.7441 361.944 19.6662 361.599 19.6662C361.231 19.6662 360.908 19.7557 360.63 19.9347C360.351 20.1103 360.134 20.3423 359.978 20.6307C359.826 20.9157 359.748 21.2289 359.745 21.5703V22.6293C359.745 23.0734 359.826 23.4545 359.988 23.7727C360.151 24.0876 360.378 24.3295 360.669 24.4986C360.961 24.6643 361.302 24.7472 361.694 24.7472C361.955 24.7472 362.192 24.7107 362.404 24.6378C362.617 24.5616 362.801 24.4505 362.956 24.3047C363.112 24.1589 363.23 23.9782 363.309 23.7628L364.99 23.9517C364.884 24.3958 364.681 24.7836 364.383 25.1151C364.088 25.4432 363.71 25.6984 363.25 25.8807C362.789 26.0597 362.262 26.1491 361.669 26.1491ZM368.122 26L365.964 18.3636H367.799L369.141 23.733H369.211L370.583 18.3636H372.397L373.77 23.7031H373.844L375.167 18.3636H377.006L374.843 26H372.969L371.537 20.8395H371.433L370.001 26H368.122ZM387.348 18.6172C387.302 18.183 387.106 17.8449 386.762 17.603C386.42 17.361 385.976 17.2401 385.429 17.2401C385.045 17.2401 384.715 17.2981 384.44 17.4141C384.165 17.5301 383.954 17.6875 383.808 17.8864C383.663 18.0852 383.588 18.3123 383.585 18.5675C383.585 18.7796 383.633 18.9635 383.729 19.1193C383.828 19.2751 383.963 19.4077 384.132 19.517C384.301 19.6231 384.488 19.7126 384.693 19.7855C384.899 19.8584 385.106 19.9197 385.315 19.9695L386.269 20.2081C386.654 20.2976 387.023 20.4186 387.378 20.571C387.736 20.7235 388.056 20.9157 388.338 21.1477C388.623 21.3797 388.848 21.6598 389.014 21.9879C389.179 22.3161 389.262 22.7005 389.262 23.1413C389.262 23.7379 389.11 24.2633 388.805 24.7173C388.5 25.1681 388.059 25.5211 387.482 25.7763C386.909 26.0282 386.215 26.1541 385.399 26.1541C384.607 26.1541 383.919 26.0315 383.336 25.7862C382.756 25.541 382.302 25.183 381.974 24.7124C381.649 24.2417 381.473 23.6683 381.447 22.9922H383.262C383.288 23.3468 383.397 23.6418 383.59 23.8771C383.782 24.1125 384.032 24.2881 384.34 24.4041C384.652 24.5201 385 24.5781 385.384 24.5781C385.785 24.5781 386.137 24.5185 386.438 24.3991C386.743 24.2765 386.982 24.1075 387.154 23.892C387.327 23.6733 387.414 23.4181 387.418 23.1264C387.414 22.8613 387.337 22.6425 387.184 22.4702C387.032 22.2945 386.818 22.1487 386.543 22.0327C386.271 21.9134 385.953 21.8073 385.588 21.7145L384.43 21.4162C383.591 21.2008 382.928 20.8743 382.441 20.4368C381.957 19.996 381.715 19.411 381.715 18.6818C381.715 18.0819 381.878 17.5566 382.203 17.1058C382.531 16.6551 382.977 16.3054 383.54 16.0568C384.103 15.8049 384.741 15.679 385.454 15.679C386.177 15.679 386.81 15.8049 387.353 16.0568C387.9 16.3054 388.329 16.6518 388.641 17.0959C388.952 17.5367 389.113 18.0438 389.123 18.6172H387.348ZM394.208 26.1491C393.442 26.1491 392.781 25.9901 392.224 25.6719C391.671 25.3504 391.245 24.8963 390.946 24.3097C390.648 23.7197 390.499 23.0253 390.499 22.2266C390.499 21.4411 390.648 20.7517 390.946 20.1584C391.248 19.5618 391.669 19.0978 392.209 18.7663C392.749 18.4316 393.384 18.2642 394.113 18.2642C394.584 18.2642 395.028 18.3404 395.446 18.4929C395.867 18.642 396.238 18.8741 396.559 19.1889C396.884 19.5038 397.139 19.9048 397.325 20.392C397.511 20.8759 397.603 21.4527 397.603 22.1222V22.674H391.344V21.4609H395.878C395.875 21.1162 395.8 20.8097 395.654 20.5412C395.509 20.2694 395.305 20.0556 395.043 19.8999C394.784 19.7441 394.483 19.6662 394.138 19.6662C393.77 19.6662 393.447 19.7557 393.169 19.9347C392.89 20.1103 392.673 20.3423 392.517 20.6307C392.365 20.9157 392.287 21.2289 392.284 21.5703V22.6293C392.284 23.0734 392.365 23.4545 392.527 23.7727C392.69 24.0876 392.917 24.3295 393.208 24.4986C393.5 24.6643 393.842 24.7472 394.233 24.7472C394.494 24.7472 394.731 24.7107 394.944 24.6378C395.156 24.5616 395.34 24.4505 395.495 24.3047C395.651 24.1589 395.769 23.9782 395.848 23.7628L397.529 23.9517C397.423 24.3958 397.221 24.7836 396.922 25.1151C396.627 25.4432 396.249 25.6984 395.789 25.8807C395.328 26.0597 394.801 26.1491 394.208 26.1491ZM402.447 29.0227C401.801 29.0227 401.245 28.9349 400.781 28.7592C400.317 28.5869 399.945 28.3549 399.663 28.0632C399.381 27.7715 399.186 27.4484 399.076 27.0938L400.697 26.701C400.77 26.8501 400.876 26.9976 401.015 27.1435C401.154 27.2926 401.342 27.4152 401.577 27.5114C401.816 27.6108 402.115 27.6605 402.477 27.6605C402.987 27.6605 403.41 27.5362 403.744 27.2876C404.079 27.0424 404.247 26.638 404.247 26.0746V24.6278H404.157C404.064 24.8134 403.928 25.004 403.749 25.1996C403.574 25.3951 403.34 25.5592 403.048 25.6918C402.76 25.8243 402.397 25.8906 401.96 25.8906C401.373 25.8906 400.841 25.7531 400.364 25.478C399.89 25.1996 399.512 24.7853 399.23 24.2351C398.952 23.6816 398.813 22.9889 398.813 22.157C398.813 21.3184 398.952 20.6108 399.23 20.0341C399.512 19.4541 399.892 19.0149 400.369 18.7166C400.846 18.415 401.378 18.2642 401.965 18.2642C402.412 18.2642 402.78 18.3404 403.068 18.4929C403.36 18.642 403.592 18.8227 403.764 19.0348C403.937 19.2436 404.068 19.4408 404.157 19.6264H404.257V18.3636H406.031V26.1243C406.031 26.7772 405.876 27.3175 405.564 27.745C405.253 28.1726 404.827 28.4924 404.286 28.7045C403.746 28.9167 403.133 29.0227 402.447 29.0227ZM402.462 24.4787C402.843 24.4787 403.168 24.3859 403.436 24.2003C403.705 24.0147 403.909 23.7479 404.048 23.3999C404.187 23.0518 404.257 22.6342 404.257 22.147C404.257 21.6664 404.187 21.2455 404.048 20.8842C403.912 20.523 403.71 20.2429 403.441 20.044C403.176 19.8419 402.85 19.7408 402.462 19.7408C402.061 19.7408 401.726 19.8452 401.458 20.054C401.189 20.2628 400.987 20.5495 400.851 20.9141C400.715 21.2753 400.647 21.6863 400.647 22.147C400.647 22.6143 400.715 23.0237 400.851 23.375C400.99 23.723 401.194 23.9948 401.463 24.1903C401.734 24.3826 402.067 24.4787 402.462 24.4787ZM407.876 26V18.3636H409.596V19.6612H409.686C409.845 19.2237 410.108 18.8823 410.476 18.6371C410.844 18.3885 411.283 18.2642 411.794 18.2642C412.311 18.2642 412.746 18.3902 413.101 18.642C413.459 18.8906 413.711 19.2304 413.857 19.6612H413.936C414.105 19.237 414.39 18.8989 414.791 18.647C415.196 18.3918 415.675 18.2642 416.228 18.2642C416.931 18.2642 417.504 18.4863 417.948 18.9304C418.392 19.3745 418.615 20.0225 418.615 20.8743V26H416.81V21.1527C416.81 20.6787 416.684 20.3324 416.432 20.1136C416.18 19.8916 415.872 19.7805 415.507 19.7805C415.073 19.7805 414.733 19.9164 414.488 20.1882C414.246 20.4567 414.125 20.8063 414.125 21.2372V26H412.36V21.0781C412.36 20.6837 412.241 20.3688 412.002 20.1335C411.767 19.8982 411.459 19.7805 411.078 19.7805C410.819 19.7805 410.584 19.8468 410.372 19.9794C410.16 20.1087 409.99 20.2926 409.865 20.5312C409.739 20.7666 409.676 21.0417 409.676 21.3565V26H407.876ZM423.821 26.1491C423.055 26.1491 422.394 25.9901 421.837 25.6719C421.284 25.3504 420.858 24.8963 420.56 24.3097C420.261 23.7197 420.112 23.0253 420.112 22.2266C420.112 21.4411 420.261 20.7517 420.56 20.1584C420.861 19.5618 421.282 19.0978 421.822 18.7663C422.363 18.4316 422.997 18.2642 423.727 18.2642C424.197 18.2642 424.641 18.3404 425.059 18.4929C425.48 18.642 425.851 18.8741 426.173 19.1889C426.497 19.5038 426.753 19.9048 426.938 20.392C427.124 20.8759 427.217 21.4527 427.217 22.1222V22.674H420.957V21.4609H425.491C425.488 21.1162 425.414 20.8097 425.268 20.5412C425.122 20.2694 424.918 20.0556 424.656 19.8999C424.398 19.7441 424.096 19.6662 423.751 19.6662C423.384 19.6662 423.06 19.7557 422.782 19.9347C422.504 20.1103 422.286 20.3423 422.131 20.6307C421.978 20.9157 421.9 21.2289 421.897 21.5703V22.6293C421.897 23.0734 421.978 23.4545 422.141 23.7727C422.303 24.0876 422.53 24.3295 422.822 24.4986C423.113 24.6643 423.455 24.7472 423.846 24.7472C424.108 24.7472 424.345 24.7107 424.557 24.6378C424.769 24.5616 424.953 24.4505 425.109 24.3047C425.264 24.1589 425.382 23.9782 425.462 23.7628L427.142 23.9517C427.036 24.3958 426.834 24.7836 426.536 25.1151C426.241 25.4432 425.863 25.6984 425.402 25.8807C424.941 26.0597 424.414 26.1491 423.821 26.1491ZM430.539 21.5256V26H428.739V18.3636H430.459V19.6612H430.549C430.724 19.2337 431.005 18.8939 431.389 18.642C431.777 18.3902 432.256 18.2642 432.826 18.2642C433.353 18.2642 433.812 18.3769 434.203 18.6023C434.597 18.8277 434.902 19.1541 435.118 19.5817C435.336 20.0092 435.444 20.5279 435.441 21.1378V26H433.641V21.4162C433.641 20.9058 433.509 20.5064 433.243 20.218C432.982 19.9297 432.619 19.7855 432.155 19.7855C431.84 19.7855 431.56 19.8551 431.314 19.9943C431.073 20.1302 430.882 20.3274 430.743 20.5859C430.607 20.8445 430.539 21.1577 430.539 21.5256ZM441.084 18.3636V19.7557H436.694V18.3636H441.084ZM437.778 16.5341H439.577V23.7031C439.577 23.9451 439.614 24.1307 439.687 24.2599C439.763 24.3859 439.862 24.4721 439.985 24.5185C440.108 24.5649 440.243 24.5881 440.393 24.5881C440.505 24.5881 440.608 24.5798 440.701 24.5632C440.797 24.5466 440.87 24.5317 440.92 24.5185L441.223 25.9254C441.127 25.9586 440.989 25.995 440.81 26.0348C440.635 26.0746 440.419 26.0978 440.164 26.1044C439.713 26.1177 439.307 26.0497 438.946 25.9006C438.585 25.7481 438.298 25.5128 438.086 25.1946C437.877 24.8764 437.774 24.4787 437.778 24.0014V16.5341Z" fill="white"/>
<rect x="254.5" y="1.5" width="203" height="39" rx="7.5" stroke="#6E40FF"/>
</g>
<defs>
<filter id="filter0_d_1115_169780" x="0" y="0" width="244" height="44" filterUnits="userSpaceOnUse" color-interpolation-filters="sRGB">
<feFlood flood-opacity="0" result="BackgroundImageFix"/>
<feColorMatrix in="SourceAlpha" type="matrix" values="0 0 0 0 0 0 0 0 0 0 0 0 0 0 0 0 0 0 127 0" result="hardAlpha"/>
<feOffset dy="1"/>
<feGaussianBlur stdDeviation="1"/>
<feColorMatrix type="matrix" values="0 0 0 0 0.0627451 0 0 0 0 0.0941176 0 0 0 0 0.156863 0 0 0 0.05 0"/>
<feBlend mode="normal" in2="BackgroundImageFix" result="effect1_dropShadow_1115_169780"/>
<feBlend mode="normal" in="SourceGraphic" in2="effect1_dropShadow_1115_169780" result="shape"/>
</filter>
<filter id="filter1_d_1115_169780" x="252" y="0" width="208" height="44" filterUnits="userSpaceOnUse" color-interpolation-filters="sRGB">
<feFlood flood-opacity="0" result="BackgroundImageFix"/>
<feColorMatrix in="SourceAlpha" type="matrix" values="0 0 0 0 0 0 0 0 0 0 0 0 0 0 0 0 0 0 127 0" result="hardAlpha"/>
<feOffset dy="1"/>
<feGaussianBlur stdDeviation="1"/>
<feColorMatrix type="matrix" values="0 0 0 0 0.0627451 0 0 0 0 0.0941176 0 0 0 0 0.156863 0 0 0 0.05 0"/>
<feBlend mode="normal" in2="BackgroundImageFix" result="effect1_dropShadow_1115_169780"/>
<feBlend mode="normal" in="SourceGraphic" in2="effect1_dropShadow_1115_169780" result="shape"/>
</filter>
</defs>
</svg>
