<svg width="56" height="56" viewBox="0 0 56 56" fill="none" xmlns="http://www.w3.org/2000/svg">
<rect x="4" y="4" width="48" height="48" rx="24" fill="#F4EBFF"/>
<path d="M33.708 33C34.4959 32.119 35.1026 31.0915 35.4934 29.9761C35.8843 28.8606 36.0516 27.6791 35.9858 26.499C35.92 25.3189 35.6224 24.1633 35.11 23.0983C34.5976 22.0332 33.8805 21.0794 32.9995 20.2915C32.1185 19.5036 31.091 18.8969 29.9755 18.5061C28.8601 18.1152 27.6786 17.948 26.4985 18.0137C25.3184 18.0795 24.1628 18.3771 23.0978 18.8895C22.0327 19.4019 21.0789 20.119 20.291 21C18.6997 22.7792 17.8804 25.1177 18.0132 27.501C18.1461 29.8843 19.2203 32.1172 20.9995 33.7085C22.7787 35.2998 25.1172 36.1191 27.5005 35.9863C29.8838 35.8534 32.1167 34.7792 33.708 33ZM33.708 33H35.5C36.163 33 36.7989 33.2634 37.2678 33.7322C37.7366 34.2011 38 34.837 38 35.5C38 36.163 37.7366 36.7989 37.2678 37.2678C36.7989 37.7366 36.163 38 35.5 38H33" stroke="#7F56D9" stroke-width="1.25" stroke-linecap="round"/>
<path d="M22.4 29.9254V24.4747C22.4 24.4128 22.418 24.3523 22.4516 24.3004C22.4853 24.2486 22.5334 24.2076 22.5899 24.1824L27.0699 22.191C27.1108 22.1727 27.1552 22.1633 27.2 22.1633C27.2448 22.1633 27.2892 22.1727 27.3301 22.191L31.8101 24.1824C31.8666 24.2076 31.9146 24.2486 31.9483 24.3004C31.982 24.3523 32 24.4128 32 24.4747V29.9254C32 29.9872 31.982 30.0477 31.9483 30.0996C31.9146 30.1515 31.8666 30.1925 31.8101 30.2176L27.3301 32.2091C27.2892 32.2273 27.2448 32.2367 27.2 32.2367C27.1552 32.2367 27.1108 32.2273 27.0699 32.2091L22.5899 30.2176C22.5334 30.1925 22.4853 30.1515 22.4516 30.0996C22.418 30.0477 22.4 29.9872 22.4 29.9254Z" stroke="#7F56D9" stroke-width="1.25" stroke-linecap="round" stroke-linejoin="round"/>
<path d="M24.8 23.2L29.4101 25.2491C29.4666 25.2742 29.5146 25.3152 29.5483 25.3671C29.582 25.419 29.6 25.4795 29.6 25.5413V27.4667" stroke="#7F56D9" stroke-width="1.25" stroke-linecap="round" stroke-linejoin="round"/>
<path d="M32 24.32L27.2 26.2934M27.2 26.2934V32.2134M27.2 26.2934L22.4533 24.2667" stroke="#7F56D9" stroke-width="1.25"/>
<rect x="4" y="4" width="48" height="48" rx="24" stroke="#F9F5FF" stroke-width="8"/>
</svg>
