<svg width="36" height="36" viewBox="0 0 36 36" fill="none" xmlns="http://www.w3.org/2000/svg">
<g style="mix-blend-mode:multiply">
<rect x="2" y="2" width="32" height="32" rx="16" fill="#F2F4F7"/>
<g clip-path="url(#clip0_138_20946)">
<path d="M20.6667 15.3333V13.4667C20.6667 12.7199 20.6667 12.3466 20.5214 12.0614C20.3935 11.8105 20.1895 11.6065 19.9387 11.4787C19.6534 11.3333 19.2801 11.3333 18.5333 11.3333H13.4667C12.7199 11.3333 12.3466 11.3333 12.0614 11.4787C11.8105 11.6065 11.6065 11.8105 11.4787 12.0614C11.3333 12.3466 11.3333 12.7199 11.3333 13.4667V18.5333C11.3333 19.2801 11.3333 19.6534 11.4787 19.9387C11.6065 20.1895 11.8105 20.3935 12.0614 20.5214C12.3466 20.6667 12.7199 20.6667 13.4667 20.6667H15.3333M18 20L19.3333 21.3333L22.3333 18.3333M17.4667 24.6667H22.5333C23.2801 24.6667 23.6534 24.6667 23.9387 24.5214C24.1895 24.3935 24.3935 24.1895 24.5214 23.9387C24.6667 23.6534 24.6667 23.2801 24.6667 22.5333V17.4667C24.6667 16.7199 24.6667 16.3466 24.5214 16.0614C24.3935 15.8105 24.1895 15.6065 23.9387 15.4787C23.6534 15.3333 23.2801 15.3333 22.5333 15.3333H17.4667C16.7199 15.3333 16.3466 15.3333 16.0614 15.4787C15.8105 15.6065 15.6065 15.8105 15.4787 16.0614C15.3333 16.3466 15.3333 16.7199 15.3333 17.4667V22.5333C15.3333 23.2801 15.3333 23.6534 15.4787 23.9387C15.6065 24.1895 15.8105 24.3935 16.0614 24.5214C16.3466 24.6667 16.7199 24.6667 17.4667 24.6667Z" stroke="#667085" stroke-width="1.33333" stroke-linecap="round" stroke-linejoin="round"/>
</g>
<rect x="2" y="2" width="32" height="32" rx="16" stroke="#F9FAFB" stroke-width="4"/>
</g>
<defs>
<clipPath id="clip0_138_20946">
<rect width="16" height="16" fill="white" transform="translate(10 10)"/>
</clipPath>
</defs>
</svg>
