<svg width="24" height="24" viewBox="0 0 24 24" fill="none" xmlns="http://www.w3.org/2000/svg">
<path d="M16.9999 21V19C16.9999 17.9391 16.5785 16.9217 15.8283 16.1716C15.0782 15.4214 14.0608 15 12.9999 15H4.99991C3.93904 15 2.92163 15.4214 2.17148 16.1716C1.42134 16.9217 0.999908 17.9391 0.999908 19V21" stroke="#4970FE" stroke-width="1.5" stroke-linecap="round" stroke-linejoin="round"/>
<path d="M9.00009 11C11.2092 11 13.0001 9.20914 13.0001 7C13.0001 4.79086 11.2092 3 9.00009 3C6.79095 3 5.00009 4.79086 5.00009 7C5.00009 9.20914 6.79095 11 9.00009 11Z" stroke="#4970FE" stroke-width="1.5" stroke-linecap="round" stroke-linejoin="round"/>
<path d="M23.0001 20.9999V18.9999C22.9994 18.1137 22.7044 17.2527 22.1615 16.5522C21.6185 15.8518 20.8582 15.3515 20.0001 15.1299" stroke="#34D396" stroke-width="1.5" stroke-linecap="round" stroke-linejoin="round"/>
<path d="M15.9999 3.12993C16.8603 3.35023 17.6229 3.85063 18.1675 4.55224C18.7121 5.25385 19.0078 6.11676 19.0078 7.00493C19.0078 7.8931 18.7121 8.75601 18.1675 9.45762C17.6229 10.1592 16.8603 10.6596 15.9999 10.8799" stroke="#34D396" stroke-width="1.5" stroke-linecap="round" stroke-linejoin="round"/>
</svg>
