<svg width="20" height="20" viewBox="0 0 20 20" fill="none" xmlns="http://www.w3.org/2000/svg">
<path d="M9.99984 12.4993C11.3805 12.4993 12.4998 11.3801 12.4998 9.99935C12.4998 8.61864 11.3805 7.49935 9.99984 7.49935C8.61913 7.49935 7.49984 8.61864 7.49984 9.99935C7.49984 11.3801 8.61913 12.4993 9.99984 12.4993Z" stroke="#475467" stroke-width="1.5" stroke-linecap="round" stroke-linejoin="round"/>
<path d="M15.6059 12.2721C15.5051 12.5006 15.475 12.754 15.5195 12.9998C15.5641 13.2455 15.6812 13.4723 15.8559 13.6509L15.9014 13.6963C16.0422 13.837 16.154 14.0041 16.2302 14.1881C16.3065 14.372 16.3457 14.5692 16.3457 14.7683C16.3457 14.9674 16.3065 15.1646 16.2302 15.3485C16.154 15.5324 16.0422 15.6995 15.9014 15.8403C15.7606 15.9811 15.5935 16.0929 15.4096 16.1691C15.2257 16.2454 15.0285 16.2846 14.8294 16.2846C14.6303 16.2846 14.4331 16.2454 14.2492 16.1691C14.0652 16.0929 13.8981 15.9811 13.7574 15.8403L13.712 15.7948C13.5334 15.6202 13.3066 15.503 13.0609 15.4584C12.8151 15.4139 12.5617 15.444 12.3332 15.5448C12.1091 15.6408 11.918 15.8003 11.7834 16.0035C11.6488 16.2068 11.5766 16.445 11.5756 16.6887V16.8175C11.5756 17.2194 11.416 17.6048 11.1318 17.8889C10.8477 18.1731 10.4623 18.3327 10.0604 18.3327C9.6586 18.3327 9.27322 18.1731 8.98907 17.8889C8.70492 17.6048 8.54529 17.2194 8.54529 16.8175V16.7493C8.53943 16.4986 8.45826 16.2554 8.31235 16.0514C8.16643 15.8474 7.96252 15.692 7.72711 15.6054C7.49861 15.5046 7.24515 15.4745 6.99939 15.519C6.75364 15.5636 6.52687 15.6808 6.34832 15.8554L6.30287 15.9009C6.16215 16.0417 5.99505 16.1535 5.81111 16.2297C5.62717 16.306 5.43001 16.3452 5.2309 16.3452C5.03178 16.3452 4.83462 16.306 4.65069 16.2297C4.46675 16.1535 4.29965 16.0417 4.15893 15.9009C4.01805 15.7601 3.9063 15.593 3.83005 15.4091C3.7538 15.2252 3.71455 15.028 3.71455 14.8289C3.71455 14.6298 3.7538 14.4326 3.83005 14.2487C3.9063 14.0647 4.01805 13.8976 4.15893 13.7569L4.20438 13.7115C4.37903 13.5329 4.49619 13.3062 4.54075 13.0604C4.58531 12.8146 4.55523 12.5612 4.45438 12.3327C4.35835 12.1086 4.19889 11.9175 3.99564 11.7829C3.79239 11.6483 3.55422 11.5761 3.31044 11.5751H3.18166C2.77981 11.5751 2.39443 11.4155 2.11028 11.1313C1.82614 10.8472 1.6665 10.4618 1.6665 10.06C1.6665 9.65811 1.82614 9.27273 2.11028 8.98858C2.39443 8.70444 2.77981 8.5448 3.18166 8.5448H3.24984C3.50059 8.53894 3.74378 8.45777 3.94779 8.31186C4.1518 8.16594 4.3072 7.96203 4.39378 7.72662C4.49462 7.49813 4.5247 7.24466 4.48014 6.9989C4.43558 6.75315 4.31843 6.52638 4.14378 6.34783L4.09832 6.30238C3.95745 6.16166 3.84569 5.99456 3.76944 5.81062C3.69319 5.62669 3.65395 5.42952 3.65395 5.23041C3.65395 5.0313 3.69319 4.83413 3.76944 4.6502C3.84569 4.46626 3.95745 4.29916 4.09832 4.15844C4.23904 4.01757 4.40614 3.90581 4.59008 3.82956C4.77402 3.75331 4.97118 3.71407 5.17029 3.71407C5.36941 3.71407 5.56657 3.75331 5.7505 3.82956C5.93444 3.90581 6.10154 4.01757 6.24226 4.15844L6.28772 4.20389C6.46626 4.37854 6.69303 4.4957 6.93879 4.54026C7.18454 4.58482 7.43801 4.55474 7.6665 4.45389H7.72711C7.95118 4.35786 8.14228 4.19841 8.27688 3.99516C8.41148 3.79191 8.48371 3.55373 8.48469 3.30996V3.18117C8.48469 2.77932 8.64432 2.39394 8.92846 2.10979C9.21261 1.82565 9.59799 1.66602 9.99984 1.66602C10.4017 1.66602 10.7871 1.82565 11.0712 2.10979C11.3554 2.39394 11.515 2.77932 11.515 3.18117V3.24935C11.516 3.49313 11.5882 3.7313 11.7228 3.93455C11.8574 4.1378 12.0485 4.29726 12.2726 4.39329C12.5011 4.49413 12.7545 4.52422 13.0003 4.47966C13.246 4.4351 13.4728 4.31794 13.6514 4.14329L13.6968 4.09783C13.8375 3.95696 14.0046 3.8452 14.1886 3.76896C14.3725 3.69271 14.5697 3.65346 14.7688 3.65346C14.9679 3.65346 15.1651 3.69271 15.349 3.76896C15.5329 3.8452 15.7 3.95696 15.8407 4.09783C15.9816 4.23855 16.0934 4.40565 16.1696 4.58959C16.2459 4.77353 16.2851 4.97069 16.2851 5.1698C16.2851 5.36892 16.2459 5.56608 16.1696 5.75002C16.0934 5.93395 15.9816 6.10106 15.8407 6.24177L15.7953 6.28723C15.6206 6.46577 15.5035 6.69254 15.4589 6.9383C15.4144 7.18405 15.4444 7.43752 15.5453 7.66602V7.72662C15.6413 7.95069 15.8008 8.14179 16.004 8.27639C16.2073 8.41099 16.4455 8.48323 16.6892 8.4842H16.818C17.2199 8.4842 17.6052 8.64383 17.8894 8.92798C18.1735 9.21212 18.3332 9.59751 18.3332 9.99935C18.3332 10.4012 18.1735 10.7866 17.8894 11.0707C17.6052 11.3549 17.2199 11.5145 16.818 11.5145H16.7498C16.5061 11.5155 16.2679 11.5877 16.0646 11.7223C15.8614 11.8569 15.7019 12.048 15.6059 12.2721Z" stroke="#475467" stroke-width="1.5" stroke-linecap="round" stroke-linejoin="round"/>
</svg>
