<svg width="24" height="24" viewBox="0 0 24 24" fill="none" xmlns="http://www.w3.org/2000/svg">
<path d="M2 11.941L11.6422 16.7621C11.7734 16.8277 11.839 16.8605 11.9078 16.8734C11.9687 16.8848 12.0313 16.8848 12.0922 16.8734C12.161 16.8605 12.2266 16.8277 12.3578 16.7621L22 11.941M2 16.941L11.6422 21.7621C11.7734 21.8277 11.839 21.8605 11.9078 21.8734C11.9687 21.8848 12.0313 21.8848 12.0922 21.8734C12.161 21.8605 12.2266 21.8277 12.3578 21.7621L22 16.941M2 6.94098L11.6422 2.11987C11.7734 2.05428 11.839 2.02148 11.9078 2.00857C11.9687 1.99714 12.0313 1.99714 12.0922 2.00857C12.161 2.02148 12.2266 2.05428 12.3578 2.11987L22 6.94098L12.3578 11.7621C12.2266 11.8277 12.161 11.8605 12.0922 11.8734C12.0313 11.8848 11.9687 11.8848 11.9078 11.8734C11.839 11.8605 11.7734 11.8277 11.6422 11.7621L2 6.94098Z" stroke="#FF857A" stroke-width="1.5" stroke-linecap="round" stroke-linejoin="round"/>
<path d="M2 11.941L11.6422 16.7621C11.7734 16.8277 11.839 16.8605 11.9078 16.8734C11.9687 16.8848 12.0313 16.8848 12.0922 16.8734C12.161 16.8605 12.2266 16.8277 12.3578 16.7621L22 11.941M2 6.94098L11.6422 2.11987C11.7734 2.05428 11.839 2.02148 11.9078 2.00857C11.9687 1.99714 12.0313 1.99714 12.0922 2.00857C12.161 2.02148 12.2266 2.05428 12.3578 2.11987L22 6.94098L12.3578 11.7621C12.2266 11.8277 12.161 11.8605 12.0922 11.8734C12.0313 11.8848 11.9687 11.8848 11.9078 11.8734C11.839 11.8605 11.7734 11.8277 11.6422 11.7621L2 6.94098Z" stroke="#34D396" stroke-linecap="round" stroke-linejoin="round"/>
<path d="M12.3578 2.11987C12.2266 2.05428 12.161 2.02148 12.0922 2.00857C12.0313 1.99714 11.9687 1.99714 11.9078 2.00857C11.839 2.02148 11.7734 2.05428 11.6422 2.11987L2 6.94098L11.6422 11.7621C11.7734 11.8277 11.839 11.8605 11.9078 11.8734C11.9687 11.8848 12.0313 11.8848 12.0922 11.8734C12.161 11.8605 12.2266 11.8277 12.3578 11.7621L22 6.94098L12.3578 2.11987Z" stroke="#4970FE" stroke-linecap="round" stroke-linejoin="round"/>
</svg>