<svg width="197" height="161" viewBox="0 0 197 161" fill="none" xmlns="http://www.w3.org/2000/svg">
<g clip-path="url(#clip0_782_122747)">
<path d="M151.7 14.7063L4.74304 57.5234L8.63551 70.8832L155.593 28.066L151.7 14.7063Z" fill="#3F3D56"/>
<path d="M22.2983 118.891L0.638045 44.5489C0.477462 43.9977 0.542413 43.4053 0.818601 42.902C1.09479 42.3987 1.55959 42.0258 2.11076 41.8652L145.505 0.085951C146.056 -0.0740929 146.648 -0.00892147 147.152 0.267167C147.655 0.543256 148.028 1.0077 148.189 1.55856L167.378 67.4205L166.784 67.5936L147.595 1.73159C147.48 1.33829 147.213 1.00673 146.854 0.809551C146.495 0.612375 146.072 0.565657 145.678 0.679639L2.28376 42.4589C1.89006 42.5736 1.55806 42.84 1.36079 43.1995C1.16351 43.559 1.11712 43.9821 1.23181 44.3758L22.8921 118.718L22.2983 118.891Z" fill="#3F3D56"/>
<path d="M135.644 67.7233C135.209 67.7229 134.786 67.5816 134.438 67.3205C134.09 67.0595 133.836 66.6927 133.714 66.2752L130.081 53.8062C129.932 53.2944 129.993 52.7446 130.249 52.2774C130.505 51.8103 130.937 51.4639 131.448 51.3142L143.917 47.6812C144.429 47.5328 144.979 47.5934 145.446 47.8498C145.913 48.1062 146.259 48.5374 146.409 49.0489L150.042 61.518C150.19 62.0297 150.13 62.5795 149.874 63.0467C149.617 63.5138 149.186 63.8602 148.675 64.0099L136.205 67.6429C136.023 67.6962 135.834 67.7233 135.644 67.7233Z" fill="#6E40FF"/>
<path d="M21.9668 44.7759C21.9294 44.6478 21.885 44.5219 21.8338 44.3987C21.4851 43.5525 20.8361 42.865 20.0113 42.4683C19.1866 42.0716 18.2444 41.9937 17.3656 42.2495C16.4869 42.5053 15.7338 43.0768 15.2509 43.8543C14.768 44.6317 14.5894 45.5601 14.7495 46.4612C14.7719 46.5927 14.8019 46.7228 14.8391 46.8508C15.065 47.6216 15.5344 48.2985 16.1771 48.7801C16.8198 49.2618 17.6013 49.5222 18.4045 49.5226C18.7551 49.5233 19.1041 49.4733 19.4404 49.3741C20.3845 49.0983 21.1806 48.4593 21.6542 47.5973C22.1278 46.7353 22.2402 45.7207 21.9668 44.7759ZM19.2672 48.7804C18.4799 49.0089 17.6342 48.9159 16.9154 48.5217C16.1966 48.1275 15.6634 47.4644 15.4328 46.6777C15.3966 46.5495 15.3677 46.4194 15.3462 46.288C15.2302 45.5456 15.3886 44.7864 15.7918 44.1523C16.1949 43.5182 16.8153 43.0526 17.5368 42.8427C18.2583 42.6328 19.0315 42.6928 19.712 43.0116C20.3924 43.3304 20.9334 43.8862 21.2339 44.5749C21.2899 44.6959 21.3364 44.8209 21.3731 44.9491C21.6013 45.7364 21.5077 46.5821 21.1128 47.3004C20.718 48.0188 20.0542 48.5511 19.2672 48.7804Z" fill="#6E40FF"/>
<path d="M12.8682 47.4277C12.6703 46.7481 12.6893 46.0237 12.9225 45.3554C13.1558 44.6871 13.5917 44.1082 14.1695 43.6993C13.6281 43.673 13.0883 43.7763 12.595 44.0008C12.1017 44.2253 11.6692 44.5644 11.3335 44.9899C10.9978 45.4154 10.7686 45.9149 10.6651 46.4469C10.5615 46.9789 10.5866 47.528 10.7382 48.0483C10.8898 48.5687 11.1636 49.0452 11.5367 49.4384C11.9097 49.8315 12.3714 50.1298 12.8831 50.3083C13.3948 50.4869 13.9418 50.5407 14.4784 50.4651C15.0151 50.3894 15.526 50.1867 15.9684 49.8737C15.2614 49.8391 14.5828 49.585 14.0271 49.1465C13.4714 48.7081 13.0663 48.1073 12.8682 47.4277Z" fill="#6E40FF"/>
<path d="M108.99 62.7507C108.925 62.514 108.813 62.2927 108.661 62.0993C108.51 61.9059 108.322 61.7443 108.108 61.6237C107.894 61.503 107.658 61.4258 107.414 61.3963C107.171 61.3668 106.923 61.3857 106.687 61.4519L86.1571 67.1943L83.9462 67.8127H97.8304L100.041 67.1943L107.695 65.0544C108.172 64.9204 108.576 64.6025 108.819 64.1706C109.062 63.7387 109.124 63.228 108.99 62.7507Z" fill="#CCCCCC"/>
<path d="M94.467 58.4625C94.3332 57.9852 94.0154 57.5806 93.5834 57.3377C93.1514 57.0947 92.6405 57.0332 92.1632 57.1668L61.3581 65.7819C60.9276 65.9039 60.5549 66.1756 60.3071 66.5481C60.0593 66.9206 59.9528 67.3694 60.0067 67.8135H67.9817L70.1957 67.1951L93.1713 60.7693C93.6488 60.6349 94.0534 60.3164 94.2963 59.8839C94.5393 59.4514 94.6006 58.9402 94.467 58.4625Z" fill="#CCCCCC"/>
<path d="M173.772 67.1953H24.4154C23.8416 67.196 23.2914 67.4242 22.8856 67.83C22.4798 68.2358 22.2515 68.786 22.2509 69.3599V157.799C22.2515 158.373 22.4797 158.923 22.8855 159.329C23.2913 159.735 23.8416 159.963 24.4154 159.964H173.772C174.346 159.963 174.896 159.735 175.302 159.329C175.708 158.923 175.936 158.373 175.937 157.799V69.3599C175.936 68.786 175.708 68.2358 175.302 67.83C174.896 67.4243 174.346 67.196 173.772 67.1953ZM175.319 157.799C175.318 158.209 175.155 158.602 174.866 158.892C174.576 159.182 174.182 159.345 173.772 159.345H24.4154C24.0054 159.345 23.6123 159.182 23.3223 158.892C23.0324 158.602 22.8695 158.209 22.8693 157.799V69.3599C22.8695 68.9499 23.0324 68.5567 23.3224 68.2668C23.6123 67.9769 24.0054 67.8139 24.4154 67.8138H173.772C174.182 67.8139 174.576 67.9769 174.866 68.2668C175.155 68.5567 175.318 68.9499 175.319 69.3599V157.799Z" fill="#3F3D56"/>
<path d="M38.946 79.2535C38.212 79.2535 37.4946 79.0359 36.8844 78.6281C36.2742 78.2204 35.7985 77.6408 35.5177 76.9628C35.2368 76.2848 35.1634 75.5386 35.3065 74.8188C35.4497 74.099 35.8031 73.4378 36.3221 72.9189C36.841 72.3999 37.5022 72.0465 38.222 71.9033C38.9418 71.7602 39.688 71.8336 40.366 72.1145C41.044 72.3953 41.6236 72.871 42.0313 73.4812C42.4391 74.0914 42.6567 74.8088 42.6567 75.5428C42.6556 76.5266 42.2642 77.4697 41.5686 78.1654C40.8729 78.861 39.9298 79.2524 38.946 79.2535ZM38.946 72.4505C38.3344 72.4505 37.7365 72.6318 37.228 72.9716C36.7195 73.3114 36.3231 73.7944 36.0891 74.3594C35.855 74.9244 35.7938 75.5462 35.9131 76.146C36.0324 76.7459 36.3269 77.2969 36.7594 77.7293C37.1919 78.1618 37.7428 78.4563 38.3427 78.5756C38.9425 78.6949 39.5643 78.6337 40.1293 78.3996C40.6944 78.1656 41.1773 77.7693 41.5171 77.2607C41.8569 76.7522 42.0382 76.1544 42.0382 75.5428C42.0373 74.7229 41.7112 73.9369 41.1315 73.3572C40.5518 72.7775 39.7658 72.4514 38.946 72.4505Z" fill="#6E40FF"/>
<path d="M33.1803 75.546C33.1804 74.8382 33.4013 74.148 33.8122 73.5717C34.2231 72.9953 34.8035 72.5614 35.4726 72.3305C34.9603 72.1538 34.4131 72.102 33.8767 72.1795C33.3403 72.257 32.8302 72.4616 32.3889 72.7762C31.9475 73.0908 31.5878 73.5063 31.3395 73.9881C31.0913 74.4699 30.9618 75.0041 30.9618 75.546C30.9618 76.088 31.0913 76.6221 31.3395 77.1039C31.5878 77.5857 31.9475 78.0012 32.3889 78.3158C32.8302 78.6304 33.3403 78.835 33.8767 78.9125C34.4131 78.9901 34.9603 78.9383 35.4726 78.7616C34.8035 78.5306 34.2231 78.0968 33.8122 77.5204C33.4013 76.944 33.1804 76.2539 33.1803 75.546Z" fill="#6E40FF"/>
<path d="M53.987 119.388C53.2492 119.387 52.5418 119.094 52.02 118.572C51.4983 118.05 51.2048 117.343 51.204 116.605V108.256C51.204 107.518 51.4972 106.81 52.0191 106.288C52.541 105.766 53.2489 105.473 53.987 105.473C54.7251 105.473 55.433 105.766 55.9549 106.288C56.4769 106.81 56.7701 107.518 56.7701 108.256V116.605C56.7692 117.343 56.4757 118.05 55.954 118.572C55.4323 119.094 54.7249 119.387 53.987 119.388Z" fill="#6E40FF"/>
<path d="M61.4128 119.388C60.6749 119.387 59.9676 119.094 59.4458 118.572C58.9241 118.05 58.6306 117.343 58.6298 116.605V108.256C58.6298 107.518 58.923 106.81 59.4449 106.288C59.9668 105.766 60.6747 105.473 61.4128 105.473C62.1509 105.473 62.8588 105.766 63.3807 106.288C63.9026 106.81 64.1958 107.518 64.1958 108.256V116.605C64.195 117.343 63.9015 118.05 63.3798 118.572C62.858 119.094 62.1506 119.387 61.4128 119.388Z" fill="#6E40FF"/>
<path d="M68.8308 119.388C68.0929 119.387 67.3856 119.094 66.8638 118.572C66.3421 118.05 66.0486 117.343 66.0477 116.605V108.256C66.0477 107.518 66.3409 106.81 66.8629 106.288C67.3848 105.766 68.0927 105.473 68.8308 105.473C69.5689 105.473 70.2768 105.766 70.7987 106.288C71.3206 106.81 71.6138 107.518 71.6138 108.256V116.605C71.613 117.343 71.3195 118.05 70.7978 118.572C70.276 119.094 69.5686 119.387 68.8308 119.388Z" fill="#6E40FF"/>
<path d="M80.2761 119.388C79.5382 119.387 78.8309 119.094 78.3091 118.572C77.7874 118.05 77.4939 117.343 77.493 116.605V108.256C77.493 107.518 77.7863 106.81 78.3082 106.288C78.8301 105.766 79.538 105.473 80.2761 105.473C81.0142 105.473 81.7221 105.766 82.244 106.288C82.7659 106.81 83.0591 107.518 83.0591 108.256V116.605C83.0583 117.343 82.7648 118.05 82.2431 118.572C81.7213 119.094 81.0139 119.387 80.2761 119.388Z" fill="#6E40FF"/>
<path d="M87.6941 119.388C86.9562 119.387 86.2488 119.094 85.7271 118.572C85.2054 118.05 84.9119 117.343 84.911 116.605V108.256C84.911 107.518 85.2042 106.81 85.7261 106.288C86.2481 105.766 86.9559 105.473 87.6941 105.473C88.4322 105.473 89.14 105.766 89.662 106.288C90.1839 106.81 90.4771 107.518 90.4771 108.256V116.605C90.4763 117.343 90.1828 118.05 89.661 118.572C89.1393 119.094 88.4319 119.387 87.6941 119.388Z" fill="#6E40FF"/>
<path d="M95.1198 119.388C94.382 119.387 93.6746 119.094 93.1529 118.572C92.6311 118.05 92.3376 117.343 92.3368 116.605V108.256C92.3368 107.518 92.63 106.81 93.1519 106.288C93.6739 105.766 94.3817 105.473 95.1198 105.473C95.8579 105.473 96.5658 105.766 97.0877 106.288C97.6097 106.81 97.9029 107.518 97.9029 108.256V116.605C97.902 117.343 97.6086 118.05 97.0868 118.572C96.5651 119.094 95.8577 119.387 95.1198 119.388Z" fill="#6E40FF"/>
<path d="M106.557 119.388C105.819 119.387 105.112 119.094 104.59 118.572C104.069 118.05 103.775 117.343 103.774 116.605V108.256C103.774 107.518 104.068 106.81 104.589 106.288C105.111 105.766 105.819 105.473 106.557 105.473C107.295 105.473 108.003 105.766 108.525 106.288C109.047 106.81 109.34 107.518 109.34 108.256V116.605C109.34 117.343 109.046 118.05 108.524 118.572C108.003 119.094 107.295 119.387 106.557 119.388Z" fill="#6E40FF"/>
<path d="M113.979 119.388C113.241 119.387 112.534 119.094 112.012 118.572C111.491 118.05 111.197 117.343 111.196 116.605V108.256C111.196 107.518 111.489 106.81 112.011 106.288C112.533 105.766 113.241 105.473 113.979 105.473C114.717 105.473 115.425 105.766 115.947 106.288C116.469 106.81 116.762 107.518 116.762 108.256V116.605C116.761 117.343 116.468 118.05 115.946 118.572C115.424 119.094 114.717 119.387 113.979 119.388Z" fill="#6E40FF"/>
<path d="M121.401 119.388C120.663 119.387 119.956 119.094 119.434 118.572C118.912 118.05 118.619 117.343 118.618 116.605V108.256C118.618 107.518 118.911 106.81 119.433 106.288C119.955 105.766 120.663 105.473 121.401 105.473C122.139 105.473 122.847 105.766 123.369 106.288C123.891 106.81 124.184 107.518 124.184 108.256V116.605C124.183 117.343 123.89 118.05 123.368 118.572C122.846 119.094 122.139 119.387 121.401 119.388Z" fill="#6E40FF"/>
<path d="M132.842 119.388C132.105 119.387 131.397 119.094 130.876 118.572C130.354 118.05 130.06 117.343 130.059 116.605V108.256C130.059 107.518 130.353 106.81 130.875 106.288C131.397 105.766 132.104 105.473 132.842 105.473C133.581 105.473 134.288 105.766 134.81 106.288C135.332 106.81 135.626 107.518 135.626 108.256V116.605C135.625 117.343 135.331 118.05 134.809 118.572C134.288 119.094 133.58 119.387 132.842 119.388Z" fill="#6E40FF"/>
<path d="M140.264 119.388C139.527 119.387 138.819 119.094 138.297 118.572C137.776 118.05 137.482 117.343 137.481 116.605V108.256C137.481 107.518 137.775 106.81 138.296 106.288C138.818 105.766 139.526 105.473 140.264 105.473C141.002 105.473 141.71 105.766 142.232 106.288C142.754 106.81 143.047 107.518 143.047 108.256V116.605C143.047 117.343 142.753 118.05 142.231 118.572C141.71 119.094 141.002 119.387 140.264 119.388Z" fill="#6E40FF"/>
<path d="M147.686 119.388C146.948 119.387 146.241 119.094 145.719 118.572C145.198 118.05 144.904 117.343 144.903 116.605V108.256C144.903 107.518 145.196 106.81 145.718 106.288C146.24 105.766 146.948 105.473 147.686 105.473C148.424 105.473 149.132 105.766 149.654 106.288C150.176 106.81 150.469 107.518 150.469 108.256V116.605C150.468 117.343 150.175 118.05 149.653 118.572C149.131 119.094 148.424 119.387 147.686 119.388Z" fill="#6E40FF"/>
<path d="M72.8583 150.361H32.8318C32.3358 150.361 31.8602 150.164 31.5095 149.813C31.1588 149.463 30.9618 148.987 30.9618 148.491C30.9618 147.995 31.1588 147.52 31.5095 147.169C31.8602 146.818 32.3358 146.621 32.8318 146.621H72.8583C73.3543 146.621 73.8299 146.818 74.1806 147.169C74.5313 147.52 74.7283 147.995 74.7283 148.491C74.7283 148.987 74.5313 149.463 74.1806 149.813C73.8299 150.164 73.3543 150.361 72.8583 150.361Z" fill="#E6E6E6"/>
<path d="M60.0244 142.326H45.6638C45.1679 142.326 44.6922 142.129 44.3415 141.778C43.9908 141.428 43.7938 140.952 43.7938 140.456C43.7938 139.96 43.9908 139.484 44.3415 139.134C44.6922 138.783 45.1679 138.586 45.6638 138.586H60.0244C60.5204 138.586 60.9961 138.783 61.3468 139.134C61.6974 139.484 61.8944 139.96 61.8944 140.456C61.8944 140.952 61.6974 141.428 61.3468 141.778C60.9961 142.129 60.5204 142.326 60.0244 142.326Z" fill="#E6E6E6"/>
<path d="M175.204 85.6836H22.7548V86.302H175.204V85.6836Z" fill="#3F3D56"/>
</g>
<circle cx="175.939" cy="139.489" r="20.5128" fill="#6E40FF"/>
<path d="M185.17 133.337L173.888 144.62L168.76 139.491" stroke="white" stroke-width="2.05128" stroke-linecap="round" stroke-linejoin="round"/>
<defs>
<clipPath id="clip0_782_122747">
<rect width="175.385" height="159.966" fill="white" transform="translate(0.547729)"/>
</clipPath>
</defs>
</svg>