<svg width="56" height="56" viewBox="0 0 56 56" fill="none" xmlns="http://www.w3.org/2000/svg">
<rect x="4" y="4" width="48" height="48" rx="24" fill="#F4EBFF"/>
<path d="M28.8432 23.5436H24.2895C24.1486 23.5436 24.0086 23.5663 23.8748 23.6109C23.7841 23.6411 23.6969 23.6813 23.6148 23.7305L23.4715 23.8165C23.2757 23.9339 23.1085 24.0934 22.9819 24.2834C22.813 24.5366 22.7229 24.8342 22.7229 25.1386V29.0035C22.7229 29.3281 22.8851 29.6312 23.1552 29.8113C23.3147 29.9176 23.5021 29.9744 23.6938 29.9744H27.0772C27.3921 29.9744 27.6907 29.8345 27.8923 29.5926C28.0512 29.4019 28.1382 29.1615 28.1382 28.9133V26.0692C28.1382 25.9751 28.1966 25.8909 28.2847 25.8579L29.6769 25.3358C29.8503 25.2708 29.9996 25.1539 30.1043 25.0012L32.4863 21.5274C32.5901 21.3761 32.6168 21.1845 32.5588 21.0104C32.4793 20.7718 32.2558 20.6103 32.0043 20.6103C31.8412 20.6103 31.6856 20.6784 31.575 20.7982L29.1748 23.3984C29.0894 23.491 28.9692 23.5436 28.8432 23.5436Z" stroke="#7F56D9" stroke-width="1.35384"/>
<path d="M27.7998 20.7077C27.7998 21.8293 26.8906 22.7385 25.7691 22.7385C24.6475 22.7385 23.7383 21.8293 23.7383 20.7077C23.7383 19.5861 24.6475 18.6769 25.7691 18.6769C26.8906 18.6769 27.7998 19.5861 27.7998 20.7077Z" stroke="#7F56D9" stroke-width="1.35384"/>
<mask id="path-4-inside-1_13_38853" fill="white">
<ellipse cx="32.087" cy="31.7795" rx="1.01538" ry="1.01538"/>
</mask>
<path d="M31.7486 31.7795C31.7486 31.5926 31.9001 31.441 32.087 31.441V34.1487C33.3955 34.1487 34.4563 33.088 34.4563 31.7795H31.7486ZM32.087 31.441C32.274 31.441 32.4255 31.5926 32.4255 31.7795H29.7178C29.7178 33.088 30.7785 34.1487 32.087 34.1487V31.441ZM32.4255 31.7795C32.4255 31.9664 32.274 32.1179 32.087 32.1179V29.4103C30.7785 29.4103 29.7178 30.471 29.7178 31.7795H32.4255ZM32.087 32.1179C31.9001 32.1179 31.7486 31.9664 31.7486 31.7795H34.4563C34.4563 30.471 33.3955 29.4103 32.087 29.4103V32.1179Z" fill="#7F56D9" mask="url(#path-4-inside-1_13_38853)"/>
<path d="M35.6972 28.6205L35.5844 34.3744L35.6283 34.4872M20.4665 34.4872L19.0182 38.4416C19.0061 38.4747 18.9999 38.5096 18.9999 38.5448V38.5448C18.9999 38.6183 19.0345 38.6875 19.0933 38.7316L19.3056 38.8908C19.4001 38.9617 19.515 39 19.6331 39H25.205M20.4665 34.4872V25.5744L20.805 25.1231L21.3691 24.8974M20.4665 34.4872H35.6283M35.6283 34.4872L37.0828 38.2275C37.1349 38.3614 37.1342 38.5101 37.0808 38.6436V38.6436C36.9947 38.8588 36.7862 39 36.5543 39H30.9588M30.9588 39L30.2298 37.4379C30.1927 37.3585 30.113 37.3077 30.0253 37.3077H26.1384C26.0507 37.3077 25.971 37.3585 25.9339 37.4379L25.205 39M30.9588 39H25.205M21.9332 31.7795H30.7331H31.0716M32.1998 24.3333L33.3747 25.5083C33.417 25.5506 33.4408 25.608 33.4408 25.6678V26.9282C33.4408 27.0528 33.5418 27.1539 33.6664 27.1539H37.6151C37.7398 27.1539 37.8408 27.0528 37.8408 26.9282V24.559C37.8408 24.4344 37.7398 24.3333 37.6151 24.3333H32.1998Z" stroke="#7F56D9" stroke-width="1.35384"/>
<rect x="4" y="4" width="48" height="48" rx="24" stroke="#F9F5FF" stroke-width="8"/>
</svg>
