<svg width="56" height="56" viewBox="0 0 56 56" fill="none" xmlns="http://www.w3.org/2000/svg">
<rect x="4" y="4" width="48" height="48" rx="24" fill="#F4EBFF"/>
<path d="M19 36.4V30.6C19 30.4409 19.0632 30.2883 19.1757 30.1757C19.2883 30.0632 19.4409 30 19.6 30H36.4C36.5591 30 36.7117 30.0632 36.8243 30.1757C36.9368 30.2883 37 30.4409 37 30.6V36.4C37 36.5591 36.9368 36.7117 36.8243 36.8243C36.7117 36.9368 36.5591 37 36.4 37H19.6C19.4409 37 19.2883 36.9368 19.1757 36.8243C19.0632 36.7117 19 36.5591 19 36.4ZM30 25.4V19.6C30 19.4409 30.0632 19.2883 30.1757 19.1757C30.2883 19.0632 30.4409 19 30.6 19H36.4C36.5591 19 36.7117 19.0632 36.8243 19.1757C36.9368 19.2883 37 19.4409 37 19.6V25.4C37 25.5591 36.9368 25.7117 36.8243 25.8243C36.7117 25.9368 36.5591 26 36.4 26H30.6C30.4409 26 30.2883 25.9368 30.1757 25.8243C30.0632 25.7117 30 25.5591 30 25.4ZM19 25.4V19.6C19 19.4409 19.0632 19.2883 19.1757 19.1757C19.2883 19.0632 19.4409 19 19.6 19H25.4C25.5591 19 25.7117 19.0632 25.8243 19.1757C25.9368 19.2883 26 19.4409 26 19.6V25.4C26 25.5591 25.9368 25.7117 25.8243 25.8243C25.7117 25.9368 25.5591 26 25.4 26H19.6C19.4409 26 19.2883 25.9368 19.1757 25.8243C19.0632 25.7117 19 25.5591 19 25.4Z" stroke="#7F56D9" stroke-width="1.25"/>
<rect x="4" y="4" width="48" height="48" rx="24" stroke="#F9F5FF" stroke-width="8"/>
</svg>
