<svg width="17" height="16" viewBox="0 0 17 16" fill="none" xmlns="http://www.w3.org/2000/svg">
<g id="settings-04">
<path id="Icon" d="M2.5 5.33203L10.5 5.33203M10.5 5.33203C10.5 6.4366 11.3954 7.33203 12.5 7.33203C13.6046 7.33203 14.5 6.4366 14.5 5.33203C14.5 4.22746 13.6046 3.33203 12.5 3.33203C11.3954 3.33203 10.5 4.22746 10.5 5.33203ZM6.5 10.6654L14.5 10.6654M6.5 10.6654C6.5 11.7699 5.60457 12.6654 4.5 12.6654C3.39543 12.6654 2.5 11.7699 2.5 10.6654C2.5 9.5608 3.39543 8.66536 4.5 8.66536C5.60457 8.66536 6.5 9.5608 6.5 10.6654Z" stroke="#98A2B3" stroke-width="1.5" stroke-linecap="round" stroke-linejoin="round"/>
</g>
</svg>
