<svg width="21" height="20" viewBox="0 0 21 20" fill="none" xmlns="http://www.w3.org/2000/svg">
<g id="cursor-box">
<path id="Icon" d="M18 7.91667V6.5C18 5.09987 18 4.3998 17.7275 3.86502C17.4878 3.39462 17.1054 3.01217 16.635 2.77248C16.1002 2.5 15.4001 2.5 14 2.5H7C5.59987 2.5 4.8998 2.5 4.36502 2.77248C3.89462 3.01217 3.51217 3.39462 3.27248 3.86502C3 4.3998 3 5.09987 3 6.5V13.5C3 14.9001 3 15.6002 3.27248 16.135C3.51217 16.6054 3.89462 16.9878 4.36502 17.2275C4.8998 17.5 5.59987 17.5 7 17.5H8.41667M14.9885 14.7594L13.5733 17.3877C13.3419 17.8173 13.2263 18.0322 13.0853 18.0882C12.9629 18.1369 12.8247 18.1248 12.7126 18.0557C12.5835 17.976 12.5068 17.7444 12.3534 17.2812L10.0837 10.4261C9.94936 10.0205 9.88221 9.81764 9.93049 9.68258C9.97251 9.56503 10.065 9.47252 10.1826 9.43049C10.3176 9.38221 10.5205 9.44936 10.9261 9.58367L17.7812 11.8534C18.2444 12.0068 18.476 12.0835 18.5556 12.2126C18.6248 12.3247 18.6369 12.4629 18.5882 12.5853C18.5321 12.7263 18.3173 12.8419 17.8877 13.0733L15.2594 14.4885C15.194 14.5238 15.1612 14.5414 15.1326 14.564C15.1071 14.5841 15.0841 14.6071 15.064 14.6326C15.0414 14.6612 15.0238 14.694 14.9885 14.7594Z" stroke="#667085" stroke-width="1.5" stroke-linecap="round" stroke-linejoin="round"/>
</g>
</svg>
