<svg xmlns="http://www.w3.org/2000/svg" width="21" height="20" viewBox="0 0 21 20" fill="none">
  <path d="M3 6.66797L13 6.66797M13 6.66797C13 8.04868 14.1193 9.16797 15.5 9.16797C16.8807 9.16797 18 8.04868 18 6.66797C18 5.28726 16.8807 4.16797 15.5 4.16797C14.1193 4.16797 13 5.28726 13 6.66797ZM8 13.3346L18 13.3346M8 13.3346C8 14.7153 6.88071 15.8346 5.5 15.8346C4.11929 15.8346 3 14.7153 3 13.3346C3 11.9539 4.11929 10.8346 5.5 10.8346C6.88071 10.8346 8 11.9539 8 13.3346Z" stroke="#667085" stroke-width="1.5" stroke-linecap="round" stroke-linejoin="round"/>
</svg>