<svg width="17" height="16" viewBox="0 0 17 16" fill="none" xmlns="http://www.w3.org/2000/svg">
<g id="cursor-box">
<path id="Icon" d="M14.5 6.33333V5.2C14.5 4.07989 14.5 3.51984 14.282 3.09202C14.0903 2.71569 13.7843 2.40973 13.408 2.21799C12.9802 2 12.4201 2 11.3 2H5.7C4.5799 2 4.01984 2 3.59202 2.21799C3.21569 2.40973 2.90973 2.71569 2.71799 3.09202C2.5 3.51984 2.5 4.07989 2.5 5.2V10.8C2.5 11.9201 2.5 12.4802 2.71799 12.908C2.90973 13.2843 3.21569 13.5903 3.59202 13.782C4.01984 14 4.5799 14 5.7 14H6.83333M12.0908 11.8075L10.9586 13.9102C10.7735 14.2539 10.681 14.4257 10.5682 14.4706C10.4703 14.5095 10.3597 14.4999 10.2701 14.4445C10.1668 14.3808 10.1054 14.1955 9.98272 13.825L8.16693 8.34087C8.05949 8.01637 8.00576 7.85411 8.04439 7.74606C8.07801 7.65202 8.15202 7.57801 8.24606 7.54439C8.35411 7.50577 8.51637 7.55949 8.84087 7.66693L14.3249 9.48274C14.6955 9.60543 14.8808 9.66678 14.9445 9.77008C14.9998 9.85977 15.0095 9.97033 14.9706 10.0682C14.9257 10.181 14.7539 10.2736 14.4102 10.4586L12.3075 11.5908C12.2552 11.619 12.229 11.6331 12.2061 11.6512C12.1857 11.6673 12.1673 11.6857 12.1512 11.7061C12.1331 11.729 12.119 11.7552 12.0908 11.8075Z" stroke="#6E40FF" stroke-width="1.5" stroke-linecap="round" stroke-linejoin="round"/>
</g>
</svg>
 