<?xml version="1.0" encoding="utf-8"?>
<!-- Generator: Adobe Illustrator 26.3.1, SVG Export Plug-In . SVG Version: 6.00 Build 0)  -->
<svg version="1.1" id="b783d195-b08f-4839-b9b5-a9b86d08906a"
	 xmlns="http://www.w3.org/2000/svg" xmlns:xlink="http://www.w3.org/1999/xlink" x="0px" y="0px" viewBox="0 0 571.8 601.4"
	 style="enable-background:new 0 0 571.8 601.4;" xml:space="preserve">
<style type="text/css">
	.st0{fill:#F2F2F2;}
	.st1{fill:#3F3D56;}
	.st2{fill:#6C63FF;}
	.st3{fill:#A5A5F9;}
	.st4{fill:none;stroke:#1A2E35;stroke-width:2;stroke-miterlimit:10;}
	.st5{fill:none;stroke:#6C63FF;stroke-width:2;stroke-miterlimit:10;}
	.st6{fill:none;stroke:#1A2E35;stroke-width:4;stroke-miterlimit:10;}
	.st7{fill:#1A2E35;}
	.st8{opacity:0.2;fill:#FFFFFF;enable-background:new    ;}
	.st9{opacity:0.2;enable-background:new    ;}
	.st10{opacity:0.2;fill:#6C63FF;enable-background:new    ;}
	.st11{opacity:0.3;fill:#FFFFFF;enable-background:new    ;}
	.st12{opacity:0.6;fill:#FFFFFF;enable-background:new    ;}
	.st13{opacity:0.4;fill:#FFFFFF;enable-background:new    ;}
</style>
<path class="st0" d="M454.8,600.8H0.4v-581c0,0,482.4-44.5,454.4,0C426.7,64.2,454.8,600.8,454.8,600.8z"/>
<polygon class="st1" points="456.3,601.4 0,601.4 0,18.4 271.8,18.4 271.8,20.4 1.9,20.4 1.9,599.4 454.4,599.4 454.4,138.7 
	456.3,138.7 "/>
<g>
	<path class="st1" d="M277,113.2c-9.6,0-20-2-29.4-7.9c-27.3-17.2-53.5-0.2-53.7,0l-0.1,0.1c-0.2,0.1-16.4,7.9-35.5,7.9
		c-9.6,0-20-2-29.4-7.9c-27.3-17.2-53.5-0.2-53.7,0l-0.8-1.2c0.3-0.2,27.2-17.7,55.3,0c26.9,17,62,0.6,63.4,0
		c1.3-0.8,27.8-17.4,55.3,0c27.3,17.3,63,0.1,63.4,0l0.6,1.3C312.2,105.5,296.1,113.2,277,113.2L277,113.2z"/>
	<path class="st1" d="M277,148.6c-9.6,0-20-2-29.4-7.9c-27.3-17.2-53.5-0.2-53.7,0l-0.1,0.1c-0.2,0.1-16.4,7.9-35.5,7.9
		c-9.6,0-20-2-29.4-7.9c-27.3-17.2-53.5-0.2-53.7,0l-0.8-1.2c0.3-0.2,27.2-17.7,55.3,0c26.9,17,62,0.6,63.4,0
		c1.3-0.8,27.8-17.4,55.3,0c27.3,17.3,63,0.1,63.4,0l0.6,1.3C312.2,140.8,296.1,148.6,277,148.6L277,148.6z"/>
	<path class="st1" d="M277,184c-9.6,0-20-2-29.4-7.9c-27.3-17.2-53.5-0.2-53.7,0l-0.1,0.1c-0.2,0.1-16.4,7.9-35.5,7.9
		c-9.6,0-20-2-29.4-7.9c-27.3-17.2-53.5-0.2-53.7,0l-0.8-1.2c0.3-0.2,27.2-17.7,55.3,0c26.9,17,62,0.6,63.4,0
		c1.3-0.8,27.8-17.4,55.3,0c27.3,17.3,63,0.1,63.4,0l0.6,1.3C312.2,176.2,296.1,184,277,184L277,184z"/>
	<path class="st1" d="M146.6,228.2c-0.2,0-0.5,0-0.7,0c-3.8-0.2-7.2-2.4-10.1-6.5c-2.9-4-5.9-6-9.1-6c-5.3,0.1-9.3,5.9-9.4,6
		l-0.1,0.1c-0.3,0.3-6.4,6.9-13.6,6.4c-3.8-0.2-7.2-2.4-10.1-6.5c-2.8-4-5.9-6-9.1-6c-5.3,0.1-9.3,5.9-9.4,6l-1-0.6
		c0.2-0.3,4.4-6.4,10.3-6.5c3.6-0.1,7,2.1,10,6.5c2.7,3.8,5.8,5.8,9.2,6c6.5,0.4,12.2-5.6,12.7-6c0.4-0.6,4.5-6.4,10.3-6.5
		c0,0,0.1,0,0.1,0c3.5,0,6.9,2.2,9.9,6.5c2.7,3.8,5.8,5.8,9.2,6c6.7,0.4,12.6-6,12.7-6l0.9,0.8C159.2,222,153.5,228.2,146.6,228.2
		L146.6,228.2z"/>
</g>
<polygon class="st1" points="245,549.8 129.1,549.8 129.1,470.9 217.9,470.9 217.9,473.4 131.5,473.4 131.5,547.4 242.6,547.4 
	242.6,510.4 245,510.4 "/>
<path class="st2" d="M29.4,68.8c-6.3,0-11.3-5.1-11.3-11.3s5.1-11.3,11.3-11.3s11.3,5.1,11.3,11.3l0,0
	C40.8,63.7,35.7,68.8,29.4,68.8z M29.4,48c-5.2,0-9.4,4.2-9.4,9.4s4.2,9.4,9.4,9.4s9.4-4.2,9.4-9.4l0,0C38.9,52.3,34.6,48.1,29.4,48
	C29.4,48.1,29.4,48.1,29.4,48z"/>
<polygon class="st2" points="189.4,538.3 160.1,497.8 168.1,492 190.5,523 276.5,434.7 283.6,441.6 "/>
<path class="st3" d="M45.2,550.1c7,25.9,31,41.9,31,41.9s12.6-25.9,5.6-51.8c-7-25.9-31-41.9-31-41.9S38.2,524.3,45.2,550.1z"/>
<path class="st2" d="M55.5,544.6C74.7,563.2,77,592,77,592s-28.8-1.6-48-20.3S7.5,524.3,7.5,524.3S36.3,525.9,55.5,544.6z"/>
<g>
	<path class="st4" d="M409.8,462.4c0,0-3.8,9.2-21.7,15.3c-17.9,6-35.1,24.9-10.8,40.3"/>
	<path class="st4" d="M412.8,468.2c0,0-10.5,10.1-34.9,20.6c-24.3,10.5-28.9,37.8,0,40.8"/>
	<path class="st5" d="M557.3,430.8c0,0,24.8-26.1-9.5-58.7s-48-51.1-77.6-54.4"/>
	<path class="st6" d="M548.3,432.4c0,0,19.7-16.5,15.2-41.6c-4.5-25-63.4-86.8-100-78.1"/>
	<g>
		<path class="st7" d="M570.5,430.4L544,402.3c-0.9-1-2.1-1.5-3.4-1.5s-13.5,0-13.5,0c-1.3-0.1-2.6,0.4-3.6,1.3l-15.3,14.4
			c-1.9,1.8-2,4.9-0.2,6.8l26.5,28.1c0.9,1,2.1,1.5,3.4,1.5s12.3,0,13.6,0c1.2,0,2.5-0.4,3.4-1.3l15.3-14.4
			C572.2,435.4,572.3,432.4,570.5,430.4L570.5,430.4z"/>
		<path class="st8" d="M570.5,430.4L544,402.3c-0.9-1-2.1-1.5-3.4-1.5s-13.5,0-13.5,0c-1.3-0.1-2.6,0.4-3.6,1.3l-15.3,14.4
			c-1.9,1.8-2,4.9-0.2,6.8l26.5,28.1c0.9,1,2.1,1.5,3.4,1.5s12.3,0,13.6,0c1.2,0,2.5-0.4,3.4-1.3l15.3-14.4
			C572.2,435.4,572.3,432.4,570.5,430.4L570.5,430.4z"/>
		<path class="st9" d="M521.8,423.2l26.5,28.1c1.8,1.9,4.9,2,6.8,0.2l15.3-14.4c1.9-1.8,2-4.9,0.2-6.8l-26.5-28.1
			c-1.8-1.9-4.9-2-6.8-0.2L522,416.4C520,418.3,519.9,421.3,521.8,423.2L521.8,423.2z"/>
	</g>
	<g>
		<path class="st2" d="M535.9,442.8c-4.5-3.9-9.5-2.8-9.5-2.8l-21,22.2c-1.4,1.5,0,4.4,3.8,7.5c4.4,3.6,8,3.3,9,2.2l21.2-22.5
			C539.3,449.4,539.3,445.9,535.9,442.8z"/>
		<path class="st10" d="M505.4,462.2c3.3-3.5,16.1,6.1,12.8,9.7c-1,1.1-4.6,1.5-9-2.2C505.4,466.6,504,463.7,505.4,462.2
			L505.4,462.2z"/>
	</g>
	<g>
		<path class="st7" d="M473.2,528.4v13h-29v-13c0-5.8,4.7-10.5,10.4-10.5h8.2C468.5,518,473.2,522.6,473.2,528.4L473.2,528.4z"/>
		<path class="st8" d="M473.2,528.4v13h-29v-13c0-5.8,4.7-10.5,10.4-10.5h8.2C468.5,518,473.2,522.6,473.2,528.4L473.2,528.4z"/>
		<path class="st9" d="M473.2,528.4v13h-23.4v-13c0-5.8,4.7-10.5,10.4-10.5h2.5C468.5,518,473.2,522.6,473.2,528.4L473.2,528.4z"/>
	</g>
	<path class="st3" d="M516,471.6l-0.7,0.8l-51.1,54.4c-2.3,2.5-6.2,2.6-8.6,0.3c-1.3-1.2-1.9-2.8-1.9-4.5c0-1.5,0.5-3,1.6-4.2
		l50-53.2l1.1-1.2C509.6,462.9,517.2,468.8,516,471.6L516,471.6z"/>
	<g>
		<path class="st7" d="M484.5,528.4v13h-29v-13c0-5.8,4.7-10.5,10.4-10.5h8.2C479.8,518,484.5,522.6,484.5,528.4L484.5,528.4z"/>
		<path class="st8" d="M484.5,528.4v13h-29v-13c0-5.8,4.7-10.5,10.4-10.5h8.2C479.8,518,484.5,522.6,484.5,528.4L484.5,528.4z"/>
		<path class="st9" d="M484.5,528.4v13h-23.4v-13c0-5.8,4.7-10.5,10.4-10.5h2.5C479.8,518,484.5,522.6,484.5,528.4L484.5,528.4z"/>
	</g>
	<g>
		<path class="st7" d="M435.3,534.2v29.1h58.4v-29.1c0-1.8-1.5-3.3-3.4-3.3h-51.7C436.8,530.9,435.3,532.4,435.3,534.2z"/>
		<path class="st8" d="M435.3,534.2v29.1h58.4v-29.1c0-1.8-1.5-3.3-3.4-3.3h-51.7C436.8,530.9,435.3,532.4,435.3,534.2z"/>
		<path class="st8" d="M435.3,534.2v29.1h38v-29.1c0-1.8-1.5-3.3-3.4-3.3h-31.3C436.8,530.9,435.3,532.4,435.3,534.2z"/>
	</g>
	<g>
		<path class="st3" d="M421.8,517.5v26h-58.1v-26c0-11.5,9.4-20.9,20.9-20.9h16.3C412.4,496.6,421.8,505.9,421.8,517.5z"/>
		<path class="st2" d="M421.8,517.5v26H375v-26c0-11.5,9.4-20.9,20.9-20.9h5C412.4,496.6,421.8,505.9,421.8,517.5L421.8,517.5z"/>
	</g>
	<g>
		<g>
			<path class="st7" d="M480.6,441.8l-6.5,6.9l-8.6,9.2l-23.1,24.5c-0.6,0.7-1.5,1-2.4,1c-0.8,0-9,0-9.9,0c-0.8,0-1.6-0.3-2.2-0.9
				l-24-22.6c-0.6-0.6-0.9-1.3-1-2.1c-0.1-0.9,0.2-1.8,0.9-2.5l38.2-40.6c0.6-0.7,1.5-1,2.3-1c0.8,0,9.1,0,9.9,0
				c0.8,0,1.6,0.3,2.2,0.9l17.7,16.6l6.4,6C481.8,438.4,481.8,440.5,480.6,441.8L480.6,441.8z"/>
			<path class="st11" d="M480.6,441.8l-6.5,6.9l-8.6,9.2l-23.1,24.5c-0.6,0.7-1.5,1-2.4,1c-0.8,0-9,0-9.9,0c-0.8,0-1.6-0.3-2.2-0.9
				l-24-22.6c-0.6-0.6-0.9-1.3-1-2.1c-0.1-0.9,0.2-1.8,0.9-2.5l38.2-40.6c0.6-0.7,1.5-1,2.3-1c0.8,0,9.1,0,9.9,0
				c0.8,0,1.6,0.3,2.2,0.9l17.7,16.6l6.4,6C481.8,438.4,481.8,440.5,480.6,441.8L480.6,441.8z"/>
			<path class="st8" d="M474.1,431.1v17.5l-8.6,9.2H405c-1.3,0-2.1-1.5-1.2-2.5l0,0l38.2-40.6c0.6-0.7,1.5-1,2.3-1
				c0.8,0,9.1,0,9.9,0c0.8,0,1.6,0.3,2.2,0.9L474.1,431.1L474.1,431.1z"/>
		</g>
		<g>
			<path class="st7" d="M521.9,399.4L521.9,399.4c-4.4-5.7-10.9-8.5-17.5-8.5c-2.2,0-10.7,0-12.9,0c-6-0.1-11.9,2.2-16.4,7l-58,61.6
				h74.1l29.3-31.2C528.1,420.3,528.6,408,521.9,399.4L521.9,399.4z"/>
			<path class="st12" d="M521.9,399.4L521.9,399.4c-4.4-5.7-10.9-8.5-17.5-8.5c-2.2,0-10.7,0-12.9,0c-6-0.1-11.9,2.2-16.4,7
				l-58,61.6h74.1l29.3-31.2C528.1,420.3,528.6,408,521.9,399.4L521.9,399.4z"/>
			<path class="st9" d="M521.9,399.4c-8.4-10.8-24.4-11.5-33.7-1.5l-58,61.6h61.1l29.3-31.2C528.1,420.3,528.6,408,521.9,399.4
				L521.9,399.4z"/>
		</g>
		<g>
			<path class="st3" d="M511.3,439.4l-33-31.1c-0.9-0.8-2-1.2-3.1-1.2c-1.2,0-12.5,0-13.7,0c-1.2,0-2.3,0.5-3.2,1.4l-52.5,55.9
				c-1.7,1.8-1.6,4.6,0.2,6.3l33,31.1c0.9,0.8,2,1.2,3.1,1.2c1.2,0,12.5,0,13.6,0c1.2,0,2.4-0.5,3.3-1.4l52.5-55.9
				C513.2,443.9,513.1,441.1,511.3,439.4L511.3,439.4z"/>
			<g>
				<path class="st2" d="M511.5,445.8L459,501.6c-1.7,1.8-4.5,1.9-6.3,0.2l-33-31.1c-1.8-1.7-1.9-4.5-0.2-6.3l52.5-55.9
					c1.7-1.8,4.5-1.9,6.3-0.2l33,31.1C513.1,441.1,513.2,444,511.5,445.8L511.5,445.8z"/>
			</g>
		</g>
		<g>
			<path class="st7" d="M451.8,501.3l0.1,0l-24.1,25.7c-3,3.2-6.7,5.3-10.7,6.3c-0.2,0.1-0.5,0.1-0.8,0.2c-1.2,0.3-2.4,0.4-3.6,0.5
				c-0.4,0-0.7,0-1.1,0h-0.5c-2.8,0-10.5,0-12.6,0h0c-6.6,0-13.1-2.9-17.5-8.5c-6.8-8.7-6.2-20.9,1.3-28.9l23.9-25.5h13L451.8,501.3
				L451.8,501.3z"/>
			<path class="st12" d="M451.8,501.3l0.1,0l-24.1,25.7c-3,3.2-6.7,5.3-10.7,6.3c-0.2,0.1-0.5,0.1-0.8,0.2c-1.2,0.3-2.4,0.4-3.6,0.5
				c-0.4,0-0.7,0-1.1,0h-0.5c-2.8,0-10.5,0-12.6,0h0c-6.6,0-13.1-2.9-17.5-8.5c-6.8-8.7-6.2-20.9,1.3-28.9l23.9-25.5h13L451.8,501.3
				L451.8,501.3z"/>
			<path class="st9" d="M452,501.2l-24.1,25.7c-3,3.2-6.7,5.3-10.7,6.3c-0.2,0.1-0.5,0.1-0.8,0.2c-1.2,0.3-2.4,0.4-3.6,0.5
				c-0.4,0-0.7,0-1.1,0h-0.5c-6.4-0.1-12.8-3-17.1-8.5c-6.8-8.7-6.2-20.9,1.3-28.9l23.9-25.5l32.5,30.3L452,501.2L452,501.2z"/>
		</g>
	</g>
	<g>
		<path class="st7" d="M410.6,299L410.6,299c4.4-5.7,10.9-8.5,17.5-8.5c2.2,0,10.7,0,12.9,0c6-0.1,11.9,2.2,16.4,7l92.7,98.6
			c7.5,8,8.1,20.3,1.3,28.9l0,0c-4.4,5.7-11,8.5-17.5,8.5c-2.2,0-10.9,0-13.1,0c-5.8,0-11.7-2.3-16.1-7l-92.7-98.6
			C404.4,319.9,403.8,307.6,410.6,299L410.6,299z"/>
		<path class="st12" d="M410.6,299L410.6,299c4.4-5.7,10.9-8.5,17.5-8.5c2.2,0,10.7,0,12.9,0c6-0.1,11.9,2.2,16.4,7l92.7,98.6
			c7.5,8,8.1,20.3,1.3,28.9l0,0c-4.4,5.7-11,8.5-17.5,8.5c-2.2,0-10.9,0-13.1,0c-5.8,0-11.7-2.3-16.1-7l-92.7-98.6
			C404.4,319.9,403.8,307.6,410.6,299L410.6,299z"/>
		<path class="st9" d="M551.4,425L551.4,425c6.8-8.6,6.2-20.9-1.3-28.9l-92.7-98.6c-9.3-9.9-25.4-9.2-33.7,1.5l0,0
			c-6.8,8.6-6.2,20.9,1.3,28.9l92.7,98.6C527,436.4,543,435.7,551.4,425L551.4,425z"/>
	</g>
	<g>
		<path class="st3" d="M443.4,517.5v26h-58.1v-26c0-11.5,9.4-20.9,20.9-20.9h16.3C434.1,496.6,443.4,505.9,443.4,517.5L443.4,517.5z
			"/>
		<path class="st2" d="M443.4,517.5v26h-46.8v-26c0-11.5,9.4-20.9,20.9-20.9h5C434.1,496.6,443.5,505.9,443.4,517.5L443.4,517.5z"/>
	</g>
	<g>
		<path class="st3" d="M467.8,541.2v22.3H338.1v-22.3c0-1.8,1.5-3.3,3.4-3.3h123C466.3,537.8,467.8,539.3,467.8,541.2L467.8,541.2z"
			/>
		<path class="st2" d="M467.8,541.2v22.3h-73.1v-22.3c0-1.8,1.5-3.3,3.4-3.3h66.4C466.3,537.8,467.8,539.3,467.8,541.2L467.8,541.2z
			"/>
		<path class="st9" d="M467.7,541.2v22.3H338v-22.3c0-1.8,1.5-3.3,3.4-3.3h123C466.2,537.8,467.7,539.3,467.7,541.2L467.7,541.2z"/>
	</g>
	<g>
		<path class="st7" d="M502.2,564.7v3.3H328.9v-3.3c0-2.9,2.3-5.2,5.2-5.2H497C499.9,559.5,502.3,561.8,502.2,564.7L502.2,564.7z"/>
		<path class="st8" d="M502.2,564.7v3.3H328.9v-3.3c0-2.9,2.3-5.2,5.2-5.2H497C499.9,559.5,502.3,561.8,502.2,564.7L502.2,564.7z"/>
		<path class="st9" d="M502.2,564.7v3.3H385.5v-3.3c0-2.9,2.3-5.2,5.2-5.2H497C499.9,559.5,502.2,561.8,502.2,564.7z"/>
	</g>
	<g>
		<g>
			<path class="st7" d="M424.2,504.1h-3.3c-7.5,0-13.6,7.2-13.6,16.1c0,8.9,6.1,16,13.6,16h3.3c7.5,0,13.6-7.2,13.6-16
				S431.7,504.1,424.2,504.1L424.2,504.1z"/>
			<path class="st8" d="M424.2,504.1h-3.3c-7.5,0-13.6,7.2-13.6,16.1c0,8.9,6.1,16,13.6,16h3.3c7.5,0,13.6-7.2,13.6-16
				S431.7,504.1,424.2,504.1L424.2,504.1z"/>
			<ellipse class="st9" cx="424.2" cy="520.1" rx="13.6" ry="16"/>
		</g>
		<g>
			<path class="st7" d="M428.3,510.6h-2c-4.5,0-8.1,4.3-8.1,9.5s3.6,9.5,8.1,9.5h2c4.5,0,8.1-4.3,8.1-9.5S432.7,510.6,428.3,510.6
				L428.3,510.6z"/>
			<path class="st12" d="M428.3,510.6h-2c-4.5,0-8.1,4.3-8.1,9.5s3.6,9.5,8.1,9.5h2c4.5,0,8.1-4.3,8.1-9.5S432.7,510.6,428.3,510.6
				L428.3,510.6z"/>
			<ellipse class="st9" cx="428.3" cy="520.1" rx="8.1" ry="9.5"/>
		</g>
	</g>
	<g>
		<g>
			<path class="st7" d="M540.7,394.2h-3.3c-7.5,0-13.6,7.2-13.6,16s6.1,16,13.6,16h3.3c7.5,0,13.6-7.2,13.6-16
				S548.1,394.2,540.7,394.2z"/>
			<path class="st8" d="M540.7,394.2h-3.3c-7.5,0-13.6,7.2-13.6,16s6.1,16,13.6,16h3.3c7.5,0,13.6-7.2,13.6-16
				S548.1,394.2,540.7,394.2z"/>
			<ellipse class="st9" cx="540.6" cy="410.3" rx="13.6" ry="16"/>
		</g>
		<g>
			<path class="st7" d="M544.8,400.8h-2c-4.5,0-8.1,4.3-8.1,9.5s3.6,9.5,8.1,9.5h2c4.5,0,8.1-4.3,8.1-9.5S549.2,400.8,544.8,400.8z"
				/>
			<path class="st12" d="M544.8,400.8h-2c-4.5,0-8.1,4.3-8.1,9.5s3.6,9.5,8.1,9.5h2c4.5,0,8.1-4.3,8.1-9.5S549.2,400.8,544.8,400.8z
				"/>
			<ellipse class="st9" cx="544.8" cy="410.3" rx="8.1" ry="9.5"/>
		</g>
	</g>
	<g>
		<g>
			<path class="st3" d="M408.7,285.1c-2.9,0-5.9,0.5-8.8,1.5l-22,8.7v42.2l22,8.7c3.2,1,6.5,1.5,9.8,1.5c0,0,36.4,0.1,39.6,0
				c15-0.3,29.1-12,29.1-31.3s-14.7-31.5-30-31.3C448.3,285,415.1,284.9,408.7,285.1L408.7,285.1z"/>
			<path class="st2" d="M439.5,286.5l-26.6,8.7v42.2l26.6,8.7c18,5.9,38.9-6.3,38.9-29.8S457.5,280.6,439.5,286.5z"/>
		</g>
		<g>
			<g>
				<path class="st7" d="M460.4,300.3h-3.3c-7.5,0-13.6,7.2-13.6,16s6.1,16,13.6,16h3.3c7.5,0,13.6-7.2,13.6-16
					S467.9,300.3,460.4,300.3z"/>
				<path class="st8" d="M460.4,300.3h-3.3c-7.5,0-13.6,7.2-13.6,16s6.1,16,13.6,16h3.3c7.5,0,13.6-7.2,13.6-16
					S467.9,300.3,460.4,300.3z"/>
				<ellipse class="st9" cx="460.4" cy="316.3" rx="13.6" ry="16"/>
			</g>
			<g>
				<path class="st7" d="M464.5,306.8h-2c-4.5,0-8.1,4.3-8.1,9.5s3.6,9.5,8.1,9.5h2c4.5,0,8.1-4.3,8.1-9.5S469,306.8,464.5,306.8z"
					/>
				<path class="st12" d="M464.5,306.8h-2c-4.5,0-8.1,4.3-8.1,9.5s3.6,9.5,8.1,9.5h2c4.5,0,8.1-4.3,8.1-9.5S469,306.8,464.5,306.8z"
					/>
				<ellipse class="st9" cx="464.5" cy="316.3" rx="8.1" ry="9.5"/>
			</g>
		</g>
		<g>
			<path class="st7" d="M391.4,287.5h5.9c13.4,0,24.3,12.9,24.3,28.8s-10.9,28.8-24.3,28.8h-5.9c-13.4,0-24.3-12.9-24.3-28.8
				S378,287.5,391.4,287.5z"/>
			<path class="st8" d="M391.4,287.5h5.9c13.4,0,24.3,12.9,24.3,28.8s-10.9,28.8-24.3,28.8h-5.9c-13.4,0-24.3-12.9-24.3-28.8
				S378,287.5,391.4,287.5z"/>
			<ellipse class="st8" cx="391.4" cy="316.3" rx="24.3" ry="28.8"/>
		</g>
		<g>
			<path class="st7" d="M383.7,293.2h-30.9c-10.9,0-19.7,10.3-19.7,23.1s8.8,23.1,19.7,23.1h30.9c10.9,0,19.7-10.3,19.7-23.1
				S394.6,293.2,383.7,293.2z"/>
			<path class="st12" d="M383.7,293.2h-30.9c-10.9,0-19.7,10.3-19.7,23.1s8.8,23.1,19.7,23.1h30.9c10.9,0,19.7-10.3,19.7-23.1
				S394.6,293.2,383.7,293.2z"/>
		</g>
		<g>
			<path class="st7" d="M346.1,287.5h5.9c13.4,0,24.3,12.9,24.3,28.8s-10.9,28.8-24.3,28.8h-5.9c-13.4,0-24.3-12.9-24.3-28.8
				S332.7,287.5,346.1,287.5z"/>
			<path class="st8" d="M346.1,287.5h5.9c13.4,0,24.3,12.9,24.3,28.8s-10.9,28.8-24.3,28.8h-5.9c-13.4,0-24.3-12.9-24.3-28.8
				S332.7,287.5,346.1,287.5z"/>
			<ellipse class="st8" cx="346.1" cy="316.3" rx="24.3" ry="28.8"/>
		</g>
	</g>
	<g>
		<g>
			<path class="st7" d="M293.2,294.7l7-4.8l19.6,0.4l23.1-2.3c0,0,9.3,4.4,15.6,10.4c0,0,7.1,12.7,3.5,34.4l-8.7,13.3l-13.4,0.6
				l-15.7-1.5l-10.3-17L292.2,310L293.2,294.7L293.2,294.7z"/>
			<path class="st8" d="M362.1,332.8l-8.7,13.3l-13.4,0.6l-15.7-1.5l-10.3-17l-21.9-18.2l1-15.4l7-4.8l19.6,0.4l23.1-2.3
				c0,0,9.3,4.4,15.6,10.4C358.6,298.4,365.7,311.1,362.1,332.8L362.1,332.8z"/>
			<path class="st9" d="M362.1,332.8l-8.7,13.3l-6.5-10.9l0.6-13.8l-19.9,1.8l-9.5,4.5l4.1,11.1l8.5-1.4l22.6,8.8l-29.1-0.9
				l-10.3-17l-20.3-16.6l17.5-4.3l19,11.5h18l-9.1-11.5L343,288c0,0,9.3,4.4,15.6,10.4C358.6,298.4,365.7,311.1,362.1,332.8
				L362.1,332.8z"/>
		</g>
		<g>
			<path class="st7" d="M269.8,304.5c-0.7-1.3-0.8-8.5-0.1-9.4c0.7-0.9,15.6-7.3,28.4-5.1l4.6,12.9l-8.3,6.2l-13.1,1.5L269.8,304.5
				L269.8,304.5z"/>
			<path class="st13" d="M269.8,304.5c-0.7-1.3-0.8-8.5-0.1-9.4c0.7-0.9,15.6-7.3,28.4-5.1l4.6,12.9l-8.3,6.2l-13.1,1.5L269.8,304.5
				L269.8,304.5z"/>
			<path class="st9" d="M302.7,303l-8.3,6.2l-13.1,1.5l-11.5-6.2c-0.6-1.3-0.8-8.5-0.1-9.4c0,0,9.7-0.8,11.5,0
				c1.9,0.9,10.9,11.2,10.9,11.2L302.7,303L302.7,303z"/>
			<path class="st7" d="M277.5,296.2l-14.3,7.7l1.5,36.5c0,0,8.6-0.4,11.5-2.6c3-2.2,10.9-31.4,10.9-31.4L277.5,296.2L277.5,296.2z"
				/>
			<path class="st12" d="M287.1,306.3c0,0-7.9,29.2-10.9,31.4c-2.9,2.2-11,2.6-11.5,2.6c0,0,0,0,0,0l-1.5-36.5l14.3-7.7L287.1,306.3
				L287.1,306.3z"/>
			<path class="st9" d="M287.1,306.3c0,0-7.9,29.2-10.9,31.4c-2.9,2.2-11,2.6-11.5,2.6c6.7-2.1,8.2-5.8,8.2-5.8l4.7-38.4
				L287.1,306.3L287.1,306.3z"/>
		</g>
		<g>
			<polygon class="st7" points="316.3,358 316,353.7 328.4,338.9 342.2,336.7 351.9,347.5 334.9,363.1 324.7,366.5 			"/>
			<path class="st13" d="M351.9,347.5l-17,15.6l-10.3,3.4l-8.3-8.5l-0.3-4.4l12.4-14.8l13.8-2.1h0L351.9,347.5L351.9,347.5z"/>
			<path class="st9" d="M351.9,347.5l-17,15.6l-10.3,3.4l-8.3-8.5l-0.3-4.4l13.1-1.7l13.2-15.2h0L351.9,347.5L351.9,347.5z"/>
			<path class="st7" d="M295.5,374.5c-0.2-7.4,18.5-18,18.5-18l14.4-1.1l4.3,10.5l-25.4,10.2L295.5,374.5L295.5,374.5z"/>
			<path class="st12" d="M332.7,365.9l-25.4,10.2l-11.9-1.5c-0.2-7.4,18.5-18,18.5-18l14.4-1.1L332.7,365.9L332.7,365.9z"/>
			<path class="st9" d="M332.7,365.9l-25.4,10.2l-11.9-1.5l11.6-0.1c0,0,3.4-12,21.4-19L332.7,365.9L332.7,365.9z"/>
		</g>
		<g>
			<path class="st7" d="M306.6,290.3l3.6-3.9c0,0,13.8-3.8,19.7-3s10.1,3.4,10.1,3.4l-2,18.1c0,0-18.1,3.6-21.3,2
				C313.5,305.2,306.6,290.3,306.6,290.3L306.6,290.3z"/>
			<path class="st13" d="M340,286.8l-2,18.1c0,0-18.1,3.6-21.3,2c-3.2-1.7-10.1-16.6-10.1-16.6l3.6-3.9c0,0,13.8-3.7,19.7-3
				C335.8,284.2,340,286.8,340,286.8z"/>
			<path class="st9" d="M338,304.9c0,0-18.1,3.6-21.3,2c-3.2-1.7-10.1-16.6-10.1-16.6s12.2-1.9,15.4-0.3c3.2,1.5,7.1,13.4,7.1,13.4
				L338,304.9z"/>
			<path class="st7" d="M291.1,334l11.6-43.7h17.1l4.5,12.6c0,0-14.5,28.3-19.8,31.1S291.1,334,291.1,334L291.1,334z"/>
			<path class="st12" d="M324.3,302.8c0,0-14.5,28.3-19.8,31.1s-13.4,0-13.4,0l11.6-43.7h17.1L324.3,302.8L324.3,302.8z"/>
			<path class="st9" d="M324.3,302.8c0,0-14.5,28.3-19.8,31.1s-13.4,0-13.4,0c10,0.3,11.7-3.5,11.7-3.5l17-40.1L324.3,302.8
				L324.3,302.8z"/>
		</g>
	</g>
</g>
</svg>
