<svg width="84" height="58" viewBox="0 0 84 58" fill="none" xmlns="http://www.w3.org/2000/svg">
<path d="M41.3171 6.46411L76.556 14.1129L82.5646 26.8232C83.1204 27.999 82.4239 29.3841 81.1486 29.6392L76.556 30.5577V47.7393C76.556 48.6804 75.8999 49.4942 74.9802 49.6938L41.3171 57.0005L7.3839 49.6919C6.46274 49.4935 5.80501 48.679 5.80501 47.7367V29.3558L2.57556 28.5807C1.39498 28.2973 0.737104 27.036 1.18036 25.9057L5.80501 14.1129L41.3171 6.46411Z" fill="#EBF0FF"/>
<path d="M5.80501 14.1129L41.3171 21.7616M5.80501 14.1129L41.3171 6.46411M5.80501 14.1129L1.18036 25.9057C0.737104 27.036 1.39498 28.2973 2.57556 28.5807L5.80501 29.3558M41.3171 21.7616L76.556 14.1129M41.3171 21.7616L35.1818 34.7685C34.7776 35.6254 33.8275 36.0811 32.9062 35.86L5.80501 29.3558M41.3171 21.7616L47.479 34.8249C47.8711 35.6561 48.779 36.1131 49.6801 35.9329L76.556 30.5577M41.3171 21.7616V57.0005M41.3171 21.7616V6.46411M76.556 14.1129L41.3171 6.46411M76.556 14.1129L82.5646 26.8232C83.1204 27.999 82.4239 29.3841 81.1486 29.6392L76.556 30.5577M5.80501 29.3558V47.7367C5.80501 48.679 6.46274 49.4935 7.3839 49.6919L41.3171 57.0005M41.3171 57.0005L74.9802 49.6938C75.8999 49.4942 76.556 48.6804 76.556 47.7393V30.5577" stroke="#9EB6FE"/>
<circle cx="27.1124" cy="12.2005" r="10.6536" fill="#EBF0FF"/>
<path fill-rule="evenodd" clip-rule="evenodd" d="M38.312 12.2005C38.312 18.386 33.2976 23.4004 27.1121 23.4004C20.9265 23.4004 15.9121 18.386 15.9121 12.2005C15.9121 6.01488 20.9265 1.00049 27.1121 1.00049C33.2976 1.00049 38.312 6.01488 38.312 12.2005ZM29.0243 6.05413C29.0243 5.07349 28.2293 4.27853 27.2487 4.27853C26.268 4.27853 25.4731 5.07349 25.4731 6.05413V12.0639C25.4731 13.0445 26.268 13.8395 27.2487 13.8395C28.2293 13.8395 29.0243 13.0445 29.0243 12.0639V6.05413ZM27.3852 20.1224C28.5922 20.1224 29.5706 19.144 29.5706 17.937C29.5706 16.7301 28.5922 15.7517 27.3852 15.7517C26.1783 15.7517 25.1999 16.7301 25.1999 17.937C25.1999 19.144 26.1783 20.1224 27.3852 20.1224Z" fill="white" stroke="#9EB6FE"/>
</svg>
