<svg width="164" height="20" viewBox="0 0 164 20" fill="none" xmlns="http://www.w3.org/2000/svg">
<path d="M10 1.66667L12.575 6.88334L18.3333 7.725L14.1667 11.7833L15.15 17.5167L10 14.8083L4.85 17.5167L5.83333 11.7833L1.66667 7.725L7.425 6.88334L10 1.66667Z" fill="#EEC746"/>
<path d="M34 1.66667L36.575 6.88334L42.3333 7.725L38.1667 11.7833L39.15 17.5167L34 14.8083L28.85 17.5167L29.8333 11.7833L25.6667 7.725L31.425 6.88334L34 1.66667Z" fill="#EEC746"/>
<path d="M58 1.66667L60.575 6.88334L66.3333 7.725L62.1667 11.7833L63.15 17.5167L58 14.8083L52.85 17.5167L53.8333 11.7833L49.6667 7.725L55.425 6.88334L58 1.66667Z" fill="#EEC746"/>
<path d="M82 1.66667L84.575 6.88334L90.3333 7.725L86.1667 11.7833L87.15 17.5167L82 14.8083L76.85 17.5167L77.8333 11.7833L73.6667 7.725L79.425 6.88334L82 1.66667Z" fill="#EEC746"/>
<path d="M106 1.66667L108.575 6.88334L114.333 7.725L110.167 11.7833L111.15 17.5167L106 14.8083L100.85 17.5167L101.833 11.7833L97.6667 7.725L103.425 6.88334L106 1.66667Z" stroke="#EEC746" stroke-linecap="round" stroke-linejoin="round"/>
<path d="M125.278 11.6364C125.278 13.7841 125.858 15.5739 126.898 17.0909H127.784C126.966 15.9659 126.318 13.6648 126.318 11.6364C126.318 9.60795 126.966 7.30682 127.784 6.18182H126.898C125.858 7.69886 125.278 9.48864 125.278 11.6364ZM132.319 7.27273H131.262L129.081 8.72159V9.79545L131.211 8.38068H131.262V16H132.319V7.27273ZM135.831 14.8068H134.74L134.689 15.2841C134.565 16.4389 134.322 17.5895 134.211 18.1307H134.978C135.183 17.5511 135.618 16.2386 135.762 15.267L135.831 14.8068ZM140.219 16.1193C142.145 16.1193 143.253 14.4872 143.253 11.6364C143.253 8.80682 142.128 7.15341 140.219 7.15341C138.31 7.15341 137.185 8.80682 137.185 11.6364C137.185 14.4872 138.293 16.1193 140.219 16.1193ZM140.219 15.1818C138.949 15.1818 138.207 13.9077 138.207 11.6364C138.207 9.36932 138.957 8.07386 140.219 8.07386C141.48 8.07386 142.23 9.36932 142.23 11.6364C142.23 13.9077 141.489 15.1818 140.219 15.1818ZM147.77 16.1193C149.534 16.1406 150.685 14.8111 150.685 13.1875C150.685 11.5 149.436 10.2898 147.94 10.2898C147.041 10.2898 146.27 10.7287 145.793 11.4489H145.724C145.729 9.32244 146.555 8.09091 147.906 8.09091C148.827 8.09091 149.381 8.67045 149.577 9.45455H150.616C150.403 8.09943 149.372 7.15341 147.906 7.15341C145.942 7.15341 144.736 8.89205 144.736 11.9773C144.736 15.2031 146.338 16.1023 147.77 16.1193ZM147.77 15.1818C146.675 15.1818 145.874 14.2486 145.878 13.2045C145.882 12.1605 146.722 11.2273 147.804 11.2273C148.874 11.2273 149.662 12.1051 149.662 13.1875C149.662 14.2955 148.839 15.1818 147.77 15.1818ZM155.207 16.1193C157.133 16.1193 158.241 14.4872 158.241 11.6364C158.241 8.80682 157.116 7.15341 155.207 7.15341C153.298 7.15341 152.173 8.80682 152.173 11.6364C152.173 14.4872 153.281 16.1193 155.207 16.1193ZM155.207 15.1818C153.937 15.1818 153.196 13.9077 153.196 11.6364C153.196 9.36932 153.946 8.07386 155.207 8.07386C156.468 8.07386 157.218 9.36932 157.218 11.6364C157.218 13.9077 156.477 15.1818 155.207 15.1818ZM162.025 11.6364C162.025 9.48864 161.446 7.69886 160.406 6.18182H159.52C160.338 7.30682 160.985 9.60795 160.985 11.6364C160.985 13.6648 160.338 15.9659 159.52 17.0909H160.406C161.446 15.5739 162.025 13.7841 162.025 11.6364Z" fill="#6B788D"/>
</svg>
