<svg width="384" height="88" viewBox="0 0 384 88" fill="none" xmlns="http://www.w3.org/2000/svg">
<rect width="384" height="88" rx="4" fill="#F8F9FA"/>
<path d="M78.9893 24.4734H75.8206C75.7216 24.4726 75.6242 24.4484 75.5363 24.4027C75.4485 24.357 75.3727 24.2912 75.3152 24.2106L71.6109 18.1866C71.4682 17.9746 71.2755 17.8011 71.0499 17.6812C70.8243 17.5613 70.5726 17.4989 70.3171 17.4993H54.9337C54.5195 17.4993 54.1223 17.6638 53.8295 17.9566C53.5366 18.2495 53.3721 18.6467 53.3721 19.0609V22.8815H51.4921C51.3688 22.8815 51.2505 22.9304 51.1633 23.0176C51.0761 23.1048 51.0272 23.2231 51.0272 23.3464C51.0272 23.4697 51.0761 23.588 51.1633 23.6752C51.2505 23.7623 51.3688 23.8113 51.4921 23.8113H53.367V27.2681H53.2457C53.1224 27.2681 53.0042 27.317 52.917 27.4042C52.8298 27.4914 52.7808 27.6097 52.7808 27.733C52.7808 27.8563 52.8298 27.9746 52.917 28.0618C53.0042 28.149 53.1224 28.1979 53.2457 28.1979H56.9551C57.0785 28.1979 57.1967 28.149 57.2839 28.0618C57.3711 27.9746 57.4201 27.8563 57.4201 27.733C57.4201 27.6097 57.3711 27.4914 57.2839 27.4042C57.1967 27.317 57.0785 27.2681 56.9551 27.2681H54.2767V23.8012H62.5647C62.6881 23.8012 62.8063 23.7522 62.8935 23.665C62.9807 23.5779 63.0297 23.4596 63.0297 23.3363C63.0297 23.213 62.9807 23.0947 62.8935 23.0075C62.8063 22.9203 62.6881 22.8713 62.5647 22.8713H54.2969V19.0609C54.2969 18.9775 54.3134 18.8949 54.3455 18.8179C54.3775 18.741 54.4245 18.6711 54.4837 18.6124C54.5429 18.5537 54.6131 18.5072 54.6904 18.4758C54.7676 18.4443 54.8503 18.4285 54.9337 18.4291H70.307C70.406 18.4299 70.5034 18.4541 70.5913 18.4998C70.6791 18.5455 70.7549 18.6113 70.8124 18.6919L74.5218 24.721C74.6649 24.9337 74.8584 25.1077 75.085 25.2276C75.3116 25.3475 75.5642 25.4095 75.8206 25.4083H78.9893C79.0005 25.4083 79.0117 25.4105 79.0221 25.4148C79.0326 25.4192 79.042 25.4255 79.05 25.4335C79.058 25.4414 79.0643 25.4509 79.0686 25.4613C79.0729 25.4718 79.0752 25.4829 79.0752 25.4942V31.3211C79.0752 31.3324 79.0729 31.3436 79.0686 31.354C79.0643 31.3644 79.058 31.3739 79.05 31.3819C79.042 31.3898 79.0326 31.3962 79.0221 31.4005C79.0117 31.4048 79.0005 31.407 78.9893 31.407H75.3405C75.2383 30.7879 74.9195 30.2251 74.4409 29.8192C73.9624 29.4132 73.3553 29.1903 72.7277 29.1903C72.1002 29.1903 71.493 29.4132 71.0145 29.8192C70.536 30.2251 70.2172 30.7879 70.115 31.407H63.0196C62.9173 30.7879 62.5986 30.2251 62.12 29.8192C61.6415 29.4132 61.0344 29.1903 60.4068 29.1903C59.7793 29.1903 59.1721 29.4132 58.6936 29.8192C58.2151 30.2251 57.8963 30.7879 57.7941 31.407H53.8522C53.7289 31.407 53.6106 31.456 53.5234 31.5432C53.4362 31.6304 53.3872 31.7487 53.3872 31.872C53.3872 31.9953 53.4362 32.1135 53.5234 32.2007C53.6106 32.2879 53.7289 32.3369 53.8522 32.3369H57.8042C57.9209 32.9422 58.2448 33.488 58.7202 33.8805C59.1956 34.273 59.7929 34.4877 60.4093 34.4877C61.0258 34.4877 61.6231 34.273 62.0985 33.8805C62.5739 33.488 62.8978 32.9422 63.0145 32.3369H70.1402C70.2543 32.9451 70.5774 33.4943 71.0536 33.8895C71.5298 34.2846 72.1291 34.5009 72.7479 34.5009C73.3667 34.5009 73.9661 34.2846 74.4423 33.8895C74.9185 33.4943 75.2416 32.9451 75.3556 32.3369H78.9893C79.2573 32.3369 79.5144 32.2304 79.704 32.0409C79.8935 31.8513 80 31.5942 80 31.3262V25.4892C80.0007 25.356 79.975 25.224 79.9245 25.1008C79.874 24.9776 79.7997 24.8656 79.7057 24.7712C79.6118 24.6768 79.5002 24.6019 79.3772 24.5508C79.2543 24.4997 79.1224 24.4734 78.9893 24.4734ZM60.3917 33.57C60.0498 33.57 59.7157 33.4686 59.4314 33.2787C59.1472 33.0888 58.9257 32.8189 58.7949 32.5031C58.664 32.1873 58.6298 31.8397 58.6965 31.5045C58.7632 31.1692 58.9278 30.8612 59.1695 30.6195C59.4112 30.3778 59.7192 30.2132 60.0545 30.1465C60.3897 30.0798 60.7373 30.114 61.0531 30.2449C61.3689 30.3757 61.6388 30.5972 61.8287 30.8814C62.0187 31.1657 62.12 31.4998 62.12 31.8417C62.1187 32.2996 61.9362 32.7385 61.6123 33.0623C61.2885 33.3862 60.8496 33.5687 60.3917 33.57ZM72.7277 33.57C72.3859 33.57 72.0517 33.4686 71.7675 33.2787C71.4833 33.0888 71.2617 32.8189 71.1309 32.5031C71.0001 32.1873 70.9659 31.8397 71.0326 31.5045C71.0993 31.1692 71.2639 30.8612 71.5056 30.6195C71.7473 30.3778 72.0553 30.2132 72.3905 30.1465C72.7258 30.0798 73.0733 30.114 73.3891 30.2449C73.705 30.3757 73.9749 30.5972 74.1648 30.8814C74.3547 31.1657 74.4561 31.4998 74.4561 31.8417C74.4548 32.2996 74.2722 32.7385 73.9484 33.0623C73.6245 33.3862 73.1857 33.5687 72.7277 33.57ZM51.2091 27.263H48.4649C48.3416 27.263 48.2234 27.312 48.1362 27.3992C48.049 27.4864 48 27.6046 48 27.7279C48 27.8513 48.049 27.9695 48.1362 28.0567C48.2234 28.1439 48.3416 28.1929 48.4649 28.1929H51.204C51.3274 28.1929 51.4456 28.1439 51.5328 28.0567C51.62 27.9695 51.669 27.8513 51.669 27.7279C51.669 27.6046 51.62 27.4864 51.5328 27.3992C51.4456 27.312 51.3274 27.263 51.204 27.263H51.2091Z" fill="#6B788D"/>
<path d="M16.0138 52H17.0707V48.0966H20.8548V47.1591H17.0707V44.2102H21.2468V43.2727H16.0138V52ZM22.8501 52H23.8558V47.858C23.8558 46.9716 24.5547 46.3239 25.5092 46.3239C25.7777 46.3239 26.0547 46.375 26.1229 46.392V45.3693C26.0078 45.3608 25.7436 45.3523 25.5945 45.3523C24.8104 45.3523 24.1286 45.7955 23.8899 46.4432H23.8217V45.4545H22.8501V52ZM29.8601 52.1364C31.1896 52.1364 32.1612 51.4716 32.468 50.483L31.4964 50.2102C31.2408 50.892 30.6484 51.233 29.8601 51.233C28.6797 51.233 27.8658 50.4702 27.8189 49.0682H32.5703V48.642C32.5703 46.2045 31.1214 45.3693 29.7578 45.3693C27.9851 45.3693 26.8089 46.767 26.8089 48.7784C26.8089 50.7898 27.968 52.1364 29.8601 52.1364ZM27.8189 48.1989C27.8871 47.1804 28.6072 46.2727 29.7578 46.2727C30.8487 46.2727 31.5476 47.0909 31.5476 48.1989H27.8189ZM36.8445 52.1364C38.174 52.1364 39.1456 51.4716 39.4524 50.483L38.4808 50.2102C38.2251 50.892 37.6328 51.233 36.8445 51.233C35.6641 51.233 34.8501 50.4702 34.8033 49.0682H39.5547V48.642C39.5547 46.2045 38.1058 45.3693 36.7422 45.3693C34.9695 45.3693 33.7933 46.767 33.7933 48.7784C33.7933 50.7898 34.9524 52.1364 36.8445 52.1364ZM34.8033 48.1989C34.8714 47.1804 35.5916 46.2727 36.7422 46.2727C37.8331 46.2727 38.532 47.0909 38.532 48.1989H34.8033ZM42.5845 50.8068H41.4936L41.4425 51.2841C41.3189 52.4389 41.076 53.5895 40.9652 54.1307H41.7322C41.9368 53.5511 42.3714 52.2386 42.5163 51.267L42.5845 50.8068ZM48.8285 48.0625C48.8285 46.9205 49.5359 46.2727 50.4989 46.2727C51.4322 46.2727 51.9989 46.8821 51.9989 47.9091V52H53.0046V47.8409C53.0046 46.1705 52.114 45.3693 50.7887 45.3693C49.8001 45.3693 49.1864 45.8125 48.8796 46.4773H48.7944V45.4545H47.8228V52H48.8285V48.0625ZM57.5014 52.1364C59.2741 52.1364 60.4673 50.7898 60.4673 48.7614C60.4673 46.7159 59.2741 45.3693 57.5014 45.3693C55.7287 45.3693 54.5355 46.7159 54.5355 48.7614C54.5355 50.7898 55.7287 52.1364 57.5014 52.1364ZM57.5014 51.233C56.1548 51.233 55.5412 50.0739 55.5412 48.7614C55.5412 47.4489 56.1548 46.2727 57.5014 46.2727C58.848 46.2727 59.4616 47.4489 59.4616 48.7614C59.4616 50.0739 58.848 51.233 57.5014 51.233ZM65.7525 47.7898H61.9343V48.7273H65.7525V47.7898ZM70.1811 52.1364C71.63 52.1364 72.5845 51.25 72.755 50.0909H71.7493C71.5618 50.8068 70.9652 51.233 70.1811 51.233C68.9879 51.233 68.2209 50.2443 68.2209 48.7273C68.2209 47.2443 69.005 46.2727 70.1811 46.2727C71.0675 46.2727 71.5959 46.8182 71.7493 47.4148H72.755C72.5845 46.1875 71.5447 45.3693 70.1641 45.3693C68.3913 45.3693 67.2152 46.767 67.2152 48.7614C67.2152 50.7216 68.3402 52.1364 70.1811 52.1364ZM76.8842 52.1364C78.657 52.1364 79.8501 50.7898 79.8501 48.7614C79.8501 46.7159 78.657 45.3693 76.8842 45.3693C75.1115 45.3693 73.9183 46.7159 73.9183 48.7614C73.9183 50.7898 75.1115 52.1364 76.8842 52.1364ZM76.8842 51.233C75.5376 51.233 74.924 50.0739 74.924 48.7614C74.924 47.4489 75.5376 46.2727 76.8842 46.2727C78.2308 46.2727 78.8445 47.4489 78.8445 48.7614C78.8445 50.0739 78.2308 51.233 76.8842 51.233ZM82.391 48.0625C82.391 46.9205 83.0984 46.2727 84.0614 46.2727C84.9947 46.2727 85.5614 46.8821 85.5614 47.9091V52H86.5671V47.8409C86.5671 46.1705 85.6765 45.3693 84.3512 45.3693C83.3626 45.3693 82.7489 45.8125 82.4421 46.4773H82.3569V45.4545H81.3853V52H82.391V48.0625ZM91.2514 45.4545H89.8537V43.8864H88.848V45.4545H87.8594V46.3068H88.848V50.3977C88.848 51.5398 89.7685 52.0852 90.6207 52.0852C90.9957 52.0852 91.2344 52.017 91.3707 51.9659L91.1662 51.0625C91.081 51.0795 90.9446 51.1136 90.723 51.1136C90.2798 51.1136 89.8537 50.9773 89.8537 50.125V46.3068H91.2514V45.4545ZM94.6903 52.1534C95.8324 52.1534 96.429 51.5398 96.6335 51.1136H96.6847V52H97.6903V47.6875C97.6903 45.608 96.1051 45.3693 95.2699 45.3693C94.2812 45.3693 93.1562 45.7102 92.6449 46.9034L93.5994 47.2443C93.821 46.767 94.3452 46.2557 95.304 46.2557C96.2287 46.2557 96.6847 46.7457 96.6847 47.5852V47.6193C96.6847 48.1051 96.1903 48.0625 94.9972 48.2159C93.7827 48.3736 92.4574 48.642 92.4574 50.142C92.4574 51.4205 93.446 52.1534 94.6903 52.1534ZM94.8438 51.25C94.0426 51.25 93.4631 50.892 93.4631 50.1932C93.4631 49.4261 94.1619 49.1875 94.946 49.0852C95.3722 49.0341 96.5142 48.9148 96.6847 48.7102V49.6307C96.6847 50.4489 96.0369 51.25 94.8438 51.25ZM102.185 52.1364C103.634 52.1364 104.588 51.25 104.759 50.0909H103.753C103.566 50.8068 102.969 51.233 102.185 51.233C100.992 51.233 100.225 50.2443 100.225 48.7273C100.225 47.2443 101.009 46.2727 102.185 46.2727C103.071 46.2727 103.6 46.8182 103.753 47.4148H104.759C104.588 46.1875 103.549 45.3693 102.168 45.3693C100.395 45.3693 99.2191 46.767 99.2191 48.7614C99.2191 50.7216 100.344 52.1364 102.185 52.1364ZM109.076 45.4545H107.678V43.8864H106.672V45.4545H105.684V46.3068H106.672V50.3977C106.672 51.5398 107.593 52.0852 108.445 52.0852C108.82 52.0852 109.059 52.017 109.195 51.9659L108.99 51.0625C108.905 51.0795 108.769 51.1136 108.547 51.1136C108.104 51.1136 107.678 50.9773 107.678 50.125V46.3068H109.076V45.4545ZM41.9331 68.1364C43.1944 68.1364 43.6206 67.3523 43.8422 66.9943H43.9615V68H44.9331V59.2727H43.9274V62.4943H43.8422C43.6206 62.1534 43.2285 61.3693 41.9501 61.3693C40.2967 61.3693 39.1547 62.6818 39.1547 64.7443C39.1547 66.8239 40.2967 68.1364 41.9331 68.1364ZM42.0694 67.233C40.8081 67.233 40.1603 66.125 40.1603 64.7273C40.1603 63.3466 40.791 62.2727 42.0694 62.2727C43.2967 62.2727 43.9444 63.2614 43.9444 64.7273C43.9444 66.2102 43.2797 67.233 42.0694 67.233ZM49.6589 68.1364C50.9885 68.1364 51.96 67.4716 52.2669 66.483L51.2953 66.2102C51.0396 66.892 50.4473 67.233 49.6589 67.233C48.4785 67.233 47.6646 66.4702 47.6177 65.0682H52.3691V64.642C52.3691 62.2045 50.9203 61.3693 49.5566 61.3693C47.7839 61.3693 46.6078 62.767 46.6078 64.7784C46.6078 66.7898 47.7669 68.1364 49.6589 68.1364ZM47.6177 64.1989C47.6859 63.1804 48.4061 62.2727 49.5566 62.2727C50.6475 62.2727 51.3464 63.0909 51.3464 64.1989H47.6177ZM54.9047 59.2727H53.899V68H54.9047V59.2727ZM56.7466 68H57.7523V61.4545H56.7466V68ZM57.258 60.3636C57.65 60.3636 57.9739 60.0568 57.9739 59.6818C57.9739 59.3068 57.65 59 57.258 59C56.8659 59 56.5421 59.3068 56.5421 59.6818C56.5421 60.0568 56.8659 60.3636 57.258 60.3636ZM64.9466 61.4545H63.8556L62.0488 66.6705H61.9806L60.1738 61.4545H59.0829L61.5034 68H62.5261L64.9466 61.4545ZM68.7839 68.1364C70.1135 68.1364 71.085 67.4716 71.3919 66.483L70.4203 66.2102C70.1646 66.892 69.5723 67.233 68.7839 67.233C67.6035 67.233 66.7896 66.4702 66.7427 65.0682H71.4941V64.642C71.4941 62.2045 70.0453 61.3693 68.6816 61.3693C66.9089 61.3693 65.7328 62.767 65.7328 64.7784C65.7328 66.7898 66.8919 68.1364 68.7839 68.1364ZM66.7427 64.1989C66.8109 63.1804 67.5311 62.2727 68.6816 62.2727C69.7725 62.2727 70.4714 63.0909 70.4714 64.1989H66.7427ZM73.024 68H74.0297V63.858C74.0297 62.9716 74.7285 62.3239 75.6831 62.3239C75.9515 62.3239 76.2285 62.375 76.2967 62.392V61.3693C76.1816 61.3608 75.9174 61.3523 75.7683 61.3523C74.9842 61.3523 74.3024 61.7955 74.0637 62.4432H73.9956V61.4545H73.024V68ZM78.3358 70.4545C79.2434 70.4545 79.8826 69.973 80.2619 68.9545L83.0488 61.4716L81.9494 61.4545L80.1426 66.6705H80.0744L78.2676 61.4545H77.1767L79.5971 68.0341L79.4096 68.5455C79.0431 69.5426 78.5914 69.6364 77.8585 69.4489L77.6028 70.3352C77.7051 70.3864 77.9949 70.4545 78.3358 70.4545ZM86.0499 64.1818H86.8681L86.7999 62.3068L88.3851 63.3125L88.7942 62.5966L87.1238 61.7273L88.7942 60.858L88.3851 60.142L86.7999 61.1477L86.8681 59.2727H86.0499L86.1181 61.1477L84.5328 60.142L84.1238 60.858L85.7942 61.7273L84.1238 62.5966L84.5328 63.3125L86.1181 62.3068L86.0499 64.1818Z" fill="#6B788D"/>
<path d="M191.363 35C188.974 35.0011 186.683 34.0538 184.992 32.3662C183.301 30.6787 182.35 28.389 182.347 26.0002C182.347 18.0837 191.106 17.0127 191.192 17.0046C191.267 16.9922 191.345 17.0051 191.413 17.0411C191.48 17.0772 191.534 17.1344 191.566 17.2041C191.598 17.2698 191.61 17.3433 191.601 17.4156C191.591 17.488 191.561 17.556 191.513 17.6113C190.452 18.801 189.757 20.2728 189.515 21.8487C189.272 23.4246 189.491 25.0371 190.145 26.4911C190.8 27.9451 191.861 29.1783 193.202 30.0416C194.543 30.9048 196.105 31.3612 197.699 31.3553C197.77 31.353 197.84 31.3708 197.901 31.4068C197.963 31.4428 198.012 31.4954 198.045 31.5586C198.077 31.6218 198.091 31.6928 198.085 31.7636C198.078 31.8343 198.052 31.9017 198.009 31.958C197.923 32.0639 195.854 35 191.363 35ZM190.349 17.8964C188.182 18.4054 183.112 20.1728 183.112 26.0002C183.117 28.1871 183.987 30.2831 185.533 31.8294C187.08 33.3758 189.176 34.2464 191.363 34.2507C192.386 34.2711 193.403 34.0883 194.355 33.713C195.307 33.3376 196.175 32.7771 196.909 32.0639C195.335 31.9233 193.825 31.3708 192.532 30.4618C191.239 29.5528 190.208 28.3194 189.542 26.8855C188.877 25.4517 188.601 23.868 188.742 22.2937C188.883 20.7193 189.435 19.2098 190.345 17.9168L190.349 17.8964Z" fill="#6B788D"/>
<path d="M195.105 25.1859C194.997 25.1859 194.894 25.1429 194.817 25.0666C194.741 24.9902 194.698 24.8866 194.698 24.7786C194.698 24.4552 194.634 24.135 194.51 23.8365C194.385 23.538 194.203 23.2672 193.973 23.0398C193.75 22.8105 193.483 22.6297 193.187 22.5085C192.891 22.3873 192.574 22.3283 192.255 22.3353C192.147 22.3353 192.043 22.2923 191.967 22.216C191.89 22.1396 191.847 22.036 191.847 21.928C191.847 21.82 191.89 21.7164 191.967 21.6401C192.043 21.5637 192.147 21.5208 192.255 21.5208C192.9 21.5069 193.513 21.2383 193.961 20.7736C194.409 20.309 194.655 19.686 194.645 19.0408C194.645 18.9328 194.688 18.8292 194.764 18.7528C194.841 18.6764 194.944 18.6335 195.052 18.6335C195.284 18.6743 195.459 18.8127 195.459 19.0408C195.459 19.6832 195.712 20.2998 196.164 20.7571C196.615 21.2144 197.228 21.4756 197.87 21.4841H197.891C197.999 21.4841 198.102 21.527 198.179 21.6034C198.255 21.6798 198.298 21.7834 198.298 21.8914C198.298 21.9994 198.255 22.103 198.179 22.1793C198.102 22.2557 197.999 22.2986 197.891 22.2986C197.573 22.301 197.258 22.3675 196.966 22.4942C196.675 22.6208 196.411 22.805 196.192 23.0357C195.749 23.507 195.505 24.1316 195.512 24.7786C195.512 24.8866 195.469 24.9902 195.393 25.0666C195.317 25.1429 195.213 25.1859 195.105 25.1859ZM193.831 21.928C194.361 22.2089 194.802 22.632 195.105 23.1497C195.249 22.8894 195.426 22.6485 195.63 22.433C195.837 22.2173 196.071 22.0297 196.327 21.8751C195.798 21.5799 195.361 21.1445 195.064 20.6167C194.783 21.1475 194.36 21.59 193.843 21.8954L193.831 21.928ZM199.414 28.8509C199.315 28.8509 199.221 28.8119 199.152 28.7424C199.082 28.6729 199.043 28.5786 199.043 28.4803C198.989 28.0982 198.802 27.7475 198.514 27.4908C198.264 27.2079 197.922 27.0231 197.548 26.9695C197.45 26.9695 197.356 26.9305 197.286 26.861C197.217 26.7915 197.178 26.6972 197.178 26.5989C197.178 26.5007 197.217 26.4064 197.286 26.3369C197.356 26.2674 197.45 26.2284 197.548 26.2284C197.916 26.1722 198.252 25.9857 198.493 25.703C198.79 25.4524 198.986 25.102 199.043 24.7175C199.043 24.6193 199.082 24.525 199.152 24.4555C199.221 24.386 199.315 24.347 199.414 24.347C199.512 24.347 199.606 24.386 199.676 24.4555C199.745 24.525 199.784 24.6193 199.784 24.7175C199.784 25.3284 200.684 26.2324 201.283 26.2324C201.381 26.2324 201.475 26.2715 201.545 26.341C201.614 26.4105 201.653 26.5047 201.653 26.603C201.653 26.7013 201.614 26.7955 201.545 26.865C201.475 26.9345 201.381 26.9736 201.283 26.9736C200.684 26.9736 199.8 27.898 199.805 28.5088C199.805 28.6071 199.766 28.7014 199.696 28.7709C199.627 28.8404 199.532 28.8794 199.434 28.8794L199.414 28.8509ZM198.599 26.5867C198.918 26.806 199.194 27.0821 199.414 27.4012C199.632 27.0747 199.908 26.7905 200.228 26.5623C199.91 26.3419 199.634 26.066 199.414 25.7478C199.296 25.9226 199.159 26.0837 199.006 26.2284C198.876 26.3632 198.733 26.4846 198.579 26.5908L198.599 26.5867Z" fill="#6B788D"/>
<path d="M170.495 43.2727H169.438L167.256 44.7216V45.7955L169.387 44.3807H169.438V52H170.495V43.2727ZM175.852 52.1193C177.778 52.1193 178.886 50.4872 178.886 47.6364C178.886 44.8068 177.761 43.1534 175.852 43.1534C173.942 43.1534 172.817 44.8068 172.817 47.6364C172.817 50.4872 173.925 52.1193 175.852 52.1193ZM175.852 51.1818C174.582 51.1818 173.84 49.9077 173.84 47.6364C173.84 45.3693 174.59 44.0739 175.852 44.0739C177.113 44.0739 177.863 45.3693 177.863 47.6364C177.863 49.9077 177.121 51.1818 175.852 51.1818ZM183.352 52.1193C185.278 52.1193 186.386 50.4872 186.386 47.6364C186.386 44.8068 185.261 43.1534 183.352 43.1534C181.442 43.1534 180.317 44.8068 180.317 47.6364C180.317 50.4872 181.425 52.1193 183.352 52.1193ZM183.352 51.1818C182.082 51.1818 181.34 49.9077 181.34 47.6364C181.34 45.3693 182.09 44.0739 183.352 44.0739C184.613 44.0739 185.363 45.3693 185.363 47.6364C185.363 49.9077 184.621 51.1818 183.352 51.1818ZM193.869 52.1364C195.13 52.1364 195.556 51.3523 195.778 50.9943H195.897V52H196.869V43.2727H195.863V46.4943H195.778C195.556 46.1534 195.164 45.3693 193.886 45.3693C192.232 45.3693 191.09 46.6818 191.09 48.7443C191.09 50.8239 192.232 52.1364 193.869 52.1364ZM194.005 51.233C192.744 51.233 192.096 50.125 192.096 48.7273C192.096 47.3466 192.727 46.2727 194.005 46.2727C195.232 46.2727 195.88 47.2614 195.88 48.7273C195.88 50.2102 195.215 51.233 194.005 51.233ZM200.776 52.1534C201.918 52.1534 202.515 51.5398 202.719 51.1136H202.771V52H203.776V47.6875C203.776 45.608 202.191 45.3693 201.356 45.3693C200.367 45.3693 199.242 45.7102 198.731 46.9034L199.685 47.2443C199.907 46.767 200.431 46.2557 201.39 46.2557C202.315 46.2557 202.771 46.7457 202.771 47.5852V47.6193C202.771 48.1051 202.276 48.0625 201.083 48.2159C199.869 48.3736 198.543 48.642 198.543 50.142C198.543 51.4205 199.532 52.1534 200.776 52.1534ZM200.93 51.25C200.129 51.25 199.549 50.892 199.549 50.1932C199.549 49.4261 200.248 49.1875 201.032 49.0852C201.458 49.0341 202.6 48.9148 202.771 48.7102V49.6307C202.771 50.4489 202.123 51.25 200.93 51.25ZM206.025 54.4545C206.933 54.4545 207.572 53.973 207.951 52.9545L210.738 45.4716L209.639 45.4545L207.832 50.6705H207.764L205.957 45.4545H204.866L207.287 52.0341L207.099 52.5455C206.733 53.5426 206.281 53.6364 205.548 53.4489L205.292 54.3352C205.395 54.3864 205.684 54.4545 206.025 54.4545ZM213.159 50.8068H212.068L212.017 51.2841C211.893 52.4389 211.65 53.5895 211.539 54.1307H212.306C212.511 53.5511 212.946 52.2386 213.091 51.267L213.159 50.8068ZM156.774 68H157.78V63.858C157.78 62.9716 158.479 62.3239 159.433 62.3239C159.702 62.3239 159.979 62.375 160.047 62.392V61.3693C159.932 61.3608 159.667 61.3523 159.518 61.3523C158.734 61.3523 158.052 61.7955 157.814 62.4432H157.746V61.4545H156.774V68ZM161.239 68H162.244V61.4545H161.239V68ZM161.75 60.3636C162.142 60.3636 162.466 60.0568 162.466 59.6818C162.466 59.3068 162.142 59 161.75 59C161.358 59 161.034 59.3068 161.034 59.6818C161.034 60.0568 161.358 60.3636 161.75 60.3636ZM168.723 62.9205C168.407 61.9915 167.7 61.3693 166.405 61.3693C165.024 61.3693 164.001 62.1534 164.001 63.2614C164.001 64.1648 164.538 64.7699 165.74 65.0511L166.831 65.3068C167.491 65.4602 167.802 65.7756 167.802 66.2273C167.802 66.7898 167.206 67.25 166.268 67.25C165.446 67.25 164.93 66.8963 164.751 66.1932L163.797 66.4318C164.031 67.544 164.947 68.1364 166.285 68.1364C167.807 68.1364 168.842 67.3054 168.842 66.1761C168.842 65.2642 168.271 64.6889 167.104 64.4034L166.132 64.1648C165.356 63.973 165.007 63.7131 165.007 63.2102C165.007 62.6477 165.604 62.2386 166.405 62.2386C167.282 62.2386 167.645 62.7244 167.819 63.1761L168.723 62.9205ZM170.356 68H171.362V65.5497L172.065 64.8977L174.515 68H175.794L172.823 64.25L175.589 61.4545H174.345L171.481 64.3693H171.362V59.2727H170.356V68ZM180.083 63.7898H176.264V64.7273H180.083V63.7898ZM184.767 61.4545H183.301V60.7898C183.301 60.142 183.574 59.8011 184.238 59.8011C184.528 59.8011 184.699 59.8693 184.801 59.9034L185.091 59.0341C184.937 58.9659 184.631 58.8636 184.136 58.8636C183.199 58.8636 182.295 59.4261 182.295 60.5511V61.4545H181.238V62.3068H182.295V68H183.301V62.3068H184.767V61.4545ZM186.176 68H187.182V63.858C187.182 62.9716 187.881 62.3239 188.835 62.3239C189.104 62.3239 189.381 62.375 189.449 62.392V61.3693C189.334 61.3608 189.07 61.3523 188.921 61.3523C188.137 61.3523 187.455 61.7955 187.216 62.4432H187.148V61.4545H186.176V68ZM193.186 68.1364C194.516 68.1364 195.487 67.4716 195.794 66.483L194.823 66.2102C194.567 66.892 193.975 67.233 193.186 67.233C192.006 67.233 191.192 66.4702 191.145 65.0682H195.896V64.642C195.896 62.2045 194.448 61.3693 193.084 61.3693C191.311 61.3693 190.135 62.767 190.135 64.7784C190.135 66.7898 191.294 68.1364 193.186 68.1364ZM191.145 64.1989C191.213 63.1804 191.933 62.2727 193.084 62.2727C194.175 62.2727 194.874 63.0909 194.874 64.1989H191.145ZM200.171 68.1364C201.5 68.1364 202.472 67.4716 202.779 66.483L201.807 66.2102C201.551 66.892 200.959 67.233 200.171 67.233C198.99 67.233 198.176 66.4702 198.129 65.0682H202.881V64.642C202.881 62.2045 201.432 61.3693 200.068 61.3693C198.296 61.3693 197.119 62.767 197.119 64.7784C197.119 66.7898 198.279 68.1364 200.171 68.1364ZM198.129 64.1989C198.198 63.1804 198.918 62.2727 200.068 62.2727C201.159 62.2727 201.858 63.0909 201.858 64.1989H198.129ZM210.632 61.4545H209.235V59.8864H208.229V61.4545H207.24V62.3068H208.229V66.3977C208.229 67.5398 209.149 68.0852 210.002 68.0852C210.377 68.0852 210.615 68.017 210.752 67.9659L210.547 67.0625C210.462 67.0795 210.325 67.1136 210.104 67.1136C209.661 67.1136 209.235 66.9773 209.235 66.125V62.3068H210.632V61.4545ZM212.145 68H213.151V63.858C213.151 62.9716 213.85 62.3239 214.804 62.3239C215.073 62.3239 215.35 62.375 215.418 62.392V61.3693C215.303 61.3608 215.039 61.3523 214.889 61.3523C214.105 61.3523 213.423 61.7955 213.185 62.4432H213.117V61.4545H212.145V68ZM216.61 68H217.616V61.4545H216.61V68ZM217.121 60.3636C217.513 60.3636 217.837 60.0568 217.837 59.6818C217.837 59.3068 217.513 59 217.121 59C216.729 59 216.405 59.3068 216.405 59.6818C216.405 60.0568 216.729 60.3636 217.121 60.3636ZM221.384 68.1534C222.526 68.1534 223.122 67.5398 223.327 67.1136H223.378V68H224.384V63.6875C224.384 61.608 222.798 61.3693 221.963 61.3693C220.975 61.3693 219.85 61.7102 219.338 62.9034L220.293 63.2443C220.514 62.767 221.039 62.2557 221.997 62.2557C222.922 62.2557 223.378 62.7457 223.378 63.5852V63.6193C223.378 64.1051 222.884 64.0625 221.691 64.2159C220.476 64.3736 219.151 64.642 219.151 66.142C219.151 67.4205 220.139 68.1534 221.384 68.1534ZM221.537 67.25C220.736 67.25 220.156 66.892 220.156 66.1932C220.156 65.4261 220.855 65.1875 221.639 65.0852C222.066 65.0341 223.208 64.9148 223.378 64.7102V65.6307C223.378 66.4489 222.73 67.25 221.537 67.25ZM227.225 59.2727H226.219V68H227.225V59.2727Z" fill="#6B788D"/>
<path d="M327.8 20.2845H326.597V19.3287C326.597 19.12 326.514 18.9199 326.366 18.7724C326.219 18.6248 326.019 18.542 325.81 18.542H324.044V17.5743C324.044 17.422 323.983 17.2759 323.875 17.1682C323.768 17.0605 323.622 17 323.469 17H322.195C322.043 17 321.897 17.0605 321.789 17.1682C321.681 17.2759 321.621 17.422 321.621 17.5743V18.542H316.389V17.5743C316.387 17.4243 316.327 17.281 316.221 17.1746C316.115 17.0682 315.973 17.007 315.823 17.0039H314.54C314.388 17.0039 314.242 17.0644 314.134 17.1721C314.026 17.2798 313.966 17.4259 313.966 17.5782V18.542H312.2C311.991 18.542 311.791 18.6248 311.643 18.7724C311.496 18.9199 311.413 19.12 311.413 19.3287V32.0105C311.413 32.2191 311.496 32.4192 311.643 32.5668C311.791 32.7143 311.991 32.7972 312.2 32.7972H313.069V34.2133C313.069 34.4219 313.152 34.622 313.299 34.7696C313.447 34.9171 313.647 35 313.856 35H327.8C328.009 35 328.209 34.9171 328.357 34.7696C328.504 34.622 328.587 34.4219 328.587 34.2133V21.0712C328.587 20.8626 328.504 20.6625 328.357 20.515C328.209 20.3674 328.009 20.2845 327.8 20.2845ZM322.352 17.7238H323.332V19.6906H322.352V17.7238ZM314.698 17.7238H315.665V19.6906H314.69L314.698 17.7238ZM312.125 31.9751V19.3287C312.125 19.312 312.132 19.296 312.143 19.2842C312.155 19.2724 312.171 19.2657 312.188 19.2657H313.954V19.8518C313.954 19.9273 313.969 20.0019 313.998 20.0716C314.027 20.1413 314.069 20.2046 314.122 20.2579C314.176 20.3113 314.239 20.3536 314.309 20.3824C314.378 20.4113 314.453 20.4261 314.528 20.4261H315.823C315.975 20.4261 316.121 20.3656 316.229 20.2579C316.336 20.1502 316.397 20.0041 316.397 19.8518V19.2461H321.628V19.8164C321.628 19.9687 321.689 20.1148 321.797 20.2225C321.904 20.3302 322.05 20.3907 322.203 20.3907H323.477C323.63 20.3907 323.776 20.3302 323.883 20.2225C323.991 20.1148 324.052 19.9687 324.052 19.8164V19.2461H325.818C325.834 19.2461 325.85 19.2527 325.862 19.2645C325.874 19.2763 325.881 19.2923 325.881 19.309V31.9751C325.881 31.9918 325.874 32.0078 325.862 32.0196C325.85 32.0314 325.834 32.038 325.818 32.038H312.2C312.191 32.0398 312.181 32.0395 312.172 32.0371C312.163 32.0347 312.155 32.0304 312.147 32.0243C312.14 32.0183 312.135 32.0108 312.131 32.0022C312.127 31.9937 312.125 31.9844 312.125 31.9751ZM327.859 34.1936C327.859 34.2103 327.853 34.2263 327.841 34.2381C327.829 34.2499 327.813 34.2566 327.796 34.2566H313.856C313.839 34.2566 313.823 34.2499 313.811 34.2381C313.799 34.2263 313.793 34.2103 313.793 34.1936V32.7618H325.81C326.019 32.7618 326.219 32.6789 326.366 32.5314C326.514 32.3838 326.597 32.1837 326.597 31.9751V20.9965H327.796C327.813 20.9965 327.829 21.0031 327.841 21.0149C327.853 21.0267 327.859 21.0427 327.859 21.0594V34.1936Z" fill="#6B788D"/>
<path d="M316.106 28.5961V24.1669L315.122 24.5603L314.776 23.6241L316.92 22.8059H317.211V28.5961H316.106ZM320.905 28.6945C319.375 28.6945 318.608 27.3216 318.608 25.7521C318.608 24.1827 319.414 22.8216 320.944 22.8216C322.474 22.8216 323.241 24.1748 323.241 25.7521C323.241 27.3295 322.443 28.6945 320.905 28.6945ZM320.905 23.7382C320.118 23.7382 319.725 24.5957 319.725 25.7561C319.725 26.9165 320.118 27.774 320.905 27.774C321.691 27.774 322.085 26.9165 322.085 25.7561C322.085 24.5957 321.723 23.75 320.936 23.75L320.905 23.7382Z" fill="#6B788D"/>
<path d="M280.114 43.2727H279.057L276.876 44.7216V45.7955L279.006 44.3807H279.057V52H280.114V43.2727ZM285.471 52.1193C287.397 52.1193 288.505 50.4872 288.505 47.6364C288.505 44.8068 287.38 43.1534 285.471 43.1534C283.562 43.1534 282.437 44.8068 282.437 47.6364C282.437 50.4872 283.545 52.1193 285.471 52.1193ZM285.471 51.1818C284.201 51.1818 283.459 49.9077 283.459 47.6364C283.459 45.3693 284.209 44.0739 285.471 44.0739C286.732 44.0739 287.482 45.3693 287.482 47.6364C287.482 49.9077 286.741 51.1818 285.471 51.1818ZM293.891 47.7898H290.073V48.7273H293.891V47.7898ZM296.308 54.4545C297.216 54.4545 297.855 53.973 298.235 52.9545L301.021 45.4716L299.922 45.4545L298.115 50.6705H298.047L296.24 45.4545H295.149L297.57 52.0341L297.382 52.5455C297.016 53.5426 296.564 53.6364 295.831 53.4489L295.575 54.3352C295.678 54.3864 295.968 54.4545 296.308 54.4545ZM304.862 52.1364C306.192 52.1364 307.163 51.4716 307.47 50.483L306.498 50.2102C306.243 50.892 305.65 51.233 304.862 51.233C303.682 51.233 302.868 50.4702 302.821 49.0682H307.572V48.642C307.572 46.2045 306.123 45.3693 304.76 45.3693C302.987 45.3693 301.811 46.767 301.811 48.7784C301.811 50.7898 302.97 52.1364 304.862 52.1364ZM302.821 48.1989C302.889 47.1804 303.609 46.2727 304.76 46.2727C305.851 46.2727 306.55 47.0909 306.55 48.1989H302.821ZM311.028 52.1534C312.17 52.1534 312.767 51.5398 312.971 51.1136H313.023V52H314.028V47.6875C314.028 45.608 312.443 45.3693 311.608 45.3693C310.619 45.3693 309.494 45.7102 308.983 46.9034L309.937 47.2443C310.159 46.767 310.683 46.2557 311.642 46.2557C312.567 46.2557 313.023 46.7457 313.023 47.5852V47.6193C313.023 48.1051 312.528 48.0625 311.335 48.2159C310.121 48.3736 308.795 48.642 308.795 50.142C308.795 51.4205 309.784 52.1534 311.028 52.1534ZM311.182 51.25C310.381 51.25 309.801 50.892 309.801 50.1932C309.801 49.4261 310.5 49.1875 311.284 49.0852C311.71 49.0341 312.852 48.9148 313.023 48.7102V49.6307C313.023 50.4489 312.375 51.25 311.182 51.25ZM315.864 52H316.869V47.858C316.869 46.9716 317.568 46.3239 318.523 46.3239C318.791 46.3239 319.068 46.375 319.137 46.392V45.3693C319.021 45.3608 318.757 45.3523 318.608 45.3523C317.824 45.3523 317.142 45.7955 316.904 46.4432H316.835V45.4545H315.864V52ZM324.709 43.2727H323.704V52H324.709V43.2727ZM326.551 52H327.557V45.4545H326.551V52ZM327.063 44.3636C327.455 44.3636 327.779 44.0568 327.779 43.6818C327.779 43.3068 327.455 43 327.063 43C326.671 43 326.347 43.3068 326.347 43.6818C326.347 44.0568 326.671 44.3636 327.063 44.3636ZM329.399 52H330.405V47.9091C330.405 46.9503 331.104 46.2727 331.888 46.2727C332.65 46.2727 333.183 46.7713 333.183 47.517V52H334.206V47.7386C334.206 46.8949 334.734 46.2727 335.655 46.2727C336.371 46.2727 336.984 46.652 336.984 47.6193V52H337.99V47.6193C337.99 46.081 337.163 45.3693 335.996 45.3693C335.058 45.3693 334.372 45.7997 334.035 46.4773H333.967C333.643 45.7784 333.072 45.3693 332.211 45.3693C331.359 45.3693 330.729 45.7784 330.456 46.4773H330.371V45.4545H329.399V52ZM339.829 52H340.834V45.4545H339.829V52ZM340.34 44.3636C340.732 44.3636 341.056 44.0568 341.056 43.6818C341.056 43.3068 340.732 43 340.34 43C339.948 43 339.624 43.3068 339.624 43.6818C339.624 44.0568 339.948 44.3636 340.34 44.3636ZM345.523 45.4545H344.125V43.8864H343.119V45.4545H342.131V46.3068H343.119V50.3977C343.119 51.5398 344.04 52.0852 344.892 52.0852C345.267 52.0852 345.506 52.017 345.642 51.9659L345.438 51.0625C345.352 51.0795 345.216 51.1136 344.994 51.1136C344.551 51.1136 344.125 50.9773 344.125 50.125V46.3068H345.523V45.4545ZM349.71 52.1364C351.039 52.1364 352.011 51.4716 352.318 50.483L351.346 50.2102C351.09 50.892 350.498 51.233 349.71 51.233C348.529 51.233 347.715 50.4702 347.669 49.0682H352.42V48.642C352.42 46.2045 350.971 45.3693 349.607 45.3693C347.835 45.3693 346.659 46.767 346.659 48.7784C346.659 50.7898 347.818 52.1364 349.71 52.1364ZM347.669 48.1989C347.737 47.1804 348.457 46.2727 349.607 46.2727C350.698 46.2727 351.397 47.0909 351.397 48.1989H347.669ZM356.421 52.1364C357.683 52.1364 358.109 51.3523 358.33 50.9943H358.45V52H359.421V43.2727H358.416V46.4943H358.33C358.109 46.1534 357.717 45.3693 356.438 45.3693C354.785 45.3693 353.643 46.6818 353.643 48.7443C353.643 50.8239 354.785 52.1364 356.421 52.1364ZM356.558 51.233C355.296 51.233 354.649 50.125 354.649 48.7273C354.649 47.3466 355.279 46.2727 356.558 46.2727C357.785 46.2727 358.433 47.2614 358.433 48.7273C358.433 50.2102 357.768 51.233 356.558 51.233ZM294.267 68H295.255L296.687 62.9716H296.789L298.221 68H299.21L301.204 61.4545H300.147L298.733 66.4489H298.664L297.284 61.4545H296.21L294.812 66.4659H294.744L293.329 61.4545H292.272L294.267 68ZM304.46 68.1534C305.602 68.1534 306.199 67.5398 306.403 67.1136H306.454V68H307.46V63.6875C307.46 61.608 305.875 61.3693 305.039 61.3693C304.051 61.3693 302.926 61.7102 302.414 62.9034L303.369 63.2443C303.591 62.767 304.115 62.2557 305.074 62.2557C305.998 62.2557 306.454 62.7457 306.454 63.5852V63.6193C306.454 64.1051 305.96 64.0625 304.767 64.2159C303.552 64.3736 302.227 64.642 302.227 66.142C302.227 67.4205 303.216 68.1534 304.46 68.1534ZM304.613 67.25C303.812 67.25 303.233 66.892 303.233 66.1932C303.233 65.4261 303.931 65.1875 304.716 65.0852C305.142 65.0341 306.284 64.9148 306.454 64.7102V65.6307C306.454 66.4489 305.806 67.25 304.613 67.25ZM309.295 68H310.301V63.858C310.301 62.9716 311 62.3239 311.955 62.3239C312.223 62.3239 312.5 62.375 312.568 62.392V61.3693C312.453 61.3608 312.189 61.3523 312.04 61.3523C311.256 61.3523 310.574 61.7955 310.335 62.4432H310.267V61.4545H309.295V68ZM313.76 68H314.766V63.858C314.766 62.9716 315.465 62.3239 316.419 62.3239C316.688 62.3239 316.965 62.375 317.033 62.392V61.3693C316.918 61.3608 316.654 61.3523 316.505 61.3523C315.721 61.3523 315.039 61.7955 314.8 62.4432H314.732V61.4545H313.76V68ZM320.151 68.1534C321.293 68.1534 321.89 67.5398 322.094 67.1136H322.146V68H323.151V63.6875C323.151 61.608 321.566 61.3693 320.731 61.3693C319.742 61.3693 318.617 61.7102 318.106 62.9034L319.06 63.2443C319.282 62.767 319.806 62.2557 320.765 62.2557C321.69 62.2557 322.146 62.7457 322.146 63.5852V63.6193C322.146 64.1051 321.651 64.0625 320.458 64.2159C319.244 64.3736 317.918 64.642 317.918 66.142C317.918 67.4205 318.907 68.1534 320.151 68.1534ZM320.305 67.25C319.504 67.25 318.924 66.892 318.924 66.1932C318.924 65.4261 319.623 65.1875 320.407 65.0852C320.833 65.0341 321.975 64.9148 322.146 64.7102V65.6307C322.146 66.4489 321.498 67.25 320.305 67.25ZM325.993 64.0625C325.993 62.9205 326.7 62.2727 327.663 62.2727C328.596 62.2727 329.163 62.8821 329.163 63.9091V68H330.169V63.8409C330.169 62.1705 329.278 61.3693 327.953 61.3693C326.964 61.3693 326.35 61.8125 326.044 62.4773H325.958V61.4545H324.987V68H325.993V64.0625ZM334.853 61.4545H333.455V59.8864H332.45V61.4545H331.461V62.3068H332.45V66.3977C332.45 67.5398 333.37 68.0852 334.222 68.0852C334.597 68.0852 334.836 68.017 334.972 67.9659L334.768 67.0625C334.683 67.0795 334.546 67.1136 334.325 67.1136C333.881 67.1136 333.455 66.9773 333.455 66.125V62.3068H334.853V61.4545ZM337.013 70.4545C337.921 70.4545 338.56 69.973 338.94 68.9545L341.727 61.4716L340.627 61.4545L338.82 66.6705H338.752L336.945 61.4545H335.854L338.275 68.0341L338.087 68.5455C337.721 69.5426 337.269 69.6364 336.536 69.4489L336.281 70.3352C336.383 70.3864 336.673 70.4545 337.013 70.4545ZM344.728 64.1818H345.546L345.478 62.3068L347.063 63.3125L347.472 62.5966L345.801 61.7273L347.472 60.858L347.063 60.142L345.478 61.1477L345.546 59.2727H344.728L344.796 61.1477L343.211 60.142L342.801 60.858L344.472 61.7273L342.801 62.5966L343.211 63.3125L344.796 62.3068L344.728 64.1818Z" fill="#6B788D"/>
</svg>
