<svg width="72" height="72" viewBox="0 0 72 72" fill="none" xmlns="http://www.w3.org/2000/svg">
<circle cx="36" cy="36" r="36" fill="#E087E8" fill-opacity="0.08"/>
<circle opacity="0.24" cx="35.9999" cy="8" r="2" fill="#FF8B58"/>
<circle opacity="0.24" cx="61.9999" cy="29" r="2" fill="#6F96FF"/>
<circle opacity="0.24" cx="19.9999" cy="58" r="2" fill="#713BDB"/>
<rect x="18" y="18" width="36" height="36" rx="8" fill="url(#paint0_linear_154_65610)"/>
<path d="M43.5 46C43.8978 46 44.2794 45.842 44.5607 45.5607C44.842 45.2794 45 44.8978 45 44.5C45 44.1022 44.842 43.7206 44.5607 43.4393C44.2794 43.158 43.8978 43 43.5 43C43.1022 43 42.7206 43.158 42.4393 43.4393C42.158 43.7206 42 44.1022 42 44.5C42 44.8978 42.158 45.2794 42.4393 45.5607C42.7206 45.842 43.1022 46 43.5 46ZM33.5 46C33.8978 46 34.2794 45.842 34.5607 45.5607C34.842 45.2794 35 44.8978 35 44.5C35 44.1022 34.842 43.7206 34.5607 43.4393C34.2794 43.158 33.8978 43 33.5 43C33.1022 43 32.7206 43.158 32.4393 43.4393C32.158 43.7206 32 44.1022 32 44.5C32 44.8978 32.158 45.2794 32.4393 45.5607C32.7206 45.842 33.1022 46 33.5 46Z" fill="url(#paint1_linear_154_65610)" stroke="url(#paint2_linear_154_65610)" stroke-width="0.8" stroke-linecap="round" stroke-linejoin="round"/>
<path d="M29 28H46L44 39M29 28L31 39H44M29 28C28.833 27.333 28 26 26 26M44 39H29.23C27.446 39 26.5 39.781 26.5 41C26.5 42.219 27.446 43 29.23 43H43.5" stroke="white" stroke-width="1.25" stroke-linecap="round" stroke-linejoin="round"/>
<path d="M43.5 46C43.8978 46 44.2794 45.842 44.5607 45.5607C44.842 45.2794 45 44.8978 45 44.5C45 44.1022 44.842 43.7206 44.5607 43.4393C44.2794 43.158 43.8978 43 43.5 43C43.1022 43 42.7206 43.158 42.4393 43.4393C42.158 43.7206 42 44.1022 42 44.5C42 44.8978 42.158 45.2794 42.4393 45.5607C42.7206 45.842 43.1022 46 43.5 46ZM33.5 46C33.8978 46 34.2794 45.842 34.5607 45.5607C34.842 45.2794 35 44.8978 35 44.5C35 44.1022 34.842 43.7206 34.5607 43.4393C34.2794 43.158 33.8978 43 33.5 43C33.1022 43 32.7206 43.158 32.4393 43.4393C32.158 43.7206 32 44.1022 32 44.5C32 44.8978 32.158 45.2794 32.4393 45.5607C32.7206 45.842 33.1022 46 33.5 46Z" fill="url(#paint3_linear_154_65610)" stroke="url(#paint4_linear_154_65610)" stroke-width="0.8" stroke-linecap="round" stroke-linejoin="round"/>
<path d="M29 28H46L44 39M29 28L31 39H44M29 28C28.833 27.333 28 26 26 26M44 39H29.23C27.446 39 26.5 39.781 26.5 41C26.5 42.219 27.446 43 29.23 43H43.5" stroke="white" stroke-width="1.25" stroke-linecap="round" stroke-linejoin="round"/>
<path d="M58 44C58 51.732 51.732 58 44 58C36.268 58 30 51.732 30 44C30 36.268 36.268 30 44 30C51.732 30 58 36.268 58 44Z" fill="url(#paint5_linear_154_65610)"/>
<g clip-path="url(#clip0_154_65610)">
<g filter="url(#filter0_d_154_65610)">
<rect x="35.44" y="38.44" width="17.12" height="12.12" rx="1.58857" stroke="white" stroke-width="1.12" shape-rendering="crispEdges"/>
</g>
<path d="M44 42.1H50.4" stroke="white" stroke-opacity="0.8" stroke-width="1.12" stroke-linecap="round" stroke-linejoin="round"/>
<path d="M44 45.6H50.4" stroke="white" stroke-opacity="0.8" stroke-width="1.12" stroke-linecap="round" stroke-linejoin="round"/>
<path d="M36.9494 42.0886H42L41.2025 44.7469H37.7468L36.9494 42.0886ZM36.9494 42.0886L36.75 41.4241M39.0759 45.6772C39.0759 45.783 39.0339 45.8844 38.9592 45.9592C38.8844 46.034 38.783 46.076 38.6772 46.076C38.5715 46.076 38.47 46.034 38.3953 45.9592C38.3205 45.8844 38.2785 45.783 38.2785 45.6772M40.6709 45.6772C40.6709 45.783 40.6289 45.8844 40.5541 45.9592C40.4793 46.034 40.3779 46.076 40.2722 46.076C40.1664 46.076 40.065 46.034 39.9902 45.9592C39.9154 45.8844 39.8734 45.783 39.8734 45.6772" stroke="white" stroke-width="0.6" stroke-linecap="round" stroke-linejoin="round"/>
</g>
<defs>
<filter id="filter0_d_154_65610" x="33.8514" y="36.8607" width="20.2971" height="15.2971" filterUnits="userSpaceOnUse" color-interpolation-filters="sRGB">
<feFlood flood-opacity="0" result="BackgroundImageFix"/>
<feColorMatrix in="SourceAlpha" type="matrix" values="0 0 0 0 0 0 0 0 0 0 0 0 0 0 0 0 0 0 127 0" result="hardAlpha"/>
<feOffset dy="0.00925714"/>
<feGaussianBlur stdDeviation="0.514286"/>
<feComposite in2="hardAlpha" operator="out"/>
<feColorMatrix type="matrix" values="0 0 0 0 0 0 0 0 0 0 0 0 0 0 0 0 0 0 0.15 0"/>
<feBlend mode="normal" in2="BackgroundImageFix" result="effect1_dropShadow_154_65610"/>
<feBlend mode="normal" in="SourceGraphic" in2="effect1_dropShadow_154_65610" result="shape"/>
</filter>
<linearGradient id="paint0_linear_154_65610" x1="36" y1="18" x2="36" y2="54" gradientUnits="userSpaceOnUse">
<stop stop-color="#E087E8"/>
<stop offset="1" stop-color="#8F5994"/>
</linearGradient>
<linearGradient id="paint1_linear_154_65610" x1="38.5" y1="43" x2="38.5" y2="46" gradientUnits="userSpaceOnUse">
<stop stop-color="white"/>
<stop offset="1" stop-color="white" stop-opacity="0.8"/>
</linearGradient>
<linearGradient id="paint2_linear_154_65610" x1="38.5" y1="43" x2="38.5" y2="46" gradientUnits="userSpaceOnUse">
<stop stop-color="white"/>
<stop offset="1" stop-color="white" stop-opacity="0.8"/>
</linearGradient>
<linearGradient id="paint3_linear_154_65610" x1="38.5" y1="43" x2="38.5" y2="46" gradientUnits="userSpaceOnUse">
<stop stop-color="white"/>
<stop offset="1" stop-color="white" stop-opacity="0.8"/>
</linearGradient>
<linearGradient id="paint4_linear_154_65610" x1="38.5" y1="43" x2="38.5" y2="46" gradientUnits="userSpaceOnUse">
<stop stop-color="white"/>
<stop offset="1" stop-color="white" stop-opacity="0.8"/>
</linearGradient>
<linearGradient id="paint5_linear_154_65610" x1="44" y1="30" x2="44" y2="58" gradientUnits="userSpaceOnUse">
<stop stop-color="#FA50D5"/>
<stop offset="1" stop-color="#FA5080"/>
</linearGradient>
<clipPath id="clip0_154_65610">
<rect width="18" height="18" fill="white" transform="translate(35 35)"/>
</clipPath>
</defs>
</svg>
