<svg width="72" height="72" viewBox="0 0 72 72" fill="none" xmlns="http://www.w3.org/2000/svg">
<rect width="72" height="72" fill="#CBB7B7"/>
<g id="icons">
<rect width="413" height="2512" transform="translate(-163 -701)" fill="#F8F9FA"/>
<g id="Discount popup">
<g id="Background">
<circle id="BG" cx="36" cy="36" r="36" fill="#35EAA6" fill-opacity="0.08"/>
<circle id="Ellipse 4" opacity="0.24" cx="35.9999" cy="8" r="2" fill="#FF8B58"/>
<circle id="Ellipse 5" opacity="0.24" cx="61.9999" cy="29" r="2" fill="#6F96FF"/>
<circle id="Ellipse 6" opacity="0.24" cx="19.9999" cy="58" r="2" fill="#713BDB"/>
</g>
<g id="Middle">
<rect id="Rectangle 27" x="18" y="18" width="36" height="36" rx="8" fill="url(#paint0_linear_154_65387)"/>
<g id="Iconsax/Linear/receiptdiscount">
<path id="Vector" d="M46 30V32.42C46 34 45 35 43.42 35H40V28.01C40 26.9 40.91 26 42.02 26C43.11 26.01 44.11 26.45 44.83 27.17C45.55 27.9 46 28.9 46 30Z" stroke="url(#paint1_linear_154_65387)" stroke-width="1.5" stroke-miterlimit="10" stroke-linecap="round" stroke-linejoin="round"/>
<path id="Vector_2" d="M26 31V45C26 45.83 26.94 46.3 27.6 45.8L29.31 44.52C29.71 44.22 30.27 44.26 30.63 44.62L32.29 46.29C32.68 46.68 33.32 46.68 33.71 46.29L35.39 44.61C35.74 44.26 36.3 44.22 36.69 44.52L38.4 45.8C39.06 46.29 40 45.82 40 45V28C40 26.9 40.9 26 42 26H30C27 26 26 27.79 26 30V31Z" stroke="url(#paint2_linear_154_65387)" stroke-width="1.5" stroke-miterlimit="10" stroke-linecap="round" stroke-linejoin="round"/>
<path id="Vector_3" d="M30.27 37.73L35.73 32.27" stroke="url(#paint3_linear_154_65387)" stroke-width="1.5" stroke-linecap="round" stroke-linejoin="round"/>
<path id="Vector_4" d="M35.925 37.5H35.934M30.195 32.5H30.204" stroke="url(#paint4_linear_154_65387)" stroke-width="2" stroke-linecap="round" stroke-linejoin="round"/>
</g>
</g>
<g id="Foreground">
<g id="Group">
<g id="Group 24">
<path id="Ellipse 4_2" d="M58 44C58 51.732 51.732 58 44 58C36.268 58 30 51.732 30 44C30 36.268 36.268 30 44 30C51.732 30 58 36.268 58 44Z" fill="url(#paint5_linear_154_65387)"/>
</g>
<g id="similar" clip-path="url(#clip0_154_65387)">
<g id="Group 194">
<g id="Rectangle 29" filter="url(#filter0_d_154_65387)">
<rect x="35.44" y="38.44" width="17.12" height="12.12" rx="1.58857" stroke="white" stroke-width="1.12" shape-rendering="crispEdges"/>
</g>
<path id="Vector_5" d="M39.2 40.5H48.8" stroke="white" stroke-opacity="0.8" stroke-width="1.12" stroke-linecap="round" stroke-linejoin="round"/>
<path id="Vector_6" d="M39.2 43.7H48.8" stroke="white" stroke-opacity="0.8" stroke-width="1.12" stroke-linecap="round" stroke-linejoin="round"/>
<path id="Vector_7" d="M42.4 47.7H45.6" stroke="white" stroke-width="1.92" stroke-linecap="round" stroke-linejoin="round"/>
</g>
</g>
</g>
</g>
</g>
</g>
<defs>
<filter id="filter0_d_154_65387" x="33.8514" y="36.8607" width="20.2971" height="15.2971" filterUnits="userSpaceOnUse" color-interpolation-filters="sRGB">
<feFlood flood-opacity="0" result="BackgroundImageFix"/>
<feColorMatrix in="SourceAlpha" type="matrix" values="0 0 0 0 0 0 0 0 0 0 0 0 0 0 0 0 0 0 127 0" result="hardAlpha"/>
<feOffset dy="0.00925714"/>
<feGaussianBlur stdDeviation="0.514286"/>
<feComposite in2="hardAlpha" operator="out"/>
<feColorMatrix type="matrix" values="0 0 0 0 0 0 0 0 0 0 0 0 0 0 0 0 0 0 0.15 0"/>
<feBlend mode="normal" in2="BackgroundImageFix" result="effect1_dropShadow_154_65387"/>
<feBlend mode="normal" in="SourceGraphic" in2="effect1_dropShadow_154_65387" result="shape"/>
</filter>
<linearGradient id="paint0_linear_154_65387" x1="36" y1="18" x2="36" y2="54" gradientUnits="userSpaceOnUse">
<stop stop-color="#35EAA6"/>
<stop offset="1" stop-color="#52CACC"/>
</linearGradient>
<linearGradient id="paint1_linear_154_65387" x1="43" y1="26" x2="43" y2="35" gradientUnits="userSpaceOnUse">
<stop stop-color="white"/>
<stop offset="1" stop-color="white" stop-opacity="0.8"/>
</linearGradient>
<linearGradient id="paint2_linear_154_65387" x1="34" y1="26" x2="34" y2="46.5825" gradientUnits="userSpaceOnUse">
<stop stop-color="white"/>
<stop offset="1" stop-color="white" stop-opacity="0.8"/>
</linearGradient>
<linearGradient id="paint3_linear_154_65387" x1="33" y1="32.27" x2="33" y2="37.73" gradientUnits="userSpaceOnUse">
<stop stop-color="white"/>
<stop offset="1" stop-color="white" stop-opacity="0.8"/>
</linearGradient>
<linearGradient id="paint4_linear_154_65387" x1="33.0645" y1="32.5" x2="33.0645" y2="37.5" gradientUnits="userSpaceOnUse">
<stop stop-color="white"/>
<stop offset="1" stop-color="white" stop-opacity="0.8"/>
</linearGradient>
<linearGradient id="paint5_linear_154_65387" x1="54.9349" y1="55.7604" x2="36.8172" y2="26.0082" gradientUnits="userSpaceOnUse">
<stop stop-color="#FF8B58"/>
<stop offset="1" stop-color="#FFD058"/>
</linearGradient>
<clipPath id="clip0_154_65387">
<rect width="18" height="18" fill="white" transform="translate(35 35)"/>
</clipPath>
</defs>
</svg>
