<svg width="40" height="40" viewBox="0 0 40 40" fill="none" xmlns="http://www.w3.org/2000/svg">
<circle cx="20" cy="20" r="20" fill="#E087E8" fill-opacity="0.08"/>
<circle opacity="0.24" cx="19.9998" cy="4.44436" r="1.11111" fill="#FF8B58"/>
<circle opacity="0.24" cx="34.4446" cy="16.1111" r="1.11111" fill="#6F96FF"/>
<circle opacity="0.24" cx="11.1111" cy="32.2222" r="1.11111" fill="#713BDB"/>
<g filter="url(#filter0_d_1704_220638)">
<path d="M9.92139 14.3658C9.92139 11.9112 11.9112 9.92139 14.3658 9.92139H25.4769C27.9315 9.92139 29.9214 11.9112 29.9214 14.3658V25.4769C29.9214 27.9315 27.9315 29.9214 25.4769 29.9214H14.3658C11.9112 29.9214 9.92139 27.9315 9.92139 25.4769V14.3658Z" fill="url(#paint0_linear_1704_220638)"/>
</g>
<path d="M16.6665 16.1108H24.9998M16.6665 19.722H24.9998M16.6665 23.3331H24.9998" stroke="white" stroke-opacity="0.4" stroke-width="1.40197" stroke-linecap="round" stroke-linejoin="round"/>
<path d="M13.3335 15.6942L14.0279 16.3886L15.4193 14.9998" stroke="white" stroke-width="0.481333" stroke-linecap="round" stroke-linejoin="round"/>
<rect x="13.3335" y="22.2219" width="1.66667" height="1.66667" rx="0.0611111" stroke="white" stroke-opacity="0.4" stroke-width="0.555556"/>
<rect x="13.3335" y="18.8887" width="1.66667" height="1.66667" rx="0.0611111" stroke="white" stroke-opacity="0.4" stroke-width="0.555556"/>
<path d="M32.2221 24.4445C32.2221 28.7401 28.7398 32.2223 24.4443 32.2223C20.1487 32.2223 16.6665 28.7401 16.6665 24.4445C16.6665 20.149 20.1487 16.6667 24.4443 16.6667C28.7398 16.6667 32.2221 20.149 32.2221 24.4445Z" fill="url(#paint1_linear_1704_220638)"/>
<g clip-path="url(#clip0_1704_220638)">
<g filter="url(#filter1_d_1704_220638)">
<rect x="19.6889" y="21.3559" width="9.51111" height="6.73333" rx="0.88254" stroke="white" stroke-width="0.622222" shape-rendering="crispEdges"/>
</g>
<path d="M24.4443 23.3894H27.9999" stroke="white" stroke-opacity="0.8" stroke-width="0.622222" stroke-linecap="round" stroke-linejoin="round"/>
<path d="M24.4443 25.3337H27.9999" stroke="white" stroke-opacity="0.8" stroke-width="0.622222" stroke-linecap="round" stroke-linejoin="round"/>
<path d="M20.5273 23.3829H23.3332L22.8901 24.8597H20.9703L20.5273 23.3829ZM20.5273 23.3829L20.4165 23.0137M21.7087 25.3765C21.7087 25.4353 21.6854 25.4916 21.6438 25.5332C21.6023 25.5747 21.5459 25.5981 21.4872 25.5981C21.4284 25.5981 21.3721 25.5747 21.3305 25.5332C21.289 25.4916 21.2657 25.4353 21.2657 25.3765M22.5948 25.3765C22.5948 25.4353 22.5714 25.4916 22.5299 25.5332C22.4883 25.5747 22.432 25.5981 22.3733 25.5981C22.3145 25.5981 22.2582 25.5747 22.2166 25.5332C22.1751 25.4916 22.1517 25.4353 22.1517 25.3765" stroke="white" stroke-width="0.333333" stroke-linecap="round" stroke-linejoin="round"/>
</g>
<defs>
<filter id="filter0_d_1704_220638" x="5.47694" y="5.47694" width="28.8889" height="28.8889" filterUnits="userSpaceOnUse" color-interpolation-filters="sRGB">
<feFlood flood-opacity="0" result="BackgroundImageFix"/>
<feColorMatrix in="SourceAlpha" type="matrix" values="0 0 0 0 0 0 0 0 0 0 0 0 0 0 0 0 0 0 127 0" result="hardAlpha"/>
<feOffset/>
<feGaussianBlur stdDeviation="2.22222"/>
<feColorMatrix type="matrix" values="0 0 0 0 0.443137 0 0 0 0 0.231373 0 0 0 0 0.858824 0 0 0 0.8 0"/>
<feBlend mode="normal" in2="BackgroundImageFix" result="effect1_dropShadow_1704_220638"/>
<feBlend mode="normal" in="SourceGraphic" in2="effect1_dropShadow_1704_220638" result="shape"/>
</filter>
<filter id="filter1_d_1704_220638" x="18.8065" y="20.4784" width="11.2762" height="8.49857" filterUnits="userSpaceOnUse" color-interpolation-filters="sRGB">
<feFlood flood-opacity="0" result="BackgroundImageFix"/>
<feColorMatrix in="SourceAlpha" type="matrix" values="0 0 0 0 0 0 0 0 0 0 0 0 0 0 0 0 0 0 127 0" result="hardAlpha"/>
<feOffset dy="0.00514286"/>
<feGaussianBlur stdDeviation="0.285714"/>
<feComposite in2="hardAlpha" operator="out"/>
<feColorMatrix type="matrix" values="0 0 0 0 0 0 0 0 0 0 0 0 0 0 0 0 0 0 0.15 0"/>
<feBlend mode="normal" in2="BackgroundImageFix" result="effect1_dropShadow_1704_220638"/>
<feBlend mode="normal" in="SourceGraphic" in2="effect1_dropShadow_1704_220638" result="shape"/>
</filter>
<linearGradient id="paint0_linear_1704_220638" x1="12.6992" y1="11.5881" x2="27.4214" y2="29.9214" gradientUnits="userSpaceOnUse">
<stop stop-color="#B792FF"/>
<stop offset="1" stop-color="#713BDB"/>
</linearGradient>
<linearGradient id="paint1_linear_1704_220638" x1="24.4443" y1="16.6667" x2="24.4443" y2="32.2223" gradientUnits="userSpaceOnUse">
<stop stop-color="#FA50D5"/>
<stop offset="1" stop-color="#FA5080"/>
</linearGradient>
<clipPath id="clip0_1704_220638">
<rect width="10" height="10" fill="white" transform="translate(19.4443 19.4446)"/>
</clipPath>
</defs>
</svg>
