<svg width="40" height="40" viewBox="0 0 40 40" fill="none" xmlns="http://www.w3.org/2000/svg">
<circle cx="20" cy="20" r="20" fill="#35EAA6" fill-opacity="0.08"/>
<circle opacity="0.24" cx="19.9998" cy="4.44436" r="1.11111" fill="#FF8B58"/>
<circle opacity="0.24" cx="34.4446" cy="16.1111" r="1.11111" fill="#6F96FF"/>
<circle opacity="0.24" cx="11.1111" cy="32.2222" r="1.11111" fill="#713BDB"/>
<rect x="10" y="10" width="20" height="20" rx="4.44444" fill="url(#paint0_linear_1704_219580)"/>
<g clip-path="url(#clip0_1704_219580)">
<path d="M25.5555 16.6666V18.011C25.5555 18.8888 24.9999 19.4443 24.1222 19.4443H22.2222V15.561C22.2222 14.9443 22.7277 14.4443 23.3444 14.4443C23.9499 14.4499 24.5055 14.6943 24.9055 15.0943C25.3055 15.4999 25.5555 16.0554 25.5555 16.6666Z" stroke="url(#paint1_linear_1704_219580)" stroke-width="0.833333" stroke-miterlimit="10" stroke-linecap="round" stroke-linejoin="round"/>
<path d="M14.4448 17.2221V24.9999C14.4448 25.461 14.967 25.7221 15.3337 25.4443L16.2837 24.7332C16.5059 24.5666 16.817 24.5888 17.017 24.7888L17.9393 25.7166C18.1559 25.9332 18.5115 25.9332 18.7282 25.7166L19.6615 24.7832C19.8559 24.5888 20.167 24.5666 20.3837 24.7332L21.3337 25.4443C21.7004 25.7166 22.2226 25.4554 22.2226 24.9999V15.5554C22.2226 14.9443 22.7226 14.4443 23.3337 14.4443H16.667C15.0004 14.4443 14.4448 15.4388 14.4448 16.6666V17.2221Z" stroke="url(#paint2_linear_1704_219580)" stroke-width="0.833333" stroke-miterlimit="10" stroke-linecap="round" stroke-linejoin="round"/>
<path d="M16.8169 20.9611L19.8502 17.9277" stroke="url(#paint3_linear_1704_219580)" stroke-width="0.833333" stroke-linecap="round" stroke-linejoin="round"/>
<path d="M19.9587 20.8332H19.9637M16.7754 18.0554H16.7804" stroke="url(#paint4_linear_1704_219580)" stroke-width="1.11111" stroke-linecap="round" stroke-linejoin="round"/>
</g>
<path d="M32.2221 24.4445C32.2221 28.7401 28.7398 32.2223 24.4443 32.2223C20.1487 32.2223 16.6665 28.7401 16.6665 24.4445C16.6665 20.149 20.1487 16.6667 24.4443 16.6667C28.7398 16.6667 32.2221 20.149 32.2221 24.4445Z" fill="url(#paint5_linear_1704_219580)"/>
<g clip-path="url(#clip1_1704_219580)">
<path d="M21.1108 21.1111H21.1145M21.1108 27.7778H21.1145M21.1108 26.1111H21.1145M21.1108 22.7778H21.1145M22.7775 21.1111H22.7812M22.7775 27.7778H22.7812M26.1108 21.1111H26.1145M26.1108 27.7778H26.1145M24.4442 21.1111H24.4479M24.4442 27.7778H24.4479M24.4442 26.1111H24.4479M24.4442 22.7778H24.4479M27.7775 21.1111H27.7812M27.7775 27.7778H27.7812M27.7775 26.1111H27.7812M27.7775 22.7778H27.7812M27.7775 24.4444H21.1108" stroke="white" stroke-width="0.833333" stroke-linecap="round" stroke-linejoin="round"/>
</g>
<defs>
<linearGradient id="paint0_linear_1704_219580" x1="20" y1="10" x2="20" y2="30" gradientUnits="userSpaceOnUse">
<stop stop-color="#35EAA6"/>
<stop offset="1" stop-color="#52CACC"/>
</linearGradient>
<linearGradient id="paint1_linear_1704_219580" x1="23.8888" y1="14.4443" x2="23.8888" y2="19.4443" gradientUnits="userSpaceOnUse">
<stop stop-color="white"/>
<stop offset="1" stop-color="white" stop-opacity="0.8"/>
</linearGradient>
<linearGradient id="paint2_linear_1704_219580" x1="18.8893" y1="14.4443" x2="18.8893" y2="25.8791" gradientUnits="userSpaceOnUse">
<stop stop-color="white"/>
<stop offset="1" stop-color="white" stop-opacity="0.8"/>
</linearGradient>
<linearGradient id="paint3_linear_1704_219580" x1="18.3336" y1="17.9277" x2="18.3336" y2="20.9611" gradientUnits="userSpaceOnUse">
<stop stop-color="white"/>
<stop offset="1" stop-color="white" stop-opacity="0.8"/>
</linearGradient>
<linearGradient id="paint4_linear_1704_219580" x1="18.3696" y1="18.0554" x2="18.3696" y2="20.8332" gradientUnits="userSpaceOnUse">
<stop stop-color="white"/>
<stop offset="1" stop-color="white" stop-opacity="0.8"/>
</linearGradient>
<linearGradient id="paint5_linear_1704_219580" x1="18.827" y1="17.963" x2="30.2776" y2="32.2223" gradientUnits="userSpaceOnUse">
<stop stop-color="#B792FF"/>
<stop offset="1" stop-color="#713BDB"/>
</linearGradient>
<clipPath id="clip0_1704_219580">
<rect width="13.3333" height="13.3333" fill="white" transform="translate(13.3335 13.3333)"/>
</clipPath>
<clipPath id="clip1_1704_219580">
<rect width="8.88889" height="8.88889" fill="white" transform="translate(20 20)"/>
</clipPath>
</defs>
</svg>
