<svg width="40" height="40" viewBox="0 0 40 40" fill="none" xmlns="http://www.w3.org/2000/svg">
<circle cx="20" cy="20" r="20" fill="url(#paint0_linear_1704_220688)"/>
<circle opacity="0.24" cx="19.9998" cy="4.44436" r="1.11111" fill="#FF8B58"/>
<circle opacity="0.24" cx="34.4446" cy="16.1111" r="1.11111" fill="#6F96FF"/>
<circle opacity="0.24" cx="11.1111" cy="32.2222" r="1.11111" fill="#713BDB"/>
<g filter="url(#filter0_d_1704_220688)">
<path d="M9.92139 14.3658C9.92139 11.9112 11.9112 9.92139 14.3658 9.92139H25.4769C27.9315 9.92139 29.9214 11.9112 29.9214 14.3658V25.4769C29.9214 27.9315 27.9315 29.9214 25.4769 29.9214H14.3658C11.9112 29.9214 9.92139 27.9315 9.92139 25.4769V14.3658Z" fill="url(#paint1_linear_1704_220688)"/>
</g>
<path d="M22.3889 26H22.5333C23.7468 26 24.3535 26 24.817 25.7638C25.2247 25.5561 25.5561 25.2247 25.7638 24.817C26 24.3535 26 23.7468 26 22.5333V16.4667C26 15.2532 26 14.6465 25.7638 14.183C25.5561 13.7753 25.2247 13.4439 24.817 13.2362C24.3535 13 23.7468 13 22.5333 13H16.4667C15.2532 13 14.6465 13 14.183 13.2362C13.7753 13.4439 13.4439 13.7753 13.2362 14.183C13 14.6465 13 15.2532 13 16.4667V16.6111M19.1389 19.8611L23.1111 15.8889M23.1111 15.8889H19.5M23.1111 15.8889V19.5M15.3111 26H17.1889C17.9979 26 18.4023 26 18.7113 25.8426C18.9831 25.7041 19.2041 25.4831 19.3426 25.2113C19.5 24.9023 19.5 24.4979 19.5 23.6889V21.8111C19.5 21.0021 19.5 20.5977 19.3426 20.2887C19.2041 20.0169 18.9831 19.7959 18.7113 19.6574C18.4023 19.5 17.9979 19.5 17.1889 19.5H15.3111C14.5021 19.5 14.0977 19.5 13.7887 19.6574C13.5169 19.7959 13.2959 20.0169 13.1574 20.2887C13 20.5977 13 21.0021 13 21.8111V23.6889C13 24.4979 13 24.9023 13.1574 25.2113C13.2959 25.4831 13.5169 25.7041 13.7887 25.8426C14.0977 26 14.5021 26 15.3111 26Z" stroke="white" stroke-width="0.85" stroke-linecap="round" stroke-linejoin="round"/>
<path d="M32.2221 24.4445C32.2221 28.7401 28.7398 32.2223 24.4443 32.2223C20.1487 32.2223 16.6665 28.7401 16.6665 24.4445C16.6665 20.149 20.1487 16.6667 24.4443 16.6667C28.7398 16.6667 32.2221 20.149 32.2221 24.4445Z" fill="url(#paint2_linear_1704_220688)"/>
<path d="M26.6669 24.9999V27.2222C26.6669 27.529 26.4182 27.7777 26.1113 27.7777H21.6669C21.3601 27.7777 21.1113 27.529 21.1113 27.2222V22.7777C21.1113 22.4709 21.3601 22.2222 21.6669 22.2222H23.8891" stroke="white" stroke-width="0.444444" stroke-linecap="round"/>
<rect x="25" y="21.1111" width="2.77778" height="2.77778" rx="0.611111" stroke="white" stroke-width="0.444444"/>
<path d="M23.9388 26.3889L23.9388 24.9752M23.9388 24.9752L22.4998 25M23.9388 24.9752L21.4139 27.5001" stroke="white" stroke-width="0.444444" stroke-miterlimit="10" stroke-linecap="round" stroke-linejoin="round"/>
<defs>
<filter id="filter0_d_1704_220688" x="5.47694" y="5.47694" width="28.8889" height="28.8889" filterUnits="userSpaceOnUse" color-interpolation-filters="sRGB">
<feFlood flood-opacity="0" result="BackgroundImageFix"/>
<feColorMatrix in="SourceAlpha" type="matrix" values="0 0 0 0 0 0 0 0 0 0 0 0 0 0 0 0 0 0 127 0" result="hardAlpha"/>
<feOffset/>
<feGaussianBlur stdDeviation="2.22222"/>
<feColorMatrix type="matrix" values="0 0 0 0 0.443137 0 0 0 0 0.231373 0 0 0 0 0.858824 0 0 0 0.8 0"/>
<feBlend mode="normal" in2="BackgroundImageFix" result="effect1_dropShadow_1704_220688"/>
<feBlend mode="normal" in="SourceGraphic" in2="effect1_dropShadow_1704_220688" result="shape"/>
</filter>
<linearGradient id="paint0_linear_1704_220688" x1="20" y1="0" x2="20" y2="40" gradientUnits="userSpaceOnUse">
<stop stop-color="#F9FAFB"/>
<stop offset="1" stop-color="#E7EBEF"/>
</linearGradient>
<linearGradient id="paint1_linear_1704_220688" x1="9.92139" y1="9.92139" x2="29.9214" y2="29.9214" gradientUnits="userSpaceOnUse">
<stop stop-color="#DCB0ED"/>
<stop offset="1" stop-color="#9999CC"/>
</linearGradient>
<linearGradient id="paint2_linear_1704_220688" x1="24.4443" y1="16.6667" x2="24.4443" y2="32.2223" gradientUnits="userSpaceOnUse">
<stop stop-color="#FA50D5"/>
<stop offset="1" stop-color="#FA5080"/>
</linearGradient>
</defs>
</svg>
