<svg width="40" height="40" viewBox="0 0 40 40" fill="none" xmlns="http://www.w3.org/2000/svg">
<circle cx="20" cy="20" r="20" fill="#35EAA6" fill-opacity="0.08"/>
<circle opacity="0.24" cx="19.9998" cy="4.44436" r="1.11111" fill="#FF8B58"/>
<circle opacity="0.24" cx="34.4446" cy="16.1111" r="1.11111" fill="#6F96FF"/>
<circle opacity="0.24" cx="11.1111" cy="32.2222" r="1.11111" fill="#713BDB"/>
<rect x="10" y="10" width="20" height="20" rx="4.44444" fill="url(#paint0_linear_1704_219606)"/>
<g clip-path="url(#clip0_1704_219606)">
<path d="M25.5555 16.6666V18.011C25.5555 18.8888 24.9999 19.4443 24.1222 19.4443H22.2222V15.561C22.2222 14.9443 22.7277 14.4443 23.3444 14.4443C23.9499 14.4499 24.5055 14.6943 24.9055 15.0943C25.3055 15.4999 25.5555 16.0554 25.5555 16.6666Z" stroke="url(#paint1_linear_1704_219606)" stroke-width="0.833333" stroke-miterlimit="10" stroke-linecap="round" stroke-linejoin="round"/>
<path d="M14.4448 17.2221V24.9999C14.4448 25.461 14.967 25.7221 15.3337 25.4443L16.2837 24.7332C16.5059 24.5666 16.817 24.5888 17.017 24.7888L17.9393 25.7166C18.1559 25.9332 18.5115 25.9332 18.7282 25.7166L19.6615 24.7832C19.8559 24.5888 20.167 24.5666 20.3837 24.7332L21.3337 25.4443C21.7004 25.7166 22.2226 25.4554 22.2226 24.9999V15.5554C22.2226 14.9443 22.7226 14.4443 23.3337 14.4443H16.667C15.0004 14.4443 14.4448 15.4388 14.4448 16.6666V17.2221Z" stroke="url(#paint2_linear_1704_219606)" stroke-width="0.833333" stroke-miterlimit="10" stroke-linecap="round" stroke-linejoin="round"/>
<path d="M16.8169 20.9611L19.8502 17.9277" stroke="url(#paint3_linear_1704_219606)" stroke-width="0.833333" stroke-linecap="round" stroke-linejoin="round"/>
<path d="M19.9587 20.8332H19.9637M16.7754 18.0554H16.7804" stroke="url(#paint4_linear_1704_219606)" stroke-width="1.11111" stroke-linecap="round" stroke-linejoin="round"/>
</g>
<path d="M32.2221 24.4445C32.2221 28.7401 28.7398 32.2223 24.4443 32.2223C20.1487 32.2223 16.6665 28.7401 16.6665 24.4445C16.6665 20.149 20.1487 16.6667 24.4443 16.6667C28.7398 16.6667 32.2221 20.149 32.2221 24.4445Z" fill="url(#paint5_linear_1704_219606)"/>
<g clip-path="url(#clip1_1704_219606)">
<path d="M25.25 28.25H22.55M22.55 28.25C21.9199 28.25 21.6049 28.25 21.3643 28.1274C21.1526 28.0195 20.9805 27.8474 20.8726 27.6357C20.75 27.3951 20.75 27.0801 20.75 26.45M22.55 28.25H22.7C23.3301 28.25 23.6451 28.25 23.8857 28.1274C24.0974 28.0195 24.2695 27.8474 24.3774 27.6357C24.5 27.3951 24.5 27.0801 24.5 26.45V26.3C24.5 25.6699 24.5 25.3549 24.3774 25.1143C24.2695 24.9026 24.0974 24.7305 23.8857 24.6226C23.6451 24.5 23.3301 24.5 22.7 24.5H22.55C21.9199 24.5 21.6049 24.5 21.3643 24.6226C21.1526 24.7305 20.9805 24.9026 20.8726 25.1143C20.75 25.3549 20.75 25.6699 20.75 26.3V26.45M20.75 26.45V23.75M23.75 20.75H25.25M28.25 23.75V25.25M26.75 28.25C27.0987 28.25 27.2731 28.25 27.4162 28.2117C27.8044 28.1076 28.1076 27.8044 28.2117 27.4162C28.25 27.2731 28.25 27.0987 28.25 26.75M28.25 22.25C28.25 21.9013 28.25 21.7269 28.2117 21.5838C28.1076 21.1956 27.8044 20.8924 27.4162 20.7883C27.2731 20.75 27.0987 20.75 26.75 20.75M22.25 20.75C21.9013 20.75 21.7269 20.75 21.5838 20.7883C21.1956 20.8924 20.8924 21.1956 20.7883 21.5838C20.75 21.7269 20.75 21.9013 20.75 22.25" stroke="white" stroke-width="0.444444" stroke-linecap="round" stroke-linejoin="round"/>
</g>
<defs>
<linearGradient id="paint0_linear_1704_219606" x1="20" y1="10" x2="20" y2="30" gradientUnits="userSpaceOnUse">
<stop stop-color="#35EAA6"/>
<stop offset="1" stop-color="#52CACC"/>
</linearGradient>
<linearGradient id="paint1_linear_1704_219606" x1="23.8888" y1="14.4443" x2="23.8888" y2="19.4443" gradientUnits="userSpaceOnUse">
<stop stop-color="white"/>
<stop offset="1" stop-color="white" stop-opacity="0.8"/>
</linearGradient>
<linearGradient id="paint2_linear_1704_219606" x1="18.8893" y1="14.4443" x2="18.8893" y2="25.8791" gradientUnits="userSpaceOnUse">
<stop stop-color="white"/>
<stop offset="1" stop-color="white" stop-opacity="0.8"/>
</linearGradient>
<linearGradient id="paint3_linear_1704_219606" x1="18.3336" y1="17.9277" x2="18.3336" y2="20.9611" gradientUnits="userSpaceOnUse">
<stop stop-color="white"/>
<stop offset="1" stop-color="white" stop-opacity="0.8"/>
</linearGradient>
<linearGradient id="paint4_linear_1704_219606" x1="18.3696" y1="18.0554" x2="18.3696" y2="20.8332" gradientUnits="userSpaceOnUse">
<stop stop-color="white"/>
<stop offset="1" stop-color="white" stop-opacity="0.8"/>
</linearGradient>
<linearGradient id="paint5_linear_1704_219606" x1="30.5192" y1="30.9781" x2="20.4538" y2="14.4491" gradientUnits="userSpaceOnUse">
<stop stop-color="#FF8B58"/>
<stop offset="1" stop-color="#FFD058"/>
</linearGradient>
<clipPath id="clip0_1704_219606">
<rect width="13.3333" height="13.3333" fill="white" transform="translate(13.3335 13.3333)"/>
</clipPath>
<clipPath id="clip1_1704_219606">
<rect width="9" height="9" fill="white" transform="translate(20 20)"/>
</clipPath>
</defs>
</svg>
