<svg width="72" height="72" viewBox="0 0 72 72" fill="none" xmlns="http://www.w3.org/2000/svg">
<circle cx="36" cy="36" r="36" fill="#35EAA6" fill-opacity="0.08"/>
<circle opacity="0.24" cx="35.9999" cy="8" r="2" fill="#FF8B58"/>
<circle opacity="0.24" cx="61.9999" cy="29" r="2" fill="#6F96FF"/>
<circle opacity="0.24" cx="19.9999" cy="58" r="2" fill="#713BDB"/>
<rect x="18" y="18" width="36" height="36" rx="8" fill="url(#paint0_linear_6184_4993)"/>
<path d="M46 30V32.42C46 34 45 35 43.42 35H40V28.01C40 26.9 40.91 26 42.02 26C43.11 26.01 44.11 26.45 44.83 27.17C45.55 27.9 46 28.9 46 30Z" stroke="url(#paint1_linear_6184_4993)" stroke-width="1.5" stroke-miterlimit="10" stroke-linecap="round" stroke-linejoin="round"/>
<path d="M26 31V45C26 45.83 26.94 46.3 27.6 45.8L29.31 44.52C29.71 44.22 30.27 44.26 30.63 44.62L32.29 46.29C32.68 46.68 33.32 46.68 33.71 46.29L35.39 44.61C35.74 44.26 36.3 44.22 36.69 44.52L38.4 45.8C39.06 46.29 40 45.82 40 45V28C40 26.9 40.9 26 42 26H30C27 26 26 27.79 26 30V31Z" stroke="url(#paint2_linear_6184_4993)" stroke-width="1.5" stroke-miterlimit="10" stroke-linecap="round" stroke-linejoin="round"/>
<path d="M30.27 37.73L35.73 32.27" stroke="url(#paint3_linear_6184_4993)" stroke-width="1.5" stroke-linecap="round" stroke-linejoin="round"/>
<path d="M35.925 37.5H35.934M30.195 32.5H30.204" stroke="url(#paint4_linear_6184_4993)" stroke-width="2" stroke-linecap="round" stroke-linejoin="round"/>
<path d="M58 44C58 51.732 51.732 58 44 58C36.268 58 30 51.732 30 44C30 36.268 36.268 30 44 30C51.732 30 58 36.268 58 44Z" fill="url(#paint5_linear_6184_4993)"/>
<path d="M43 39L46.9351 40.4757C46.9741 40.4903 47 40.5276 47 40.5693V49.5M43 39L39.0648 40.4757C39.0258 40.4903 39 40.5276 39 40.5693V50.4C39 50.4552 39.0447 50.5 39.1 50.5H46.9C46.9552 50.5 47 50.4552 47 50.4V49.5M43 39L46.9297 38.5088C46.9718 38.5035 47.0126 38.5254 47.0316 38.5633L50 44.5L51.4532 47.4064C51.4786 47.4574 51.4564 47.5193 51.4043 47.5425L47 49.5" stroke="white" stroke-width="0.8"/>
<circle cx="43.5" cy="41.5" r="1.2" stroke="white" stroke-width="0.6"/>
<path d="M38.1561 36.8048L43.5 41.5" stroke="white" stroke-width="0.8" stroke-linecap="round"/>
<path d="M44 44.5L42 48" stroke="white" stroke-width="0.8" stroke-linecap="round"/>
<circle cx="41.5" cy="45.5" r="0.5" fill="white"/>
<circle cx="44.5" cy="47.5" r="0.5" fill="white"/>
<defs>
<linearGradient id="paint0_linear_6184_4993" x1="36" y1="18" x2="36" y2="54" gradientUnits="userSpaceOnUse">
<stop stop-color="#35EAA6"/>
<stop offset="1" stop-color="#52CACC"/>
</linearGradient>
<linearGradient id="paint1_linear_6184_4993" x1="43" y1="26" x2="43" y2="35" gradientUnits="userSpaceOnUse">
<stop stop-color="white"/>
<stop offset="1" stop-color="white" stop-opacity="0.8"/>
</linearGradient>
<linearGradient id="paint2_linear_6184_4993" x1="34" y1="26" x2="34" y2="46.5825" gradientUnits="userSpaceOnUse">
<stop stop-color="white"/>
<stop offset="1" stop-color="white" stop-opacity="0.8"/>
</linearGradient>
<linearGradient id="paint3_linear_6184_4993" x1="33" y1="32.27" x2="33" y2="37.73" gradientUnits="userSpaceOnUse">
<stop stop-color="white"/>
<stop offset="1" stop-color="white" stop-opacity="0.8"/>
</linearGradient>
<linearGradient id="paint4_linear_6184_4993" x1="33.0645" y1="32.5" x2="33.0645" y2="37.5" gradientUnits="userSpaceOnUse">
<stop stop-color="white"/>
<stop offset="1" stop-color="white" stop-opacity="0.8"/>
</linearGradient>
<linearGradient id="paint5_linear_6184_4993" x1="33.8889" y1="32.3333" x2="54.5" y2="58" gradientUnits="userSpaceOnUse">
<stop stop-color="#B792FF"/>
<stop offset="1" stop-color="#713BDB"/>
</linearGradient>
</defs>
</svg>
