<svg width="40" height="40" viewBox="0 0 40 40" fill="none" xmlns="http://www.w3.org/2000/svg">
<circle cx="20" cy="20" r="20" fill="#35EAA6" fill-opacity="0.08"/>
<circle opacity="0.24" cx="19.9998" cy="4.44436" r="1.11111" fill="#FF8B58"/>
<circle opacity="0.24" cx="34.4446" cy="16.1111" r="1.11111" fill="#6F96FF"/>
<circle opacity="0.24" cx="11.1111" cy="32.2222" r="1.11111" fill="#713BDB"/>
<rect x="10" y="10" width="20" height="20" rx="4.44444" fill="url(#paint0_linear_1704_219627)"/>
<g clip-path="url(#clip0_1704_219627)">
<path d="M25.5555 16.6666V18.011C25.5555 18.8888 24.9999 19.4443 24.1222 19.4443H22.2222V15.561C22.2222 14.9443 22.7277 14.4443 23.3444 14.4443C23.9499 14.4499 24.5055 14.6943 24.9055 15.0943C25.3055 15.4999 25.5555 16.0554 25.5555 16.6666Z" stroke="url(#paint1_linear_1704_219627)" stroke-width="0.833333" stroke-miterlimit="10" stroke-linecap="round" stroke-linejoin="round"/>
<path d="M14.4443 17.2221V24.9999C14.4443 25.461 14.9666 25.7221 15.3332 25.4443L16.2832 24.7332C16.5054 24.5666 16.8166 24.5888 17.0166 24.7888L17.9388 25.7166C18.1554 25.9332 18.511 25.9332 18.7277 25.7166L19.661 24.7832C19.8554 24.5888 20.1666 24.5666 20.3832 24.7332L21.3332 25.4443C21.6999 25.7166 22.2221 25.4554 22.2221 24.9999V15.5554C22.2221 14.9443 22.7221 14.4443 23.3332 14.4443H16.6666C14.9999 14.4443 14.4443 15.4388 14.4443 16.6666V17.2221Z" stroke="url(#paint2_linear_1704_219627)" stroke-width="0.833333" stroke-miterlimit="10" stroke-linecap="round" stroke-linejoin="round"/>
<path d="M16.8169 20.9611L19.8502 17.9277" stroke="url(#paint3_linear_1704_219627)" stroke-width="0.833333" stroke-linecap="round" stroke-linejoin="round"/>
<path d="M19.9582 20.8334H19.9632M16.7749 18.0557H16.7799" stroke="url(#paint4_linear_1704_219627)" stroke-width="1.11111" stroke-linecap="round" stroke-linejoin="round"/>
</g>
<path d="M32.2221 24.4445C32.2221 28.7401 28.7398 32.2223 24.4443 32.2223C20.1487 32.2223 16.6665 28.7401 16.6665 24.4445C16.6665 20.149 20.1487 16.6667 24.4443 16.6667C28.7398 16.6667 32.2221 20.149 32.2221 24.4445Z" fill="url(#paint5_linear_1704_219627)"/>
<g clip-path="url(#clip1_1704_219627)">
<path d="M22.9629 27.0987C23.1594 27.0987 23.3478 27.0272 23.4867 26.8999C23.6256 26.7725 23.7036 26.5998 23.7036 26.4197C23.7036 26.2396 23.6256 26.0669 23.4867 25.9396C23.3478 25.8123 23.1594 25.7407 22.9629 25.7407C22.7665 25.7407 22.578 25.8123 22.4391 25.9396C22.3002 26.0669 22.2222 26.2396 22.2222 26.4197C22.2222 26.5998 22.3002 26.7725 22.4391 26.8999C22.578 27.0272 22.7665 27.0987 22.9629 27.0987ZM26.6666 27.0987C26.8631 27.0987 27.0515 27.0272 27.1904 26.8999C27.3293 26.7725 27.4074 26.5998 27.4074 26.4197C27.4074 26.2396 27.3293 26.0669 27.1904 25.9396C27.0515 25.8123 26.8631 25.7407 26.6666 25.7407C26.4702 25.7407 26.2817 25.8123 26.1428 25.9396C26.0039 26.0669 25.9259 26.2396 25.9259 26.4197C25.9259 26.5998 26.0039 26.7725 26.1428 26.8999C26.2817 27.0272 26.4702 27.0987 26.6666 27.0987Z" stroke="white" stroke-width="0.444444" stroke-miterlimit="1.5" stroke-linecap="round" stroke-linejoin="round"/>
<path d="M23.722 26.4199H25.5553V22.889C25.5553 22.835 25.5319 22.7832 25.4902 22.745C25.4485 22.7068 25.392 22.6853 25.3331 22.6853H20.3701M22.0923 26.4199H21.3331C21.3039 26.4199 21.275 26.4146 21.248 26.4044C21.2211 26.3941 21.1966 26.3791 21.1759 26.3602C21.1553 26.3413 21.1389 26.3188 21.1278 26.2941C21.1166 26.2694 21.1109 26.2429 21.1109 26.2162V24.5526" stroke="white" stroke-width="0.444444" stroke-linecap="round"/>
<path d="M20.7407 23.7039H22.2222" stroke="white" stroke-width="0.444444" stroke-linecap="round" stroke-linejoin="round"/>
<path d="M25.5557 23.7039H27.6334C27.6764 23.7039 27.7184 23.7153 27.7544 23.7367C27.7905 23.7582 27.8189 23.7887 27.8364 23.8247L28.4994 25.1923C28.512 25.2182 28.5186 25.2463 28.5186 25.2748V26.2162C28.5186 26.243 28.5129 26.2694 28.5017 26.2942C28.4905 26.3189 28.4742 26.3413 28.4535 26.3602C28.4329 26.3792 28.4084 26.3942 28.3814 26.4044C28.3545 26.4146 28.3256 26.4199 28.2964 26.4199H27.5927M25.5557 26.4199H25.926" stroke="white" stroke-width="0.444444" stroke-linecap="round"/>
</g>
<defs>
<linearGradient id="paint0_linear_1704_219627" x1="20" y1="10" x2="20" y2="30" gradientUnits="userSpaceOnUse">
<stop stop-color="#35EAA6"/>
<stop offset="1" stop-color="#52CACC"/>
</linearGradient>
<linearGradient id="paint1_linear_1704_219627" x1="23.8888" y1="14.4443" x2="23.8888" y2="19.4443" gradientUnits="userSpaceOnUse">
<stop stop-color="white"/>
<stop offset="1" stop-color="white" stop-opacity="0.8"/>
</linearGradient>
<linearGradient id="paint2_linear_1704_219627" x1="18.8888" y1="14.4443" x2="18.8888" y2="25.8791" gradientUnits="userSpaceOnUse">
<stop stop-color="white"/>
<stop offset="1" stop-color="white" stop-opacity="0.8"/>
</linearGradient>
<linearGradient id="paint3_linear_1704_219627" x1="18.3336" y1="17.9277" x2="18.3336" y2="20.9611" gradientUnits="userSpaceOnUse">
<stop stop-color="white"/>
<stop offset="1" stop-color="white" stop-opacity="0.8"/>
</linearGradient>
<linearGradient id="paint4_linear_1704_219627" x1="18.3691" y1="18.0557" x2="18.3691" y2="20.8334" gradientUnits="userSpaceOnUse">
<stop stop-color="white"/>
<stop offset="1" stop-color="white" stop-opacity="0.8"/>
</linearGradient>
<linearGradient id="paint5_linear_1704_219627" x1="24.4443" y1="16.6667" x2="24.4443" y2="32.2223" gradientUnits="userSpaceOnUse">
<stop stop-color="#FA50D5"/>
<stop offset="1" stop-color="#FA5080"/>
</linearGradient>
<clipPath id="clip0_1704_219627">
<rect width="13.3333" height="13.3333" fill="white" transform="translate(13.3335 13.3333)"/>
</clipPath>
<clipPath id="clip1_1704_219627">
<rect width="8.88889" height="8.14815" fill="white" transform="translate(20 20.6482)"/>
</clipPath>
</defs>
</svg>
