<svg width="40" height="40" viewBox="0 0 40 40" fill="none" xmlns="http://www.w3.org/2000/svg">
<circle cx="20" cy="20" r="20" fill="#FF8B58" fill-opacity="0.08"/>
<circle opacity="0.24" cx="19.9998" cy="4.44436" r="1.11111" fill="#FF8B58"/>
<circle opacity="0.24" cx="34.4446" cy="16.1111" r="1.11111" fill="#6F96FF"/>
<circle opacity="0.24" cx="11.1111" cy="32.2222" r="1.11111" fill="#713BDB"/>
<rect x="10" y="10" width="20" height="20" rx="4.44444" fill="url(#paint0_linear_1704_219555)"/>
<path d="M22.5 18.5555L17.5 15.6721" stroke="#FFF0DD" stroke-width="0.694444" stroke-linecap="round" stroke-linejoin="round"/>
<path d="M25 22.2222V17.7778C24.9998 17.5829 24.9484 17.3915 24.8509 17.2228C24.7533 17.0541 24.6132 16.9141 24.4444 16.8166L20.5556 14.5944C20.3866 14.4969 20.195 14.4456 20 14.4456C19.805 14.4456 19.6134 14.4969 19.4444 14.5944L15.5556 16.8166C15.3868 16.9141 15.2467 17.0541 15.1491 17.2228C15.0516 17.3915 15.0002 17.5829 15 17.7778V22.2222C15.0002 22.417 15.0516 22.6084 15.1491 22.7771C15.2467 22.9458 15.3868 23.0859 15.5556 23.1833L19.4444 25.4055C19.6134 25.5031 19.805 25.5544 20 25.5544C20.195 25.5544 20.3866 25.5031 20.5556 25.4055L24.4444 23.1833C24.6132 23.0859 24.7533 22.9458 24.8509 22.7771C24.9484 22.6084 24.9998 22.417 25 22.2222Z" stroke="#FFF0DD" stroke-width="0.694444" stroke-linecap="round" stroke-linejoin="round"/>
<path d="M15.1499 17.2L19.9999 20.0055L24.8499 17.2" stroke="#FFF0DD" stroke-width="0.694444" stroke-linecap="round" stroke-linejoin="round"/>
<path d="M20 25.6V20" stroke="#FFF0DD" stroke-width="0.694444" stroke-linecap="round" stroke-linejoin="round"/>
<path d="M32.2221 24.4445C32.2221 28.7401 28.7398 32.2223 24.4443 32.2223C20.1487 32.2223 16.6665 28.7401 16.6665 24.4445C16.6665 20.149 20.1487 16.6667 24.4443 16.6667C28.7398 16.6667 32.2221 20.149 32.2221 24.4445Z" fill="url(#paint1_linear_1704_219555)"/>
<g clip-path="url(#clip0_1704_219555)">
<path d="M28.3567 24.508L28.0193 25.5208M28.0193 25.5208L27.5465 26.9386H25.7236L25.3185 25.5208H28.0193ZM26.1287 27.7528L26.1328 27.7484M27.344 27.7528L27.3481 27.7484M20.2549 26.7361C20.2549 26.2038 20.4047 25.6823 20.6872 25.2312C20.9696 24.7801 21.3734 24.4176 21.8522 24.1851C22.331 23.9527 22.8656 23.8597 23.3948 23.9168C23.9239 23.9739 24.4264 24.1788 24.8446 24.508M23.0905 23.9004C23.5203 23.9004 23.9324 23.7297 24.2363 23.4258C24.5402 23.1219 24.7109 22.7098 24.7109 22.28C24.7109 21.8503 24.5402 21.4381 24.2363 21.1343C23.9324 20.8304 23.5203 20.6597 23.0905 20.6597C22.6608 20.6597 22.2486 20.8304 21.9448 21.1343C21.6409 21.4381 21.4702 21.8503 21.4702 22.28C21.4702 22.7098 21.6409 23.1219 21.9448 23.4258C22.2486 23.7297 22.6608 23.9004 23.0905 23.9004Z" stroke="white" stroke-width="0.555556" stroke-linecap="round" stroke-linejoin="round"/>
</g>
<defs>
<linearGradient id="paint0_linear_1704_219555" x1="27.8107" y1="28.4003" x2="14.8694" y2="7.14871" gradientUnits="userSpaceOnUse">
<stop stop-color="#FF8B58"/>
<stop offset="1" stop-color="#FFD058"/>
</linearGradient>
<linearGradient id="paint1_linear_1704_219555" x1="24.4443" y1="16.6667" x2="24.4443" y2="32.2223" gradientUnits="userSpaceOnUse">
<stop stop-color="#35EAA6"/>
<stop offset="1" stop-color="#52CACC"/>
</linearGradient>
<clipPath id="clip0_1704_219555">
<rect width="9.72222" height="9.72222" fill="white" transform="translate(19.4443 19.4443)"/>
</clipPath>
</defs>
</svg>
