<svg width="40" height="40" viewBox="0 0 40 40" fill="none" xmlns="http://www.w3.org/2000/svg">
<circle cx="20" cy="20" r="20" fill="#FF8B58" fill-opacity="0.08"/>
<circle opacity="0.24" cx="19.9998" cy="4.44461" r="1.11111" fill="#FF8B58"/>
<circle opacity="0.24" cx="34.4446" cy="16.1111" r="1.11111" fill="#6F96FF"/>
<circle opacity="0.24" cx="11.1111" cy="32.2224" r="1.11111" fill="#713BDB"/>
<rect x="10" y="10" width="20" height="20" rx="4.44444" fill="url(#paint0_linear_2393_20078)"/>
<path d="M22.5 18.5557L17.5 15.6724" stroke="#FFF0DD" stroke-width="0.694444" stroke-linecap="round" stroke-linejoin="round"/>
<path d="M25 22.222V17.7775C24.9998 17.5827 24.9484 17.3913 24.8509 17.2226C24.7533 17.0539 24.6132 16.9138 24.4444 16.8164L20.5556 14.5942C20.3866 14.4967 20.195 14.4453 20 14.4453C19.805 14.4453 19.6134 14.4967 19.4444 14.5942L15.5556 16.8164C15.3868 16.9138 15.2467 17.0539 15.1491 17.2226C15.0516 17.3913 15.0002 17.5827 15 17.7775V22.222C15.0002 22.4168 15.0516 22.6082 15.1491 22.7769C15.2467 22.9456 15.3868 23.0856 15.5556 23.1831L19.4444 25.4053C19.6134 25.5028 19.805 25.5541 20 25.5541C20.195 25.5541 20.3866 25.5028 20.5556 25.4053L24.4444 23.1831C24.6132 23.0856 24.7533 22.9456 24.8509 22.7769C24.9484 22.6082 24.9998 22.4168 25 22.222Z" stroke="#FFF0DD" stroke-width="0.694444" stroke-linecap="round" stroke-linejoin="round"/>
<path d="M15.1499 17.2002L19.9999 20.0058L24.8499 17.2002" stroke="#FFF0DD" stroke-width="0.694444" stroke-linecap="round" stroke-linejoin="round"/>
<path d="M20 25.6V20" stroke="#FFF0DD" stroke-width="0.694444" stroke-linecap="round" stroke-linejoin="round"/>
<path d="M32.2221 24.4443C32.2221 28.7398 28.7398 32.2221 24.4443 32.2221C20.1487 32.2221 16.6665 28.7398 16.6665 24.4443C16.6665 20.1487 20.1487 16.6665 24.4443 16.6665C28.7398 16.6665 32.2221 20.1487 32.2221 24.4443Z" fill="url(#paint1_linear_2393_20078)"/>
<path d="M19.611 24.7616C19.611 24.5468 19.7851 24.3727 19.9999 24.3727H21.7459C21.9607 24.3727 22.1348 24.5468 22.1348 24.7616V28.8013H19.611V24.7616Z" stroke="white" stroke-width="0.333333"/>
<path d="M26.7541 25.7142C26.7541 25.4995 26.9282 25.3254 27.143 25.3254H28.889C29.1038 25.3254 29.2779 25.4995 29.2779 25.7142V28.8015H26.7541V25.7142Z" stroke="white" stroke-width="0.333333"/>
<path d="M20.8728 21.8252L21.0866 22.4833H21.7786L21.2188 22.89L21.4326 23.5481L20.8728 23.1414L20.313 23.5481L20.5268 22.89L19.967 22.4833H20.659L20.8728 21.8252Z" stroke="white" stroke-width="0.222222"/>
<path d="M24.4446 19.4443L24.6584 20.1024H25.3503L24.7905 20.5091L25.0044 21.1672L24.4446 20.7605L23.8848 21.1672L24.0986 20.5091L23.5388 20.1024H24.2307L24.4446 19.4443Z" stroke="white" stroke-width="0.222222"/>
<path d="M28.0159 22.7778L28.2297 23.4359H28.9216L28.3618 23.8426L28.5757 24.5007L28.0159 24.094L27.4561 24.5007L27.6699 23.8426L27.1101 23.4359H27.802L28.0159 22.7778Z" stroke="white" stroke-width="0.222222"/>
<path d="M23.1828 22.3808C23.1828 22.166 23.3569 21.9919 23.5717 21.9919H25.3177C25.5325 21.9919 25.7066 22.166 25.7066 22.3808V28.8014H23.1828V22.3808Z" stroke="white" stroke-width="0.333333"/>
<defs>
<linearGradient id="paint0_linear_2393_20078" x1="27.8107" y1="28.4003" x2="14.8694" y2="7.14871" gradientUnits="userSpaceOnUse">
<stop stop-color="#FF8B58"/>
<stop offset="1" stop-color="#FFD058"/>
</linearGradient>
<linearGradient id="paint1_linear_2393_20078" x1="24.4443" y1="16.6665" x2="24.4443" y2="32.2221" gradientUnits="userSpaceOnUse">
<stop stop-color="#35EAA6"/>
<stop offset="1" stop-color="#52CACC"/>
</linearGradient>
</defs>
</svg>
