<svg width="72" height="72" viewBox="0 0 72 72" fill="none" xmlns="http://www.w3.org/2000/svg">
<circle cx="36" cy="36" r="36" fill="#FA50D5" fill-opacity="0.08"/>
<circle opacity="0.24" cx="35.9999" cy="8" r="2" fill="#FF8B58"/>
<circle opacity="0.24" cx="61.9999" cy="29" r="2" fill="#6F96FF"/>
<circle opacity="0.24" cx="19.9999" cy="58" r="2" fill="#713BDB"/>
<rect x="18" y="18" width="36" height="36" rx="8" fill="url(#paint0_linear_6190_10502)"/>
<mask id="path-6-inside-1_6190_10502" fill="white">
<path d="M32.4766 31.4356C33.4931 30.8693 34.2818 29.9682 34.7083 28.8856C35.1348 27.8031 35.1728 26.6062 34.8158 25.4988C34.4587 24.3914 33.7288 23.442 32.7502 22.8125C31.7717 22.183 30.6052 21.9122 29.4494 22.0464C28.2936 22.1805 27.2201 22.7112 26.4118 23.5481C25.6035 24.3851 25.1103 25.4764 25.0164 26.6361C24.9225 27.7958 25.2336 28.9523 25.8967 29.9083C26.5599 30.8644 27.534 31.561 28.6531 31.8793L28.9091 30.9796C27.9981 30.7204 27.2052 30.1534 26.6654 29.3752C26.1256 28.597 25.8723 27.6556 25.9488 26.7116C26.0252 25.7676 26.4267 24.8793 27.0846 24.198C27.7426 23.5168 28.6164 23.0847 29.5572 22.9755C30.498 22.8664 31.4476 23.0868 32.2441 23.5992C33.0406 24.1116 33.6348 24.8844 33.9255 25.7858C34.2161 26.6872 34.1852 27.6615 33.838 28.5427C33.4908 29.4239 32.8488 30.1575 32.0214 30.6184L32.4766 31.4356Z"/>
</mask>
<path d="M32.4766 31.4356C33.4931 30.8693 34.2818 29.9682 34.7083 28.8856C35.1348 27.8031 35.1728 26.6062 34.8158 25.4988C34.4587 24.3914 33.7288 23.442 32.7502 22.8125C31.7717 22.183 30.6052 21.9122 29.4494 22.0464C28.2936 22.1805 27.2201 22.7112 26.4118 23.5481C25.6035 24.3851 25.1103 25.4764 25.0164 26.6361C24.9225 27.7958 25.2336 28.9523 25.8967 29.9083C26.5599 30.8644 27.534 31.561 28.6531 31.8793L28.9091 30.9796C27.9981 30.7204 27.2052 30.1534 26.6654 29.3752C26.1256 28.597 25.8723 27.6556 25.9488 26.7116C26.0252 25.7676 26.4267 24.8793 27.0846 24.198C27.7426 23.5168 28.6164 23.0847 29.5572 22.9755C30.498 22.8664 31.4476 23.0868 32.2441 23.5992C33.0406 24.1116 33.6348 24.8844 33.9255 25.7858C34.2161 26.6872 34.1852 27.6615 33.838 28.5427C33.4908 29.4239 32.8488 30.1575 32.0214 30.6184L32.4766 31.4356Z" stroke="white" stroke-opacity="0.6" stroke-width="0.977758" mask="url(#path-6-inside-1_6190_10502)"/>
<mask id="path-7-inside-2_6190_10502" fill="white">
<path d="M31.9906 29.571C32.5423 29.1432 32.9389 28.5467 33.1201 27.8725C33.3013 27.1983 33.257 26.4833 32.9941 25.8366C32.7311 25.1899 32.2639 24.6468 31.6637 24.2903C31.0635 23.9338 30.3631 23.7833 29.6694 23.8619C28.9757 23.9404 28.3267 24.2436 27.8213 24.7252C27.316 25.2068 26.982 25.8405 26.8702 26.5297C26.7584 27.2188 26.8751 27.9256 27.2023 28.5422C27.5296 29.1589 28.0495 29.6516 28.6829 29.9454L29.0545 29.144C28.596 28.9314 28.2195 28.5746 27.9826 28.1282C27.7457 27.6817 27.6612 27.17 27.7421 26.6711C27.823 26.1721 28.0649 25.7133 28.4307 25.3646C28.7966 25.0159 29.2665 24.7964 29.7688 24.7396C30.271 24.6827 30.778 24.7917 31.2126 25.0498C31.6472 25.3079 31.9854 25.701 32.1758 26.1693C32.3662 26.6375 32.3982 27.1551 32.267 27.6433C32.1359 28.1314 31.8487 28.5632 31.4493 28.873L31.9906 29.571Z"/>
</mask>
<path d="M31.9906 29.571C32.5423 29.1432 32.9389 28.5467 33.1201 27.8725C33.3013 27.1983 33.257 26.4833 32.9941 25.8366C32.7311 25.1899 32.2639 24.6468 31.6637 24.2903C31.0635 23.9338 30.3631 23.7833 29.6694 23.8619C28.9757 23.9404 28.3267 24.2436 27.8213 24.7252C27.316 25.2068 26.982 25.8405 26.8702 26.5297C26.7584 27.2188 26.8751 27.9256 27.2023 28.5422C27.5296 29.1589 28.0495 29.6516 28.6829 29.9454L29.0545 29.144C28.596 28.9314 28.2195 28.5746 27.9826 28.1282C27.7457 27.6817 27.6612 27.17 27.7421 26.6711C27.823 26.1721 28.0649 25.7133 28.4307 25.3646C28.7966 25.0159 29.2665 24.7964 29.7688 24.7396C30.271 24.6827 30.778 24.7917 31.2126 25.0498C31.6472 25.3079 31.9854 25.701 32.1758 26.1693C32.3662 26.6375 32.3982 27.1551 32.267 27.6433C32.1359 28.1314 31.8487 28.5632 31.4493 28.873L31.9906 29.571Z" stroke="white" stroke-opacity="0.6" stroke-width="1.56441" mask="url(#path-7-inside-2_6190_10502)"/>
<path d="M29.0272 36.6433L27.1947 39.0866C26.9387 39.4279 26.8101 39.848 26.8311 40.2742C26.8521 40.7003 27.0215 41.1057 27.3099 41.4201L30.77 45.1948C31.1157 45.5724 31.604 45.7873 32.1169 45.7873H36.3424C38.5369 45.7873 40 43.9585 40 42.1297V34.2924C40 32.202 37.2568 32.202 37.2568 34.2924V34.8145" stroke="white" stroke-width="1.25" stroke-linecap="round" stroke-linejoin="round"/>
<path d="M37.2566 34.8145V33.2472C37.2566 31.1569 34.5134 31.1569 34.5134 33.2472V34.8145V32.5285C34.5134 30.4382 31.7702 30.4382 31.7702 32.5285M31.7702 34.8145V32.5285M31.7702 32.5285V28.87C31.7699 28.5063 31.6253 28.1577 31.3681 27.9007C31.1109 27.6437 30.7622 27.4993 30.3986 27.4993C30.0348 27.4993 29.6859 27.6438 29.4287 27.901C29.1715 28.1582 29.027 28.5071 29.027 28.8709V39.3865" stroke="white" stroke-width="1.25" stroke-linecap="round" stroke-linejoin="round"/>
<path d="M58 44C58 51.732 51.732 58 44 58C36.268 58 30 51.732 30 44C30 36.268 36.268 30 44 30C51.732 30 58 36.268 58 44Z" fill="url(#paint1_linear_6190_10502)"/>
<path d="M46.4072 47.7327L46.5151 49.9206L44.302 48.3827L42.0765 49.9221L42.1845 47.7327H41.2498L41.0887 51H42.1591L44.3008 49.5186L46.4325 51H47.5029L47.3418 47.7327H46.4072ZM48.9462 41.0497L48.8822 39.6479L47.7002 38.8915L46.9437 37.7095L45.5419 37.6453L44.2958 37L43.0498 37.6455L41.6479 37.7096L40.8914 38.8915L39.7095 39.6479L39.6455 41.0497L39 42.2958L39.6455 43.5419L39.7097 44.9437L40.8914 45.7001L41.6478 46.8821L43.0497 46.9462L44.2958 47.5916L45.5419 46.9462L46.9437 46.8821L47.7001 45.7001L48.8821 44.9438L48.9462 43.542L49.5917 42.2959L48.9462 41.0497ZM48.023 43.2945L47.9715 44.4181L47.0242 45.0243L46.418 45.9716L45.2944 46.023L44.2958 46.5403L43.2971 46.023L42.1736 45.9716L41.5674 45.0243L40.6201 44.4181L40.5688 43.2945L40.0513 42.2958L40.5687 41.2973L40.6201 40.1736L41.5674 39.5674L42.1736 38.62L43.2971 38.5687L44.2958 38.0513L45.2945 38.5687L46.4181 38.62L47.0243 39.5673L47.9715 40.1736L48.0229 41.2971L48.5404 42.2958L48.023 43.2945Z" fill="white"/>
<circle cx="44.25" cy="42.25" r="1.25" fill="#F8F9FA"/>
<defs>
<linearGradient id="paint0_linear_6190_10502" x1="36" y1="18" x2="36" y2="54" gradientUnits="userSpaceOnUse">
<stop stop-color="#FA50D5"/>
<stop offset="1" stop-color="#FA5080"/>
</linearGradient>
<linearGradient id="paint1_linear_6190_10502" x1="54.9349" y1="55.7604" x2="36.8172" y2="26.0082" gradientUnits="userSpaceOnUse">
<stop stop-color="#FF8B58"/>
<stop offset="1" stop-color="#FFD058"/>
</linearGradient>
</defs>
</svg>
