<svg width="40" height="40" viewBox="0 0 40 40" fill="none" xmlns="http://www.w3.org/2000/svg">
<circle cx="20" cy="20" r="20" fill="#FA50D5" fill-opacity="0.08"/>
<circle opacity="0.24" cx="19.9998" cy="4.44436" r="1.11111" fill="#FF8B58"/>
<circle opacity="0.24" cx="34.4446" cy="16.1111" r="1.11111" fill="#6F96FF"/>
<circle opacity="0.24" cx="11.1111" cy="32.2222" r="1.11111" fill="#713BDB"/>
<rect x="10" y="10" width="20" height="20" rx="4.44444" fill="url(#paint0_linear_4256_210241)"/>
<mask id="path-6-inside-1_4256_210241" fill="white">
<path d="M18.0424 17.4641C18.6071 17.1495 19.0452 16.6489 19.2822 16.0475C19.5191 15.4461 19.5402 14.7811 19.3419 14.1659C19.1435 13.5507 18.738 13.0232 18.1944 12.6735C17.6507 12.3238 17.0027 12.1734 16.3606 12.2479C15.7185 12.3224 15.1221 12.6173 14.673 13.0822C14.2239 13.5472 13.95 14.1534 13.8978 14.7977C13.8456 15.442 14.0185 16.0845 14.3869 16.6156C14.7553 17.1468 15.2964 17.5338 15.9182 17.7106L16.0604 17.2108C15.5543 17.0668 15.1138 16.7518 14.8139 16.3195C14.514 15.8871 14.3733 15.3641 14.4158 14.8397C14.4582 14.3152 14.6813 13.8217 15.0468 13.4432C15.4123 13.0648 15.8978 12.8248 16.4205 12.7641C16.9431 12.7034 17.4707 12.8259 17.9132 13.1106C18.3557 13.3953 18.6858 13.8246 18.8473 14.3254C19.0087 14.8261 18.9916 15.3674 18.7987 15.857C18.6058 16.3465 18.2491 16.7541 17.7895 17.0101L18.0424 17.4641Z"/>
</mask>
<path d="M18.0424 17.4641C18.6071 17.1495 19.0452 16.6489 19.2822 16.0475C19.5191 15.4461 19.5402 14.7811 19.3419 14.1659C19.1435 13.5507 18.738 13.0232 18.1944 12.6735C17.6507 12.3238 17.0027 12.1734 16.3606 12.2479C15.7185 12.3224 15.1221 12.6173 14.673 13.0822C14.2239 13.5472 13.95 14.1534 13.8978 14.7977C13.8456 15.442 14.0185 16.0845 14.3869 16.6156C14.7553 17.1468 15.2964 17.5338 15.9182 17.7106L16.0604 17.2108C15.5543 17.0668 15.1138 16.7518 14.8139 16.3195C14.514 15.8871 14.3733 15.3641 14.4158 14.8397C14.4582 14.3152 14.6813 13.8217 15.0468 13.4432C15.4123 13.0648 15.8978 12.8248 16.4205 12.7641C16.9431 12.7034 17.4707 12.8259 17.9132 13.1106C18.3557 13.3953 18.6858 13.8246 18.8473 14.3254C19.0087 14.8261 18.9916 15.3674 18.7987 15.857C18.6058 16.3465 18.2491 16.7541 17.7895 17.0101L18.0424 17.4641Z" stroke="white" stroke-opacity="0.6" stroke-width="0.543199" mask="url(#path-6-inside-1_4256_210241)"/>
<mask id="path-7-inside-2_4256_210241" fill="white">
<path d="M17.7729 16.4284C18.0794 16.1907 18.2997 15.8593 18.4004 15.4848C18.501 15.1102 18.4764 14.713 18.3303 14.3537C18.1843 13.9944 17.9247 13.6927 17.5913 13.4947C17.2578 13.2966 16.8687 13.213 16.4833 13.2566C16.0979 13.3003 15.7374 13.4687 15.4566 13.7363C15.1759 14.0039 14.9903 14.3559 14.9282 14.7388C14.8661 15.1216 14.9309 15.5142 15.1127 15.8568C15.2945 16.1994 15.5834 16.4732 15.9352 16.6364L16.1417 16.1912C15.887 16.073 15.6778 15.8748 15.5462 15.6268C15.4146 15.3788 15.3677 15.0945 15.4126 14.8173C15.4576 14.5401 15.5919 14.2852 15.7952 14.0915C15.9984 13.8978 16.2595 13.7758 16.5385 13.7443C16.8175 13.7127 17.0992 13.7732 17.3407 13.9166C17.5821 14.06 17.77 14.2784 17.8758 14.5385C17.9815 14.7987 17.9993 15.0862 17.9265 15.3574C17.8536 15.6286 17.694 15.8685 17.4721 16.0406L17.7729 16.4284Z"/>
</mask>
<path d="M17.7729 16.4284C18.0794 16.1907 18.2997 15.8593 18.4004 15.4848C18.501 15.1102 18.4764 14.713 18.3303 14.3537C18.1843 13.9944 17.9247 13.6927 17.5913 13.4947C17.2578 13.2966 16.8687 13.213 16.4833 13.2566C16.0979 13.3003 15.7374 13.4687 15.4566 13.7363C15.1759 14.0039 14.9903 14.3559 14.9282 14.7388C14.8661 15.1216 14.9309 15.5142 15.1127 15.8568C15.2945 16.1994 15.5834 16.4732 15.9352 16.6364L16.1417 16.1912C15.887 16.073 15.6778 15.8748 15.5462 15.6268C15.4146 15.3788 15.3677 15.0945 15.4126 14.8173C15.4576 14.5401 15.5919 14.2852 15.7952 14.0915C15.9984 13.8978 16.2595 13.7758 16.5385 13.7443C16.8175 13.7127 17.0992 13.7732 17.3407 13.9166C17.5821 14.06 17.77 14.2784 17.8758 14.5385C17.9815 14.7987 17.9993 15.0862 17.9265 15.3574C17.8536 15.6286 17.694 15.8685 17.4721 16.0406L17.7729 16.4284Z" stroke="white" stroke-opacity="0.6" stroke-width="0.869118" mask="url(#path-7-inside-2_4256_210241)"/>
<path d="M16.1266 20.3572L15.1085 21.7146C14.9663 21.9042 14.8948 22.1376 14.9065 22.3744C14.9182 22.6111 15.0123 22.8363 15.1725 23.011L17.0948 25.1081C17.2868 25.3179 17.5581 25.4372 17.8431 25.4372H20.1906C21.4098 25.4372 22.2226 24.4212 22.2226 23.4052V19.0511C22.2226 17.8899 20.6986 17.8899 20.6986 19.0511V19.3412" stroke="white" stroke-width="0.694444" stroke-linecap="round" stroke-linejoin="round"/>
<path d="M20.6985 19.3414V18.4706C20.6985 17.3094 19.1745 17.3094 19.1745 18.4706V19.3414V18.0714C19.1745 16.9101 17.6505 16.9101 17.6505 18.0714M17.6505 19.3414V18.0714M17.6505 18.0714V16.0388C17.6503 15.8368 17.57 15.6431 17.4271 15.5003C17.2842 15.3576 17.0905 15.2773 16.8885 15.2773C16.6864 15.2773 16.4926 15.3576 16.3496 15.5005C16.2067 15.6434 16.1265 15.8373 16.1265 16.0393V21.8814" stroke="white" stroke-width="0.694444" stroke-linecap="round" stroke-linejoin="round"/>
<path d="M32.2221 24.4445C32.2221 28.7401 28.7398 32.2223 24.4443 32.2223C20.1487 32.2223 16.6665 28.7401 16.6665 24.4445C16.6665 20.149 20.1487 16.6667 24.4443 16.6667C28.7398 16.6667 32.2221 20.149 32.2221 24.4445Z" fill="url(#paint1_linear_4256_210241)"/>
<g clip-path="url(#clip0_4256_210241)">
<path d="M26.3266 22.9045C26.3266 22.0129 25.603 21.2893 24.7114 21.2893C23.8198 21.2893 23.0962 22.0129 23.0962 22.9045C23.0962 23.7961 23.8198 24.5197 24.7114 24.5197" stroke="white" stroke-width="0.222222" stroke-linecap="round" stroke-linejoin="round"/>
<path d="M24.0649 21.4507H24.2265C23.9115 22.3942 23.9115 23.4145 24.2265 24.3581H24.0649M25.1956 21.4507C25.3523 21.9223 25.4314 22.4134 25.4314 22.9044" stroke="white" stroke-width="0.222222" stroke-linecap="round" stroke-linejoin="round"/>
<path d="M23.2573 23.5505V23.3889C23.729 23.5456 24.22 23.6248 24.711 23.6248M23.2573 22.4198C24.2009 22.1049 25.2212 22.1049 26.1647 22.4198M26.3262 24.5196L26.1647 24.3581M25.7125 24.4227C25.8495 24.4227 25.981 24.3682 26.0779 24.2713C26.1749 24.1744 26.2293 24.0429 26.2293 23.9058C26.2293 23.7687 26.1749 23.6373 26.0779 23.5403C25.981 23.4434 25.8495 23.3889 25.7125 23.3889C25.5754 23.3889 25.4439 23.4434 25.347 23.5403C25.25 23.6373 25.1956 23.7687 25.1956 23.9058C25.1956 24.0429 25.25 24.1744 25.347 24.2713C25.4439 24.3682 25.5754 24.4227 25.7125 24.4227Z" stroke="white" stroke-width="0.222222" stroke-linecap="round" stroke-linejoin="round"/>
<path d="M23.0096 26.7024C22.5081 26.8633 22.1351 27.091 21.9448 27.3525C21.7545 27.6141 21.7568 27.8957 21.9513 28.1567C22.1458 28.4176 22.5225 28.6441 23.0266 28.8034C23.5307 28.9626 24.1359 29.0463 24.7542 29.0422C25.3726 29.0381 25.972 28.9465 26.4652 28.7807C26.9584 28.6149 27.3198 28.3834 27.4968 28.1201C27.6739 27.8567 27.6573 27.5751 27.4496 27.3162C27.2419 27.0573 26.8539 26.8346 26.3419 26.6804L26.0451 26.8751C26.4639 27.0012 26.7813 27.1834 26.9512 27.3952C27.1211 27.607 27.1346 27.8373 26.9898 28.0528C26.845 28.2682 26.5494 28.4575 26.1459 28.5931C25.7425 28.7288 25.2522 28.8037 24.7464 28.8071C24.2406 28.8104 23.7455 28.742 23.3332 28.6117C22.9208 28.4814 22.6127 28.2961 22.4536 28.0827C22.2944 27.8693 22.2926 27.6388 22.4483 27.4249C22.6039 27.211 22.9091 27.0247 23.3193 26.8931L23.0096 26.7024Z" fill="white"/>
<path d="M21.8938 22.1642C22.5762 19.1646 27.0202 19.1681 27.6991 22.1677C28.0974 23.9273 26.9035 25.9817 25.9441 26.9031C25.6088 27.2264 25.1612 27.4071 24.6954 27.4071C24.2296 27.4071 23.782 27.2264 23.4467 26.9031C22.4907 25.9817 21.4955 23.9238 21.8938 22.1642Z" stroke="white" stroke-width="0.444444"/>
</g>
<defs>
<linearGradient id="paint0_linear_4256_210241" x1="20" y1="10" x2="20" y2="30" gradientUnits="userSpaceOnUse">
<stop stop-color="#FA50D5"/>
<stop offset="1" stop-color="#FA5080"/>
</linearGradient>
<linearGradient id="paint1_linear_4256_210241" x1="24.4443" y1="16.6667" x2="24.4443" y2="32.2223" gradientUnits="userSpaceOnUse">
<stop stop-color="#35EAA6"/>
<stop offset="1" stop-color="#52CACC"/>
</linearGradient>
<clipPath id="clip0_4256_210241">
<rect width="10" height="10" fill="white" transform="translate(20 19.4443)"/>
</clipPath>
</defs>
</svg>
