<svg width="40" height="40" viewBox="0 0 40 40" fill="none" xmlns="http://www.w3.org/2000/svg">
<g id="Subscribe to newsletter">
<g id="Background">
<circle id="BG" cx="20" cy="20" r="20" fill="#B792FF" fill-opacity="0.08"/>
<circle id="Ellipse 4" opacity="0.24" cx="19.9998" cy="4.44436" r="1.11111" fill="#FF8B58"/>
<circle id="Ellipse 5" opacity="0.24" cx="34.4446" cy="16.1111" r="1.11111" fill="#6F96FF"/>
<circle id="Ellipse 6" opacity="0.24" cx="11.1111" cy="32.2222" r="1.11111" fill="#713BDB"/>
</g>
<g id="Middle">
<g id="Rectangle 28" filter="url(#filter0_d_1704_220633)">
<path d="M9.92139 14.3658C9.92139 11.9112 11.9112 9.92139 14.3658 9.92139H25.4769C27.9315 9.92139 29.9214 11.9112 29.9214 14.3658V25.4769C29.9214 27.9315 27.9315 29.9214 25.4769 29.9214H14.3658C11.9112 29.9214 9.92139 27.9315 9.92139 25.4769V14.3658Z" fill="url(#paint0_linear_1704_220633)"/>
</g>
<g id="Iconsax/Linear/textalignjustifycenter">
<g id="Group 156">
<path id="Vector" d="M16.6665 16.1111H24.9998M16.6665 19.7222H24.9998M16.6665 23.3333H24.9998" stroke="white" stroke-opacity="0.4" stroke-width="1.40197" stroke-linecap="round" stroke-linejoin="round"/>
<path id="Vector_2" d="M13.3335 15.6944L14.0279 16.3889L15.4193 15" stroke="white" stroke-width="0.481333" stroke-linecap="round" stroke-linejoin="round"/>
</g>
<rect id="Rectangle 34" x="13.3335" y="22.2222" width="1.66667" height="1.66667" rx="0.0611111" stroke="white" stroke-opacity="0.4" stroke-width="0.555556"/>
<rect id="Rectangle 35" x="13.3335" y="18.8889" width="1.66667" height="1.66667" rx="0.0611111" stroke="white" stroke-opacity="0.4" stroke-width="0.555556"/>
</g>
</g>
<g id="foreground">
<path id="Ellipse 4_2" d="M32.2221 24.4445C32.2221 28.7401 28.7398 32.2223 24.4443 32.2223C20.1487 32.2223 16.6665 28.7401 16.6665 24.4445C16.6665 20.149 20.1487 16.6667 24.4443 16.6667C28.7398 16.6667 32.2221 20.149 32.2221 24.4445Z" fill="url(#paint1_linear_1704_220633)"/>
<g id="newsletter popup">
<g id="Group 158">
<path id="Vector_3" d="M21.6108 22.8601L24.4923 24.781L27.3729 22.8601" stroke="white" stroke-opacity="0.8" stroke-width="0.444444" stroke-linecap="round" stroke-linejoin="round"/>
<path id="Vector_4" d="M20.6504 26.5096V22.6682C20.6504 22.4644 20.7313 22.269 20.8754 22.1249C21.0195 21.9808 21.2149 21.8999 21.4187 21.8999H27.5648C27.7686 21.8999 27.964 21.9808 28.1081 22.1249C28.2522 22.269 28.3331 22.4644 28.3331 22.6682V26.5096C28.3331 26.7134 28.2522 26.9088 28.1081 27.0529C27.964 27.197 27.7686 27.2779 27.5648 27.2779H21.4187C21.2149 27.2779 21.0195 27.197 20.8754 27.0529C20.7313 26.9088 20.6504 26.7134 20.6504 26.5096Z" stroke="white" stroke-opacity="0.8" stroke-width="0.444444"/>
</g>
</g>
</g>
</g>
<defs>
<filter id="filter0_d_1704_220633" x="5.47694" y="5.47694" width="28.8889" height="28.8889" filterUnits="userSpaceOnUse" color-interpolation-filters="sRGB">
<feFlood flood-opacity="0" result="BackgroundImageFix"/>
<feColorMatrix in="SourceAlpha" type="matrix" values="0 0 0 0 0 0 0 0 0 0 0 0 0 0 0 0 0 0 127 0" result="hardAlpha"/>
<feOffset/>
<feGaussianBlur stdDeviation="2.22222"/>
<feColorMatrix type="matrix" values="0 0 0 0 0.443137 0 0 0 0 0.231373 0 0 0 0 0.858824 0 0 0 0.8 0"/>
<feBlend mode="normal" in2="BackgroundImageFix" result="effect1_dropShadow_1704_220633"/>
<feBlend mode="normal" in="SourceGraphic" in2="effect1_dropShadow_1704_220633" result="shape"/>
</filter>
<linearGradient id="paint0_linear_1704_220633" x1="12.6992" y1="11.5881" x2="27.4214" y2="29.9214" gradientUnits="userSpaceOnUse">
<stop stop-color="#B792FF"/>
<stop offset="1" stop-color="#713BDB"/>
</linearGradient>
<linearGradient id="paint1_linear_1704_220633" x1="24.4443" y1="16.6667" x2="24.4443" y2="32.2223" gradientUnits="userSpaceOnUse">
<stop stop-color="#FA50D5"/>
<stop offset="1" stop-color="#FA5080"/>
</linearGradient>
</defs>
</svg>
