<svg width="72" height="72" viewBox="0 0 72 72" fill="none" xmlns="http://www.w3.org/2000/svg">
<circle cx="36" cy="36" r="36" fill="#FA50D5" fill-opacity="0.08"/>
<circle opacity="0.24" cx="35.9999" cy="8" r="2" fill="#FF8B58"/>
<circle opacity="0.24" cx="61.9999" cy="29" r="2" fill="#6F96FF"/>
<circle opacity="0.24" cx="19.9999" cy="58" r="2" fill="#713BDB"/>
<rect x="18" y="18" width="36" height="36" rx="8" fill="url(#paint0_linear_154_65492)"/>
<mask id="path-6-inside-1_154_65492" fill="white">
<path d="M32.4766 31.4356C33.4931 30.8693 34.2818 29.9682 34.7083 28.8856C35.1348 27.8031 35.1728 26.6062 34.8158 25.4988C34.4587 24.3914 33.7288 23.442 32.7502 22.8125C31.7717 22.183 30.6052 21.9122 29.4494 22.0464C28.2936 22.1805 27.2201 22.7112 26.4118 23.5481C25.6035 24.3851 25.1103 25.4764 25.0164 26.6361C24.9225 27.7958 25.2336 28.9523 25.8967 29.9083C26.5599 30.8644 27.534 31.561 28.6531 31.8793L28.9091 30.9796C27.9981 30.7204 27.2052 30.1534 26.6654 29.3752C26.1256 28.597 25.8723 27.6556 25.9488 26.7116C26.0252 25.7676 26.4267 24.8793 27.0846 24.198C27.7426 23.5168 28.6164 23.0847 29.5572 22.9755C30.498 22.8664 31.4476 23.0868 32.2441 23.5992C33.0406 24.1116 33.6348 24.8844 33.9255 25.7858C34.2161 26.6872 34.1852 27.6615 33.838 28.5427C33.4908 29.4239 32.8488 30.1575 32.0214 30.6184L32.4766 31.4356Z"/>
</mask>
<path d="M32.4766 31.4356C33.4931 30.8693 34.2818 29.9682 34.7083 28.8856C35.1348 27.8031 35.1728 26.6062 34.8158 25.4988C34.4587 24.3914 33.7288 23.442 32.7502 22.8125C31.7717 22.183 30.6052 21.9122 29.4494 22.0464C28.2936 22.1805 27.2201 22.7112 26.4118 23.5481C25.6035 24.3851 25.1103 25.4764 25.0164 26.6361C24.9225 27.7958 25.2336 28.9523 25.8967 29.9083C26.5599 30.8644 27.534 31.561 28.6531 31.8793L28.9091 30.9796C27.9981 30.7204 27.2052 30.1534 26.6654 29.3752C26.1256 28.597 25.8723 27.6556 25.9488 26.7116C26.0252 25.7676 26.4267 24.8793 27.0846 24.198C27.7426 23.5168 28.6164 23.0847 29.5572 22.9755C30.498 22.8664 31.4476 23.0868 32.2441 23.5992C33.0406 24.1116 33.6348 24.8844 33.9255 25.7858C34.2161 26.6872 34.1852 27.6615 33.838 28.5427C33.4908 29.4239 32.8488 30.1575 32.0214 30.6184L32.4766 31.4356Z" stroke="white" stroke-opacity="0.6" stroke-width="0.977758" mask="url(#path-6-inside-1_154_65492)"/>
<mask id="path-7-inside-2_154_65492" fill="white">
<path d="M31.9906 29.5711C32.5423 29.1432 32.9389 28.5467 33.1201 27.8725C33.3013 27.1983 33.257 26.4834 32.9941 25.8366C32.7311 25.1899 32.2639 24.6469 31.6637 24.2904C31.0635 23.9339 30.3631 23.7834 29.6694 23.8619C28.9757 23.9404 28.3267 24.2436 27.8214 24.7253C27.316 25.2069 26.982 25.8406 26.8702 26.5297C26.7585 27.2188 26.8751 27.9256 27.2024 28.5423C27.5296 29.159 28.0495 29.6517 28.6829 29.9454L29.0545 29.1441C28.596 28.9314 28.2195 28.5747 27.9826 28.1282C27.7457 27.6817 27.6612 27.17 27.7421 26.6711C27.823 26.1722 28.0649 25.7134 28.4308 25.3647C28.7966 25.016 29.2665 24.7965 29.7688 24.7396C30.271 24.6828 30.778 24.7917 31.2126 25.0498C31.6472 25.308 31.9854 25.7011 32.1758 26.1693C32.3662 26.6375 32.3982 27.1552 32.2671 27.6433C32.1359 28.1314 31.8487 28.5633 31.4493 28.873L31.9906 29.5711Z"/>
</mask>
<path d="M31.9906 29.5711C32.5423 29.1432 32.9389 28.5467 33.1201 27.8725C33.3013 27.1983 33.257 26.4834 32.9941 25.8366C32.7311 25.1899 32.2639 24.6469 31.6637 24.2904C31.0635 23.9339 30.3631 23.7834 29.6694 23.8619C28.9757 23.9404 28.3267 24.2436 27.8214 24.7253C27.316 25.2069 26.982 25.8406 26.8702 26.5297C26.7585 27.2188 26.8751 27.9256 27.2024 28.5423C27.5296 29.159 28.0495 29.6517 28.6829 29.9454L29.0545 29.1441C28.596 28.9314 28.2195 28.5747 27.9826 28.1282C27.7457 27.6817 27.6612 27.17 27.7421 26.6711C27.823 26.1722 28.0649 25.7134 28.4308 25.3647C28.7966 25.016 29.2665 24.7965 29.7688 24.7396C30.271 24.6828 30.778 24.7917 31.2126 25.0498C31.6472 25.308 31.9854 25.7011 32.1758 26.1693C32.3662 26.6375 32.3982 27.1552 32.2671 27.6433C32.1359 28.1314 31.8487 28.5633 31.4493 28.873L31.9906 29.5711Z" stroke="white" stroke-opacity="0.6" stroke-width="1.56441" mask="url(#path-7-inside-2_154_65492)"/>
<path d="M29.0272 36.6434L27.1947 39.0866C26.9387 39.428 26.8101 39.8481 26.8311 40.2742C26.8522 40.7004 27.0215 41.1058 27.3099 41.4202L30.77 45.1949C31.1157 45.5725 31.604 45.7874 32.117 45.7874H36.3424C38.537 45.7874 40 43.9586 40 42.1298V34.2924C40 32.2021 37.2568 32.2021 37.2568 34.2924V34.8145" stroke="white" stroke-width="1.25" stroke-linecap="round" stroke-linejoin="round"/>
<path d="M37.2566 34.8145V33.2472C37.2566 31.1569 34.5134 31.1569 34.5134 33.2472V34.8145V32.5285C34.5134 30.4382 31.7702 30.4382 31.7702 32.5285M31.7702 34.8145V32.5285M31.7702 32.5285V28.87C31.7699 28.5063 31.6253 28.1577 31.3681 27.9007C31.1109 27.6437 30.7622 27.4993 30.3986 27.4993C30.0348 27.4993 29.6859 27.6438 29.4287 27.901C29.1715 28.1582 29.027 28.5071 29.027 28.8709V39.3865" stroke="white" stroke-width="1.25" stroke-linecap="round" stroke-linejoin="round"/>
<path d="M58 44C58 51.732 51.732 58 44 58C36.268 58 30 51.732 30 44C30 36.268 36.268 30 44 30C51.732 30 58 36.268 58 44Z" fill="url(#paint1_linear_154_65492)"/>
<path d="M42.3215 42.6039C42.51 42.6039 42.6967 42.5668 42.8708 42.4947C43.045 42.4225 43.2032 42.3168 43.3365 42.1835C43.4698 42.0502 43.5755 41.892 43.6477 41.7178C43.7198 41.5437 43.7569 41.357 43.7569 41.1685C43.7569 40.98 43.7198 40.7933 43.6477 40.6192C43.5755 40.445 43.4698 40.2868 43.3365 40.1535C43.2032 40.0202 43.045 39.9144 42.8708 39.8423C42.6967 39.7702 42.51 39.733 42.3215 39.733C41.9408 39.733 41.5757 39.8843 41.3065 40.1535C41.0373 40.4227 40.886 40.7878 40.886 41.1685C40.886 41.5492 41.0373 41.9143 41.3065 42.1835C41.5757 42.4527 41.9408 42.6039 42.3215 42.6039Z" stroke="white" stroke-width="0.690125"/>
<path d="M47.0825 43.5876V45.2303M47.0825 46.5478L47.0858 46.5442M44.7826 47.2016L44.1683 42.9019C44.1566 42.82 44.1763 42.7368 44.2235 42.6689C44.2706 42.601 44.3418 42.5535 44.4226 42.5359L46.9399 41.9764C47.0338 41.9555 47.1312 41.9555 47.2251 41.9764L49.7425 42.5362C49.91 42.5733 50.0211 42.732 49.9968 42.9022L49.3824 47.2016C49.3594 47.3643 49.2181 48.3516 47.0825 48.3516C44.9469 48.3516 44.8056 47.3643 44.7826 47.2016Z" stroke="white" stroke-width="0.492828" stroke-linecap="round" stroke-linejoin="round"/>
<path fill-rule="evenodd" clip-rule="evenodd" d="M38.8023 40.4073C39.2133 38.6012 40.7508 37.6891 42.3228 37.6901C43.7534 37.6911 45.1545 38.4483 45.7033 39.9456L46.5215 40.2963C46.5189 40.2839 46.5162 40.2716 46.5134 40.2594C46.0204 38.0813 44.1547 37.0012 42.3233 37C40.4919 36.9988 38.6249 38.0764 38.1294 40.2545L38.1293 40.2548C37.8466 41.5037 38.0568 43.4726 38.4783 45.2491C38.691 46.1458 38.9619 47.012 39.2631 47.7362C39.5595 48.4491 39.9011 49.0639 40.2719 49.4213C40.7815 49.9128 41.462 50.1875 42.17 50.1875C42.8497 50.1875 43.504 49.9344 44.0061 49.4793L43.7049 48.8015C43.6656 48.8471 43.6272 48.888 43.5896 48.924L43.5891 48.9245C43.2081 49.292 42.6994 49.4973 42.17 49.4973C41.6407 49.4973 41.132 49.292 40.7509 48.9245L40.7509 48.9244C40.4867 48.6699 40.1891 48.1657 39.9003 47.4712C39.6162 46.7881 39.3558 45.9585 39.1498 45.0898C38.7336 43.3357 38.556 41.4957 38.8023 40.4073Z" fill="white"/>
<defs>
<linearGradient id="paint0_linear_154_65492" x1="36" y1="18" x2="36" y2="54" gradientUnits="userSpaceOnUse">
<stop stop-color="#FA50D5"/>
<stop offset="1" stop-color="#FA5080"/>
</linearGradient>
<linearGradient id="paint1_linear_154_65492" x1="33.8889" y1="32.3333" x2="54.5" y2="58" gradientUnits="userSpaceOnUse">
<stop stop-color="#B792FF"/>
<stop offset="1" stop-color="#713BDB"/>
</linearGradient>
</defs>
</svg>
