<svg width="40" height="40" viewBox="0 0 40 40" fill="none" xmlns="http://www.w3.org/2000/svg">
<circle cx="20" cy="20" r="20" fill="#FF8B58" fill-opacity="0.08"/>
<circle opacity="0.24" cx="19.9998" cy="4.44436" r="1.11111" fill="#FF8B58"/>
<circle opacity="0.24" cx="34.4446" cy="16.1111" r="1.11111" fill="#6F96FF"/>
<circle opacity="0.24" cx="11.1111" cy="32.2222" r="1.11111" fill="#713BDB"/>
<rect x="10" y="10" width="20" height="20" rx="4.44444" fill="url(#paint0_linear_4283_2491)"/>
<path d="M22.5 18.5555L17.5 15.6721" stroke="#FFF0DD" stroke-width="0.694444" stroke-linecap="round" stroke-linejoin="round"/>
<path d="M25 22.2222V17.7778C24.9998 17.5829 24.9484 17.3915 24.8509 17.2228C24.7533 17.0541 24.6132 16.9141 24.4444 16.8166L20.5556 14.5944C20.3866 14.4969 20.195 14.4456 20 14.4456C19.805 14.4456 19.6134 14.4969 19.4444 14.5944L15.5556 16.8166C15.3868 16.9141 15.2467 17.0541 15.1491 17.2228C15.0516 17.3915 15.0002 17.5829 15 17.7778V22.2222C15.0002 22.417 15.0516 22.6084 15.1491 22.7771C15.2467 22.9458 15.3868 23.0859 15.5556 23.1833L19.4444 25.4055C19.6134 25.5031 19.805 25.5544 20 25.5544C20.195 25.5544 20.3866 25.5031 20.5556 25.4055L24.4444 23.1833C24.6132 23.0859 24.7533 22.9458 24.8509 22.7771C24.9484 22.6084 24.9998 22.417 25 22.2222Z" stroke="#FFF0DD" stroke-width="0.694444" stroke-linecap="round" stroke-linejoin="round"/>
<path d="M15.1499 17.2L19.9999 20.0055L24.8499 17.2" stroke="#FFF0DD" stroke-width="0.694444" stroke-linecap="round" stroke-linejoin="round"/>
<path d="M20 25.6V20" stroke="#FFF0DD" stroke-width="0.694444" stroke-linecap="round" stroke-linejoin="round"/>
<path d="M32.2221 24.4445C32.2221 28.7401 28.7398 32.2223 24.4443 32.2223C20.1487 32.2223 16.6665 28.7401 16.6665 24.4445C16.6665 20.149 20.1487 16.6667 24.4443 16.6667C28.7398 16.6667 32.2221 20.149 32.2221 24.4445Z" fill="url(#paint1_linear_4283_2491)"/>
<g clip-path="url(#clip0_4283_2491)">
<path d="M23.5084 28.5305C23.5084 28.6255 23.5489 28.7167 23.621 28.7839C23.693 28.8511 23.7907 28.8889 23.8926 28.8889H25.4295C25.5314 28.8889 25.6291 28.8511 25.7012 28.7839C25.7732 28.7167 25.8137 28.6255 25.8137 28.5305V28.172H23.5084V28.5305ZM24.6611 21.7202C24.089 21.7207 23.532 21.8914 23.071 22.2074C22.61 22.5235 22.269 22.9685 22.0976 23.4777C21.9262 23.9869 21.9334 24.5338 22.118 25.039C22.3026 25.5441 22.6551 25.9812 23.1242 26.2867V27.0967C23.1242 27.1918 23.1647 27.283 23.2368 27.3502C23.3088 27.4174 23.4065 27.4552 23.5084 27.4552H25.8137C25.9156 27.4552 26.0133 27.4174 26.0854 27.3502C26.1574 27.283 26.1979 27.1918 26.1979 27.0967V26.2867C26.3679 26.1729 26.5246 26.0428 26.6653 25.8984C27.112 25.443 27.3569 24.8465 27.3505 24.2293C27.3498 23.564 27.0662 22.9263 26.562 22.4559C26.0577 21.9855 25.3741 21.7209 24.6611 21.7202ZM25.7561 25.6988L25.4295 25.9139V26.7383H23.8926V25.9139L23.5661 25.6988C23.2298 25.4812 22.9768 25.1691 22.844 24.8079C22.7112 24.4468 22.7055 24.0555 22.8277 23.6911C22.9499 23.3267 23.1937 23.0083 23.5234 22.7822C23.8532 22.5561 24.2518 22.4341 24.6611 22.4341C25.0703 22.4341 25.4689 22.5561 25.7987 22.7822C26.1285 23.0083 26.3722 23.3267 26.4944 23.6911C26.6167 24.0555 26.6109 24.4468 26.4781 24.8079C26.3453 25.1691 26.0923 25.4812 25.7561 25.6988Z" fill="white"/>
<path d="M24.688 21.075L24.6629 19.9999" stroke="white" stroke-width="0.537652" stroke-linecap="round" stroke-linejoin="round"/>
<path d="M21.7876 22.0308L21.1113 21.1947" stroke="white" stroke-width="0.537652" stroke-linecap="round" stroke-linejoin="round"/>
<path d="M28.0269 21.0752L27.3506 21.9112" stroke="white" stroke-width="0.537652" stroke-linecap="round" stroke-linejoin="round"/>
</g>
<defs>
<linearGradient id="paint0_linear_4283_2491" x1="27.8107" y1="28.4003" x2="14.8694" y2="7.14871" gradientUnits="userSpaceOnUse">
<stop stop-color="#FF8B58"/>
<stop offset="1" stop-color="#FFD058"/>
</linearGradient>
<linearGradient id="paint1_linear_4283_2491" x1="24.4443" y1="16.6667" x2="24.4443" y2="32.2223" gradientUnits="userSpaceOnUse">
<stop stop-color="#35EAA6"/>
<stop offset="1" stop-color="#52CACC"/>
</linearGradient>
<clipPath id="clip0_4283_2491">
<rect width="10" height="10" fill="white" transform="translate(19.4443 19.4443)"/>
</clipPath>
</defs>
</svg>
