<svg width="40" height="40" viewBox="0 0 40 40" fill="none" xmlns="http://www.w3.org/2000/svg">
<circle cx="20" cy="20" r="20" fill="#FF8B58" fill-opacity="0.08"/>
<circle opacity="0.24" cx="19.9998" cy="4.44436" r="1.11111" fill="#FF8B58"/>
<circle opacity="0.24" cx="34.4446" cy="16.1111" r="1.11111" fill="#6F96FF"/>
<circle opacity="0.24" cx="11.1111" cy="32.2222" r="1.11111" fill="#713BDB"/>
<rect x="10" y="10" width="20" height="20" rx="4.44444" fill="url(#paint0_linear_1704_219560)"/>
<path d="M22.5 18.5555L17.5 15.6721" stroke="#FFF0DD" stroke-width="0.694444" stroke-linecap="round" stroke-linejoin="round"/>
<path d="M25 22.2222V17.7778C24.9998 17.5829 24.9484 17.3915 24.8509 17.2228C24.7533 17.0541 24.6132 16.9141 24.4444 16.8166L20.5556 14.5944C20.3866 14.4969 20.195 14.4456 20 14.4456C19.805 14.4456 19.6134 14.4969 19.4444 14.5944L15.5556 16.8166C15.3868 16.9141 15.2467 17.0541 15.1491 17.2228C15.0516 17.3915 15.0002 17.5829 15 17.7778V22.2222C15.0002 22.417 15.0516 22.6084 15.1491 22.7771C15.2467 22.9458 15.3868 23.0859 15.5556 23.1833L19.4444 25.4055C19.6134 25.5031 19.805 25.5544 20 25.5544C20.195 25.5544 20.3866 25.5031 20.5556 25.4055L24.4444 23.1833C24.6132 23.0859 24.7533 22.9458 24.8509 22.7771C24.9484 22.6084 24.9998 22.417 25 22.2222Z" stroke="#FFF0DD" stroke-width="0.694444" stroke-linecap="round" stroke-linejoin="round"/>
<path d="M15.1499 17.2L19.9999 20.0055L24.8499 17.2" stroke="#FFF0DD" stroke-width="0.694444" stroke-linecap="round" stroke-linejoin="round"/>
<path d="M20 25.6V20" stroke="#FFF0DD" stroke-width="0.694444" stroke-linecap="round" stroke-linejoin="round"/>
<path d="M32.2221 24.4445C32.2221 28.7401 28.7398 32.2223 24.4443 32.2223C20.1487 32.2223 16.6665 28.7401 16.6665 24.4445C16.6665 20.149 20.1487 16.6667 24.4443 16.6667C28.7398 16.6667 32.2221 20.149 32.2221 24.4445Z" fill="url(#paint1_linear_1704_219560)"/>
<g clip-path="url(#clip0_1704_219560)">
<path d="M21.2017 24.823L20.7017 24.323L20.2017 24.823" stroke="white" stroke-width="0.416667" stroke-linecap="round" stroke-linejoin="round"/>
<path d="M24.6118 20.4446C25.4361 20.4446 26.2418 20.689 26.9272 21.1469C27.6125 21.6049 28.1467 22.2557 28.4621 23.0172C28.7775 23.7788 28.8601 24.6167 28.6993 25.4251C28.5385 26.2335 28.1415 26.9761 27.5587 27.5589C26.9759 28.1418 26.2333 28.5387 25.4249 28.6995C24.6165 28.8603 23.7785 28.7778 23.017 28.4623C22.2555 28.1469 21.6046 27.6128 21.1467 26.9274C20.6888 26.2421 20.4443 25.2688 20.4443 24.4446H20.9443C20.9443 25.1793 21.115 26.065 21.5232 26.6758C21.9314 27.2867 22.5115 27.7628 23.1903 28.044C23.8691 28.3251 24.616 28.3987 25.3365 28.2554C26.0571 28.112 26.719 27.7582 27.2385 27.2387C27.758 26.7192 28.1118 26.0573 28.2551 25.3368C28.3984 24.6162 28.3249 23.8693 28.0437 23.1905C27.7626 22.5118 27.2865 21.9316 26.6756 21.5235C26.0647 21.1153 25.3465 20.8974 24.6118 20.8974V20.4446Z" fill="white"/>
<path d="M24.0307 20.4853C23.2555 20.5945 22.5267 20.9198 21.9278 21.424C21.3289 21.9281 20.8841 22.5908 20.6444 23.3361L21.0755 23.4747C21.2892 22.8105 21.6856 22.2198 22.2194 21.7704C22.7533 21.321 23.4029 21.031 24.0938 20.9337L24.0307 20.4853Z" fill="white"/>
<path d="M24.4443 22.4446V24.9446H26.9443" stroke="white" stroke-width="0.555556" stroke-linecap="round" stroke-linejoin="round"/>
</g>
<defs>
<linearGradient id="paint0_linear_1704_219560" x1="27.8107" y1="28.4003" x2="14.8694" y2="7.14871" gradientUnits="userSpaceOnUse">
<stop stop-color="#FF8B58"/>
<stop offset="1" stop-color="#FFD058"/>
</linearGradient>
<linearGradient id="paint1_linear_1704_219560" x1="18.827" y1="17.963" x2="30.2776" y2="32.2223" gradientUnits="userSpaceOnUse">
<stop stop-color="#B792FF"/>
<stop offset="1" stop-color="#713BDB"/>
</linearGradient>
<clipPath id="clip0_1704_219560">
<rect width="10" height="10" fill="white" transform="translate(19.4443 19.4443)"/>
</clipPath>
</defs>
</svg>
