<svg width="40" height="40" viewBox="0 0 40 40" fill="none" xmlns="http://www.w3.org/2000/svg">
<circle cx="20" cy="20" r="20" fill="#16ED86" fill-opacity="0.08"/>
<circle opacity="0.24" cx="19.9998" cy="4.44436" r="1.11111" fill="#FF8B58"/>
<circle opacity="0.24" cx="34.4446" cy="16.1111" r="1.11111" fill="#6F96FF"/>
<circle opacity="0.24" cx="11.1111" cy="32.2222" r="1.11111" fill="#713BDB"/>
<rect x="10" y="10" width="20" height="20" rx="4.44444" fill="url(#paint0_linear_2393_44834)"/>
<g clip-path="url(#clip0_2393_44834)">
<path d="M20.7552 15.8977C21.6256 15.8977 22.3256 16.6022 22.3256 17.4681C22.3256 18.3161 21.6526 19.0071 20.8135 19.0385C20.7747 19.0341 20.7356 19.0341 20.6968 19.0385M21.6211 23.0768C21.9442 23.0095 22.2493 22.8793 22.5006 22.6864C23.2005 22.1614 23.2005 21.2955 22.5006 20.7705C22.2538 20.582 21.9532 20.4564 21.6346 20.3846M17.5022 18.9802C17.4573 18.9757 17.4035 18.9757 17.3541 18.9802C16.8391 18.9627 16.3511 18.7455 15.9935 18.3745C15.6359 18.0034 15.4367 17.5078 15.4382 16.9925C15.4382 15.8932 16.3266 15.0003 17.4304 15.0003C17.9581 14.9908 18.4681 15.1913 18.848 15.5578C19.2279 15.9242 19.4467 16.4266 19.4562 16.9544C19.4657 17.4821 19.2652 17.9921 18.8988 18.372C18.5323 18.7519 18.0299 18.9707 17.5022 18.9802ZM15.2587 20.6359C14.1729 21.3628 14.1729 22.5473 15.2587 23.2697C16.4926 24.0953 18.5162 24.0953 19.7501 23.2697C20.8359 22.5428 20.8359 21.3583 19.7501 20.6359C18.5207 19.8148 16.4971 19.8148 15.2587 20.6359Z" stroke="url(#paint1_linear_2393_44834)" stroke-width="0.694444" stroke-linecap="round" stroke-linejoin="round"/>
<path fill-rule="evenodd" clip-rule="evenodd" d="M23.7792 15.5183C23.5933 15.5183 23.4426 15.669 23.4426 15.8548C23.4426 16.0407 23.5933 16.1913 23.7792 16.1913C24.4631 16.1913 25.0131 16.7445 25.0131 17.4252C25.0131 18.0843 24.4953 18.6232 23.8459 18.6584C23.7913 18.6541 23.7365 18.6551 23.6821 18.6614C23.4975 18.6828 23.3652 18.8498 23.3865 19.0344C23.4079 19.219 23.5749 19.3513 23.7595 19.3299C23.7726 19.3284 23.7857 19.3284 23.7988 19.3299C23.8158 19.3319 23.8329 19.3326 23.8501 19.3319C24.869 19.2938 25.6861 18.4552 25.6861 17.4252C25.6861 16.374 24.8361 15.5183 23.7792 15.5183ZM24.7326 20.0135C24.5513 19.9726 24.3712 20.0864 24.3303 20.2678C24.2894 20.4491 24.4033 20.6292 24.5846 20.67C24.8671 20.7337 25.1203 20.8423 25.3203 20.9951L25.3203 20.9951L25.3227 20.9968C25.5996 21.2046 25.713 21.4576 25.713 21.6856C25.713 21.9135 25.5996 22.1666 25.3227 22.3743L25.3226 22.3743L25.3196 22.3766C25.1142 22.5344 24.8575 22.6459 24.5765 22.7044C24.3945 22.7423 24.2778 22.9206 24.3157 23.1025C24.3536 23.2845 24.5318 23.4012 24.7138 23.3633C25.0782 23.2874 25.4312 23.1391 25.728 22.9116C26.15 22.5944 26.3861 22.1525 26.3861 21.6856C26.3861 21.2185 26.1499 20.7764 25.7276 20.4593C25.4344 20.2357 25.0868 20.0933 24.7326 20.0135Z" fill="url(#paint2_linear_2393_44834)"/>
</g>
<path d="M32.2221 24.4445C32.2221 28.7401 28.7398 32.2223 24.4443 32.2223C20.1487 32.2223 16.6665 28.7401 16.6665 24.4445C16.6665 20.149 20.1487 16.6667 24.4443 16.6667C28.7398 16.6667 32.2221 20.149 32.2221 24.4445Z" fill="url(#paint3_linear_2393_44834)"/>
<g clip-path="url(#clip1_2393_44834)">
<path d="M24.7031 23.9465L24.7031 22.6602" stroke="white" stroke-opacity="0.6" stroke-width="0.171506" stroke-dasharray="22.21 22.21"/>
<path d="M24.703 21.858C24.8547 21.858 25.0001 21.7977 25.1073 21.6905C25.2145 21.5833 25.2747 21.4379 25.2747 21.2863C25.2747 21.1347 25.2145 20.9893 25.1073 20.882C25.0001 20.7748 24.8547 20.7146 24.703 20.7146C24.5514 20.7146 24.406 20.7748 24.2988 20.882C24.1916 20.9893 24.1313 21.1347 24.1313 21.2863C24.1313 21.4379 24.1916 21.5833 24.2988 21.6905C24.406 21.7977 24.5514 21.858 24.703 21.858Z" stroke="white" stroke-width="0.222222" stroke-linecap="round" stroke-linejoin="round"/>
<path d="M23.4165 21.858V20.7146C23.4165 20.5251 23.4918 20.3433 23.6258 20.2093C23.7598 20.0753 23.9416 20 24.1311 20H25.2745C25.464 20 25.6458 20.0753 25.7798 20.2093C25.9138 20.3433 25.9891 20.5251 25.9891 20.7146V21.858C25.9891 22.0475 25.9138 22.2293 25.7798 22.3633C25.6458 22.4973 25.464 22.5726 25.2745 22.5726H24.1311C23.9416 22.5726 23.7598 22.4973 23.6258 22.3633C23.4918 22.2293 23.4165 22.0475 23.4165 21.858Z" stroke="white" stroke-width="0.222222"/>
<path d="M25.4893 20.5017L25.4908 20.5" stroke="white" stroke-width="0.222222" stroke-linecap="round" stroke-linejoin="round"/>
<path d="M26.5919 25.0702L27.2231 23.9495" stroke="white" stroke-opacity="0.6" stroke-width="0.171506" stroke-dasharray="22.21 22.21"/>
<path d="M28.9703 22.6878L28.6339 23.5793C28.5782 23.7271 28.466 23.8466 28.3221 23.9117C28.1781 23.9767 28.0143 23.982 27.8665 23.9262L26.9751 23.5898C26.8273 23.534 26.7077 23.4219 26.6427 23.2779C26.5776 23.134 26.5724 22.9702 26.6282 22.8224L26.9646 21.9309C27.0203 21.7832 27.1325 21.6636 27.2764 21.5985C27.4203 21.5335 27.5842 21.5283 27.732 21.584L28.6234 21.9204C28.7712 21.9762 28.8907 22.0884 28.9558 22.2323C29.0209 22.3762 29.0261 22.5401 28.9703 22.6878Z" stroke="white" stroke-width="0.222222" stroke-linecap="round" stroke-linejoin="round"/>
<path d="M27.3095 23.7161L27.688 22.7132C27.78 22.4694 27.9119 22.2885 28.3019 22.4356M27.4231 22.7405L28.0916 22.9928" stroke="white" stroke-width="0.222222" stroke-linecap="round" stroke-linejoin="round"/>
<path d="M22.5756 25.0704L21.9443 23.9497" stroke="white" stroke-opacity="0.6" stroke-width="0.171506" stroke-dasharray="22.21 22.21"/>
<path d="M21.4733 22.6266L21.1993 22.9606L21.0464 22.5601L21.4733 22.6266Z" fill="white" stroke="white" stroke-width="0.222222" stroke-linecap="round" stroke-linejoin="round"/>
<path d="M20.2984 23.1559L20.2443 23.0142C20.1336 22.7242 20.0783 22.5792 20.1334 22.4514C20.1885 22.3234 20.3298 22.2649 20.6122 22.1479C20.7459 22.0925 20.8831 22.037 21.0015 21.9919C21.1197 21.9467 21.259 21.8967 21.3957 21.8489C21.6843 21.748 21.8287 21.6975 21.9549 21.7563C22.0813 21.8149 22.1366 21.96 22.2472 22.2498L22.3013 22.3916C22.412 22.6816 22.4673 22.8265 22.4123 22.9544C22.3571 23.0823 22.216 23.1408 21.9334 23.2578C21.7997 23.3133 21.6625 23.3688 21.5441 23.414C21.4259 23.4591 21.2866 23.5091 21.1498 23.5568C20.8613 23.6578 20.7169 23.7083 20.5906 23.6496C20.4643 23.5908 20.409 23.4458 20.2984 23.156L20.2984 23.1559Z" stroke="white" stroke-width="0.222222"/>
<mask id="path-19-inside-1_2393_44834" fill="white">
<path d="M27.2755 26.5191C27.2755 27.9399 26.1238 29.0917 24.703 29.0917C23.2822 29.0917 22.1304 27.9399 22.1304 26.5191C22.1304 25.0983 23.2822 23.9465 24.703 23.9465C26.1238 23.9465 27.2755 25.0983 27.2755 26.5191ZM22.4554 26.5191C22.4554 27.7604 23.4617 28.7667 24.703 28.7667C25.9443 28.7667 26.9505 27.7604 26.9505 26.5191C26.9505 25.2778 25.9443 24.2716 24.703 24.2716C23.4617 24.2716 22.4554 25.2778 22.4554 26.5191Z"/>
</mask>
<path d="M27.2755 26.5191C27.2755 27.9399 26.1238 29.0917 24.703 29.0917C23.2822 29.0917 22.1304 27.9399 22.1304 26.5191C22.1304 25.0983 23.2822 23.9465 24.703 23.9465C26.1238 23.9465 27.2755 25.0983 27.2755 26.5191ZM22.4554 26.5191C22.4554 27.7604 23.4617 28.7667 24.703 28.7667C25.9443 28.7667 26.9505 27.7604 26.9505 26.5191C26.9505 25.2778 25.9443 24.2716 24.703 24.2716C23.4617 24.2716 22.4554 25.2778 22.4554 26.5191Z" stroke="white" stroke-width="0.85753" mask="url(#path-19-inside-1_2393_44834)"/>
<path d="M25.5603 27.6582C25.5603 27.2719 25.1759 26.9594 24.7027 26.9594C24.2296 26.9594 23.8452 27.2719 23.8452 27.6582M24.7027 26.6599C24.8351 26.6599 24.9621 26.6073 25.0557 26.5137C25.1493 26.4201 25.2019 26.2931 25.2019 26.1608C25.2019 26.0284 25.1493 25.9014 25.0557 25.8078C24.9621 25.7142 24.8351 25.6616 24.7027 25.6616C24.5704 25.6616 24.4434 25.7142 24.3498 25.8078C24.2562 25.9014 24.2036 26.0284 24.2036 26.1608C24.2036 26.2931 24.2562 26.4201 24.3498 26.5137C24.4434 26.6073 24.5704 26.6599 24.7027 26.6599Z" stroke="white" stroke-width="0.214382" stroke-linecap="round" stroke-linejoin="round"/>
</g>
<defs>
<linearGradient id="paint0_linear_2393_44834" x1="20" y1="10" x2="20" y2="30" gradientUnits="userSpaceOnUse">
<stop stop-color="#16ED86"/>
<stop offset="1" stop-color="#06A658"/>
</linearGradient>
<linearGradient id="paint1_linear_2393_44834" x1="18.7349" y1="15" x2="18.7349" y2="23.8889" gradientUnits="userSpaceOnUse">
<stop stop-color="white"/>
<stop offset="1" stop-color="white" stop-opacity="0.8"/>
</linearGradient>
<linearGradient id="paint2_linear_2393_44834" x1="24.8852" y1="15.5183" x2="24.8852" y2="23.3705" gradientUnits="userSpaceOnUse">
<stop stop-color="white"/>
<stop offset="1" stop-color="white" stop-opacity="0.8"/>
</linearGradient>
<linearGradient id="paint3_linear_2393_44834" x1="30.5192" y1="30.9781" x2="20.4538" y2="14.4491" gradientUnits="userSpaceOnUse">
<stop stop-color="#FF8B58"/>
<stop offset="1" stop-color="#FFD058"/>
</linearGradient>
<clipPath id="clip0_2393_44834">
<rect width="13.3333" height="13.3333" fill="white" transform="translate(13.3335 12.7778)"/>
</clipPath>
<clipPath id="clip1_2393_44834">
<rect width="10" height="10" fill="white" transform="translate(19.4443 19.4443)"/>
</clipPath>
</defs>
</svg>
