<svg width="40" height="40" viewBox="0 0 40 40" fill="none" xmlns="http://www.w3.org/2000/svg">
<circle cx="20" cy="20" r="20" fill="#FF8B58" fill-opacity="0.08"/>
<circle opacity="0.24" cx="19.9998" cy="4.44436" r="1.11111" fill="#FF8B58"/>
<circle opacity="0.24" cx="34.4446" cy="16.1111" r="1.11111" fill="#6F96FF"/>
<circle opacity="0.24" cx="11.1111" cy="32.2222" r="1.11111" fill="#713BDB"/>
<rect x="10" y="10" width="20" height="20" rx="4.44444" fill="url(#paint0_linear_1704_219570)"/>
<path d="M22.5 18.5555L17.5 15.6721" stroke="#FFF0DD" stroke-width="0.694444" stroke-linecap="round" stroke-linejoin="round"/>
<path d="M25 22.2222V17.7778C24.9998 17.5829 24.9484 17.3915 24.8509 17.2228C24.7533 17.0541 24.6132 16.9141 24.4444 16.8166L20.5556 14.5944C20.3866 14.4969 20.195 14.4456 20 14.4456C19.805 14.4456 19.6134 14.4969 19.4444 14.5944L15.5556 16.8166C15.3868 16.9141 15.2467 17.0541 15.1491 17.2228C15.0516 17.3915 15.0002 17.5829 15 17.7778V22.2222C15.0002 22.417 15.0516 22.6084 15.1491 22.7771C15.2467 22.9458 15.3868 23.0859 15.5556 23.1833L19.4444 25.4055C19.6134 25.5031 19.805 25.5544 20 25.5544C20.195 25.5544 20.3866 25.5031 20.5556 25.4055L24.4444 23.1833C24.6132 23.0859 24.7533 22.9458 24.8509 22.7771C24.9484 22.6084 24.9998 22.417 25 22.2222Z" stroke="#FFF0DD" stroke-width="0.694444" stroke-linecap="round" stroke-linejoin="round"/>
<path d="M15.1499 17.2L19.9999 20.0055L24.8499 17.2" stroke="#FFF0DD" stroke-width="0.694444" stroke-linecap="round" stroke-linejoin="round"/>
<path d="M20 25.6V20" stroke="#FFF0DD" stroke-width="0.694444" stroke-linecap="round" stroke-linejoin="round"/>
<path d="M32.2221 24.4445C32.2221 28.7401 28.7398 32.2223 24.4443 32.2223C20.1487 32.2223 16.6665 28.7401 16.6665 24.4445C16.6665 20.149 20.1487 16.6667 24.4443 16.6667C28.7398 16.6667 32.2221 20.149 32.2221 24.4445Z" fill="url(#paint1_linear_1704_219570)"/>
<g clip-path="url(#clip0_1704_219570)">
<g filter="url(#filter0_d_1704_219570)">
<rect x="19.7857" y="21.4525" width="9" height="6.49207" rx="0.785714" stroke="white" stroke-width="0.428571" shape-rendering="crispEdges"/>
</g>
<rect x="20.5557" y="24.4919" width="1.66667" height="1.66667" rx="0.333333" fill="white"/>
<rect x="23.5" y="24.4443" width="1.66667" height="1.66667" rx="0.333333" fill="white"/>
<rect x="26.4443" y="24.4443" width="1.66667" height="1.66667" rx="0.333333" fill="white"/>
<path d="M20.8335 22.7778H24.4446" stroke="white" stroke-width="0.722222" stroke-linecap="round" stroke-linejoin="round"/>
</g>
<defs>
<filter id="filter0_d_1704_219570" x="18.9999" y="20.672" width="10.5716" height="8.06351" filterUnits="userSpaceOnUse" color-interpolation-filters="sRGB">
<feFlood flood-opacity="0" result="BackgroundImageFix"/>
<feColorMatrix in="SourceAlpha" type="matrix" values="0 0 0 0 0 0 0 0 0 0 0 0 0 0 0 0 0 0 127 0" result="hardAlpha"/>
<feOffset dy="0.00514286"/>
<feGaussianBlur stdDeviation="0.285714"/>
<feComposite in2="hardAlpha" operator="out"/>
<feColorMatrix type="matrix" values="0 0 0 0 0 0 0 0 0 0 0 0 0 0 0 0 0 0 0.15 0"/>
<feBlend mode="normal" in2="BackgroundImageFix" result="effect1_dropShadow_1704_219570"/>
<feBlend mode="normal" in="SourceGraphic" in2="effect1_dropShadow_1704_219570" result="shape"/>
</filter>
<linearGradient id="paint0_linear_1704_219570" x1="27.8107" y1="28.4003" x2="14.8694" y2="7.14871" gradientUnits="userSpaceOnUse">
<stop stop-color="#FF8B58"/>
<stop offset="1" stop-color="#FFD058"/>
</linearGradient>
<linearGradient id="paint1_linear_1704_219570" x1="18.827" y1="17.963" x2="30.2776" y2="32.2223" gradientUnits="userSpaceOnUse">
<stop stop-color="#B792FF"/>
<stop offset="1" stop-color="#713BDB"/>
</linearGradient>
<clipPath id="clip0_1704_219570">
<rect width="10" height="10" fill="white" transform="translate(19.4443 19.4443)"/>
</clipPath>
</defs>
</svg>
