<svg width="40" height="40" viewBox="0 0 40 40" fill="none" xmlns="http://www.w3.org/2000/svg">
<circle cx="20" cy="20" r="20" fill="#35EAA6" fill-opacity="0.08"/>
<circle opacity="0.24" cx="19.9998" cy="4.44461" r="1.11111" fill="#FF8B58"/>
<circle opacity="0.24" cx="34.4441" cy="16.1111" r="1.11111" fill="#6F96FF"/>
<circle opacity="0.24" cx="11.1111" cy="32.2224" r="1.11111" fill="#713BDB"/>
<rect x="10" y="10" width="20" height="20" rx="4.44444" fill="url(#paint0_linear_1704_220572)"/>
<g clip-path="url(#clip0_1704_220572)">
<path d="M25.555 16.6668V18.0112C25.555 18.889 24.9995 19.4446 24.1217 19.4446H22.2217V15.5612C22.2217 14.9446 22.7272 14.4446 23.3439 14.4446C23.9495 14.4501 24.505 14.6946 24.905 15.0946C25.305 15.5001 25.555 16.0557 25.555 16.6668Z" stroke="url(#paint1_linear_1704_220572)" stroke-width="0.833333" stroke-miterlimit="10" stroke-linecap="round" stroke-linejoin="round"/>
<path d="M14.4443 17.2221V24.9999C14.4443 25.461 14.9666 25.7221 15.3332 25.4443L16.2832 24.7332C16.5054 24.5666 16.8166 24.5888 17.0166 24.7888L17.9388 25.7166C18.1554 25.9332 18.511 25.9332 18.7277 25.7166L19.661 24.7832C19.8554 24.5888 20.1666 24.5666 20.3832 24.7332L21.3332 25.4443C21.6999 25.7166 22.2221 25.4554 22.2221 24.9999V15.5554C22.2221 14.9443 22.7221 14.4443 23.3332 14.4443H16.6666C14.9999 14.4443 14.4443 15.4388 14.4443 16.6666V17.2221Z" stroke="url(#paint2_linear_1704_220572)" stroke-width="0.833333" stroke-miterlimit="10" stroke-linecap="round" stroke-linejoin="round"/>
<path d="M16.8164 20.9613L19.8497 17.928" stroke="url(#paint3_linear_1704_220572)" stroke-width="0.833333" stroke-linecap="round" stroke-linejoin="round"/>
<path d="M19.9577 20.8334H19.9627M16.7744 18.0557H16.7794" stroke="url(#paint4_linear_1704_220572)" stroke-width="1.11111" stroke-linecap="round" stroke-linejoin="round"/>
</g>
<path d="M32.2221 24.4445C32.2221 28.7401 28.7398 32.2223 24.4443 32.2223C20.1487 32.2223 16.6665 28.7401 16.6665 24.4445C16.6665 20.149 20.1487 16.6667 24.4443 16.6667C28.7398 16.6667 32.2221 20.149 32.2221 24.4445Z" fill="url(#paint5_linear_1704_220572)"/>
<path d="M26.6162 22.8281L28.8889 20.5554" stroke="white" stroke-width="0.401515" stroke-linecap="round"/>
<path d="M26.9951 21.6917H24.7537C24.7336 21.6917 24.7143 21.6996 24.7001 21.7138L20.6092 25.8047C20.5796 25.8343 20.5796 25.8823 20.6092 25.9119L22.0708 27.3735L23.5324 28.8351C23.562 28.8646 23.61 28.8646 23.6395 28.8351L27.7304 24.7441C27.7447 24.7299 27.7526 24.7107 27.7526 24.6906V22.4492" stroke="white" stroke-width="0.444444" stroke-linecap="round"/>
<path d="M27.374 22.8281C27.374 23.2465 27.0349 23.5857 26.6165 23.5857C26.1981 23.5857 25.8589 23.2465 25.8589 22.8281C25.8589 22.4097 26.1981 22.0706 26.6165 22.0706C27.0349 22.0706 27.374 22.4097 27.374 22.8281ZM26.2363 22.8281C26.2363 23.0381 26.4065 23.2083 26.6165 23.2083C26.8264 23.2083 26.9967 23.0381 26.9967 22.8281C26.9967 22.6182 26.8264 22.4479 26.6165 22.4479C26.4065 22.4479 26.2363 22.6182 26.2363 22.8281Z" fill="white"/>
<path d="M23.7496 27.2594L23.5659 27.0859L23.6638 26.983C23.725 26.9186 23.7655 26.857 23.7854 26.7981C23.8053 26.7393 23.8036 26.6804 23.7803 26.6214C23.7575 26.562 23.7119 26.4999 23.6437 26.435C23.5764 26.371 23.5141 26.3299 23.457 26.3116C23.3994 26.2929 23.3428 26.296 23.2871 26.3208C23.2315 26.3456 23.1722 26.3911 23.1094 26.4572L23.008 26.5639L22.8267 26.3916L22.9576 26.254C23.05 26.1567 23.1453 26.0906 23.2434 26.0557C23.342 26.0203 23.4413 26.0166 23.5414 26.0445C23.6415 26.0723 23.7404 26.1327 23.8381 26.2255C23.9366 26.3192 24.0036 26.4177 24.0391 26.5212C24.0741 26.6242 24.0784 26.7272 24.0518 26.8302C24.0252 26.9323 23.9683 27.0293 23.8811 27.1211L23.7496 27.2594ZM23.6032 27.4134L22.6851 26.5406L22.876 26.3398L23.794 27.2126L23.6032 27.4134ZM24.449 26.5237L23.5309 25.6509L24.0658 25.0883L24.247 25.2606L23.8418 25.6868L23.8533 25.5811L24.1166 25.8314L24.0186 25.8548L24.3836 25.4709L24.5642 25.6426L24.2052 26.0202L24.2183 25.928L24.5018 26.1976L24.3962 26.2138L24.8122 25.7762L24.9947 25.9497L24.449 26.5237ZM25.0944 25.8448L24.4386 24.6961L24.7309 24.3886L25.9113 24.9854L25.709 25.1982L25.3336 24.9988L25.5226 24.9669L25.0922 25.4197L24.9439 25.257L25.3215 24.8599L25.3305 24.9971L24.9526 24.7965L24.7213 24.6643L24.7117 24.6744L24.856 24.8981L25.2967 25.632L25.0944 25.8448ZM26.0247 24.8662L25.1066 23.9934L25.2987 23.7914L26.1549 24.6053L25.9129 24.6133L26.3457 24.1581L26.5307 24.3339L26.0247 24.8662Z" fill="white"/>
<defs>
<linearGradient id="paint0_linear_1704_220572" x1="20" y1="10" x2="20" y2="30" gradientUnits="userSpaceOnUse">
<stop stop-color="#35EAA6"/>
<stop offset="1" stop-color="#52CACC"/>
</linearGradient>
<linearGradient id="paint1_linear_1704_220572" x1="23.8883" y1="14.4446" x2="23.8883" y2="19.4446" gradientUnits="userSpaceOnUse">
<stop stop-color="white"/>
<stop offset="1" stop-color="white" stop-opacity="0.8"/>
</linearGradient>
<linearGradient id="paint2_linear_1704_220572" x1="18.8888" y1="14.4443" x2="18.8888" y2="25.8791" gradientUnits="userSpaceOnUse">
<stop stop-color="white"/>
<stop offset="1" stop-color="white" stop-opacity="0.8"/>
</linearGradient>
<linearGradient id="paint3_linear_1704_220572" x1="18.3331" y1="17.928" x2="18.3331" y2="20.9613" gradientUnits="userSpaceOnUse">
<stop stop-color="white"/>
<stop offset="1" stop-color="white" stop-opacity="0.8"/>
</linearGradient>
<linearGradient id="paint4_linear_1704_220572" x1="18.3686" y1="18.0557" x2="18.3686" y2="20.8334" gradientUnits="userSpaceOnUse">
<stop stop-color="white"/>
<stop offset="1" stop-color="white" stop-opacity="0.8"/>
</linearGradient>
<linearGradient id="paint5_linear_1704_220572" x1="18.827" y1="17.963" x2="30.2776" y2="32.2223" gradientUnits="userSpaceOnUse">
<stop stop-color="#B792FF"/>
<stop offset="1" stop-color="#713BDB"/>
</linearGradient>
<clipPath id="clip0_1704_220572">
<rect width="13.3333" height="13.3333" fill="white" transform="translate(13.333 13.3335)"/>
</clipPath>
</defs>
</svg>
