<svg width="40" height="40" viewBox="0 0 40 40" fill="none" xmlns="http://www.w3.org/2000/svg">
<circle cx="20" cy="20" r="20" fill="#35EAA6" fill-opacity="0.08"/>
<circle opacity="0.24" cx="19.9998" cy="4.44436" r="1.11111" fill="#FF8B58"/>
<circle opacity="0.24" cx="34.4446" cy="16.1111" r="1.11111" fill="#6F96FF"/>
<circle opacity="0.24" cx="11.1111" cy="32.2222" r="1.11111" fill="#713BDB"/>
<rect x="10" y="10" width="20" height="20" rx="4.44444" fill="url(#paint0_linear_1704_220596)"/>
<g clip-path="url(#clip0_1704_220596)">
<path d="M25.5555 16.6666V18.011C25.5555 18.8888 24.9999 19.4443 24.1222 19.4443H22.2222V15.561C22.2222 14.9443 22.7277 14.4443 23.3444 14.4443C23.9499 14.4499 24.5055 14.6943 24.9055 15.0943C25.3055 15.4999 25.5555 16.0554 25.5555 16.6666Z" stroke="url(#paint1_linear_1704_220596)" stroke-width="0.833333" stroke-miterlimit="10" stroke-linecap="round" stroke-linejoin="round"/>
<path d="M14.4443 17.2221V24.9999C14.4443 25.461 14.9666 25.7221 15.3332 25.4443L16.2832 24.7332C16.5054 24.5666 16.8166 24.5888 17.0166 24.7888L17.9388 25.7166C18.1554 25.9332 18.511 25.9332 18.7277 25.7166L19.661 24.7832C19.8554 24.5888 20.1666 24.5666 20.3832 24.7332L21.3332 25.4443C21.6999 25.7166 22.2221 25.4554 22.2221 24.9999V15.5554C22.2221 14.9443 22.7221 14.4443 23.3332 14.4443H16.6666C14.9999 14.4443 14.4443 15.4388 14.4443 16.6666V17.2221Z" stroke="url(#paint2_linear_1704_220596)" stroke-width="0.833333" stroke-miterlimit="10" stroke-linecap="round" stroke-linejoin="round"/>
<path d="M16.8169 20.9611L19.8502 17.9277" stroke="url(#paint3_linear_1704_220596)" stroke-width="0.833333" stroke-linecap="round" stroke-linejoin="round"/>
<path d="M19.9582 20.8334H19.9632M16.7749 18.0557H16.7799" stroke="url(#paint4_linear_1704_220596)" stroke-width="1.11111" stroke-linecap="round" stroke-linejoin="round"/>
</g>
<path d="M32.2221 24.4445C32.2221 28.7401 28.7398 32.2223 24.4443 32.2223C20.1487 32.2223 16.6665 28.7401 16.6665 24.4445C16.6665 20.149 20.1487 16.6667 24.4443 16.6667C28.7398 16.6667 32.2221 20.149 32.2221 24.4445Z" fill="url(#paint5_linear_1704_220596)"/>
<g clip-path="url(#clip1_1704_220596)">
<path d="M24.4443 25H27.9999" stroke="white" stroke-opacity="0.8" stroke-width="0.622222" stroke-linecap="round" stroke-linejoin="round"/>
<g filter="url(#filter0_d_1704_220596)">
<rect x="19.6889" y="22.4667" width="9.51111" height="4.51111" rx="0.88254" stroke="white" stroke-width="0.622222" shape-rendering="crispEdges"/>
</g>
<path d="M20.6664 23.7027H23.4723L23.0293 25.1795H21.1095L20.6664 23.7027ZM20.6664 23.7027L20.5557 23.3335M21.8479 25.6964C21.8479 25.7551 21.8245 25.8115 21.783 25.853C21.7414 25.8945 21.6851 25.9179 21.6263 25.9179C21.5676 25.9179 21.5112 25.8945 21.4697 25.853C21.4282 25.8115 21.4048 25.7551 21.4048 25.6964M22.7339 25.6964C22.7339 25.7551 22.7106 25.8115 22.6691 25.853C22.6275 25.8945 22.5712 25.9179 22.5124 25.9179C22.4537 25.9179 22.3973 25.8945 22.3558 25.853C22.3142 25.8115 22.2909 25.7551 22.2909 25.6964" stroke="white" stroke-width="0.333333" stroke-linecap="round" stroke-linejoin="round"/>
</g>
<defs>
<filter id="filter0_d_1704_220596" x="18.8065" y="21.5892" width="11.2762" height="6.2764" filterUnits="userSpaceOnUse" color-interpolation-filters="sRGB">
<feFlood flood-opacity="0" result="BackgroundImageFix"/>
<feColorMatrix in="SourceAlpha" type="matrix" values="0 0 0 0 0 0 0 0 0 0 0 0 0 0 0 0 0 0 127 0" result="hardAlpha"/>
<feOffset dy="0.00514286"/>
<feGaussianBlur stdDeviation="0.285714"/>
<feComposite in2="hardAlpha" operator="out"/>
<feColorMatrix type="matrix" values="0 0 0 0 0 0 0 0 0 0 0 0 0 0 0 0 0 0 0.15 0"/>
<feBlend mode="normal" in2="BackgroundImageFix" result="effect1_dropShadow_1704_220596"/>
<feBlend mode="normal" in="SourceGraphic" in2="effect1_dropShadow_1704_220596" result="shape"/>
</filter>
<linearGradient id="paint0_linear_1704_220596" x1="20" y1="10" x2="20" y2="30" gradientUnits="userSpaceOnUse">
<stop stop-color="#35EAA6"/>
<stop offset="1" stop-color="#52CACC"/>
</linearGradient>
<linearGradient id="paint1_linear_1704_220596" x1="23.8888" y1="14.4443" x2="23.8888" y2="19.4443" gradientUnits="userSpaceOnUse">
<stop stop-color="white"/>
<stop offset="1" stop-color="white" stop-opacity="0.8"/>
</linearGradient>
<linearGradient id="paint2_linear_1704_220596" x1="18.8888" y1="14.4443" x2="18.8888" y2="25.8791" gradientUnits="userSpaceOnUse">
<stop stop-color="white"/>
<stop offset="1" stop-color="white" stop-opacity="0.8"/>
</linearGradient>
<linearGradient id="paint3_linear_1704_220596" x1="18.3336" y1="17.9277" x2="18.3336" y2="20.9611" gradientUnits="userSpaceOnUse">
<stop stop-color="white"/>
<stop offset="1" stop-color="white" stop-opacity="0.8"/>
</linearGradient>
<linearGradient id="paint4_linear_1704_220596" x1="18.3691" y1="18.0557" x2="18.3691" y2="20.8334" gradientUnits="userSpaceOnUse">
<stop stop-color="white"/>
<stop offset="1" stop-color="white" stop-opacity="0.8"/>
</linearGradient>
<linearGradient id="paint5_linear_1704_220596" x1="24.4443" y1="16.6667" x2="24.4443" y2="32.2223" gradientUnits="userSpaceOnUse">
<stop stop-color="#35EAA6"/>
<stop offset="1" stop-color="#52CACC"/>
</linearGradient>
<clipPath id="clip0_1704_220596">
<rect width="13.3333" height="13.3333" fill="white" transform="translate(13.3335 13.3335)"/>
</clipPath>
<clipPath id="clip1_1704_220596">
<rect width="10" height="10" fill="white" transform="translate(19.4443 19.4446)"/>
</clipPath>
</defs>
</svg>
