<svg width="40" height="40" viewBox="0 0 40 40" fill="none" xmlns="http://www.w3.org/2000/svg">
<circle cx="20" cy="20" r="20" fill="#B792FF" fill-opacity="0.08"/>
<circle opacity="0.24" cx="19.9998" cy="4.44436" r="1.11111" fill="#FF8B58"/>
<circle opacity="0.24" cx="34.4446" cy="16.1111" r="1.11111" fill="#6F96FF"/>
<circle opacity="0.24" cx="11.1111" cy="32.2222" r="1.11111" fill="#713BDB"/>
<g filter="url(#filter0_d_1704_220628)">
<path d="M9.92139 14.3658C9.92139 11.9112 11.9112 9.92139 14.3658 9.92139H25.4769C27.9315 9.92139 29.9214 11.9112 29.9214 14.3658V25.4769C29.9214 27.9315 27.9315 29.9214 25.4769 29.9214H14.3658C11.9112 29.9214 9.92139 27.9315 9.92139 25.4769V14.3658Z" fill="url(#paint0_linear_1704_220628)"/>
</g>
<path d="M17.2222 16.1111H25.5555M17.2222 19.7222H25.5555M17.2222 23.3333H25.5555" stroke="white" stroke-opacity="0.4" stroke-width="1.40197" stroke-linecap="round" stroke-linejoin="round"/>
<path d="M13.8887 15.6944L14.5831 16.3889L15.9745 15" stroke="white" stroke-width="0.481333" stroke-linecap="round" stroke-linejoin="round"/>
<rect x="13.8887" y="22.2222" width="1.66667" height="1.66667" rx="0.0611111" stroke="white" stroke-opacity="0.4" stroke-width="0.555556"/>
<rect x="13.8887" y="18.8889" width="1.66667" height="1.66667" rx="0.0611111" stroke="white" stroke-opacity="0.4" stroke-width="0.555556"/>
<path d="M32.2221 24.4445C32.2221 28.7401 28.7398 32.2223 24.4443 32.2223C20.1487 32.2223 16.6665 28.7401 16.6665 24.4445C16.6665 20.149 20.1487 16.6667 24.4443 16.6667C28.7398 16.6667 32.2221 20.149 32.2221 24.4445Z" fill="url(#paint1_linear_1704_220628)"/>
<g clip-path="url(#clip0_1704_220628)">
<g filter="url(#filter1_d_1704_220628)">
<rect x="19.6889" y="21.3556" width="9.51111" height="6.73333" rx="0.88254" stroke="white" stroke-width="0.622222" shape-rendering="crispEdges"/>
</g>
<path d="M24.4443 23.3889H27.9999" stroke="white" stroke-opacity="0.8" stroke-width="0.622222" stroke-linecap="round" stroke-linejoin="round"/>
<path d="M24.4443 25.1667H27.9999" stroke="white" stroke-opacity="0.8" stroke-width="0.622222" stroke-linecap="round" stroke-linejoin="round"/>
<path d="M21.7778 24.0556L22.4445 24.7222L23.7802 23.3889" stroke="white" stroke-width="0.577598" stroke-linecap="round" stroke-linejoin="round"/>
<path fill-rule="evenodd" clip-rule="evenodd" d="M22.5777 22.7666H20.9777C20.585 22.7666 20.2666 23.085 20.2666 23.4777V25.0777C20.2666 25.4704 20.585 25.7888 20.9777 25.7888H22.5777C22.9704 25.7888 23.2888 25.4704 23.2888 25.0777V24.507L22.7582 25.0367C22.7283 25.0665 22.6954 25.0911 22.6603 25.1106C22.6472 25.1434 22.6152 25.1666 22.5777 25.1666H22.4445C22.4443 25.1666 22.4441 25.1666 22.4439 25.1666H20.9777C20.9286 25.1666 20.8888 25.1268 20.8888 25.0777V23.4777C20.8888 23.4286 20.9286 23.3888 20.9777 23.3888H22.5777C22.6268 23.3888 22.6666 23.4286 22.6666 23.4777V23.8721L23.2607 23.2791C23.1747 22.983 22.9015 22.7666 22.5777 22.7666Z" fill="white" fill-opacity="0.6"/>
</g>
<defs>
<filter id="filter0_d_1704_220628" x="5.47694" y="5.47694" width="28.8889" height="28.8889" filterUnits="userSpaceOnUse" color-interpolation-filters="sRGB">
<feFlood flood-opacity="0" result="BackgroundImageFix"/>
<feColorMatrix in="SourceAlpha" type="matrix" values="0 0 0 0 0 0 0 0 0 0 0 0 0 0 0 0 0 0 127 0" result="hardAlpha"/>
<feOffset/>
<feGaussianBlur stdDeviation="2.22222"/>
<feColorMatrix type="matrix" values="0 0 0 0 0.443137 0 0 0 0 0.231373 0 0 0 0 0.858824 0 0 0 0.8 0"/>
<feBlend mode="normal" in2="BackgroundImageFix" result="effect1_dropShadow_1704_220628"/>
<feBlend mode="normal" in="SourceGraphic" in2="effect1_dropShadow_1704_220628" result="shape"/>
</filter>
<filter id="filter1_d_1704_220628" x="18.8065" y="20.4781" width="11.2762" height="8.49857" filterUnits="userSpaceOnUse" color-interpolation-filters="sRGB">
<feFlood flood-opacity="0" result="BackgroundImageFix"/>
<feColorMatrix in="SourceAlpha" type="matrix" values="0 0 0 0 0 0 0 0 0 0 0 0 0 0 0 0 0 0 127 0" result="hardAlpha"/>
<feOffset dy="0.00514286"/>
<feGaussianBlur stdDeviation="0.285714"/>
<feComposite in2="hardAlpha" operator="out"/>
<feColorMatrix type="matrix" values="0 0 0 0 0 0 0 0 0 0 0 0 0 0 0 0 0 0 0.15 0"/>
<feBlend mode="normal" in2="BackgroundImageFix" result="effect1_dropShadow_1704_220628"/>
<feBlend mode="normal" in="SourceGraphic" in2="effect1_dropShadow_1704_220628" result="shape"/>
</filter>
<linearGradient id="paint0_linear_1704_220628" x1="12.6992" y1="11.5881" x2="27.4214" y2="29.9214" gradientUnits="userSpaceOnUse">
<stop stop-color="#B792FF"/>
<stop offset="1" stop-color="#713BDB"/>
</linearGradient>
<linearGradient id="paint1_linear_1704_220628" x1="30.5192" y1="30.9781" x2="20.4538" y2="14.4491" gradientUnits="userSpaceOnUse">
<stop stop-color="#FF8B58"/>
<stop offset="1" stop-color="#FFD058"/>
</linearGradient>
<clipPath id="clip0_1704_220628">
<rect width="10" height="10" fill="white" transform="translate(19.4443 19.4443)"/>
</clipPath>
</defs>
</svg>
