<svg width="40" height="40" viewBox="0 0 40 40" fill="none" xmlns="http://www.w3.org/2000/svg">
<circle cx="20" cy="20" r="20" fill="#35EAA6" fill-opacity="0.08"/>
<circle opacity="0.24" cx="19.9998" cy="4.44436" r="1.11111" fill="#FF8B58"/>
<circle opacity="0.24" cx="34.4446" cy="16.1111" r="1.11111" fill="#6F96FF"/>
<circle opacity="0.24" cx="11.1111" cy="32.2222" r="1.11111" fill="#713BDB"/>
<rect x="10" y="10" width="20" height="20" rx="4.44444" fill="url(#paint0_linear_1704_220623)"/>
<g clip-path="url(#clip0_1704_220623)">
<path d="M25.5555 16.6666V18.011C25.5555 18.8888 24.9999 19.4443 24.1222 19.4443H22.2222V15.561C22.2222 14.9443 22.7277 14.4443 23.3444 14.4443C23.9499 14.4499 24.5055 14.6943 24.9055 15.0943C25.3055 15.4999 25.5555 16.0554 25.5555 16.6666Z" stroke="url(#paint1_linear_1704_220623)" stroke-width="0.833333" stroke-miterlimit="10" stroke-linecap="round" stroke-linejoin="round"/>
<path d="M14.4443 17.2221V24.9999C14.4443 25.461 14.9666 25.7221 15.3332 25.4443L16.2832 24.7332C16.5054 24.5666 16.8166 24.5888 17.0166 24.7888L17.9388 25.7166C18.1554 25.9332 18.511 25.9332 18.7277 25.7166L19.661 24.7832C19.8554 24.5888 20.1666 24.5666 20.3832 24.7332L21.3332 25.4443C21.6999 25.7166 22.2221 25.4554 22.2221 24.9999V15.5554C22.2221 14.9443 22.7221 14.4443 23.3332 14.4443H16.6666C14.9999 14.4443 14.4443 15.4388 14.4443 16.6666V17.2221Z" stroke="url(#paint2_linear_1704_220623)" stroke-width="0.833333" stroke-miterlimit="10" stroke-linecap="round" stroke-linejoin="round"/>
<path d="M16.8169 20.9611L19.8502 17.9277" stroke="url(#paint3_linear_1704_220623)" stroke-width="0.833333" stroke-linecap="round" stroke-linejoin="round"/>
<path d="M19.9582 20.8334H19.9632M16.7749 18.0557H16.7799" stroke="url(#paint4_linear_1704_220623)" stroke-width="1.11111" stroke-linecap="round" stroke-linejoin="round"/>
</g>
<path d="M32.2221 24.4445C32.2221 28.7401 28.7398 32.2223 24.4443 32.2223C20.1487 32.2223 16.6665 28.7401 16.6665 24.4445C16.6665 20.149 20.1487 16.6667 24.4443 16.6667C28.7398 16.6667 32.2221 20.149 32.2221 24.4445Z" fill="url(#paint5_linear_1704_220623)"/>
<g clip-path="url(#clip1_1704_220623)">
<path d="M28.3334 25C28.3334 27.1466 26.5912 28.8889 24.4446 28.8889C22.2979 28.8889 20.5557 27.1466 20.5557 25C20.5557 22.8533 22.2979 21.1111 24.4446 21.1111C26.5912 21.1111 28.3334 22.8533 28.3334 25Z" stroke="white" stroke-width="0.388889" stroke-linecap="round" stroke-linejoin="round"/>
<path d="M24.9835 23.4044H25.3701L23.9301 26.3777H23.5435L24.9835 23.4044ZM23.4501 25.0933C23.2723 25.0933 23.1301 25.0799 23.0235 25.0533C22.9198 25.0236 22.8412 24.9733 22.7879 24.9021C22.7346 24.8281 22.7079 24.7214 22.7079 24.5821V24.0533C22.7079 23.9584 22.7227 23.874 22.7523 23.7999C22.782 23.7258 22.8205 23.6681 22.8679 23.6266C22.9094 23.591 22.9642 23.5629 23.0323 23.5421C23.1005 23.5184 23.1686 23.5021 23.2368 23.4933C23.3138 23.4873 23.3849 23.4844 23.4501 23.4844C23.542 23.4844 23.616 23.4873 23.6723 23.4933C23.7316 23.4992 23.7938 23.5125 23.859 23.5333C23.9301 23.557 23.9879 23.5881 24.0323 23.6266C24.0768 23.6651 24.1138 23.7199 24.1435 23.791C24.1731 23.8621 24.1879 23.9495 24.1879 24.0533V24.5821C24.1879 24.7214 24.1612 24.8281 24.1079 24.9021C24.0575 24.9733 23.979 25.0236 23.8723 25.0533C23.7686 25.0799 23.6279 25.0933 23.4501 25.0933ZM23.4501 24.7555C23.6131 24.7555 23.6946 24.7125 23.6946 24.6266V23.9733C23.6946 23.8725 23.6131 23.8221 23.4501 23.8221C23.2842 23.8221 23.2012 23.8725 23.2012 23.9733V24.6266C23.2012 24.677 23.2205 24.711 23.259 24.7288C23.2975 24.7466 23.3612 24.7555 23.4501 24.7555ZM25.4412 26.3777C25.2635 26.3777 25.1212 26.3629 25.0146 26.3333C24.9109 26.3066 24.8323 26.2577 24.779 26.1866C24.7257 26.1125 24.699 26.0058 24.699 25.8666V25.3377C24.699 25.2429 24.7138 25.1584 24.7435 25.0844C24.7731 25.0103 24.8116 24.9525 24.859 24.911C24.9005 24.8755 24.9553 24.8473 25.0235 24.8266C25.0916 24.8029 25.1598 24.7866 25.2279 24.7777C25.3049 24.7718 25.376 24.7688 25.4412 24.7688C25.5331 24.7688 25.6072 24.7718 25.6635 24.7777C25.7227 24.7836 25.7849 24.797 25.8501 24.8177C25.9212 24.8414 25.979 24.8725 26.0235 24.911C26.0679 24.9495 26.1049 25.0044 26.1346 25.0755C26.1642 25.1466 26.179 25.234 26.179 25.3377V25.8666C26.179 26.0058 26.1523 26.1125 26.099 26.1866C26.0486 26.2577 25.9701 26.3066 25.8635 26.3333C25.7598 26.3629 25.619 26.3777 25.4412 26.3777ZM25.4412 26.0399C25.6042 26.0399 25.6857 25.997 25.6857 25.911V25.2577C25.6857 25.157 25.6042 25.1066 25.4412 25.1066C25.2753 25.1066 25.1923 25.157 25.1923 25.2577V25.911C25.1923 25.997 25.2753 26.0399 25.4412 26.0399Z" fill="white"/>
<path d="M23.3335 21.1112V20.3334C23.3335 20.3027 23.3584 20.2778 23.3891 20.2778H25.5002C25.5308 20.2778 25.5557 20.3027 25.5557 20.3334V21.1112" stroke="white" stroke-width="0.388889" stroke-linecap="round"/>
<path d="M23.3334 20.2777H22.8334C22.8027 20.2777 22.7778 20.2528 22.7778 20.2221V19.4999C22.7778 19.4692 22.8027 19.4443 22.8334 19.4443H25.8334H26.0556C26.0863 19.4443 26.1112 19.4692 26.1112 19.4999V20.2221C26.1112 20.2528 26.0863 20.2777 26.0556 20.2777H25.0001" stroke="white" stroke-width="0.388889" stroke-linecap="round"/>
<path d="M27.5 22.4999L28.0117 22.2441C28.0367 22.2316 28.0672 22.2397 28.0828 22.263L28.5762 23.0031C28.5947 23.0309 28.5847 23.0687 28.5548 23.0836L28.0556 23.3333" stroke="white" stroke-width="0.388889" stroke-linecap="round"/>
</g>
<defs>
<linearGradient id="paint0_linear_1704_220623" x1="20" y1="10" x2="20" y2="30" gradientUnits="userSpaceOnUse">
<stop stop-color="#35EAA6"/>
<stop offset="1" stop-color="#52CACC"/>
</linearGradient>
<linearGradient id="paint1_linear_1704_220623" x1="23.8888" y1="14.4443" x2="23.8888" y2="19.4443" gradientUnits="userSpaceOnUse">
<stop stop-color="white"/>
<stop offset="1" stop-color="white" stop-opacity="0.8"/>
</linearGradient>
<linearGradient id="paint2_linear_1704_220623" x1="18.8888" y1="14.4443" x2="18.8888" y2="25.8791" gradientUnits="userSpaceOnUse">
<stop stop-color="white"/>
<stop offset="1" stop-color="white" stop-opacity="0.8"/>
</linearGradient>
<linearGradient id="paint3_linear_1704_220623" x1="18.3336" y1="17.9277" x2="18.3336" y2="20.9611" gradientUnits="userSpaceOnUse">
<stop stop-color="white"/>
<stop offset="1" stop-color="white" stop-opacity="0.8"/>
</linearGradient>
<linearGradient id="paint4_linear_1704_220623" x1="18.3691" y1="18.0557" x2="18.3691" y2="20.8334" gradientUnits="userSpaceOnUse">
<stop stop-color="white"/>
<stop offset="1" stop-color="white" stop-opacity="0.8"/>
</linearGradient>
<linearGradient id="paint5_linear_1704_220623" x1="24.4443" y1="16.6667" x2="24.4443" y2="32.2223" gradientUnits="userSpaceOnUse">
<stop stop-color="#FA50D5"/>
<stop offset="1" stop-color="#FA5080"/>
</linearGradient>
<clipPath id="clip0_1704_220623">
<rect width="13.3333" height="13.3333" fill="white" transform="translate(13.3335 13.3333)"/>
</clipPath>
<clipPath id="clip1_1704_220623">
<rect width="11.1111" height="11.1111" fill="white" transform="translate(18.8887 18.3333)"/>
</clipPath>
</defs>
</svg>
