<svg width="40" height="40" viewBox="0 0 40 40" fill="none" xmlns="http://www.w3.org/2000/svg">
<circle cx="20" cy="20" r="20" fill="#16ED86" fill-opacity="0.08"/>
<circle opacity="0.24" cx="19.9998" cy="4.44436" r="1.11111" fill="#FF8B58"/>
<circle opacity="0.24" cx="34.4446" cy="16.1111" r="1.11111" fill="#6F96FF"/>
<circle opacity="0.24" cx="11.1111" cy="32.2224" r="1.11111" fill="#713BDB"/>
<rect x="10" y="10" width="20" height="20" rx="4.44444" fill="url(#paint0_linear_1704_220715)"/>
<g clip-path="url(#clip0_1704_220715)">
<path d="M20.7552 15.8977C21.6256 15.8977 22.3256 16.6022 22.3256 17.4681C22.3256 18.3161 21.6526 19.0071 20.8135 19.0385C20.7747 19.0341 20.7356 19.0341 20.6968 19.0385M21.6211 23.0768C21.9442 23.0095 22.2493 22.8793 22.5006 22.6864C23.2005 22.1614 23.2005 21.2955 22.5006 20.7705C22.2538 20.582 21.9532 20.4564 21.6346 20.3846M17.5022 18.9802C17.4573 18.9757 17.4035 18.9757 17.3541 18.9802C16.8391 18.9627 16.3511 18.7455 15.9935 18.3745C15.6359 18.0034 15.4367 17.5078 15.4382 16.9925C15.4382 15.8932 16.3266 15.0003 17.4304 15.0003C17.9581 14.9908 18.4681 15.1913 18.848 15.5578C19.2279 15.9242 19.4467 16.4266 19.4562 16.9544C19.4657 17.4821 19.2652 17.9921 18.8988 18.372C18.5323 18.7519 18.0299 18.9707 17.5022 18.9802ZM15.2587 20.6359C14.1729 21.3628 14.1729 22.5473 15.2587 23.2697C16.4926 24.0953 18.5162 24.0953 19.7501 23.2697C20.8359 22.5428 20.8359 21.3583 19.7501 20.6359C18.5207 19.8148 16.4971 19.8148 15.2587 20.6359Z" stroke="url(#paint1_linear_1704_220715)" stroke-width="0.694444" stroke-linecap="round" stroke-linejoin="round"/>
<path fill-rule="evenodd" clip-rule="evenodd" d="M23.7792 15.5183C23.5933 15.5183 23.4426 15.669 23.4426 15.8548C23.4426 16.0407 23.5933 16.1913 23.7792 16.1913C24.4631 16.1913 25.0131 16.7445 25.0131 17.4252C25.0131 18.0843 24.4953 18.6232 23.8459 18.6584C23.7913 18.6541 23.7365 18.6551 23.6821 18.6614C23.4975 18.6828 23.3652 18.8498 23.3865 19.0344C23.4079 19.219 23.5749 19.3513 23.7595 19.3299C23.7726 19.3284 23.7857 19.3284 23.7988 19.3299C23.8158 19.3319 23.8329 19.3326 23.8501 19.3319C24.869 19.2938 25.6861 18.4552 25.6861 17.4252C25.6861 16.374 24.8361 15.5183 23.7792 15.5183ZM24.7326 20.0135C24.5513 19.9726 24.3712 20.0864 24.3303 20.2678C24.2894 20.4491 24.4033 20.6292 24.5846 20.67C24.8671 20.7337 25.1203 20.8423 25.3203 20.9951L25.3203 20.9951L25.3227 20.9968C25.5996 21.2046 25.713 21.4576 25.713 21.6856C25.713 21.9135 25.5996 22.1666 25.3227 22.3743L25.3226 22.3743L25.3196 22.3766C25.1142 22.5344 24.8575 22.6459 24.5765 22.7044C24.3945 22.7423 24.2778 22.9206 24.3157 23.1025C24.3536 23.2845 24.5318 23.4012 24.7138 23.3633C25.0782 23.2874 25.4312 23.1391 25.728 22.9116C26.15 22.5944 26.3861 22.1525 26.3861 21.6856C26.3861 21.2185 26.1499 20.7765 25.7277 20.4593C25.4344 20.2357 25.0868 20.0933 24.7326 20.0135Z" fill="url(#paint2_linear_1704_220715)"/>
</g>
<path d="M32.2221 24.4445C32.2221 28.7401 28.7398 32.2223 24.4443 32.2223C20.1487 32.2223 16.6665 28.7401 16.6665 24.4445C16.6665 20.149 20.1487 16.6667 24.4443 16.6667C28.7398 16.6667 32.2221 20.149 32.2221 24.4445Z" fill="url(#paint3_linear_1704_220715)"/>
<path d="M24.4444 23.5186C24.649 23.5186 24.8148 23.3528 24.8148 23.1482C24.8148 22.9437 24.649 22.7778 24.4444 22.7778C24.2399 22.7778 24.074 22.9437 24.074 23.1482C24.074 23.3528 24.2399 23.5186 24.4444 23.5186Z" stroke="white" stroke-width="0.555556" stroke-linecap="round" stroke-linejoin="round"/>
<path d="M24.4444 26.1112C24.649 26.1112 24.8148 25.9453 24.8148 25.7408C24.8148 25.5362 24.649 25.3704 24.4444 25.3704C24.2399 25.3704 24.074 25.5362 24.074 25.7408C24.074 25.9453 24.2399 26.1112 24.4444 26.1112Z" stroke="white" stroke-width="0.555556" stroke-linecap="round" stroke-linejoin="round"/>
<path d="M27.037 23.5186C27.2416 23.5186 27.4074 23.3528 27.4074 23.1482C27.4074 22.9437 27.2416 22.7778 27.037 22.7778C26.8325 22.7778 26.6666 22.9437 26.6666 23.1482C26.6666 23.3528 26.8325 23.5186 27.037 23.5186Z" stroke="white" stroke-width="0.555556" stroke-linecap="round" stroke-linejoin="round"/>
<path d="M27.037 26.1112C27.2416 26.1112 27.4074 25.9453 27.4074 25.7408C27.4074 25.5362 27.2416 25.3704 27.037 25.3704C26.8325 25.3704 26.6666 25.5362 26.6666 25.7408C26.6666 25.9453 26.8325 26.1112 27.037 26.1112Z" stroke="white" stroke-width="0.555556" stroke-linecap="round" stroke-linejoin="round"/>
<path d="M21.8518 23.5186C22.0564 23.5186 22.2222 23.3528 22.2222 23.1482C22.2222 22.9437 22.0564 22.7778 21.8518 22.7778C21.6473 22.7778 21.4814 22.9437 21.4814 23.1482C21.4814 23.3528 21.6473 23.5186 21.8518 23.5186Z" stroke="white" stroke-width="0.555556" stroke-linecap="round" stroke-linejoin="round"/>
<path d="M21.8518 26.1112C22.0564 26.1112 22.2222 25.9453 22.2222 25.7408C22.2222 25.5362 22.0564 25.3704 21.8518 25.3704C21.6473 25.3704 21.4814 25.5362 21.4814 25.7408C21.4814 25.9453 21.6473 26.1112 21.8518 26.1112Z" stroke="white" stroke-width="0.555556" stroke-linecap="round" stroke-linejoin="round"/>
<defs>
<linearGradient id="paint0_linear_1704_220715" x1="20" y1="10" x2="20" y2="30" gradientUnits="userSpaceOnUse">
<stop stop-color="#16ED86"/>
<stop offset="1" stop-color="#06A658"/>
</linearGradient>
<linearGradient id="paint1_linear_1704_220715" x1="18.7349" y1="15" x2="18.7349" y2="23.8889" gradientUnits="userSpaceOnUse">
<stop stop-color="white"/>
<stop offset="1" stop-color="white" stop-opacity="0.8"/>
</linearGradient>
<linearGradient id="paint2_linear_1704_220715" x1="24.8852" y1="15.5183" x2="24.8852" y2="23.3705" gradientUnits="userSpaceOnUse">
<stop stop-color="white"/>
<stop offset="1" stop-color="white" stop-opacity="0.8"/>
</linearGradient>
<linearGradient id="paint3_linear_1704_220715" x1="30.5192" y1="30.9781" x2="20.4538" y2="14.4491" gradientUnits="userSpaceOnUse">
<stop stop-color="#FF8B58"/>
<stop offset="1" stop-color="#FFD058"/>
</linearGradient>
<clipPath id="clip0_1704_220715">
<rect width="13.3333" height="13.3333" fill="white" transform="translate(13.3335 12.7778)"/>
</clipPath>
</defs>
</svg>
