<svg width="40" height="40" viewBox="0 0 40 40" fill="none" xmlns="http://www.w3.org/2000/svg">
<circle cx="20" cy="20" r="20" fill="#FF8B58" fill-opacity="0.08"/>
<circle opacity="0.24" cx="19.9998" cy="4.44436" r="1.11111" fill="#FF8B58"/>
<circle opacity="0.24" cx="34.4446" cy="16.1111" r="1.11111" fill="#6F96FF"/>
<circle opacity="0.24" cx="11.1111" cy="32.2222" r="1.11111" fill="#713BDB"/>
<rect x="10" y="10" width="20" height="20" rx="4.44444" fill="url(#paint0_linear_1704_219565)"/>
<path d="M22.5 18.5555L17.5 15.6721" stroke="#FFF0DD" stroke-width="0.694444" stroke-linecap="round" stroke-linejoin="round"/>
<path d="M25 22.2222V17.7778C24.9998 17.5829 24.9484 17.3915 24.8509 17.2228C24.7533 17.0541 24.6132 16.9141 24.4444 16.8166L20.5556 14.5944C20.3866 14.4969 20.195 14.4456 20 14.4456C19.805 14.4456 19.6134 14.4969 19.4444 14.5944L15.5556 16.8166C15.3868 16.9141 15.2467 17.0541 15.1491 17.2228C15.0516 17.3915 15.0002 17.5829 15 17.7778V22.2222C15.0002 22.417 15.0516 22.6084 15.1491 22.7771C15.2467 22.9458 15.3868 23.0859 15.5556 23.1833L19.4444 25.4055C19.6134 25.5031 19.805 25.5544 20 25.5544C20.195 25.5544 20.3866 25.5031 20.5556 25.4055L24.4444 23.1833C24.6132 23.0859 24.7533 22.9458 24.8509 22.7771C24.9484 22.6084 24.9998 22.417 25 22.2222Z" stroke="#FFF0DD" stroke-width="0.694444" stroke-linecap="round" stroke-linejoin="round"/>
<path d="M15.1499 17.2L19.9999 20.0055L24.8499 17.2" stroke="#FFF0DD" stroke-width="0.694444" stroke-linecap="round" stroke-linejoin="round"/>
<path d="M20 25.6V20" stroke="#FFF0DD" stroke-width="0.694444" stroke-linecap="round" stroke-linejoin="round"/>
<path d="M32.2221 24.4445C32.2221 28.7401 28.7398 32.2223 24.4443 32.2223C20.1487 32.2223 16.6665 28.7401 16.6665 24.4445C16.6665 20.149 20.1487 16.6667 24.4443 16.6667C28.7398 16.6667 32.2221 20.149 32.2221 24.4445Z" fill="url(#paint1_linear_1704_219565)"/>
<path d="M21.3228 27.7778H27.5662C27.6253 27.7779 27.6826 27.7569 27.7278 27.7187C27.7729 27.6804 27.8031 27.6274 27.8128 27.5691L28.5628 23.0691C28.5688 23.0333 28.567 22.9965 28.5573 22.9615C28.5477 22.9265 28.5305 22.894 28.507 22.8663C28.4836 22.8385 28.4543 22.8163 28.4214 22.801C28.3884 22.7857 28.3525 22.7778 28.3162 22.7778H20.5728C20.5365 22.7778 20.5006 22.7857 20.4677 22.801C20.4347 22.8163 20.4055 22.8385 20.382 22.8663C20.3585 22.894 20.3413 22.9265 20.3317 22.9615C20.3221 22.9965 20.3202 23.0333 20.3262 23.0691L21.0762 27.5691C21.0859 27.6274 21.1161 27.6804 21.1613 27.7187C21.2064 27.7569 21.2637 27.7779 21.3228 27.7778Z" stroke="white" stroke-width="0.555556"/>
<path d="M22.3613 22.7778V21.9444C22.3613 21.7234 22.4491 21.5114 22.6054 21.3552C22.7617 21.1989 22.9736 21.1111 23.1947 21.1111H25.6947C25.9157 21.1111 26.1276 21.1989 26.2839 21.3552C26.4402 21.5114 26.528 21.7234 26.528 21.9444V22.7778" stroke="white" stroke-width="0.555556"/>
<g clip-path="url(#clip0_1704_219565)">
<path d="M25.6948 25.0523C25.6952 25.2447 25.6211 25.4297 25.488 25.5686C25.1829 25.885 24.8869 26.2148 24.5705 26.5196C24.4979 26.5883 24.3828 26.5858 24.3134 26.514L23.4015 25.5687C23.1259 25.283 23.1259 24.8217 23.4015 24.5361C23.4667 24.4677 23.545 24.4133 23.6318 24.3761C23.7186 24.3389 23.8121 24.3197 23.9065 24.3197C24.001 24.3197 24.0944 24.3389 24.1812 24.3761C24.2681 24.4133 24.3464 24.4677 24.4115 24.5361L24.4448 24.5703L24.4779 24.5361C24.5432 24.4679 24.6216 24.4135 24.7083 24.3763C24.7951 24.3391 24.8885 24.3198 24.9829 24.3196C25.1729 24.3196 25.3545 24.3976 25.4879 24.5361C25.621 24.6749 25.6952 24.86 25.6948 25.0523Z" stroke="white" stroke-width="0.5" stroke-linejoin="round"/>
</g>
<defs>
<linearGradient id="paint0_linear_1704_219565" x1="27.8107" y1="28.4003" x2="14.8694" y2="7.14871" gradientUnits="userSpaceOnUse">
<stop stop-color="#FF8B58"/>
<stop offset="1" stop-color="#FFD058"/>
</linearGradient>
<linearGradient id="paint1_linear_1704_219565" x1="24.4443" y1="16.6667" x2="24.4443" y2="32.2223" gradientUnits="userSpaceOnUse">
<stop stop-color="#FA50D5"/>
<stop offset="1" stop-color="#FA5080"/>
</linearGradient>
<clipPath id="clip0_1704_219565">
<rect width="3" height="3" fill="white" transform="translate(22.9448 23.9446)"/>
</clipPath>
</defs>
</svg>
