<svg width="24" height="24" viewBox="0 0 24 24" fill="none" xmlns="http://www.w3.org/2000/svg">
<path d="M21.21 15.8898C20.5738 17.3943 19.5788 18.7201 18.3119 19.7511C17.045 20.7822 15.5448 21.4873 13.9424 21.8046C12.3401 22.122 10.6844 22.042 9.12015 21.5716C7.55588 21.1013 6.13063 20.2549 4.96903 19.1065C3.80742 17.9581 2.94482 16.5426 2.45664 14.9838C1.96846 13.425 1.86957 11.7703 2.1686 10.1645C2.46764 8.55861 3.1555 7.05046 4.17205 5.77186C5.1886 4.49327 6.50289 3.48315 8.00001 2.82983" stroke="#109C72" stroke-width="1.5" stroke-linecap="round" stroke-linejoin="round"/>
<path d="M22 11.9995C22 10.6863 21.7413 9.38593 21.2388 8.17268C20.7363 6.95942 19.9997 5.85703 19.0711 4.92844C18.1425 3.99986 17.0401 3.26326 15.8268 2.76072C14.6136 2.25817 13.3132 1.99951 12 1.99951V11.9995H22Z" stroke="#109C72" stroke-width="1.5" stroke-linecap="round" stroke-linejoin="round"/>
</svg>
