<svg width="24" height="24" viewBox="0 0 24 24" fill="none" xmlns="http://www.w3.org/2000/svg">
<g clip-path="url(#clip0_106_21676)">
<path d="M21.2099 16.001C20.5737 17.5055 19.5787 18.8313 18.3118 19.8623C17.0449 20.8934 15.5447 21.5985 13.9424 21.9158C12.34 22.2332 10.6843 22.1532 9.12006 21.6828C7.55578 21.2125 6.13054 20.3661 4.96893 19.2177C3.80733 18.0693 2.94473 16.6538 2.45655 15.095C1.96837 13.5362 1.86948 11.8815 2.16851 10.2757C2.46755 8.66982 3.15541 7.16167 4.17196 5.88307C5.18851 4.60447 6.5028 3.59436 7.99992 2.94104" stroke="#4970FE" stroke-width="1.5" stroke-linecap="round" stroke-linejoin="round"/>
<path d="M22 12.1111C22 10.7979 21.7413 9.49749 21.2388 8.28423C20.7363 7.07098 19.9997 5.96859 19.0711 5.04C18.1425 4.11142 17.0401 3.37482 15.8268 2.87227C14.6136 2.36973 13.3132 2.11107 12 2.11107V12.1111H22Z" stroke="#34D396" stroke-width="1.5" stroke-linecap="round" stroke-linejoin="round"/>
</g>
<defs>
<clipPath id="clip0_106_21676">
<rect width="24" height="24" fill="white"/>
</clipPath>
</defs>
</svg>
