<svg width="24" height="24" viewBox="0 0 24 24" fill="none" xmlns="http://www.w3.org/2000/svg">
<path d="M17 21V19C17 17.9391 16.5786 16.9217 15.8284 16.1716C15.0783 15.4214 14.0609 15 13 15H5C3.93913 15 2.92172 15.4214 2.17157 16.1716C1.42143 16.9217 1 17.9391 1 19V21" stroke="#109C72" stroke-width="1.5" stroke-linecap="round" stroke-linejoin="round"/>
<path d="M9 11C11.2091 11 13 9.20914 13 7C13 4.79086 11.2091 3 9 3C6.79086 3 5 4.79086 5 7C5 9.20914 6.79086 11 9 11Z" stroke="#109C72" stroke-width="1.5" stroke-linecap="round" stroke-linejoin="round"/>
<path d="M23 21.0001V19.0001C22.9993 18.1139 22.7044 17.2529 22.1614 16.5524C21.6184 15.852 20.8581 15.3517 20 15.1301" stroke="#109C72" stroke-width="1.5" stroke-linecap="round" stroke-linejoin="round"/>
<path d="M16 3.13013C16.8604 3.35043 17.623 3.85083 18.1676 4.55244C18.7122 5.25405 19.0078 6.11696 19.0078 7.00513C19.0078 7.8933 18.7122 8.75621 18.1676 9.45782C17.623 10.1594 16.8604 10.6598 16 10.8801" stroke="#109C72" stroke-width="1.5" stroke-linecap="round" stroke-linejoin="round"/>
</svg>
