<svg width="48" height="48" viewBox="0 0 48 48" fill="none" xmlns="http://www.w3.org/2000/svg">
<g filter="url(#filter0_dd_218_73925)">
<g clip-path="url(#clip0_218_73925)">
<rect x="4" y="2" width="40" height="40" rx="20" fill="#F9F5FF"/>
<g opacity="0.08">
<rect x="4.27778" y="2.27778" width="39.4444" height="39.4444" rx="19.7222" stroke="#7F56D9" stroke-width="0.555556"/>
</g>
<path d="M21.3093 19.6554C21.254 19.1385 21.0212 18.736 20.6109 18.448C20.2045 18.16 19.6757 18.016 19.0247 18.016C18.567 18.016 18.1744 18.085 17.8469 18.2231C17.5194 18.3612 17.2689 18.5486 17.0953 18.7854C16.9216 19.0221 16.8329 19.2924 16.8289 19.5962C16.8289 19.8487 16.8861 20.0677 17.0006 20.2532C17.1189 20.4386 17.2787 20.5964 17.48 20.7267C17.6812 20.8529 17.9041 20.9595 18.1488 21.0463C18.3934 21.1331 18.64 21.2061 18.8886 21.2652L20.0249 21.5493C20.4826 21.6559 20.9226 21.7999 21.3448 21.9814C21.7709 22.1629 22.1517 22.3917 22.4871 22.6679C22.8264 22.9441 23.0947 23.2776 23.292 23.6682C23.4893 24.0588 23.5879 24.5165 23.5879 25.0413C23.5879 25.7515 23.4064 26.3769 23.0434 26.9175C22.6804 27.4541 22.1556 27.8743 21.4691 28.1781C20.7865 28.478 19.9598 28.6279 18.9892 28.6279C18.0462 28.6279 17.2274 28.4819 16.533 28.19C15.8425 27.898 15.3019 27.4718 14.9113 26.9116C14.5246 26.3513 14.3155 25.6687 14.2839 24.8637H16.4442C16.4758 25.2859 16.606 25.6371 16.8348 25.9172C17.0637 26.1974 17.3616 26.4065 17.7285 26.5446C18.0994 26.6827 18.5137 26.7517 18.9714 26.7517C19.4489 26.7517 19.8671 26.6807 20.2262 26.5387C20.5892 26.3927 20.8733 26.1915 21.0784 25.935C21.2836 25.6746 21.3882 25.3708 21.3921 25.0235C21.3882 24.7079 21.2955 24.4475 21.114 24.2423C20.9325 24.0332 20.678 23.8595 20.3505 23.7214C20.0269 23.5794 19.6481 23.4531 19.2141 23.3427L17.8351 22.9875C16.8368 22.7311 16.0477 22.3424 15.4677 21.8216C14.8916 21.2968 14.6035 20.6004 14.6035 19.7323C14.6035 19.0182 14.7969 18.3928 15.1836 17.8562C15.5742 17.3195 16.1049 16.9033 16.7757 16.6073C17.4464 16.3075 18.206 16.1575 19.0543 16.1575C19.9145 16.1575 20.6681 16.3075 21.3152 16.6073C21.9662 16.9033 22.4772 17.3156 22.8481 17.8443C23.219 18.3691 23.4104 18.9728 23.4222 19.6554H21.3093ZM25.5455 28.4445V16.3232H33.429V18.1639H27.7413V21.4546H33.0206V23.2953H27.7413V26.6038H33.4764V28.4445H25.5455Z" fill="#475467"/>
</g>
</g>
<defs>
<filter id="filter0_dd_218_73925" x="0.666667" y="0.888889" width="46.6667" height="46.6667" filterUnits="userSpaceOnUse" color-interpolation-filters="sRGB">
<feFlood flood-opacity="0" result="BackgroundImageFix"/>
<feColorMatrix in="SourceAlpha" type="matrix" values="0 0 0 0 0 0 0 0 0 0 0 0 0 0 0 0 0 0 127 0" result="hardAlpha"/>
<feMorphology radius="1.11111" operator="erode" in="SourceAlpha" result="effect1_dropShadow_218_73925"/>
<feOffset dy="1.11111"/>
<feGaussianBlur stdDeviation="1.11111"/>
<feColorMatrix type="matrix" values="0 0 0 0 0.0627451 0 0 0 0 0.0941176 0 0 0 0 0.156863 0 0 0 0.06 0"/>
<feBlend mode="normal" in2="BackgroundImageFix" result="effect1_dropShadow_218_73925"/>
<feColorMatrix in="SourceAlpha" type="matrix" values="0 0 0 0 0 0 0 0 0 0 0 0 0 0 0 0 0 0 127 0" result="hardAlpha"/>
<feMorphology radius="1.11111" operator="erode" in="SourceAlpha" result="effect2_dropShadow_218_73925"/>
<feOffset dy="2.22222"/>
<feGaussianBlur stdDeviation="2.22222"/>
<feColorMatrix type="matrix" values="0 0 0 0 0.0627451 0 0 0 0 0.0941176 0 0 0 0 0.156863 0 0 0 0.1 0"/>
<feBlend mode="normal" in2="effect1_dropShadow_218_73925" result="effect2_dropShadow_218_73925"/>
<feBlend mode="normal" in="SourceGraphic" in2="effect2_dropShadow_218_73925" result="shape"/>
</filter>
<clipPath id="clip0_218_73925">
<rect x="4" y="2" width="40" height="40" rx="20" fill="white"/>
</clipPath>
</defs>
</svg>
