<svg width="48" height="48" viewBox="0 0 48 48" fill="none" xmlns="http://www.w3.org/2000/svg">
<g filter="url(#filter0_dd_218_73922)">
<g clip-path="url(#clip0_218_73922)">
<rect x="4" y="2" width="40" height="40" rx="20" fill="#F9F5FF"/>
<g opacity="0.08">
<rect x="4.27778" y="2.27778" width="39.4444" height="39.4444" rx="19.7222" stroke="#7F56D9" stroke-width="0.555556"/>
</g>
<path d="M19.2607 28.4445H15.1532V16.3232H19.3436C20.547 16.3232 21.5808 16.5659 22.4449 17.0512C23.313 17.5326 23.9798 18.2251 24.4454 19.1286C24.911 20.0322 25.1438 21.1133 25.1438 22.372C25.1438 23.6346 24.909 24.7197 24.4395 25.6272C23.9739 26.5347 23.3011 27.2312 22.4212 27.7165C21.5453 28.2018 20.4918 28.4445 19.2607 28.4445ZM17.349 26.5446H19.1542C19.9986 26.5446 20.7029 26.3907 21.2671 26.083C21.8313 25.7712 22.2555 25.3076 22.5396 24.6921C22.8237 24.0726 22.9657 23.2993 22.9657 22.372C22.9657 21.4448 22.8237 20.6754 22.5396 20.0638C22.2555 19.4482 21.8353 18.9886 21.2789 18.6848C20.7265 18.377 20.04 18.2231 19.2193 18.2231H17.349V26.5446ZM32.0418 16.3232V28.4445H29.8461V18.4598H29.775L26.94 20.2709V18.2586L29.9526 16.3232H32.0418Z" fill="#475467"/>
</g>
</g>
<defs>
<filter id="filter0_dd_218_73922" x="0.666667" y="0.888889" width="46.6667" height="46.6667" filterUnits="userSpaceOnUse" color-interpolation-filters="sRGB">
<feFlood flood-opacity="0" result="BackgroundImageFix"/>
<feColorMatrix in="SourceAlpha" type="matrix" values="0 0 0 0 0 0 0 0 0 0 0 0 0 0 0 0 0 0 127 0" result="hardAlpha"/>
<feMorphology radius="1.11111" operator="erode" in="SourceAlpha" result="effect1_dropShadow_218_73922"/>
<feOffset dy="1.11111"/>
<feGaussianBlur stdDeviation="1.11111"/>
<feColorMatrix type="matrix" values="0 0 0 0 0.0627451 0 0 0 0 0.0941176 0 0 0 0 0.156863 0 0 0 0.06 0"/>
<feBlend mode="normal" in2="BackgroundImageFix" result="effect1_dropShadow_218_73922"/>
<feColorMatrix in="SourceAlpha" type="matrix" values="0 0 0 0 0 0 0 0 0 0 0 0 0 0 0 0 0 0 127 0" result="hardAlpha"/>
<feMorphology radius="1.11111" operator="erode" in="SourceAlpha" result="effect2_dropShadow_218_73922"/>
<feOffset dy="2.22222"/>
<feGaussianBlur stdDeviation="2.22222"/>
<feColorMatrix type="matrix" values="0 0 0 0 0.0627451 0 0 0 0 0.0941176 0 0 0 0 0.156863 0 0 0 0.1 0"/>
<feBlend mode="normal" in2="effect1_dropShadow_218_73922" result="effect2_dropShadow_218_73922"/>
<feBlend mode="normal" in="SourceGraphic" in2="effect2_dropShadow_218_73922" result="shape"/>
</filter>
<clipPath id="clip0_218_73922">
<rect x="4" y="2" width="40" height="40" rx="20" fill="white"/>
</clipPath>
</defs>
</svg>
