<svg width="20" height="20" viewBox="0 0 20 20" fill="none" xmlns="http://www.w3.org/2000/svg">
<path d="M8.40024 13.9H12.0002M6.96024 4H13.4402C13.7763 4 13.9443 4 14.0726 4.0654C14.1855 4.12292 14.2773 4.21471 14.3348 4.32761C14.4002 4.45595 14.4002 4.62397 14.4002 4.96V6.20471C14.4002 6.49822 14.4002 6.64497 14.3671 6.78308C14.3377 6.90552 14.2892 7.02258 14.2234 7.12994C14.1492 7.25104 14.0454 7.35481 13.8379 7.56235L12.0791 9.32118C11.8415 9.55879 11.7227 9.67759 11.6781 9.81459C11.639 9.9351 11.639 10.0649 11.6781 10.1854C11.7227 10.3224 11.8415 10.4412 12.0791 10.6788L13.8379 12.4376C14.0454 12.6452 14.1492 12.749 14.2234 12.8701C14.2892 12.9774 14.3377 13.0945 14.3671 13.2169C14.4002 13.355 14.4002 13.5018 14.4002 13.7953V15.04C14.4002 15.376 14.4002 15.544 14.3348 15.6724C14.2773 15.7853 14.1855 15.8771 14.0726 15.9346C13.9443 16 13.7763 16 13.4402 16H6.96024C6.62421 16 6.4562 16 6.32785 15.9346C6.21495 15.8771 6.12316 15.7853 6.06564 15.6724C6.00024 15.544 6.00024 15.376 6.00024 15.04V13.7953C6.00024 13.5018 6.00024 13.355 6.0334 13.2169C6.0628 13.0945 6.11128 12.9774 6.17708 12.8701C6.25129 12.749 6.35506 12.6452 6.5626 12.4376L8.32142 10.6788C8.55903 10.4412 8.67784 10.3224 8.72235 10.1854C8.7615 10.0649 8.7615 9.9351 8.72235 9.81459C8.67784 9.67759 8.55903 9.55878 8.32142 9.32118L6.5626 7.56235C6.35506 7.35481 6.25129 7.25104 6.17708 7.12994C6.11128 7.02258 6.0628 6.90552 6.0334 6.78308C6.00024 6.64497 6.00024 6.49822 6.00024 6.20471V4.96C6.00024 4.62397 6.00024 4.45595 6.06564 4.32761C6.12316 4.21471 6.21495 4.12292 6.32785 4.0654C6.4562 4 6.62421 4 6.96024 4Z" stroke="#98A2B3" stroke-width="1.5" stroke-linecap="round" stroke-linejoin="round"/>
</svg>
