<svg width="80" height="80" viewBox="5 0 130 50" fill="none" xmlns="http://www.w3.org/2000/svg" > <path d="M16.6364 80.4119C19.8608 80.4119 21.9489 79.0057 23.0142 76.9744H23.1847V80H28.9233V65.2841C28.9233 60.0852 24.5199 57.8977 19.6619 57.8977C14.4347 57.8977 10.9972 60.3977 10.1591 64.375L15.7557 64.8295C16.1676 63.3807 17.4602 62.3153 19.6335 62.3153C21.6932 62.3153 22.8722 63.3523 22.8722 65.142V65.2273C22.8722 66.6335 21.3807 66.8182 17.5881 67.1875C13.2699 67.5852 9.39205 69.0341 9.39205 73.9062C9.39205 78.2244 12.4744 80.4119 16.6364 80.4119ZM18.3693 76.2358C16.5085 76.2358 15.1733 75.3693 15.1733 73.7074C15.1733 72.0028 16.5795 71.1648 18.7102 70.8665C20.0312 70.6818 22.1903 70.3693 22.9148 69.8864V72.2017C22.9148 74.4886 21.0256 76.2358 18.3693 76.2358ZM45.223 58.1818H41.1179V52.9545H35.0668V58.1818H32.0838V62.7273H35.0668V74.0909C35.0384 78.3665 37.9503 80.483 42.3395 80.2983C43.902 80.2415 45.0099 79.929 45.6207 79.7301L44.669 75.2273C44.3707 75.2841 43.7315 75.4261 43.1634 75.4261C41.956 75.4261 41.1179 74.9716 41.1179 73.2955V62.7273H45.223V58.1818ZM60.7699 58.1818H56.6648V52.9545H50.6136V58.1818H47.6307V62.7273H50.6136V74.0909C50.5852 78.3665 53.4972 80.483 57.8864 80.2983C59.4489 80.2415 60.5568 79.929 61.1676 79.7301L60.2159 75.2273C59.9176 75.2841 59.2784 75.4261 58.7102 75.4261C57.5028 75.4261 56.6648 74.9716 56.6648 73.2955V62.7273H60.7699V58.1818ZM64.7116 80H70.7628V67.6562C70.7628 64.9716 72.723 63.125 75.3935 63.125C76.2315 63.125 77.3821 63.267 77.9503 63.4517V58.0824C77.4105 57.9545 76.6577 57.8693 76.0469 57.8693C73.6037 57.8693 71.6009 59.2898 70.8054 61.9886H70.5781V58.1818H64.7116V80ZM104.63 80H110.596V76.5057H110.866C111.704 78.3239 113.536 80.3551 117.059 80.3551C122.031 80.3551 125.908 76.4205 125.908 69.1193C125.908 61.6193 121.86 57.8977 117.073 57.8977C113.423 57.8977 111.675 60.071 110.866 61.8466H110.681V50.9091H104.63V80ZM110.553 69.0909C110.553 65.1989 112.201 62.7131 115.141 62.7131C118.138 62.7131 119.729 65.3125 119.729 69.0909C119.729 72.8977 118.11 75.5398 115.141 75.5398C112.229 75.5398 110.553 72.983 110.553 69.0909Z" fill="#172B4D" /> <path d="M84.8146 88.1818C89.3175 88.1818 91.7038 85.8807 92.9396 82.358L101.42 58.2102L95.0135 58.1818L90.4538 74.2045H90.2266L85.7095 58.1818H79.3459L87.1726 80.625L86.8175 81.5483C86.022 83.5938 84.5021 83.6932 82.3714 83.0398L81.0078 87.5568C81.8743 87.9261 83.2805 88.1818 84.8146 88.1818Z" fill="#9E6DD2" /> </svg>