<svg width="260" height="260" viewBox="0 0 260 260" fill="none" xmlns="http://www.w3.org/2000/svg">
<rect width="260" height="260" fill="#F2F4F7"/>
<line x1="54.4342" y1="56.5504" x2="205.433" y2="202.369" stroke="#D0D5DD" stroke-width="1.25"/>
<line y1="-0.625" x2="209.914" y2="-0.625" transform="matrix(-0.71934 0.694658 0.694658 0.71934 205 57)" stroke="#D0D5DD" stroke-width="1.25"/>
<rect width="80" height="80" transform="translate(90 90)" fill="#F2F4F7"/>
<path fill-rule="evenodd" clip-rule="evenodd" d="M122.971 119.098C122.934 119.098 122.862 119.098 122.825 119.098C122.21 119.023 121.703 118.459 121.703 117.82C121.666 117.218 121.339 103.152 129.274 99.9551C131.267 99.1652 133.117 99.3156 134.674 100.482C136.593 101.873 137.97 104.656 138.804 108.718C139.382 111.576 139.491 114.059 139.491 114.172C139.528 114.773 139.059 115.225 138.44 115.112C137.825 115.036 137.318 114.472 137.318 113.871C137.209 111.313 136.376 104.28 133.624 102.249C132.753 101.61 131.665 101.535 130.362 102.061C123.55 104.807 123.876 118.008 123.876 118.158C123.876 118.685 123.515 119.098 122.971 119.098Z" fill="#595961"/>
<path opacity="0.46" fill-rule="evenodd" clip-rule="evenodd" d="M134.274 100.557C132.825 99.5036 131.124 99.3532 129.274 100.068C126.05 101.384 123.768 104.844 122.645 110.11C121.812 113.983 121.921 117.481 121.921 117.631C121.921 117.819 121.992 118.008 122.138 118.158C122.282 118.308 122.428 118.421 122.608 118.421C122.645 118.421 122.682 118.421 122.717 118.421C123.043 118.421 123.298 118.158 123.298 117.819C123.298 117.669 122.972 104.242 129.964 101.422C131.376 100.858 132.608 100.933 133.624 101.685C136.557 103.829 137.427 111.088 137.536 113.683C137.536 114.059 137.862 114.435 138.26 114.472C138.624 114.51 138.913 114.247 138.913 113.871C138.876 113.419 138.478 103.641 134.274 100.557Z" fill="#B2B2C2"/>
<path opacity="0.46" fill-rule="evenodd" clip-rule="evenodd" d="M122.645 117.97C122.608 117.97 122.608 117.97 122.574 117.97C122.356 117.932 122.173 117.707 122.138 117.481C122.138 117.33 122.03 113.908 122.863 110.034C123.949 104.882 126.233 101.459 129.383 100.18C131.159 99.4659 132.754 99.6165 134.131 100.594C138.189 103.565 138.587 113.194 138.587 113.607C138.587 113.833 138.406 113.983 138.189 113.946C137.971 113.908 137.791 113.72 137.753 113.457C137.753 113.344 137.355 103.904 133.696 101.196C132.608 100.406 131.268 100.293 129.747 100.895C122.645 103.866 122.972 117.481 122.972 117.631C123.006 117.819 122.863 117.97 122.645 117.97Z" fill="#B2B2C2"/>
<path opacity="0.62" fill-rule="evenodd" clip-rule="evenodd" d="M125.581 107.214C125.87 106.65 126.159 106.086 126.414 105.484C126.305 105.672 125.58 107.628 123.37 107.327C123.333 107.327 124.673 107.74 125.581 107.214Z" fill="#595961"/>
<path opacity="0.62" fill-rule="evenodd" clip-rule="evenodd" d="M124.781 109.621C124.999 109.019 125.216 108.379 125.362 107.778C125.29 108.003 124.927 110.034 122.607 110.034C122.607 110.034 123.948 110.297 124.781 109.621Z" fill="#595961"/>
<path opacity="0.62" fill-rule="evenodd" clip-rule="evenodd" d="M137.498 104.769C137.209 104.092 136.882 103.453 136.556 102.776C136.665 103.002 137.753 105.145 136.521 106.687C136.521 106.687 137.464 105.935 137.498 104.769Z" fill="#595961"/>
<path opacity="0.62" fill-rule="evenodd" clip-rule="evenodd" d="M135.508 101.384C134.927 100.895 134.349 100.444 133.768 100.031C133.985 100.219 135.906 101.61 135.798 103.716C135.761 103.716 136.087 102.475 135.508 101.384Z" fill="#595961"/>
<path opacity="0.62" fill-rule="evenodd" clip-rule="evenodd" d="M126.63 105.145C127.065 104.694 127.426 104.205 127.824 103.678C127.681 103.828 126.484 105.37 124.348 104.806C124.348 104.806 125.579 105.483 126.63 105.145Z" fill="#595961"/>
<path opacity="0.62" fill-rule="evenodd" clip-rule="evenodd" d="M127.971 103.415C128.478 103.039 128.947 102.663 129.42 102.249C129.239 102.362 127.753 103.603 125.688 102.7C125.688 102.7 126.883 103.565 127.971 103.415Z" fill="#595961"/>
<path opacity="0.62" fill-rule="evenodd" clip-rule="evenodd" d="M129.926 102.173C130.542 101.985 131.123 101.76 131.702 101.534C131.484 101.609 129.637 102.286 127.824 100.857C127.861 100.857 128.803 101.985 129.926 102.173Z" fill="#595961"/>
<path opacity="0.62" fill-rule="evenodd" clip-rule="evenodd" d="M131.702 101.497C132.209 101.572 132.716 101.61 133.223 101.648C133.042 101.61 131.447 101.497 130.542 99.9927C130.542 99.9927 130.906 101.008 131.702 101.497Z" fill="#595961"/>
<path opacity="0.62" fill-rule="evenodd" clip-rule="evenodd" d="M133.804 102.324C134.165 102.738 134.566 103.151 134.999 103.527C134.855 103.377 133.624 102.136 133.913 100.594C133.876 100.594 133.478 101.459 133.804 102.324Z" fill="#595961"/>
<path opacity="0.74" fill-rule="evenodd" clip-rule="evenodd" d="M138.189 113.419C138.189 113.005 137.791 103.49 133.842 100.594C133.08 100.03 132.247 99.7668 131.376 99.7668C130.724 99.7668 130.036 99.9172 129.312 100.218C126.159 101.459 123.949 104.807 122.863 109.921C122.03 113.758 122.138 117.18 122.138 117.331C122.138 117.443 122.247 117.556 122.356 117.556H122.391C122.499 117.556 122.574 117.481 122.574 117.368C122.574 117.218 122.21 103.49 129.492 100.557C131.087 99.9172 132.464 100.03 133.624 100.895C137.39 103.641 137.791 113.231 137.791 113.344C137.791 113.457 137.899 113.57 138.008 113.57C138.008 113.57 138.008 113.57 138.043 113.57C138.117 113.607 138.189 113.532 138.189 113.419Z" fill="url(#paint0_linear_6908_67706)"/>
<path fill-rule="evenodd" clip-rule="evenodd" d="M138.804 108.718C137.971 104.657 136.594 101.911 134.675 100.482C133.624 99.7297 132.499 99.3912 131.268 99.4665C132.247 99.5415 133.152 99.8801 133.985 100.482C135.906 101.874 137.284 104.657 138.117 108.718C138.696 111.577 138.804 114.059 138.804 114.172C138.804 114.623 138.587 114.962 138.223 115.074C138.297 115.112 138.369 115.112 138.406 115.112C139.022 115.187 139.492 114.773 139.457 114.172C139.492 114.059 139.383 111.614 138.804 108.718Z" fill="url(#paint1_linear_6908_67706)"/>
<path fill-rule="evenodd" clip-rule="evenodd" d="M129.674 102.061C122.862 104.807 123.188 118.008 123.188 118.158C123.188 118.609 122.971 118.948 122.607 119.061C122.682 119.098 122.716 119.098 122.79 119.098C122.825 119.098 122.899 119.098 122.934 119.098C123.478 119.098 123.839 118.685 123.839 118.158C123.839 118.008 123.515 104.844 130.325 102.099C130.797 101.911 131.232 101.798 131.63 101.76C131.049 101.648 130.399 101.76 129.674 102.061Z" fill="url(#paint2_linear_6908_67706)"/>
<path fill-rule="evenodd" clip-rule="evenodd" d="M139.998 105.333L109.275 115.187C109.275 115.187 107.972 115.563 107.646 115.976C107.319 116.39 107.248 117.556 107.248 117.556L102.5 155.542L138.151 162.462L140.906 105.295C140.508 105.22 140.107 105.295 139.998 105.333Z" fill="url(#paint3_linear_6908_67706)"/>
<path fill-rule="evenodd" clip-rule="evenodd" d="M150.617 110.222C150.617 110.222 150.579 109.921 150.399 109.809C150.253 109.696 150.073 109.696 150.073 109.696L145.036 109.32L141.341 105.521C141.196 105.408 141.05 105.333 140.869 105.295L138.117 162.462L157.426 158.137L150.617 110.222Z" fill="url(#paint4_linear_6908_67706)"/>
<path fill-rule="evenodd" clip-rule="evenodd" d="M127.319 137.075C126.775 136.323 126.125 135.646 125.472 135.044C124.819 134.443 124.132 133.954 123.442 133.502C122.972 133.202 122.537 132.901 122.173 132.6C121.812 132.299 121.523 131.998 121.306 131.735C121.088 131.434 120.907 131.17 120.799 130.87C120.69 130.569 120.653 130.268 120.653 129.967C120.653 129.553 120.762 129.14 120.907 128.801C121.051 128.463 121.306 128.162 121.558 127.898C121.849 127.635 122.173 127.447 122.574 127.297C122.972 127.146 123.442 127.071 123.949 127.034C124.493 126.996 125.037 127.034 125.544 127.071C126.051 127.109 126.523 127.222 126.993 127.334C127.428 127.447 127.863 127.598 128.224 127.748C128.588 127.898 128.949 128.049 129.203 128.199L131.594 120.828C131.233 120.64 130.798 120.452 130.326 120.339C129.819 120.188 129.275 120.076 128.659 120C128.044 119.925 127.391 119.888 126.703 119.888C126.016 119.888 125.292 119.925 124.53 120.038C122.9 120.264 121.449 120.715 120.146 121.392C118.914 122.031 117.826 122.859 116.921 123.874C116.051 124.852 115.364 125.98 114.857 127.259C114.384 128.5 114.095 129.892 114.023 131.396C113.986 132.299 114.058 133.126 114.276 133.878C114.456 134.631 114.748 135.345 115.146 136.022C115.507 136.699 115.979 137.301 116.486 137.865C116.993 138.429 117.609 138.956 118.224 139.445C118.731 139.821 119.167 140.197 119.53 140.535C119.891 140.874 120.183 141.212 120.398 141.589C120.616 141.927 120.761 142.265 120.87 142.641C120.979 142.98 121.016 143.356 120.979 143.732C120.979 144.108 120.87 144.484 120.724 144.785C120.581 145.086 120.398 145.387 120.109 145.613C119.857 145.838 119.53 145.989 119.167 146.064C118.806 146.139 118.37 146.177 117.898 146.102C117.357 146.026 116.813 145.876 116.306 145.65C115.799 145.462 115.29 145.199 114.82 144.936C114.35 144.673 113.915 144.372 113.551 144.108C113.153 143.845 112.827 143.544 112.574 143.318L110.942 148.922C111.197 149.298 111.558 149.637 111.956 149.975C112.357 150.314 112.827 150.652 113.371 150.991C113.915 151.292 114.493 151.592 115.109 151.856C115.725 152.119 116.415 152.345 117.102 152.533H117.139H117.174H117.211H117.248C118.731 152.871 120.146 152.947 121.486 152.759C122.863 152.57 124.132 152.081 125.217 151.329C126.34 150.54 127.247 149.486 127.935 148.095C128.625 146.703 129.023 145.011 129.094 143.093C129.132 141.889 128.986 140.836 128.659 139.858C128.333 138.73 127.863 137.865 127.319 137.075Z" fill="url(#paint5_linear_6908_67706)"/>
<path opacity="0.226763" fill-rule="evenodd" clip-rule="evenodd" d="M111.177 149.229C111.093 149.129 111.014 149.027 110.942 148.923L112.574 143.319C112.596 143.34 112.621 143.361 112.646 143.383C112.888 143.6 113.19 143.87 113.551 144.109C113.914 144.372 114.35 144.673 114.819 144.936C115.289 145.199 115.798 145.462 116.305 145.651C116.812 145.876 117.356 146.027 117.898 146.102C118.37 146.177 118.805 146.14 119.166 146.064C119.53 145.989 119.856 145.839 120.108 145.613C120.398 145.387 120.581 145.086 120.724 144.785C120.87 144.485 120.979 144.109 120.979 143.733C121.016 143.356 120.979 142.98 120.87 142.642C120.761 142.266 120.615 141.927 120.398 141.589C120.192 141.231 119.92 140.908 119.582 140.586C119.76 140.787 119.911 140.994 120.037 141.213C120.254 141.551 120.398 141.889 120.507 142.266C120.615 142.604 120.652 142.98 120.615 143.356C120.615 143.733 120.507 144.109 120.363 144.409C120.217 144.71 120.037 145.011 119.747 145.237C119.493 145.462 119.166 145.613 118.805 145.688C118.442 145.763 118.007 145.801 117.537 145.726C116.993 145.651 116.449 145.5 115.942 145.274C115.435 145.086 114.928 144.823 114.456 144.56C113.986 144.297 113.551 143.996 113.19 143.733C112.826 143.494 112.525 143.224 112.282 143.007C112.258 142.985 112.235 142.964 112.211 142.943L110.581 148.546C110.742 148.786 110.947 149.01 111.177 149.229ZM116.516 137.899C116.38 137.765 116.249 137.628 116.122 137.489C115.616 136.925 115.146 136.323 114.782 135.646C114.384 134.969 114.095 134.255 113.914 133.503C113.697 132.75 113.622 131.923 113.66 131.02C113.731 129.516 114.023 128.124 114.493 126.883C115 125.605 115.69 124.476 116.558 123.499C117.465 122.483 118.551 121.655 119.782 121.016C121.088 120.339 122.537 119.888 124.166 119.662C124.928 119.549 125.652 119.512 126.34 119.512C127.03 119.512 127.682 119.549 128.298 119.625C128.914 119.7 129.458 119.813 129.965 119.963C130.434 120.076 130.87 120.264 131.233 120.452L131.176 120.628C130.914 120.514 130.627 120.411 130.326 120.339C129.819 120.189 129.275 120.076 128.659 120.001C128.043 119.926 127.39 119.888 126.703 119.888C126.016 119.888 125.291 119.926 124.53 120.038C122.9 120.264 121.449 120.715 120.146 121.392C118.914 122.032 117.826 122.859 116.921 123.875C116.051 124.852 115.363 125.981 114.856 127.259C114.384 128.501 114.095 129.892 114.023 131.396C113.986 132.299 114.058 133.126 114.275 133.879C114.456 134.631 114.748 135.346 115.146 136.022C115.507 136.699 115.979 137.301 116.486 137.865C116.496 137.877 116.506 137.888 116.516 137.899ZM121.436 131.889C121.634 132.113 121.881 132.356 122.173 132.6C122.537 132.901 122.972 133.202 123.442 133.503C124.132 133.954 124.819 134.443 125.472 135.045C125.662 135.22 125.85 135.401 126.038 135.589C125.736 135.265 125.422 134.958 125.108 134.669C124.458 134.067 123.768 133.578 123.081 133.126C122.608 132.826 122.173 132.525 121.812 132.224C121.676 132.112 121.552 131.999 121.436 131.889Z" fill="black"/>
<path opacity="0.41" fill-rule="evenodd" clip-rule="evenodd" d="M146.268 151.819L145.036 109.32L144.819 109.094L145.4 151.217C145.4 151.217 140.291 159.265 139.53 159.04C138.407 158.701 141.74 105.935 141.74 105.935L141.377 105.559C141.233 105.446 141.05 105.371 140.907 105.333L138.189 161.71L138.152 162.5L139.094 161.259L146.268 151.819Z" fill="url(#paint6_linear_6908_67706)"/>
<path fill-rule="evenodd" clip-rule="evenodd" d="M132.388 107.778C131.955 109.546 131.412 111.2 131.013 112.216C130.759 112.818 131.048 113.382 131.592 113.457C132.173 113.532 132.823 113.118 133.041 112.517C133.078 112.404 134.055 109.959 134.673 107.063V107.026L132.388 107.778Z" fill="url(#paint7_linear_6908_67706)"/>
<path fill-rule="evenodd" clip-rule="evenodd" d="M116.05 113.043C115.543 114.171 115.036 115.149 114.673 115.826C114.349 116.39 114.529 116.992 115.073 117.142C115.615 117.33 116.339 116.992 116.666 116.428C116.703 116.353 117.754 114.51 118.696 112.178L116.05 113.043Z" fill="url(#paint8_linear_6908_67706)"/>
<path opacity="0.32" fill-rule="evenodd" clip-rule="evenodd" d="M138.152 162.462L146.268 151.818L157.501 158.137L138.152 162.462Z" fill="url(#paint9_linear_6908_67706)"/>
<path opacity="0.19" fill-rule="evenodd" clip-rule="evenodd" d="M138.152 162.462L146.196 151.818L157.501 158.137L138.152 162.462Z" fill="url(#paint10_linear_6908_67706)"/>
<path opacity="0.19" fill-rule="evenodd" clip-rule="evenodd" d="M138.152 162.462L146.196 151.818L157.501 158.137L138.152 162.462Z" fill="url(#paint11_linear_6908_67706)"/>
<path opacity="0.6" fill-rule="evenodd" clip-rule="evenodd" d="M130.254 132.675C134.458 138.58 137.284 144.974 138.696 151.179L140.907 105.258C140.508 105.183 140.108 105.258 139.999 105.296L109.276 115.187C109.276 115.187 108.987 115.262 108.623 115.413C116.414 118.196 124.204 124.176 130.254 132.675Z" fill="url(#paint12_linear_6908_67706)"/>
<path fill-rule="evenodd" clip-rule="evenodd" d="M150.432 109.846C150.615 109.997 150.615 110.222 150.615 110.222L157.353 158.099L146.266 151.781L145.034 109.282L149.999 109.658C150.034 109.696 150.252 109.696 150.432 109.846Z" fill="url(#paint13_linear_6908_67706)"/>
<path fill-rule="evenodd" clip-rule="evenodd" d="M149.638 109.96C149.638 109.96 149.855 109.96 150.036 110.148C150.216 110.298 150.253 110.524 150.253 110.524L156.885 157.874L157.392 158.175L150.652 110.26C150.652 110.26 150.617 110.035 150.471 109.884C150.291 109.734 150.036 109.734 150.036 109.734L145.073 109.358L149.638 109.96Z" fill="url(#paint14_linear_6908_67706)"/>
<path fill-rule="evenodd" clip-rule="evenodd" d="M102.5 155.541L138.151 162.462L139.892 123.272L106.933 124.209L102.5 155.541Z" fill="url(#paint15_linear_6908_67706)"/>
<path opacity="0.3" fill-rule="evenodd" clip-rule="evenodd" d="M114.204 115.735C113.88 116.649 114.199 117.609 114.921 117.88C115.64 118.151 116.486 117.63 116.812 116.716C117.136 115.802 116.815 114.842 116.095 114.571C115.376 114.299 114.528 114.821 114.204 115.735Z" fill="white"/>
<path opacity="0.89" fill-rule="evenodd" clip-rule="evenodd" d="M114.164 115.301C113.84 116.215 114.162 117.175 114.881 117.446C115.601 117.717 116.449 117.196 116.773 116.282C117.097 115.368 116.778 114.408 116.056 114.137C115.336 113.866 114.491 114.387 114.164 115.301Z" fill="black"/>
<path fill-rule="evenodd" clip-rule="evenodd" d="M145.073 109.32L141.377 105.521C141.233 105.408 141.05 105.333 140.907 105.295L138.152 162.462L146.305 151.781L145.073 109.32Z" fill="url(#paint16_linear_6908_67706)"/>
<path fill-rule="evenodd" clip-rule="evenodd" d="M139.998 105.334L109.275 115.187C109.275 115.187 107.971 115.564 107.645 115.977C107.608 116.015 107.608 116.052 107.573 116.09L138.549 107.214C138.803 107.139 139.419 106.913 139.347 108.756L137.463 162.388L138.116 162.5L140.868 105.334C140.507 105.221 140.107 105.296 139.998 105.334Z" fill="url(#paint17_linear_6908_67706)"/>
<path fill-rule="evenodd" clip-rule="evenodd" d="M139.998 105.334L109.275 115.187C109.275 115.187 107.971 115.564 107.645 115.977C107.608 116.015 107.608 116.052 107.573 116.09L114.747 114.021L139.419 106.086C139.528 106.048 139.926 105.973 140.324 106.048L137.607 162.388L138.116 162.5L140.868 105.334C140.507 105.221 140.107 105.296 139.998 105.334Z" fill="url(#paint18_linear_6908_67706)"/>
<path opacity="0.32" fill-rule="evenodd" clip-rule="evenodd" d="M147.899 152.721L146.267 151.781L138.117 162.462L138.55 162.349C138.55 162.349 145.726 152.759 146.376 152.458C146.848 152.27 147.899 152.721 147.899 152.721Z" fill="url(#paint19_linear_6908_67706)"/>
<path opacity="0.57" fill-rule="evenodd" clip-rule="evenodd" d="M138.152 162.462L146.305 151.781C146.268 151.819 141.125 157.648 138.152 162.462Z" fill="url(#paint20_linear_6908_67706)"/>
<path opacity="0.46" fill-rule="evenodd" clip-rule="evenodd" d="M157.501 158.137L146.304 151.818C146.267 151.818 147.573 152.044 157.501 158.137Z" fill="url(#paint21_linear_6908_67706)"/>
<path opacity="0.3" fill-rule="evenodd" clip-rule="evenodd" d="M130.767 111.984C130.441 112.899 130.762 113.859 131.482 114.13C132.204 114.402 133.05 113.88 133.374 112.967C133.7 112.052 133.378 111.092 132.659 110.821C131.939 110.55 131.091 111.071 130.767 111.984Z" fill="white"/>
<path opacity="0.89" fill-rule="evenodd" clip-rule="evenodd" d="M130.73 111.552C130.406 112.467 130.727 113.427 131.447 113.698C132.166 113.969 133.014 113.448 133.338 112.534C133.662 111.62 133.343 110.66 132.624 110.389C131.902 110.117 131.056 110.639 130.73 111.552Z" fill="black"/>
<path fill-rule="evenodd" clip-rule="evenodd" d="M115.471 117.143C115.434 117.143 115.362 117.143 115.325 117.143C114.747 117.068 114.349 116.503 114.42 115.864C114.492 115.262 116.557 101.196 125.036 97.9995C127.172 97.2097 128.984 97.36 130.362 98.5261C132.028 99.9177 132.933 102.701 133.079 106.763C133.188 109.621 132.862 112.103 132.862 112.216C132.79 112.818 132.246 113.269 131.665 113.156C131.086 113.081 130.651 112.517 130.76 111.915C131.086 109.358 131.447 102.325 129.022 100.294C128.26 99.6544 127.209 99.5791 125.797 100.106C118.515 102.851 116.594 116.052 116.594 116.165C116.448 116.729 116.015 117.143 115.471 117.143Z" fill="#595961"/>
<path opacity="0.46" fill-rule="evenodd" clip-rule="evenodd" d="M129.926 98.601C128.657 97.548 126.991 97.3977 124.998 98.1123C121.556 99.4285 118.658 102.888 116.665 108.116C115.181 111.99 114.672 115.488 114.672 115.638C114.637 115.826 114.709 116.014 114.818 116.165C114.927 116.315 115.072 116.428 115.253 116.428C115.288 116.428 115.325 116.428 115.362 116.428C115.688 116.428 115.977 116.165 116.014 115.826C116.049 115.676 117.97 102.249 125.47 99.4285C126.991 98.8643 128.222 98.9396 129.093 99.6918C131.664 101.836 131.303 109.094 130.977 111.689C130.94 112.065 131.194 112.441 131.555 112.479C131.919 112.517 132.28 112.253 132.317 111.877C132.354 111.463 133.623 101.685 129.926 98.601Z" fill="#B2B2C2"/>
<path opacity="0.81" fill-rule="evenodd" clip-rule="evenodd" d="M115.326 116.014C115.289 116.014 115.289 116.014 115.254 116.014C115.036 115.977 114.891 115.751 114.928 115.526C114.965 115.375 115.435 111.953 116.921 108.079C118.914 102.926 121.74 99.5037 125.108 98.2249C127.029 97.5103 128.587 97.6609 129.781 98.6388C133.332 101.61 132.101 111.238 132.029 111.652C131.992 111.877 131.811 112.028 131.557 111.99C131.341 111.953 131.196 111.765 131.196 111.501C131.196 111.388 132.427 101.948 129.24 99.2404C128.298 98.5258 126.992 98.4508 125.4 99.0524C117.754 101.948 115.761 115.526 115.761 115.676C115.724 115.864 115.543 116.014 115.326 116.014Z" fill="#B2B2C2"/>
<path opacity="0.42" fill-rule="evenodd" clip-rule="evenodd" d="M120.107 105.258C120.505 104.694 120.869 104.129 121.23 103.528C121.087 103.716 120.036 105.672 117.862 105.371C117.825 105.371 119.094 105.784 120.107 105.258Z" fill="#595961"/>
<path opacity="0.42" fill-rule="evenodd" clip-rule="evenodd" d="M118.876 107.664C119.202 107.062 119.528 106.423 119.781 105.822C119.672 106.047 118.947 108.078 116.665 108.078C116.665 108.078 117.934 108.341 118.876 107.664Z" fill="#595961"/>
<path opacity="0.42" fill-rule="evenodd" clip-rule="evenodd" d="M117.935 110.147C118.224 109.508 118.442 108.869 118.66 108.229C118.551 108.455 118.153 110.523 115.762 110.787C115.762 110.749 117.065 110.9 117.935 110.147Z" fill="#595961"/>
<path opacity="0.62" fill-rule="evenodd" clip-rule="evenodd" d="M132.426 102.813C132.246 102.136 132.065 101.497 131.81 100.82C131.882 101.045 132.607 103.189 131.123 104.731C131.123 104.731 132.209 103.979 132.426 102.813Z" fill="#595961"/>
<path opacity="0.62" fill-rule="evenodd" clip-rule="evenodd" d="M131.015 99.4282C130.509 98.9393 129.999 98.488 129.492 98.0743C129.675 98.2623 131.376 99.6539 130.907 101.76C130.87 101.76 131.414 100.519 131.015 99.4282Z" fill="#595961"/>
<path opacity="0.62" fill-rule="evenodd" clip-rule="evenodd" d="M132.789 106.273C132.752 105.596 132.643 104.882 132.535 104.205C132.535 104.468 132.898 106.687 131.157 107.891C131.157 107.891 132.354 107.364 132.789 106.273Z" fill="#595961"/>
<path opacity="0.62" fill-rule="evenodd" clip-rule="evenodd" d="M132.97 109.809C133.007 109.132 133.007 108.417 132.97 107.74C132.97 108.004 133.007 110.223 131.157 111.238C131.157 111.201 132.426 110.824 132.97 109.809Z" fill="#595961"/>
<path opacity="0.42" fill-rule="evenodd" clip-rule="evenodd" d="M117.102 112.892C117.319 112.216 117.465 111.539 117.609 110.899C117.537 111.125 117.211 113.268 115 113.795C115.037 113.795 116.34 113.757 117.102 112.892Z" fill="#595961"/>
<path opacity="0.42" fill-rule="evenodd" clip-rule="evenodd" d="M121.485 103.189C121.992 102.737 122.465 102.248 122.9 101.722C122.717 101.872 121.268 103.414 119.24 102.85C119.275 102.85 120.398 103.527 121.485 103.189Z" fill="#595961"/>
<path opacity="0.42" fill-rule="evenodd" clip-rule="evenodd" d="M123.115 101.459C123.696 101.083 124.24 100.707 124.782 100.294C124.566 100.407 122.9 101.647 120.979 100.745C120.979 100.745 121.992 101.61 123.115 101.459Z" fill="#595961"/>
<path opacity="0.62" fill-rule="evenodd" clip-rule="evenodd" d="M125.326 100.218C125.979 100.03 126.595 99.8046 127.211 99.5789C126.993 99.6542 125.037 100.331 123.442 98.902C123.442 98.902 124.204 100.03 125.326 100.218Z" fill="#595961"/>
<path opacity="0.62" fill-rule="evenodd" clip-rule="evenodd" d="M127.173 99.5416C127.682 99.6169 128.189 99.6545 128.696 99.6922C128.515 99.6545 126.957 99.5416 126.268 98.0371C126.305 98.0371 126.485 99.0526 127.173 99.5416Z" fill="#595961"/>
<path opacity="0.62" fill-rule="evenodd" clip-rule="evenodd" d="M129.131 100.368C129.458 100.782 129.782 101.196 130.108 101.572C129.999 101.421 128.985 100.18 129.492 98.6383C129.529 98.6383 128.985 99.5035 129.131 100.368Z" fill="#595961"/>
<path fill-rule="evenodd" clip-rule="evenodd" d="M131.63 111.463C131.664 111.05 132.898 101.535 129.456 98.6386C128.804 98.0746 128.007 97.8113 127.137 97.8113C126.484 97.8113 125.76 97.9616 124.998 98.2626C121.665 99.5037 118.876 102.851 116.92 107.966C115.434 111.802 114.964 115.225 114.927 115.375C114.927 115.488 114.999 115.601 115.107 115.601H115.144C115.253 115.601 115.325 115.525 115.325 115.413C115.362 115.262 117.318 101.535 125.107 98.6009C126.773 97.9616 128.188 98.0746 129.202 98.9395C132.498 101.685 131.266 111.275 131.232 111.388C131.232 111.501 131.304 111.614 131.412 111.614C131.412 111.614 131.412 111.614 131.447 111.614C131.556 111.652 131.63 111.576 131.63 111.463Z" fill="url(#paint22_linear_6908_67706)"/>
<path fill-rule="evenodd" clip-rule="evenodd" d="M133.08 106.762C132.935 102.7 132.03 99.9547 130.363 98.5256C129.458 97.7736 128.37 97.435 127.139 97.5103C128.081 97.5853 128.949 97.9239 129.676 98.5256C131.342 99.9173 132.247 102.7 132.391 106.762C132.499 109.621 132.176 112.103 132.176 112.216C132.101 112.667 131.812 113.005 131.449 113.118C131.523 113.156 131.557 113.156 131.631 113.156C132.21 113.231 132.754 112.817 132.826 112.216C132.863 112.103 133.189 109.658 133.08 106.762Z" fill="url(#paint23_linear_6908_67706)"/>
<path fill-rule="evenodd" clip-rule="evenodd" d="M125.074 100.105C117.792 102.851 115.871 116.052 115.871 116.202C115.799 116.653 115.507 116.992 115.146 117.105C115.218 117.142 115.255 117.142 115.327 117.142C115.364 117.142 115.436 117.142 115.473 117.142C116.017 117.142 116.45 116.729 116.524 116.202C116.558 116.052 118.443 102.888 125.725 100.143C126.234 99.9547 126.667 99.842 127.067 99.8044C126.523 99.7291 125.833 99.842 125.074 100.105Z" fill="url(#paint24_linear_6908_67706)"/>
<path d="M100.732 181.144C100.732 181.568 100.632 181.968 100.432 182.344C100.232 182.72 99.912 183.028 99.472 183.268C99.032 183.5 98.468 183.616 97.78 183.616H96.268V187H94.9V178.66H97.78C98.42 178.66 98.96 178.772 99.4 178.996C99.848 179.212 100.18 179.508 100.396 179.884C100.62 180.26 100.732 180.68 100.732 181.144ZM97.78 182.5C98.3 182.5 98.688 182.384 98.944 182.152C99.2 181.912 99.328 181.576 99.328 181.144C99.328 180.232 98.812 179.776 97.78 179.776H96.268V182.5H97.78ZM103.405 178.12V187H102.037V178.12H103.405ZM104.745 183.664C104.745 183 104.881 182.412 105.153 181.9C105.433 181.388 105.809 180.992 106.281 180.712C106.761 180.424 107.289 180.28 107.865 180.28C108.385 180.28 108.837 180.384 109.221 180.592C109.613 180.792 109.925 181.044 110.157 181.348V180.388H111.537V187H110.157V186.016C109.925 186.328 109.609 186.588 109.209 186.796C108.809 187.004 108.353 187.108 107.841 187.108C107.273 187.108 106.753 186.964 106.281 186.676C105.809 186.38 105.433 185.972 105.153 185.452C104.881 184.924 104.745 184.328 104.745 183.664ZM110.157 183.688C110.157 183.232 110.061 182.836 109.869 182.5C109.685 182.164 109.441 181.908 109.137 181.732C108.833 181.556 108.505 181.468 108.153 181.468C107.801 181.468 107.473 181.556 107.169 181.732C106.865 181.9 106.617 182.152 106.425 182.488C106.241 182.816 106.149 183.208 106.149 183.664C106.149 184.12 106.241 184.52 106.425 184.864C106.617 185.208 106.865 185.472 107.169 185.656C107.481 185.832 107.809 185.92 108.153 185.92C108.505 185.92 108.833 185.832 109.137 185.656C109.441 185.48 109.685 185.224 109.869 184.888C110.061 184.544 110.157 184.144 110.157 183.688ZM112.878 183.688C112.878 183.008 113.014 182.412 113.286 181.9C113.566 181.38 113.95 180.98 114.438 180.7C114.926 180.42 115.486 180.28 116.118 180.28C116.918 180.28 117.578 180.472 118.098 180.856C118.626 181.232 118.982 181.772 119.166 182.476H117.69C117.57 182.148 117.378 181.892 117.114 181.708C116.85 181.524 116.518 181.432 116.118 181.432C115.558 181.432 115.11 181.632 114.774 182.032C114.446 182.424 114.282 182.976 114.282 183.688C114.282 184.4 114.446 184.956 114.774 185.356C115.11 185.756 115.558 185.956 116.118 185.956C116.91 185.956 117.434 185.608 117.69 184.912H119.166C118.974 185.584 118.614 186.12 118.086 186.52C117.558 186.912 116.902 187.108 116.118 187.108C115.486 187.108 114.926 186.968 114.438 186.688C113.95 186.4 113.566 186 113.286 185.488C113.014 184.968 112.878 184.368 112.878 183.688ZM126.589 183.532C126.589 183.78 126.573 184.004 126.541 184.204H121.489C121.529 184.732 121.725 185.156 122.077 185.476C122.429 185.796 122.861 185.956 123.373 185.956C124.109 185.956 124.629 185.648 124.933 185.032H126.409C126.209 185.64 125.845 186.14 125.317 186.532C124.797 186.916 124.149 187.108 123.373 187.108C122.741 187.108 122.173 186.968 121.669 186.688C121.173 186.4 120.781 186 120.493 185.488C120.213 184.968 120.073 184.368 120.073 183.688C120.073 183.008 120.209 182.412 120.481 181.9C120.761 181.38 121.149 180.98 121.645 180.7C122.149 180.42 122.725 180.28 123.373 180.28C123.997 180.28 124.553 180.416 125.041 180.688C125.529 180.96 125.909 181.344 126.181 181.84C126.453 182.328 126.589 182.892 126.589 183.532ZM125.161 183.1C125.153 182.596 124.973 182.192 124.621 181.888C124.269 181.584 123.833 181.432 123.313 181.432C122.841 181.432 122.437 181.584 122.101 181.888C121.765 182.184 121.565 182.588 121.501 183.1H125.161ZM131.355 180.28C131.859 180.28 132.307 180.388 132.699 180.604C133.099 180.82 133.411 181.14 133.635 181.564C133.867 181.988 133.983 182.5 133.983 183.1V187H132.627V183.304C132.627 182.712 132.479 182.26 132.183 181.948C131.887 181.628 131.483 181.468 130.971 181.468C130.459 181.468 130.051 181.628 129.747 181.948C129.451 182.26 129.303 182.712 129.303 183.304V187H127.935V178.12H129.303V181.156C129.535 180.876 129.827 180.66 130.179 180.508C130.539 180.356 130.931 180.28 131.355 180.28ZM138.596 187.108C137.972 187.108 137.408 186.968 136.904 186.688C136.4 186.4 136.004 186 135.716 185.488C135.428 184.968 135.284 184.368 135.284 183.688C135.284 183.016 135.432 182.42 135.728 181.9C136.024 181.38 136.428 180.98 136.94 180.7C137.452 180.42 138.024 180.28 138.656 180.28C139.288 180.28 139.86 180.42 140.372 180.7C140.884 180.98 141.288 181.38 141.584 181.9C141.88 182.42 142.028 183.016 142.028 183.688C142.028 184.36 141.876 184.956 141.572 185.476C141.268 185.996 140.852 186.4 140.324 186.688C139.804 186.968 139.228 187.108 138.596 187.108ZM138.596 185.92C138.948 185.92 139.276 185.836 139.58 185.668C139.892 185.5 140.144 185.248 140.336 184.912C140.528 184.576 140.624 184.168 140.624 183.688C140.624 183.208 140.532 182.804 140.348 182.476C140.164 182.14 139.92 181.888 139.616 181.72C139.312 181.552 138.984 181.468 138.632 181.468C138.28 181.468 137.952 181.552 137.648 181.72C137.352 181.888 137.116 182.14 136.94 182.476C136.764 182.804 136.676 183.208 136.676 183.688C136.676 184.4 136.856 184.952 137.216 185.344C137.584 185.728 138.044 185.92 138.596 185.92ZM144.748 178.12V187H143.38V178.12H144.748ZM146.089 183.664C146.089 183 146.225 182.412 146.497 181.9C146.777 181.388 147.153 180.992 147.625 180.712C148.105 180.424 148.637 180.28 149.221 180.28C149.653 180.28 150.077 180.376 150.493 180.568C150.917 180.752 151.253 181 151.501 181.312V178.12H152.881V187H151.501V186.004C151.277 186.324 150.965 186.588 150.565 186.796C150.173 187.004 149.721 187.108 149.209 187.108C148.633 187.108 148.105 186.964 147.625 186.676C147.153 186.38 146.777 185.972 146.497 185.452C146.225 184.924 146.089 184.328 146.089 183.664ZM151.501 183.688C151.501 183.232 151.405 182.836 151.213 182.5C151.029 182.164 150.785 181.908 150.481 181.732C150.177 181.556 149.849 181.468 149.497 181.468C149.145 181.468 148.817 181.556 148.513 181.732C148.209 181.9 147.961 182.152 147.769 182.488C147.585 182.816 147.493 183.208 147.493 183.664C147.493 184.12 147.585 184.52 147.769 184.864C147.961 185.208 148.209 185.472 148.513 185.656C148.825 185.832 149.153 185.92 149.497 185.92C149.849 185.92 150.177 185.832 150.481 185.656C150.785 185.48 151.029 185.224 151.213 184.888C151.405 184.544 151.501 184.144 151.501 183.688ZM160.737 183.532C160.737 183.78 160.721 184.004 160.689 184.204H155.637C155.677 184.732 155.873 185.156 156.225 185.476C156.577 185.796 157.009 185.956 157.521 185.956C158.257 185.956 158.777 185.648 159.081 185.032H160.557C160.357 185.64 159.993 186.14 159.465 186.532C158.945 186.916 158.297 187.108 157.521 187.108C156.889 187.108 156.321 186.968 155.817 186.688C155.321 186.4 154.929 186 154.641 185.488C154.361 184.968 154.221 184.368 154.221 183.688C154.221 183.008 154.357 182.412 154.629 181.9C154.909 181.38 155.297 180.98 155.793 180.7C156.297 180.42 156.873 180.28 157.521 180.28C158.145 180.28 158.701 180.416 159.189 180.688C159.677 180.96 160.057 181.344 160.329 181.84C160.601 182.328 160.737 182.892 160.737 183.532ZM159.309 183.1C159.301 182.596 159.121 182.192 158.769 181.888C158.417 181.584 157.981 181.432 157.461 181.432C156.989 181.432 156.585 181.584 156.249 181.888C155.913 182.184 155.713 182.588 155.649 183.1H159.309ZM163.452 181.348C163.652 181.012 163.916 180.752 164.244 180.568C164.58 180.376 164.976 180.28 165.432 180.28V181.696H165.084C164.548 181.696 164.14 181.832 163.86 182.104C163.588 182.376 163.452 182.848 163.452 183.52V187H162.084V180.388H163.452V181.348Z" fill="#475467"/>
<defs>
<linearGradient id="paint0_linear_6908_67706" x1="124.028" y1="99.8517" x2="122.891" y2="115.322" gradientUnits="userSpaceOnUse">
<stop stop-color="white" stop-opacity="0.65"/>
<stop offset="1" stop-color="white" stop-opacity="0.01"/>
</linearGradient>
<linearGradient id="paint1_linear_6908_67706" x1="132.331" y1="108.707" x2="140.331" y2="115.714" gradientUnits="userSpaceOnUse">
<stop stop-opacity="0.01"/>
<stop offset="1" stop-opacity="0.4"/>
</linearGradient>
<linearGradient id="paint2_linear_6908_67706" x1="129.123" y1="116.813" x2="137.591" y2="108.926" gradientUnits="userSpaceOnUse">
<stop stop-opacity="0.01"/>
<stop offset="1" stop-opacity="0.4"/>
</linearGradient>
<linearGradient id="paint3_linear_6908_67706" x1="118.345" y1="93.796" x2="85.4555" y2="131.692" gradientUnits="userSpaceOnUse">
<stop stop-color="#B8D26E"/>
<stop offset="1" stop-color="#7FB525"/>
</linearGradient>
<linearGradient id="paint4_linear_6908_67706" x1="163.336" y1="103.284" x2="145.286" y2="103.619" gradientUnits="userSpaceOnUse">
<stop stop-color="#B4E034"/>
<stop offset="1" stop-color="#60A927"/>
</linearGradient>
<linearGradient id="paint5_linear_6908_67706" x1="109.647" y1="128.553" x2="94.8477" y2="164.591" gradientUnits="userSpaceOnUse">
<stop stop-color="white"/>
<stop offset="1" stop-color="#CECEEB"/>
</linearGradient>
<linearGradient id="paint6_linear_6908_67706" x1="130.865" y1="217.304" x2="154.304" y2="217.257" gradientUnits="userSpaceOnUse">
<stop stop-color="#1D1D1B" stop-opacity="0.5"/>
<stop offset="0.038033" stop-color="#1D1D1B" stop-opacity="0.4837"/>
<stop offset="0.4243" stop-color="#1D1D1B" stop-opacity="0.3185"/>
<stop offset="1" stop-color="#1D1D1B" stop-opacity="0.01"/>
</linearGradient>
<linearGradient id="paint7_linear_6908_67706" x1="133.585" y1="104.502" x2="129.697" y2="106.594" gradientUnits="userSpaceOnUse">
<stop stop-opacity="0.01"/>
<stop offset="1" stop-opacity="0.4"/>
</linearGradient>
<linearGradient id="paint8_linear_6908_67706" x1="117.284" y1="110.708" x2="114.551" y2="113.058" gradientUnits="userSpaceOnUse">
<stop stop-opacity="0.01"/>
<stop offset="1" stop-opacity="0.4"/>
</linearGradient>
<linearGradient id="paint9_linear_6908_67706" x1="143.948" y1="158.165" x2="144.225" y2="161.813" gradientUnits="userSpaceOnUse">
<stop stop-opacity="0.01"/>
<stop offset="1" stop-opacity="0.4"/>
</linearGradient>
<linearGradient id="paint10_linear_6908_67706" x1="137.487" y1="152.824" x2="138.129" y2="162.309" gradientUnits="userSpaceOnUse">
<stop stop-color="white" stop-opacity="0.5"/>
<stop offset="0.0896271" stop-color="white" stop-opacity="0.4552"/>
<stop offset="1" stop-color="white" stop-opacity="0.01"/>
</linearGradient>
<linearGradient id="paint11_linear_6908_67706" x1="136.253" y1="154.3" x2="137.395" y2="164.431" gradientUnits="userSpaceOnUse">
<stop stop-opacity="0.01"/>
<stop offset="1" stop-opacity="0.4"/>
</linearGradient>
<linearGradient id="paint12_linear_6908_67706" x1="131.775" y1="96.0097" x2="102.505" y2="112.938" gradientUnits="userSpaceOnUse">
<stop stop-color="white" stop-opacity="0.5"/>
<stop offset="1" stop-color="white" stop-opacity="0.01"/>
</linearGradient>
<linearGradient id="paint13_linear_6908_67706" x1="137.421" y1="184.484" x2="163.255" y2="184.536" gradientUnits="userSpaceOnUse">
<stop stop-color="#1D1D1B" stop-opacity="0.5"/>
<stop offset="0.0896271" stop-color="#1D1D1B" stop-opacity="0.4552"/>
<stop offset="1" stop-color="#1D1D1B" stop-opacity="0.01"/>
</linearGradient>
<linearGradient id="paint14_linear_6908_67706" x1="155.923" y1="107.933" x2="152.253" y2="108.832" gradientUnits="userSpaceOnUse">
<stop stop-color="white" stop-opacity="0.4"/>
<stop offset="1" stop-color="white" stop-opacity="0.01"/>
</linearGradient>
<linearGradient id="paint15_linear_6908_67706" x1="122.996" y1="162.88" x2="124.904" y2="153.68" gradientUnits="userSpaceOnUse">
<stop stop-color="#1D1D1B" stop-opacity="0.5"/>
<stop offset="0.0896271" stop-color="#1D1D1B" stop-opacity="0.4552"/>
<stop offset="1" stop-color="#1D1D1B" stop-opacity="0.01"/>
</linearGradient>
<linearGradient id="paint16_linear_6908_67706" x1="134.03" y1="216.133" x2="157.553" y2="216.153" gradientUnits="userSpaceOnUse">
<stop stop-color="#1D1D1B" stop-opacity="0.5"/>
<stop offset="1" stop-color="#1D1D1B" stop-opacity="0.01"/>
</linearGradient>
<linearGradient id="paint17_linear_6908_67706" x1="112.533" y1="102.019" x2="101.125" y2="145.85" gradientUnits="userSpaceOnUse">
<stop stop-color="white" stop-opacity="0.5"/>
<stop offset="1" stop-color="white" stop-opacity="0.01"/>
</linearGradient>
<linearGradient id="paint18_linear_6908_67706" x1="112.533" y1="102.019" x2="101.125" y2="145.85" gradientUnits="userSpaceOnUse">
<stop stop-color="white" stop-opacity="0.5"/>
<stop offset="1" stop-color="white" stop-opacity="0.01"/>
</linearGradient>
<linearGradient id="paint19_linear_6908_67706" x1="140.221" y1="147.965" x2="131.204" y2="160.377" gradientUnits="userSpaceOnUse">
<stop stop-color="white" stop-opacity="0.5"/>
<stop offset="0.0896271" stop-color="white" stop-opacity="0.4552"/>
<stop offset="1" stop-color="white" stop-opacity="0.01"/>
</linearGradient>
<linearGradient id="paint20_linear_6908_67706" x1="142.942" y1="150.819" x2="142.049" y2="152.82" gradientUnits="userSpaceOnUse">
<stop stop-opacity="0.01"/>
<stop offset="1" stop-opacity="0.4"/>
</linearGradient>
<linearGradient id="paint21_linear_6908_67706" x1="151.796" y1="153.465" x2="151.752" y2="154.003" gradientUnits="userSpaceOnUse">
<stop stop-opacity="0.01"/>
<stop offset="1" stop-opacity="0.4"/>
</linearGradient>
<linearGradient id="paint22_linear_6908_67706" x1="119.323" y1="96.5453" x2="115.425" y2="111.945" gradientUnits="userSpaceOnUse">
<stop stop-color="white" stop-opacity="0.65"/>
<stop offset="1" stop-color="white" stop-opacity="0.01"/>
</linearGradient>
<linearGradient id="paint23_linear_6908_67706" x1="128.049" y1="105.429" x2="134.83" y2="112.323" gradientUnits="userSpaceOnUse">
<stop stop-opacity="0.01"/>
<stop offset="1" stop-opacity="0.4"/>
</linearGradient>
<linearGradient id="paint24_linear_6908_67706" x1="123.714" y1="115.581" x2="133.084" y2="105.959" gradientUnits="userSpaceOnUse">
<stop stop-opacity="0.01"/>
<stop offset="1" stop-opacity="0.4"/>
</linearGradient>
</defs>
</svg>