<svg width="266" height="151" viewBox="0 0 266 151" fill="none" xmlns="http://www.w3.org/2000/svg">
<rect x="0.5" y="0.5" width="265" height="149.5" fill="white"/>
<g clip-path="url(#clip0_3537_268723)">
<rect x="5" y="20" width="80" height="45" fill="white"/>
<rect x="5" y="20.375" width="80" height="6" fill="#F9F5FF"/>
<rect x="37.3225" y="22.625" width="15.0147" height="1.5" fill="#F4EBFF"/>
<rect x="8.2334" y="23" width="4.0404" height="0.75" fill="#F4EBFF"/>
<rect x="13.4836" y="23" width="4.0404" height="0.75" fill="#F4EBFF"/>
<rect x="18.7375" y="23" width="4.0404" height="0.75" fill="#F4EBFF"/>
<rect x="77.7273" y="22.25" width="5.00489" height="2.25" fill="#F4EBFF"/>
<rect x="5" y="27.5879" width="80" height="24.2424" fill="#F9F5FF"/>
<rect x="5" y="53.041" width="80" height="21.75" fill="#F9F5FF"/>
<rect x="6.51709" y="55.4648" width="18" height="12.375" fill="#F4EBFF"/>
<rect x="26.1177" y="55.4648" width="18" height="12.375" fill="#F4EBFF"/>
<rect x="45.718" y="55.4648" width="18" height="12.375" fill="#F4EBFF"/>
<rect x="65.3169" y="55.4648" width="18" height="12.375" fill="#F4EBFF"/>
</g>
<rect x="5.15152" y="20.1515" width="79.697" height="44.697" stroke="#E9D7FE" stroke-width="0.30303"/>
<g clip-path="url(#clip1_3537_268723)">
<rect x="93" y="19.75" width="80" height="45" fill="white"/>
<rect x="92.8485" y="19.5985" width="80.303" height="45.303" fill="#F9F5FF"/>
<rect x="92.8485" y="19.5985" width="80.303" height="45.303" stroke="#E9D7FE" stroke-width="0.30303"/>
<rect width="75.0489" height="40.0592" transform="translate(95.4756 22.1152)" fill="#F9F5FF"/>
<rect width="41.4125" height="40.0592" transform="translate(95.4756 22.1152)" fill="#F4EBFF"/>
<rect x="97.6409" y="25.3633" width="4.60139" height="2.16536" rx="0.392472" fill="#E9D7FE"/>
<rect x="97.6409" y="29.6934" width="5.4134" height="1.08268" rx="0.27067" fill="#E9D7FE"/>
<rect x="97.6409" y="31.3164" width="37.0818" height="2.7067" rx="0.27067" fill="#E9D7FE"/>
<rect x="97.6409" y="35.6484" width="5.4134" height="1.08268" rx="0.27067" fill="#E9D7FE"/>
<rect x="97.6409" y="37.2734" width="37.0818" height="2.7067" rx="0.27067" fill="#E9D7FE"/>
<rect x="97.6409" y="41.0625" width="37.0818" height="2.7067" rx="0.27067" fill="#E9D7FE"/>
<rect x="97.6409" y="44.8516" width="17.9996" height="2.7067" rx="0.27067" fill="#E9D7FE"/>
<rect x="116.723" y="44.8516" width="17.9996" height="2.7067" rx="0.27067" fill="#E9D7FE"/>
<rect x="97.6409" y="48.6406" width="37.0818" height="2.7067" rx="0.27067" fill="#E9D7FE"/>
<rect x="97.6409" y="52.4316" width="11.6388" height="2.7067" rx="0.27067" fill="#E9D7FE"/>
<rect x="110.362" y="52.4316" width="11.6388" height="2.7067" rx="0.27067" fill="#E9D7FE"/>
<rect x="123.084" y="52.4316" width="11.6388" height="2.7067" rx="0.27067" fill="#E9D7FE"/>
<rect x="97.6409" y="56.2207" width="37.0818" height="2.7067" rx="0.27067" fill="#E9D7FE"/>
<rect x="139.312" y="22.1152" width="9.69697" height="9.69697" rx="0.30303" fill="#F4EBFF"/>
<rect x="149.918" y="22.1152" width="14.8485" height="1.21212" rx="0.30303" fill="#F4EBFF"/>
<rect x="149.918" y="23.9336" width="6.06061" height="1.21212" rx="0.30303" fill="#F4EBFF"/>
<rect x="139.312" y="33.0234" width="25.4545" height="3.0303" rx="0.30303" fill="#F4EBFF"/>
<rect x="165.979" y="33.0234" width="4.54545" height="3.0303" rx="0.30303" fill="#F4EBFF"/>
<rect x="139.312" y="37.2676" width="18.1818" height="1.21212" rx="0.30303" fill="#F4EBFF"/>
<rect x="158.706" y="37.2676" width="11.8182" height="1.21212" rx="0.30303" fill="#F4EBFF"/>
<rect x="139.312" y="39.6914" width="18.1818" height="1.21212" rx="0.30303" fill="#F4EBFF"/>
<rect x="158.706" y="39.6914" width="11.8182" height="1.21212" rx="0.30303" fill="#F4EBFF"/>
<rect x="139.312" y="42.1152" width="18.1818" height="1.21212" rx="0.30303" fill="#F4EBFF"/>
<rect x="158.706" y="42.1152" width="11.8182" height="1.21212" rx="0.30303" fill="#F4EBFF"/>
</g>
<rect x="92.8485" y="19.5985" width="80.303" height="45.303" stroke="#E9D7FE" stroke-width="0.30303"/>
<g clip-path="url(#clip2_3537_268723)">
<rect x="181" y="19.75" width="80" height="45" fill="white"/>
<rect x="181" y="20.0527" width="80" height="45" fill="#F9F5FF"/>
<rect width="20" height="1.75372" transform="translate(184.333 22.1738)" fill="#F4EBFF"/>
<rect x="184.333" y="22.4453" width="20" height="1.21212" rx="0.439394" fill="#F4EBFF"/>
<rect x="184.333" y="25.2422" width="17.2" height="17.5372" fill="#F4EBFF"/>
<rect x="203.133" y="25.2422" width="17.2" height="17.5372" fill="#F4EBFF"/>
<rect x="221.933" y="25.2422" width="17.2" height="17.5372" fill="#F4EBFF"/>
<rect x="240.733" y="25.2422" width="17.2" height="17.5372" fill="#F4EBFF"/>
<rect x="184.333" y="45.2383" width="17.2" height="17.6815" fill="#F4EBFF"/>
<rect x="203.133" y="45.2383" width="17.2" height="17.6815" fill="#F4EBFF"/>
<rect x="221.933" y="45.2031" width="17.2" height="17.6815" fill="#F4EBFF"/>
<rect x="240.733" y="45.2383" width="17.2" height="17.6815" fill="#F4EBFF"/>
</g>
<rect x="180.848" y="19.5985" width="80.303" height="45.303" stroke="#E9D7FE" stroke-width="0.30303"/>
<rect x="4.84848" y="85.5985" width="80.303" height="45.303" fill="#F9F5FF"/>
<rect x="8.03027" y="88.7812" width="28.7879" height="1.21212" rx="0.439394" fill="#F4EBFF"/>
<rect x="8.03027" y="90.5996" width="9.09091" height="1.21212" rx="0.439394" fill="#F4EBFF"/>
<rect x="8.03027" y="95.4473" width="41.5152" height="7.27273" rx="0.439394" fill="#F4EBFF"/>
<rect x="9.24243" y="96.6582" width="4.84848" height="4.84848" rx="0.30303" fill="#E9D7FE"/>
<rect x="31.3635" y="98.4766" width="1.21212" height="1.21212" rx="0.30303" fill="#E9D7FE"/>
<rect x="33.1816" y="97.8711" width="2.42424" height="2.42424" rx="0.30303" fill="#E9D7FE"/>
<rect x="36.2119" y="98.4766" width="1.21212" height="1.21212" rx="0.30303" fill="#E9D7FE"/>
<rect x="14.697" y="96.6582" width="8.48485" height="0.909091" rx="0.30303" fill="#E9D7FE"/>
<rect x="38.6365" y="98.1738" width="9.69697" height="1.81818" rx="0.30303" fill="#E9D7FE"/>
<rect x="14.697" y="98.1738" width="4.84848" height="0.909091" rx="0.30303" fill="#E9D7FE"/>
<rect x="8.03027" y="103.932" width="41.5152" height="7.27273" rx="0.439394" fill="#F4EBFF"/>
<rect x="9.24243" y="105.145" width="4.84848" height="4.84848" rx="0.30303" fill="#E9D7FE"/>
<rect x="31.3635" y="106.961" width="1.21212" height="1.21212" rx="0.30303" fill="#E9D7FE"/>
<rect x="33.1816" y="106.355" width="2.42424" height="2.42424" rx="0.30303" fill="#E9D7FE"/>
<rect x="36.2119" y="106.961" width="1.21212" height="1.21212" rx="0.30303" fill="#E9D7FE"/>
<rect x="14.697" y="105.145" width="8.48485" height="0.909091" rx="0.30303" fill="#E9D7FE"/>
<rect x="38.6365" y="106.658" width="9.69697" height="1.81818" rx="0.30303" fill="#E9D7FE"/>
<rect x="14.697" y="106.658" width="4.84848" height="0.909091" rx="0.30303" fill="#E9D7FE"/>
<rect x="51.9697" y="95.4473" width="30" height="32.4242" fill="#F4EBFF"/>
<rect x="53.1816" y="96.6582" width="8.48485" height="0.909091" rx="0.30303" fill="#E9D7FE"/>
<rect x="53.1819" y="99.9922" width="7.9798" height="2.72727" rx="0.30303" fill="#E9D7FE"/>
<rect x="62.98" y="99.9922" width="7.9798" height="2.72727" rx="0.30303" fill="#E9D7FE"/>
<rect x="72.7778" y="99.9922" width="7.9798" height="2.72727" rx="0.30303" fill="#E9D7FE"/>
<rect x="53.1816" y="105.145" width="27.5758" height="2.85266" rx="0.30303" fill="#E9D7FE"/>
<rect x="53.1819" y="110.295" width="27.5758" height="3.26555" rx="0.30303" fill="#E9D7FE"/>
<rect x="53.1816" y="116.053" width="13.0303" height="3.11594" rx="0.30303" fill="#E9D7FE"/>
<rect x="53.1819" y="121.811" width="27.5758" height="4.84848" rx="0.30303" fill="#E9D7FE"/>
<rect x="67.4243" y="116.053" width="13.3333" height="3.18841" rx="0.30303" fill="#E9D7FE"/>
<rect x="4.84848" y="85.5985" width="80.303" height="45.303" stroke="#E9D7FE" stroke-width="0.30303"/>
<rect x="92.8485" y="85.5985" width="80.303" height="45.303" fill="#F9F5FF"/>
<rect x="108.758" y="88.1738" width="48.4848" height="4.84848" fill="#F4EBFF"/>
<rect x="108.758" y="95.4473" width="48.4848" height="21.8182" fill="#F4EBFF"/>
<rect x="108.758" y="118.479" width="48.4848" height="0.606061" fill="#F4EBFF"/>
<rect x="108.758" y="119.994" width="48.4848" height="0.606061" fill="#F4EBFF"/>
<rect x="108.758" y="121.51" width="48.4848" height="0.606061" fill="#F4EBFF"/>
<rect x="108.758" y="123.023" width="48.4848" height="0.606061" fill="#F4EBFF"/>
<rect x="108.758" y="124.539" width="48.4848" height="0.606061" fill="#F4EBFF"/>
<rect x="108.758" y="126.055" width="48.4848" height="0.606061" fill="#F4EBFF"/>
<rect x="108.758" y="127.57" width="21.2121" height="0.606061" fill="#F4EBFF"/>
<rect x="92.8485" y="85.5985" width="80.303" height="45.303" stroke="#E9D7FE" stroke-width="0.30303"/>
<g clip-path="url(#clip3_3537_268723)">
<rect x="181" y="85.75" width="80" height="45" fill="white"/>
<rect x="181" y="85.9004" width="80" height="45" fill="#F9F5FF"/>
<rect x="214.939" y="88.4766" width="12.1212" height="2.42424" fill="#F4EBFF"/>
<rect x="193.727" y="94.5371" width="12.1212" height="1.21212" fill="#F4EBFF"/>
<rect x="193.727" y="96.9609" width="54.5455" height="0.606061" fill="#F4EBFF"/>
<rect x="193.727" y="98.4766" width="54.5455" height="0.606061" fill="#F4EBFF"/>
<rect x="193.727" y="99.9922" width="54.5455" height="0.606061" fill="#F4EBFF"/>
<rect x="193.727" y="101.506" width="54.5455" height="0.606061" fill="#F4EBFF"/>
<rect x="193.727" y="103.021" width="21.8182" height="0.606061" fill="#F4EBFF"/>
<rect x="193.727" y="107.264" width="12.1212" height="1.21212" fill="#F4EBFF"/>
<rect x="193.727" y="109.688" width="54.5455" height="0.606061" fill="#F4EBFF"/>
<rect x="193.727" y="111.203" width="54.5455" height="0.606061" fill="#F4EBFF"/>
<rect x="193.727" y="112.719" width="54.5455" height="0.606061" fill="#F4EBFF"/>
<rect x="193.727" y="114.232" width="54.5455" height="0.606061" fill="#F4EBFF"/>
<rect x="193.727" y="115.748" width="54.5455" height="0.606061" fill="#F4EBFF"/>
<rect x="193.727" y="117.264" width="54.5455" height="0.606061" fill="#F4EBFF"/>
<rect x="193.727" y="118.779" width="21.8182" height="0.606061" fill="#F4EBFF"/>
<rect x="193.727" y="123.021" width="12.1212" height="1.21212" fill="#F4EBFF"/>
<rect x="193.727" y="125.445" width="54.5455" height="0.606061" fill="#F4EBFF"/>
<rect x="193.727" y="126.961" width="54.5455" height="0.606061" fill="#F4EBFF"/>
<rect x="193.727" y="128.477" width="54.5455" height="0.606061" fill="#F4EBFF"/>
<rect x="193.727" y="129.99" width="54.5455" height="0.606061" fill="#F4EBFF"/>
</g>
<rect x="180.848" y="85.5985" width="80.303" height="45.303" stroke="#E9D7FE" stroke-width="0.30303"/>
<rect x="0.5" y="0.5" width="265" height="149.5" stroke="#E9D7FE"/>
<defs>
<clipPath id="clip0_3537_268723">
<rect x="5" y="20" width="80" height="45" fill="white"/>
</clipPath>
<clipPath id="clip1_3537_268723">
<rect x="93" y="19.75" width="80" height="45" fill="white"/>
</clipPath>
<clipPath id="clip2_3537_268723">
<rect x="181" y="19.75" width="80" height="45" fill="white"/>
</clipPath>
<clipPath id="clip3_3537_268723">
<rect x="181" y="85.75" width="80" height="45" fill="white"/>
</clipPath>
</defs>
</svg>
