<svg width="266" height="151" viewBox="0 0 266 151" fill="none" xmlns="http://www.w3.org/2000/svg">
<rect x="0.5" y="1" width="265" height="149.5" fill="white"/>
<g clip-path="url(#clip0_3833_210170)">
<rect x="5" y="20.5" width="80" height="45" fill="white"/>
<rect x="5" y="20.875" width="80" height="6" fill="#F9FAFB"/>
<rect x="37.3225" y="23.125" width="15.0147" height="1.5" fill="#F2F4F7"/>
<rect x="8.2334" y="23.5" width="4.0404" height="0.75" fill="#F2F4F7"/>
<rect x="13.4836" y="23.5" width="4.0404" height="0.75" fill="#F2F4F7"/>
<rect x="18.7375" y="23.5" width="4.0404" height="0.75" fill="#F2F4F7"/>
<rect x="77.7273" y="22.75" width="5.00489" height="2.25" fill="#F2F4F7"/>
<rect x="5" y="28.0879" width="80" height="24.2424" fill="#F9FAFB"/>
<rect x="5" y="53.541" width="80" height="21.75" fill="#F9FAFB"/>
<rect x="6.51709" y="55.9648" width="18" height="12.375" fill="#F2F4F7"/>
<rect x="26.1177" y="55.9648" width="18" height="12.375" fill="#F2F4F7"/>
<rect x="45.718" y="55.9648" width="18" height="12.375" fill="#F2F4F7"/>
<rect x="65.3169" y="55.9648" width="18" height="12.375" fill="#F2F4F7"/>
</g>
<rect x="5.15152" y="20.6515" width="79.697" height="44.697" stroke="#EAECF0" stroke-width="0.30303"/>
<g clip-path="url(#clip1_3833_210170)">
<rect x="93" y="20.25" width="80" height="45" fill="white"/>
<rect x="92.8485" y="20.0985" width="80.303" height="45.303" fill="#F9FAFB"/>
<rect x="92.8485" y="20.0985" width="80.303" height="45.303" stroke="#EAECF0" stroke-width="0.30303"/>
<rect width="75.0489" height="40.0592" transform="translate(95.4756 22.6152)" fill="#F9FAFB"/>
<rect width="41.4125" height="40.0592" transform="translate(95.4756 22.6152)" fill="#F2F4F7"/>
<rect x="97.6409" y="25.8633" width="4.60139" height="2.16536" rx="0.392472" fill="#EAECF0"/>
<rect x="97.6409" y="30.1934" width="5.4134" height="1.08268" rx="0.27067" fill="#EAECF0"/>
<rect x="97.6409" y="31.8164" width="37.0818" height="2.7067" rx="0.27067" fill="#EAECF0"/>
<rect x="97.6409" y="36.1484" width="5.4134" height="1.08268" rx="0.27067" fill="#EAECF0"/>
<rect x="97.6409" y="37.7734" width="37.0818" height="2.7067" rx="0.27067" fill="#EAECF0"/>
<rect x="97.6409" y="41.5625" width="37.0818" height="2.7067" rx="0.27067" fill="#EAECF0"/>
<rect x="97.6409" y="45.3516" width="17.9996" height="2.7067" rx="0.27067" fill="#EAECF0"/>
<rect x="116.723" y="45.3516" width="17.9996" height="2.7067" rx="0.27067" fill="#EAECF0"/>
<rect x="97.6409" y="49.1406" width="37.0818" height="2.7067" rx="0.27067" fill="#EAECF0"/>
<rect x="97.6409" y="52.9316" width="11.6388" height="2.7067" rx="0.27067" fill="#EAECF0"/>
<rect x="110.362" y="52.9316" width="11.6388" height="2.7067" rx="0.27067" fill="#EAECF0"/>
<rect x="123.084" y="52.9316" width="11.6388" height="2.7067" rx="0.27067" fill="#EAECF0"/>
<rect x="97.6409" y="56.7207" width="37.0818" height="2.7067" rx="0.27067" fill="#EAECF0"/>
<rect x="139.312" y="22.6152" width="9.69697" height="9.69697" rx="0.30303" fill="#F2F4F7"/>
<rect x="149.918" y="22.6152" width="14.8485" height="1.21212" rx="0.30303" fill="#F2F4F7"/>
<rect x="149.918" y="24.4336" width="6.06061" height="1.21212" rx="0.30303" fill="#F2F4F7"/>
<rect x="139.312" y="33.5234" width="25.4545" height="3.0303" rx="0.30303" fill="#F2F4F7"/>
<rect x="165.979" y="33.5234" width="4.54545" height="3.0303" rx="0.30303" fill="#F2F4F7"/>
<rect x="139.312" y="37.7676" width="18.1818" height="1.21212" rx="0.30303" fill="#F2F4F7"/>
<rect x="158.706" y="37.7676" width="11.8182" height="1.21212" rx="0.30303" fill="#F2F4F7"/>
<rect x="139.312" y="40.1914" width="18.1818" height="1.21212" rx="0.30303" fill="#F2F4F7"/>
<rect x="158.706" y="40.1914" width="11.8182" height="1.21212" rx="0.30303" fill="#F2F4F7"/>
<rect x="139.312" y="42.6152" width="18.1818" height="1.21212" rx="0.30303" fill="#F2F4F7"/>
<rect x="158.706" y="42.6152" width="11.8182" height="1.21212" rx="0.30303" fill="#F2F4F7"/>
</g>
<rect x="92.8485" y="20.0985" width="80.303" height="45.303" stroke="#EAECF0" stroke-width="0.30303"/>
<g clip-path="url(#clip2_3833_210170)">
<rect x="181" y="20.25" width="80" height="45" fill="white"/>
<rect x="181" y="20.5527" width="80" height="45" fill="#F9FAFB"/>
<rect width="20" height="1.75372" transform="translate(184.333 22.6738)" fill="#F2F4F7"/>
<rect x="184.333" y="22.9453" width="20" height="1.21212" rx="0.439394" fill="#F2F4F7"/>
<rect x="184.333" y="25.7422" width="17.2" height="17.5372" fill="#F2F4F7"/>
<rect x="203.133" y="25.7422" width="17.2" height="17.5372" fill="#F2F4F7"/>
<rect x="221.933" y="25.7422" width="17.2" height="17.5372" fill="#F2F4F7"/>
<rect x="240.733" y="25.7422" width="17.2" height="17.5372" fill="#F2F4F7"/>
<rect x="184.333" y="45.7383" width="17.2" height="17.6815" fill="#F2F4F7"/>
<rect x="203.133" y="45.7383" width="17.2" height="17.6815" fill="#F2F4F7"/>
<rect x="221.933" y="45.7031" width="17.2" height="17.6815" fill="#F2F4F7"/>
<rect x="240.733" y="45.7383" width="17.2" height="17.6815" fill="#F2F4F7"/>
</g>
<rect x="180.848" y="20.0985" width="80.303" height="45.303" stroke="#EAECF0" stroke-width="0.30303"/>
<rect x="4.84848" y="86.5985" width="80.303" height="45.303" fill="#F9FAFB"/>
<rect x="8.03027" y="89.7812" width="28.7879" height="1.21212" rx="0.439394" fill="#F2F4F7"/>
<rect x="8.03027" y="91.5996" width="9.09091" height="1.21212" rx="0.439394" fill="#F2F4F7"/>
<rect x="8.03027" y="96.4473" width="41.5152" height="7.27273" rx="0.439394" fill="#F2F4F7"/>
<rect x="9.24243" y="97.6582" width="4.84848" height="4.84848" rx="0.30303" fill="#EAECF0"/>
<rect x="31.3635" y="99.4766" width="1.21212" height="1.21212" rx="0.30303" fill="#EAECF0"/>
<rect x="33.1816" y="98.8711" width="2.42424" height="2.42424" rx="0.30303" fill="#EAECF0"/>
<rect x="36.2119" y="99.4766" width="1.21212" height="1.21212" rx="0.30303" fill="#EAECF0"/>
<rect x="14.697" y="97.6582" width="8.48485" height="0.909091" rx="0.30303" fill="#EAECF0"/>
<rect x="38.6365" y="99.1738" width="9.69697" height="1.81818" rx="0.30303" fill="#EAECF0"/>
<rect x="14.697" y="99.1738" width="4.84848" height="0.909091" rx="0.30303" fill="#EAECF0"/>
<rect x="8.03027" y="104.932" width="41.5152" height="7.27273" rx="0.439394" fill="#F2F4F7"/>
<rect x="9.24243" y="106.145" width="4.84848" height="4.84848" rx="0.30303" fill="#EAECF0"/>
<rect x="31.3635" y="107.961" width="1.21212" height="1.21212" rx="0.30303" fill="#EAECF0"/>
<rect x="33.1816" y="107.355" width="2.42424" height="2.42424" rx="0.30303" fill="#EAECF0"/>
<rect x="36.2119" y="107.961" width="1.21212" height="1.21212" rx="0.30303" fill="#EAECF0"/>
<rect x="14.697" y="106.145" width="8.48485" height="0.909091" rx="0.30303" fill="#EAECF0"/>
<rect x="38.6365" y="107.658" width="9.69697" height="1.81818" rx="0.30303" fill="#EAECF0"/>
<rect x="14.697" y="107.658" width="4.84848" height="0.909091" rx="0.30303" fill="#EAECF0"/>
<rect x="51.9697" y="96.4473" width="30" height="32.4242" fill="#F2F4F7"/>
<rect x="53.1816" y="97.6582" width="8.48485" height="0.909091" rx="0.30303" fill="#EAECF0"/>
<rect x="53.1819" y="100.992" width="7.9798" height="2.72727" rx="0.30303" fill="#EAECF0"/>
<rect x="62.98" y="100.992" width="7.9798" height="2.72727" rx="0.30303" fill="#EAECF0"/>
<rect x="72.7778" y="100.992" width="7.9798" height="2.72727" rx="0.30303" fill="#EAECF0"/>
<rect x="53.1816" y="106.145" width="27.5758" height="2.85266" rx="0.30303" fill="#EAECF0"/>
<rect x="53.1819" y="111.295" width="27.5758" height="3.26555" rx="0.30303" fill="#EAECF0"/>
<rect x="53.1816" y="117.053" width="13.0303" height="3.11594" rx="0.30303" fill="#EAECF0"/>
<rect x="53.1819" y="122.811" width="27.5758" height="4.84848" rx="0.30303" fill="#EAECF0"/>
<rect x="67.4243" y="117.053" width="13.3333" height="3.18841" rx="0.30303" fill="#EAECF0"/>
<rect x="4.84848" y="86.5985" width="80.303" height="45.303" stroke="#EAECF0" stroke-width="0.30303"/>
<rect x="92.8485" y="86.0985" width="80.303" height="45.303" fill="#F9FAFB"/>
<rect x="108.758" y="88.6738" width="48.4848" height="4.84848" fill="#F2F4F7"/>
<rect x="108.758" y="95.9473" width="48.4848" height="21.8182" fill="#F2F4F7"/>
<rect x="108.758" y="118.979" width="48.4848" height="0.606061" fill="#F2F4F7"/>
<rect x="108.758" y="120.494" width="48.4848" height="0.606061" fill="#F2F4F7"/>
<rect x="108.758" y="122.01" width="48.4848" height="0.606061" fill="#F2F4F7"/>
<rect x="108.758" y="123.523" width="48.4848" height="0.606061" fill="#F2F4F7"/>
<rect x="108.758" y="125.039" width="48.4848" height="0.606061" fill="#F2F4F7"/>
<rect x="108.758" y="126.555" width="48.4848" height="0.606061" fill="#F2F4F7"/>
<rect x="108.758" y="128.07" width="21.2121" height="0.606061" fill="#F2F4F7"/>
<rect x="92.8485" y="86.0985" width="80.303" height="45.303" stroke="#EAECF0" stroke-width="0.30303"/>
<g clip-path="url(#clip3_3833_210170)">
<rect x="181" y="85.75" width="80" height="45" fill="white"/>
<rect x="181" y="85.9004" width="80" height="45" fill="#F9FAFB"/>
<rect x="214.939" y="88.3262" width="12.1212" height="2.42424" fill="#F2F4F7"/>
<rect x="193.727" y="94.3867" width="12.1212" height="1.21212" fill="#F2F4F7"/>
<rect x="193.727" y="96.8105" width="54.5455" height="0.606061" fill="#F2F4F7"/>
<rect x="193.727" y="98.3262" width="54.5455" height="0.606061" fill="#F2F4F7"/>
<rect x="193.727" y="99.8418" width="54.5455" height="0.606061" fill="#F2F4F7"/>
<rect x="193.727" y="101.355" width="54.5455" height="0.606061" fill="#F2F4F7"/>
<rect x="193.727" y="102.871" width="21.8182" height="0.606061" fill="#F2F4F7"/>
<rect x="193.727" y="107.113" width="12.1212" height="1.21212" fill="#F2F4F7"/>
<rect x="193.727" y="109.537" width="54.5455" height="0.606061" fill="#F2F4F7"/>
<rect x="193.727" y="111.053" width="54.5455" height="0.606061" fill="#F2F4F7"/>
<rect x="193.727" y="112.568" width="54.5455" height="0.606061" fill="#F2F4F7"/>
<rect x="193.727" y="114.082" width="54.5455" height="0.606061" fill="#F2F4F7"/>
<rect x="193.727" y="115.598" width="54.5455" height="0.606061" fill="#F2F4F7"/>
<rect x="193.727" y="117.113" width="54.5455" height="0.606061" fill="#F2F4F7"/>
<rect x="193.727" y="118.629" width="21.8182" height="0.606061" fill="#F2F4F7"/>
<rect x="193.727" y="122.871" width="12.1212" height="1.21212" fill="#F2F4F7"/>
<rect x="193.727" y="125.295" width="54.5455" height="0.606061" fill="#F2F4F7"/>
<rect x="193.727" y="126.811" width="54.5455" height="0.606061" fill="#F2F4F7"/>
<rect x="193.727" y="128.326" width="54.5455" height="0.606061" fill="#F2F4F7"/>
<rect x="193.727" y="129.84" width="54.5455" height="0.606061" fill="#F2F4F7"/>
</g>
<rect x="180.848" y="85.5985" width="80.303" height="45.303" stroke="#EAECF0" stroke-width="0.30303"/>
<rect x="0.5" y="1" width="265" height="149.5" stroke="#EAECF0"/>
<defs>
<clipPath id="clip0_3833_210170">
<rect x="5" y="20.5" width="80" height="45" fill="white"/>
</clipPath>
<clipPath id="clip1_3833_210170">
<rect x="93" y="20.25" width="80" height="45" fill="white"/>
</clipPath>
<clipPath id="clip2_3833_210170">
<rect x="181" y="20.25" width="80" height="45" fill="white"/>
</clipPath>
<clipPath id="clip3_3833_210170">
<rect x="181" y="85.75" width="80" height="45" fill="white"/>
</clipPath>
</defs>
</svg>
