<svg width="266" height="151" viewBox="0 0 266 151" fill="none" xmlns="http://www.w3.org/2000/svg">
<rect x="0.5" y="0.5" width="265" height="149.5" fill="#F9FAFB"/>
<rect x="0.5" y="0.5" width="265" height="149.5" stroke="#EAECF0"/>
<rect width="136.661" height="132.195" transform="translate(9.16919 8.80469)" fill="#F2F4F7"/>
<rect x="16.3149" y="19.5234" width="15.1846" height="7.14569" rx="1.29516" fill="#EAECF0"/>
<rect x="16.3149" y="33.8145" width="17.8642" height="3.57285" rx="0.893212" fill="#EAECF0"/>
<rect x="16.3149" y="39.1738" width="122.37" height="8.93212" rx="0.893212" fill="#EAECF0"/>
<rect x="16.3149" y="53.4648" width="17.8642" height="3.57285" rx="0.893212" fill="#EAECF0"/>
<rect x="16.3149" y="58.8242" width="122.37" height="8.93212" rx="0.893212" fill="#EAECF0"/>
<rect x="16.3149" y="71.3301" width="122.37" height="8.93212" rx="0.893212" fill="#EAECF0"/>
<rect x="16.3149" y="83.834" width="59.3986" height="8.93212" rx="0.893212" fill="#EAECF0"/>
<rect x="79.2864" y="83.834" width="59.3986" height="8.93212" rx="0.893212" fill="#EAECF0"/>
<rect x="16.3149" y="96.3398" width="122.37" height="8.93212" rx="0.893212" fill="#EAECF0"/>
<rect x="16.3149" y="108.844" width="38.4081" height="8.93212" rx="0.893212" fill="#EAECF0"/>
<rect x="58.2959" y="108.844" width="38.4081" height="8.93212" rx="0.893212" fill="#EAECF0"/>
<rect x="100.277" y="108.844" width="38.4081" height="8.93212" rx="0.893212" fill="#EAECF0"/>
<rect x="16.3149" y="121.35" width="122.37" height="8.93212" rx="0.893212" fill="#EAECF0"/>
<rect x="153.831" y="8.80469" width="32" height="32" rx="1" fill="#F2F4F7"/>
<rect x="188.831" y="8.80469" width="49" height="4" rx="1" fill="#F2F4F7"/>
<rect x="188.831" y="14.8047" width="20" height="4" rx="1" fill="#F2F4F7"/>
<rect x="153.831" y="44.8047" width="84" height="10" rx="1" fill="#F2F4F7"/>
<rect x="241.831" y="44.8047" width="15" height="10" rx="1" fill="#F2F4F7"/>
<rect x="153.831" y="58.8047" width="60" height="4" rx="1" fill="#F2F4F7"/>
<rect x="217.831" y="58.8047" width="39" height="4" rx="1" fill="#F2F4F7"/>
<rect x="153.831" y="66.8047" width="60" height="4" rx="1" fill="#F2F4F7"/>
<rect x="217.831" y="66.8047" width="39" height="4" rx="1" fill="#F2F4F7"/>
<rect x="153.831" y="74.8047" width="60" height="4" rx="1" fill="#F2F4F7"/>
<rect x="217.831" y="74.8047" width="39" height="4" rx="1" fill="#F2F4F7"/>
</svg>
