<svg width="266" height="151" viewBox="0 0 266 151" fill="none" xmlns="http://www.w3.org/2000/svg">
<g clip-path="url(#clip0_2270_204568)">
<rect x="1" y="1" width="264" height="148.5" fill="white"/>
<rect x="1" y="2.23828" width="264" height="19.8" fill="#F9F5FF"/>
<rect x="107.666" y="9.66211" width="49.5484" height="4.95" fill="#F4EBFF"/>
<rect x="11.6672" y="10.9004" width="13.3333" height="2.475" fill="#F4EBFF"/>
<rect x="28.9988" y="10.9004" width="13.3333" height="2.475" fill="#F4EBFF"/>
<rect x="46.3342" y="10.9004" width="13.3333" height="2.475" fill="#F4EBFF"/>
<rect x="241" y="8.42578" width="16.5161" height="7.425" fill="#F4EBFF"/>
<rect x="1" y="26.0391" width="264" height="80" fill="#F9F5FF"/>
<rect x="1" y="110.039" width="264" height="71.775" fill="#F9F5FF"/>
<rect x="6" y="118.039" width="59.4" height="40.8375" fill="#F4EBFF"/>
<rect x="70.6816" y="118.039" width="59.4" height="40.8375" fill="#F4EBFF"/>
<rect x="135.361" y="118.039" width="59.4" height="40.8375" fill="#F4EBFF"/>
<rect x="200.041" y="118.039" width="59.4" height="40.8375" fill="#F4EBFF"/>
</g>
<rect x="0.5" y="0.5" width="265" height="149.5" stroke="#F4EBFF"/>
<defs>
<clipPath id="clip0_2270_204568">
<rect x="1" y="1" width="264" height="148.5" fill="white"/>
</clipPath>
</defs>
</svg>
