<svg width="266" height="151" viewBox="0 0 266 151" fill="none" xmlns="http://www.w3.org/2000/svg">
<g clip-path="url(#clip0_3809_207663)">
<rect x="1" y="1" width="264" height="148.5" fill="white"/>
<rect x="1" y="1.5" width="264" height="148.5" fill="#F9F5FF"/>
<rect x="113" y="10" width="40" height="8" fill="#F4EBFF"/>
<rect x="43" y="30" width="40" height="4" fill="#F4EBFF"/>
<rect x="43" y="38" width="180" height="2" fill="#F4EBFF"/>
<rect x="43" y="43" width="180" height="2" fill="#F4EBFF"/>
<rect x="43" y="48" width="180" height="2" fill="#F4EBFF"/>
<rect x="43" y="53" width="180" height="2" fill="#F4EBFF"/>
<rect x="43" y="58" width="72" height="2" fill="#F4EBFF"/>
<rect x="43" y="72" width="40" height="4" fill="#F4EBFF"/>
<rect x="43" y="80" width="180" height="2" fill="#F4EBFF"/>
<rect x="43" y="85" width="180" height="2" fill="#F4EBFF"/>
<rect x="43" y="90" width="180" height="2" fill="#F4EBFF"/>
<rect x="43" y="95" width="180" height="2" fill="#F4EBFF"/>
<rect x="43" y="100" width="180" height="2" fill="#F4EBFF"/>
<rect x="43" y="105" width="180" height="2" fill="#F4EBFF"/>
<rect x="43" y="110" width="72" height="2" fill="#F4EBFF"/>
<rect x="43" y="124" width="40" height="4" fill="#F4EBFF"/>
<rect x="43" y="132" width="180" height="2" fill="#F4EBFF"/>
<rect x="43" y="137" width="180" height="2" fill="#F4EBFF"/>
<rect x="43" y="142" width="180" height="2" fill="#F4EBFF"/>
<rect x="43" y="147" width="180" height="2" fill="#F4EBFF"/>
</g>
<rect x="0.5" y="0.5" width="265" height="149.5" stroke="#E9D7FE"/>
<defs>
<clipPath id="clip0_3809_207663">
<rect x="1" y="1" width="264" height="148.5" fill="white"/>
</clipPath>
</defs>
</svg>
