<svg width="264" height="149" viewBox="0 0 264 149" fill="none" xmlns="http://www.w3.org/2000/svg">
<g clip-path="url(#clip0_3809_206869)">
<rect width="264" height="148.5" fill="white"/>
<rect width="264" height="148.5" fill="#F9FAFB"/>
<rect x="112" y="8" width="40" height="8" fill="#F2F4F7"/>
<rect x="42" y="28" width="40" height="4" fill="#F2F4F7"/>
<rect x="42" y="36" width="180" height="2" fill="#F2F4F7"/>
<rect x="42" y="41" width="180" height="2" fill="#F2F4F7"/>
<rect x="42" y="46" width="180" height="2" fill="#F2F4F7"/>
<rect x="42" y="51" width="180" height="2" fill="#F2F4F7"/>
<rect x="42" y="56" width="72" height="2" fill="#F2F4F7"/>
<rect x="42" y="70" width="40" height="4" fill="#F2F4F7"/>
<rect x="42" y="78" width="180" height="2" fill="#F2F4F7"/>
<rect x="42" y="83" width="180" height="2" fill="#F2F4F7"/>
<rect x="42" y="88" width="180" height="2" fill="#F2F4F7"/>
<rect x="42" y="93" width="180" height="2" fill="#F2F4F7"/>
<rect x="42" y="98" width="180" height="2" fill="#F2F4F7"/>
<rect x="42" y="103" width="180" height="2" fill="#F2F4F7"/>
<rect x="42" y="108" width="72" height="2" fill="#F2F4F7"/>
<rect x="42" y="122" width="40" height="4" fill="#F2F4F7"/>
<rect x="42" y="130" width="180" height="2" fill="#F2F4F7"/>
<rect x="42" y="135" width="180" height="2" fill="#F2F4F7"/>
<rect x="42" y="140" width="180" height="2" fill="#F2F4F7"/>
<rect x="42" y="145" width="180" height="2" fill="#F2F4F7"/>
</g>
<rect x="0.5" y="0.5" width="263" height="147.5" stroke="#EAECF0"/>
<defs>
<clipPath id="clip0_3809_206869">
<rect width="264" height="148.5" fill="white"/>
</clipPath>
</defs>
</svg>
