<svg width="266" height="151" viewBox="0 0 266 151" fill="none" xmlns="http://www.w3.org/2000/svg">
<g clip-path="url(#clip0_3551_268919)">
<rect x="1" y="1" width="264" height="148.5" fill="white"/>
<rect x="1" y="1.5" width="112.227" height="148.5" fill="#F9FAFB"/>
<rect x="113.227" y="1.5" width="151.773" height="148.5" fill="#F9FAFB"/>
<rect x="121.66" y="13.9004" width="24" height="4" rx="1.45" fill="#F2F4F7"/>
<rect x="121.66" y="21.7676" width="22" height="4" rx="1.45" fill="#F2F4F7"/>
<rect x="122" y="31" width="85" height="8" rx="1.45" fill="#F2F4F7"/>
<rect x="121.66" y="46" width="62" height="8" rx="1.45" fill="#F2F4F7"/>
<rect x="121.66" y="61" width="65.5" height="16" rx="1.45" fill="#F2F4F7"/>
<rect x="191.16" y="61" width="65.5" height="16" rx="1.45" fill="#F2F4F7"/>
<rect x="9" y="14" width="104" height="94" fill="#F2F4F7"/>
<rect x="9" y="112" width="31.3333" height="26" fill="#F2F4F7"/>
<rect x="45.3334" y="112" width="31.3333" height="26" fill="#F2F4F7"/>
<rect x="81.6666" y="112" width="31.3333" height="26" fill="#F2F4F7"/>
<rect x="122" y="85" width="55" height="8" rx="1.45" fill="#F2F4F7"/>
<rect x="122" y="96.666" width="135" height="4" rx="1.45" fill="#F2F4F7"/>
<rect x="122" y="104.334" width="135" height="4" rx="1.45" fill="#F2F4F7"/>
<rect x="122" y="112" width="135" height="4" rx="1.45" fill="#F2F4F7"/>
<rect x="122" y="119.666" width="135" height="4" rx="1.45" fill="#F2F4F7"/>
<rect x="122" y="127.334" width="135" height="4" rx="1.45" fill="#F2F4F7"/>
<rect x="122" y="135" width="69" height="4" rx="1.45" fill="#F2F4F7"/>
</g>
<rect x="0.5" y="0.5" width="265" height="149.5" stroke="#EAECF0"/>
<defs>
<clipPath id="clip0_3551_268919">
<rect x="1" y="1" width="264" height="148.5" fill="white"/>
</clipPath>
</defs>
</svg>
