<svg width="48" height="48" viewBox="0 0 48 48" fill="none" xmlns="http://www.w3.org/2000/svg">
<g filter="url(#filter0_dd_218_73674)">
<g clip-path="url(#clip0_218_73674)">
<rect x="4" y="2" width="40" height="40" rx="20" fill="#F9F5FF"/>
<g opacity="0.08">
<rect x="4.27778" y="2.27778" width="39.4444" height="39.4444" rx="19.7222" stroke="#7F56D9" stroke-width="0.555556"/>
</g>
<path d="M23.9578 20.413H21.7443C21.6812 20.05 21.5648 19.7284 21.3951 19.4482C21.2254 19.1642 21.0143 18.9235 20.7618 18.7262C20.5093 18.5289 20.2212 18.3809 19.8977 18.2823C19.5781 18.1797 19.2328 18.1284 18.8619 18.1284C18.203 18.1284 17.6191 18.2941 17.1101 18.6256C16.6011 18.9531 16.2025 19.4344 15.9145 20.0697C15.6265 20.701 15.4825 21.4724 15.4825 22.3839C15.4825 23.3111 15.6265 24.0923 15.9145 24.7276C16.2065 25.3589 16.605 25.8363 17.1101 26.1599C17.6191 26.4795 18.201 26.6393 18.856 26.6393C19.219 26.6393 19.5584 26.5919 19.874 26.4973C20.1936 26.3986 20.4797 26.2546 20.7322 26.0652C20.9887 25.8758 21.2037 25.643 21.3773 25.3668C21.5549 25.0906 21.6772 24.775 21.7443 24.4198L23.9578 24.4317C23.875 25.0077 23.6954 25.5483 23.4192 26.0534C23.147 26.5584 22.7899 27.0043 22.348 27.391C21.9061 27.7737 21.3892 28.0736 20.7973 28.2906C20.2055 28.5036 19.5485 28.6102 18.8264 28.6102C17.7611 28.6102 16.8102 28.3636 15.9737 27.8704C15.1372 27.3771 14.4783 26.6649 13.9969 25.7338C13.5155 24.8026 13.2748 23.6859 13.2748 22.3839C13.2748 21.0778 13.5175 19.9612 14.0028 19.0339C14.4881 18.1028 15.149 17.3906 15.9855 16.8973C16.822 16.4041 17.769 16.1575 18.8264 16.1575C19.5012 16.1575 20.1285 16.2522 20.7085 16.4416C21.2886 16.631 21.8054 16.9092 22.2592 17.2761C22.713 17.6391 23.0858 18.085 23.3778 18.6137C23.6737 19.1385 23.8671 19.7383 23.9578 20.413ZM25.9687 28.4445V16.3232H30.5141C31.4453 16.3232 32.2266 16.485 32.8579 16.8086C33.4931 17.1321 33.9725 17.5859 34.2961 18.1698C34.6236 18.7499 34.7873 19.4265 34.7873 20.1999C34.7873 20.9772 34.6216 21.6519 34.2902 22.2241C33.9627 22.7922 33.4793 23.2322 32.8401 23.5439C32.2009 23.8517 31.4157 24.0055 30.4845 24.0055H27.2471V22.1826H30.1886C30.7331 22.1826 31.179 22.1077 31.5262 21.9577C31.8734 21.8038 32.1299 21.5809 32.2956 21.2889C32.4653 20.993 32.5501 20.63 32.5501 20.1999C32.5501 19.7698 32.4653 19.4029 32.2956 19.0991C32.1259 18.7913 31.8675 18.5585 31.5203 18.4007C31.173 18.2389 30.7252 18.158 30.1768 18.158H28.1644V28.4445H25.9687ZM32.2305 22.952L35.2312 28.4445H32.7809L29.8335 22.952H32.2305Z" fill="#475467"/>
</g>
</g>
<defs>
<filter id="filter0_dd_218_73674" x="0.666667" y="0.888889" width="46.6667" height="46.6667" filterUnits="userSpaceOnUse" color-interpolation-filters="sRGB">
<feFlood flood-opacity="0" result="BackgroundImageFix"/>
<feColorMatrix in="SourceAlpha" type="matrix" values="0 0 0 0 0 0 0 0 0 0 0 0 0 0 0 0 0 0 127 0" result="hardAlpha"/>
<feMorphology radius="1.11111" operator="erode" in="SourceAlpha" result="effect1_dropShadow_218_73674"/>
<feOffset dy="1.11111"/>
<feGaussianBlur stdDeviation="1.11111"/>
<feColorMatrix type="matrix" values="0 0 0 0 0.0627451 0 0 0 0 0.0941176 0 0 0 0 0.156863 0 0 0 0.06 0"/>
<feBlend mode="normal" in2="BackgroundImageFix" result="effect1_dropShadow_218_73674"/>
<feColorMatrix in="SourceAlpha" type="matrix" values="0 0 0 0 0 0 0 0 0 0 0 0 0 0 0 0 0 0 127 0" result="hardAlpha"/>
<feMorphology radius="1.11111" operator="erode" in="SourceAlpha" result="effect2_dropShadow_218_73674"/>
<feOffset dy="2.22222"/>
<feGaussianBlur stdDeviation="2.22222"/>
<feColorMatrix type="matrix" values="0 0 0 0 0.0627451 0 0 0 0 0.0941176 0 0 0 0 0.156863 0 0 0 0.1 0"/>
<feBlend mode="normal" in2="effect1_dropShadow_218_73674" result="effect2_dropShadow_218_73674"/>
<feBlend mode="normal" in="SourceGraphic" in2="effect2_dropShadow_218_73674" result="shape"/>
</filter>
<clipPath id="clip0_218_73674">
<rect x="4" y="2" width="40" height="40" rx="20" fill="white"/>
</clipPath>
</defs>
</svg>
