<svg width="48" height="48" viewBox="0 0 48 48" fill="none" xmlns="http://www.w3.org/2000/svg">
<g filter="url(#filter0_dd_218_73696)">
<g clip-path="url(#clip0_218_73696)">
<rect x="4" y="2" width="40" height="40" rx="20" fill="#F9F5FF"/>
<g opacity="0.08">
<rect x="4.27778" y="2.27778" width="39.4444" height="39.4444" rx="19.7222" stroke="#7F56D9" stroke-width="0.555556"/>
</g>
<path d="M15.367 16.3232L18.5216 25.864H18.6459L21.7946 16.3232H24.2094L19.9362 28.4445H17.2255L12.9582 16.3232H15.367ZM25.8059 28.4445V16.3232H30.3514C31.2825 16.3232 32.0638 16.485 32.6951 16.8086C33.3304 17.1321 33.8098 17.5859 34.1333 18.1698C34.4608 18.7499 34.6246 19.4265 34.6246 20.1999C34.6246 20.9772 34.4588 21.6519 34.1274 22.2241C33.7999 22.7922 33.3166 23.2322 32.6773 23.5439C32.0381 23.8517 31.2529 24.0055 30.3218 24.0055H27.0843V22.1826H30.0258C30.5703 22.1826 31.0162 22.1077 31.3634 21.9577C31.7106 21.8038 31.9671 21.5809 32.1328 21.2889C32.3025 20.993 32.3873 20.63 32.3873 20.1999C32.3873 19.7698 32.3025 19.4029 32.1328 19.0991C31.9632 18.7913 31.7047 18.5585 31.3575 18.4007C31.0103 18.2389 30.5624 18.158 30.014 18.158H28.0017V28.4445H25.8059ZM32.0677 22.952L35.0684 28.4445H32.6182L29.6707 22.952H32.0677Z" fill="#475467"/>
</g>
</g>
<defs>
<filter id="filter0_dd_218_73696" x="0.666667" y="0.888889" width="46.6667" height="46.6667" filterUnits="userSpaceOnUse" color-interpolation-filters="sRGB">
<feFlood flood-opacity="0" result="BackgroundImageFix"/>
<feColorMatrix in="SourceAlpha" type="matrix" values="0 0 0 0 0 0 0 0 0 0 0 0 0 0 0 0 0 0 127 0" result="hardAlpha"/>
<feMorphology radius="1.11111" operator="erode" in="SourceAlpha" result="effect1_dropShadow_218_73696"/>
<feOffset dy="1.11111"/>
<feGaussianBlur stdDeviation="1.11111"/>
<feColorMatrix type="matrix" values="0 0 0 0 0.0627451 0 0 0 0 0.0941176 0 0 0 0 0.156863 0 0 0 0.06 0"/>
<feBlend mode="normal" in2="BackgroundImageFix" result="effect1_dropShadow_218_73696"/>
<feColorMatrix in="SourceAlpha" type="matrix" values="0 0 0 0 0 0 0 0 0 0 0 0 0 0 0 0 0 0 127 0" result="hardAlpha"/>
<feMorphology radius="1.11111" operator="erode" in="SourceAlpha" result="effect2_dropShadow_218_73696"/>
<feOffset dy="2.22222"/>
<feGaussianBlur stdDeviation="2.22222"/>
<feColorMatrix type="matrix" values="0 0 0 0 0.0627451 0 0 0 0 0.0941176 0 0 0 0 0.156863 0 0 0 0.1 0"/>
<feBlend mode="normal" in2="effect1_dropShadow_218_73696" result="effect2_dropShadow_218_73696"/>
<feBlend mode="normal" in="SourceGraphic" in2="effect2_dropShadow_218_73696" result="shape"/>
</filter>
<clipPath id="clip0_218_73696">
<rect x="4" y="2" width="40" height="40" rx="20" fill="white"/>
</clipPath>
</defs>
</svg>
