<svg width="960" height="620" viewBox="0 0 960 620" fill="none" xmlns="http://www.w3.org/2000/svg">
<rect y="0.683594" width="960" height="294.737" fill="#F9FAFB"/>
<rect y="312.262" width="960" height="168.421" fill="#F9FAFB"/>
<rect y="497.525" width="960" height="168.421" fill="#F9FAFB"/>
<rect x="33.6841" y="514.367" width="210.526" height="134.737" rx="16.8421" fill="#F2F4F7"/>
<rect x="261.053" y="514.367" width="210.526" height="134.737" rx="16.8421" fill="#F2F4F7"/>
<rect x="488.421" y="514.367" width="210.526" height="134.737" rx="16.8421" fill="#F2F4F7"/>
<rect x="715.789" y="514.367" width="210.526" height="134.737" rx="16.8421" fill="#F2F4F7"/>
<rect x="33.6841" y="329.105" width="134.737" height="134.737" rx="16.8421" fill="#F2F4F7"/>
<rect x="185.263" y="329.105" width="134.737" height="134.737" rx="16.8421" fill="#F2F4F7"/>
<rect x="336.842" y="329.105" width="134.737" height="134.737" rx="16.8421" fill="#F2F4F7"/>
<rect x="488.421" y="329.105" width="134.737" height="134.737" rx="16.8421" fill="#F2F4F7"/>
<rect x="640" y="329.105" width="134.737" height="134.737" rx="16.8421" fill="#F2F4F7"/>
<rect x="791.579" y="329.105" width="134.737" height="134.737" rx="16.8421" fill="#F2F4F7"/>
</svg>
