<svg width="264" height="149" viewBox="0 0 264 149" fill="none" xmlns="http://www.w3.org/2000/svg">
<rect x="0.5" y="0.5" width="263" height="147.5" fill="white" stroke="#EAECF0"/>
<rect x="10.5596" y="9.90039" width="242.88" height="66.825" rx="2" fill="#F2F4F7"/>
<rect x="10.5596" y="138.6" width="56.925" height="242.88" rx="2" transform="rotate(-90 10.5596 138.6)" fill="#E9D7FE"/>
<rect x="15.8398" y="94.0488" width="7.425" height="73.92" rx="1.43089" transform="rotate(-90 15.8398 94.0488)" fill="#D6BBFB"/>
<rect x="15.8398" y="133.648" width="34.65" height="53.9751" rx="2" transform="rotate(-90 15.8398 133.648)" fill="#D6BBFB"/>
<rect x="75.2871" y="133.648" width="34.65" height="53.9751" rx="2" transform="rotate(-90 75.2871 133.648)" fill="#D6BBFB"/>
<rect x="134.736" y="133.648" width="34.65" height="53.9751" rx="2" transform="rotate(-90 134.736 133.648)" fill="#D6BBFB"/>
<rect x="194.184" y="133.648" width="34.65" height="53.9751" rx="2" transform="rotate(-90 194.184 133.648)" fill="#D6BBFB"/>
<ellipse cx="241.559" cy="116.323" rx="5.28" ry="4.95" fill="#E9D7FE"/>
<path d="M240.898 117.561L242.218 116.323L240.898 115.086" stroke="#D6BBFB" stroke-width="0.4" stroke-linecap="round" stroke-linejoin="round"/>
<ellipse cx="22.4392" cy="116.323" rx="5.28" ry="4.95" fill="#E9D7FE"/>
<path d="M23.0996 117.561L21.7796 116.323L23.0996 115.086" stroke="#D6BBFB" stroke-width="0.4" stroke-linecap="round" stroke-linejoin="round"/>
</svg>
