<svg width="264" height="149" viewBox="0 0 264 149" fill="none" xmlns="http://www.w3.org/2000/svg">
<rect x="0.5" y="0.5" width="263" height="147.5" fill="white" stroke="#E9D7FE"/>
<rect x="10.5605" y="9.89941" width="242.88" height="66.825" fill="#F2F4F7"/>
<rect x="10.5605" y="99" width="7.425" height="80.1034" transform="rotate(-90 10.5605 99)" fill="#F2F4F7"/>
<rect x="10.5605" y="138.601" width="34.65" height="56.4285" transform="rotate(-90 10.5605 138.601)" fill="#F2F4F7"/>
<rect x="72.7109" y="138.601" width="34.65" height="56.4285" transform="rotate(-90 72.7109 138.601)" fill="#F2F4F7"/>
<rect x="134.861" y="138.601" width="34.65" height="56.4285" transform="rotate(-90 134.861 138.601)" fill="#F2F4F7"/>
<rect x="197.013" y="138.601" width="34.65" height="56.4285" transform="rotate(-90 197.013 138.601)" fill="#F2F4F7"/>
<rect opacity="0.2" width="264" height="148.5" fill="black"/>
<g filter="url(#filter0_d_3274_296605)">
<rect x="32" y="29" width="200" height="90.9091" rx="2" fill="#E9D7FE"/>
</g>
<rect x="108.136" y="40.3643" width="46.5909" height="30.6818" rx="1.45" fill="#D6BBFB"/>
<rect x="100.182" y="77.8643" width="63.6364" height="3.40909" rx="1.45" fill="#D6BBFB"/>
<rect x="100.182" y="85.8184" width="63.6364" height="3.40909" rx="1.45" fill="#D6BBFB"/>
<rect x="113.818" y="96.0459" width="36.3636" height="9.09091" rx="1.45" fill="#D6BBFB"/>
<ellipse cx="224.046" cy="36.955" rx="3.40909" ry="3.40909" fill="#D6BBFB"/>
<defs>
<filter id="filter0_d_3274_296605" x="30" y="28" width="204" height="94.9092" filterUnits="userSpaceOnUse" color-interpolation-filters="sRGB">
<feFlood flood-opacity="0" result="BackgroundImageFix"/>
<feColorMatrix in="SourceAlpha" type="matrix" values="0 0 0 0 0 0 0 0 0 0 0 0 0 0 0 0 0 0 127 0" result="hardAlpha"/>
<feOffset dy="1"/>
<feGaussianBlur stdDeviation="1"/>
<feColorMatrix type="matrix" values="0 0 0 0 0.0627451 0 0 0 0 0.0941176 0 0 0 0 0.156863 0 0 0 0.05 0"/>
<feBlend mode="normal" in2="BackgroundImageFix" result="effect1_dropShadow_3274_296605"/>
<feBlend mode="normal" in="SourceGraphic" in2="effect1_dropShadow_3274_296605" result="shape"/>
</filter>
</defs>
</svg>
