<svg width="265" height="149" viewBox="0 0 265 149" fill="none" xmlns="http://www.w3.org/2000/svg">
<rect x="1" y="0.5" width="263" height="147.5" fill="white" stroke="#EAECF0"/>
<rect x="9.92969" y="9.89941" width="28.2857" height="28.7278" rx="2" fill="#F9FAFB"/>
<rect x="9.92969" y="43.0459" width="28.2857" height="28.7278" rx="2" fill="#F9FAFB"/>
<rect x="9.92969" y="76.1953" width="28.2857" height="28.7278" rx="2" fill="#F9FAFB"/>
<rect x="9.92969" y="109.339" width="28.2857" height="28.7278" rx="2" fill="#F9FAFB"/>
<rect x="43.4951" y="10.6855" width="158.068" height="129.152" rx="2" fill="#F9FAFB"/>
<rect x="205.563" y="55.7441" width="48" height="84.2559" rx="2" fill="#EAECF0"/>
<rect x="210.412" y="10.6855" width="23.2258" height="3.71717" rx="1.45" fill="#F9FAFB"/>
<rect x="210.412" y="16.2881" width="37.1613" height="3.71717" rx="1.45" fill="#F9FAFB"/>
<rect x="210.412" y="21.8926" width="37.1613" height="3.71717" rx="1.45" fill="#F9FAFB"/>
<rect x="210.412" y="66.6387" width="18.5806" height="3.71717" rx="1.45" fill="#D0D5DD"/>
<rect x="210.412" y="33.0977" width="12.3871" height="11.2054" rx="1.45" fill="#F9FAFB"/>
<rect x="225.896" y="33.0977" width="21.6774" height="11.2054" rx="1.45" fill="#F9FAFB"/>
<rect x="210.412" y="87.1855" width="37.1613" height="18.6756" rx="1.45" fill="#D0D5DD"/>
<rect x="210.412" y="110.814" width="37.1613" height="18.6756" rx="1.45" fill="#D0D5DD"/>
<path d="M212.562 77.2309C212.61 77.0545 212.86 77.0545 212.907 77.2309L213.22 78.3932C213.242 78.4713 213.312 78.5255 213.393 78.5255H214.468C214.633 78.5255 214.71 78.7301 214.586 78.8389L213.662 79.6484C213.611 79.6934 213.59 79.7636 213.607 79.8294L213.946 81.0872C213.992 81.2581 213.789 81.3849 213.656 81.2682L212.853 80.5645C212.785 80.5054 212.684 80.5054 212.617 80.5645L211.814 81.2682C211.681 81.3849 211.477 81.2581 211.523 81.0872L211.862 79.8294C211.88 79.7636 211.858 79.6934 211.807 79.6484L210.883 78.8389C210.759 78.7301 210.836 78.5255 211.001 78.5255H212.076C212.157 78.5255 212.228 78.4713 212.249 78.3932L212.562 77.2309Z" fill="#D0D5DD"/>
<path d="M218.755 77.2309C218.803 77.0545 219.053 77.0545 219.101 77.2309L219.414 78.3932C219.435 78.4713 219.506 78.5255 219.587 78.5255H220.661C220.827 78.5255 220.904 78.7301 220.779 78.8389L219.856 79.6484C219.804 79.6934 219.783 79.7636 219.801 79.8294L220.14 81.0872C220.186 81.2581 219.982 81.3849 219.849 81.2682L219.046 80.5645C218.978 80.5054 218.878 80.5054 218.81 80.5645L218.007 81.2682C217.874 81.3849 217.67 81.2581 217.717 81.0872L218.055 79.8294C218.073 79.7636 218.052 79.6934 218.001 79.6484L217.077 78.8389C216.953 78.7301 217.03 78.5255 217.195 78.5255H218.27C218.35 78.5255 218.421 78.4713 218.442 78.3932L218.755 77.2309Z" fill="#D0D5DD"/>
<path d="M224.95 77.2309C224.997 77.0545 225.248 77.0545 225.295 77.2309L225.608 78.3932C225.629 78.4713 225.7 78.5255 225.781 78.5255H226.856C227.021 78.5255 227.098 78.7301 226.974 78.8389L226.05 79.6484C225.999 79.6934 225.977 79.7636 225.995 79.8294L226.334 81.0872C226.38 81.2581 226.176 81.3849 226.043 81.2682L225.24 80.5645C225.173 80.5054 225.072 80.5054 225.005 80.5645L224.201 81.2682C224.068 81.3849 223.865 81.2581 223.911 81.0872L224.25 79.8294C224.267 79.7636 224.246 79.6934 224.195 79.6484L223.271 78.8389C223.147 78.7301 223.224 78.5255 223.389 78.5255H224.464C224.545 78.5255 224.616 78.4713 224.637 78.3932L224.95 77.2309Z" fill="#D0D5DD"/>
<path d="M231.144 77.2309C231.192 77.0545 231.442 77.0545 231.489 77.2309L231.803 78.3932C231.824 78.4713 231.894 78.5255 231.975 78.5255H233.05C233.215 78.5255 233.292 78.7301 233.168 78.8389L232.244 79.6484C232.193 79.6934 232.172 79.7636 232.189 79.8294L232.528 81.0872C232.574 81.2581 232.371 81.3849 232.238 81.2682L231.435 80.5645C231.367 80.5054 231.266 80.5054 231.199 80.5645L230.396 81.2682C230.263 81.3849 230.059 81.2581 230.105 81.0872L230.444 79.8294C230.462 79.7636 230.44 79.6934 230.389 79.6484L229.465 78.8389C229.341 78.7301 229.418 78.5255 229.583 78.5255H230.658C230.739 78.5255 230.81 78.4713 230.831 78.3932L231.144 77.2309Z" fill="#D0D5DD"/>
<path d="M237.336 77.2309C237.384 77.0545 237.634 77.0545 237.682 77.2309L237.995 78.3932C238.016 78.4713 238.087 78.5255 238.168 78.5255H239.243C239.408 78.5255 239.485 78.7301 239.36 78.8389L238.437 79.6484C238.385 79.6934 238.364 79.7636 238.382 79.8294L238.721 81.0872C238.767 81.2581 238.563 81.3849 238.43 81.2682L237.627 80.5645C237.56 80.5054 237.459 80.5054 237.391 80.5645L236.588 81.2682C236.455 81.3849 236.252 81.2581 236.298 81.0872L236.636 79.8294C236.654 79.7636 236.633 79.6934 236.582 79.6484L235.658 78.8389C235.534 78.7301 235.611 78.5255 235.776 78.5255H236.851C236.931 78.5255 237.002 78.4713 237.023 78.3932L237.336 77.2309Z" fill="#D0D5DD"/>
</svg>
