<svg width="264" height="149" viewBox="0 0 264 149" fill="none" xmlns="http://www.w3.org/2000/svg">
<rect x="0.5" y="0.5" width="263" height="147.5" fill="white" stroke="#E9D7FE"/>
<rect x="9.42969" y="9.89941" width="28.2857" height="28.7278" rx="2" fill="#F2F4F7"/>
<rect x="9.42969" y="43.0459" width="28.2857" height="28.7278" rx="2" fill="#F2F4F7"/>
<rect x="9.42969" y="76.1953" width="28.2857" height="28.7278" rx="2" fill="#F2F4F7"/>
<rect x="9.42969" y="109.339" width="28.2857" height="28.7278" rx="2" fill="#F2F4F7"/>
<rect x="42.9951" y="10.6855" width="158.068" height="129.152" rx="2" fill="#F2F4F7"/>
<rect x="205.063" y="55.7441" width="48" height="84.2559" rx="2" fill="#E9D7FE"/>
<rect x="209.912" y="10.6855" width="23.2258" height="3.71717" rx="1.45" fill="#F2F4F7"/>
<rect x="209.912" y="16.2881" width="37.1613" height="3.71717" rx="1.45" fill="#F2F4F7"/>
<rect x="209.912" y="21.8926" width="37.1613" height="3.71717" rx="1.45" fill="#F2F4F7"/>
<rect x="209.912" y="66.6387" width="18.5806" height="3.71717" rx="1.45" fill="#D6BBFB"/>
<rect x="209.912" y="33.0977" width="12.3871" height="11.2054" rx="1.45" fill="#F2F4F7"/>
<rect x="225.396" y="33.0977" width="21.6774" height="11.2054" rx="1.45" fill="#F2F4F7"/>
<rect x="209.912" y="87.1855" width="37.1613" height="18.6756" rx="1.45" fill="#D6BBFB"/>
<rect x="209.912" y="110.814" width="37.1613" height="18.6756" rx="1.45" fill="#D6BBFB"/>
<path d="M212.062 77.2309C212.11 77.0545 212.36 77.0545 212.407 77.2309L212.72 78.3932C212.742 78.4713 212.812 78.5255 212.893 78.5255H213.968C214.133 78.5255 214.21 78.7301 214.086 78.8389L213.162 79.6484C213.111 79.6934 213.09 79.7636 213.107 79.8294L213.446 81.0872C213.492 81.2581 213.289 81.3849 213.156 81.2682L212.353 80.5645C212.285 80.5054 212.184 80.5054 212.117 80.5645L211.314 81.2682C211.181 81.3849 210.977 81.2581 211.023 81.0872L211.362 79.8294C211.38 79.7636 211.358 79.6934 211.307 79.6484L210.383 78.8389C210.259 78.7301 210.336 78.5255 210.501 78.5255H211.576C211.657 78.5255 211.728 78.4713 211.749 78.3932L212.062 77.2309Z" fill="#D6BBFB"/>
<path d="M218.255 77.2309C218.303 77.0545 218.553 77.0545 218.601 77.2309L218.914 78.3932C218.935 78.4713 219.006 78.5255 219.087 78.5255H220.161C220.327 78.5255 220.404 78.7301 220.279 78.8389L219.356 79.6484C219.304 79.6934 219.283 79.7636 219.301 79.8294L219.64 81.0872C219.686 81.2581 219.482 81.3849 219.349 81.2682L218.546 80.5645C218.478 80.5054 218.378 80.5054 218.31 80.5645L217.507 81.2682C217.374 81.3849 217.17 81.2581 217.217 81.0872L217.555 79.8294C217.573 79.7636 217.552 79.6934 217.501 79.6484L216.577 78.8389C216.453 78.7301 216.53 78.5255 216.695 78.5255H217.77C217.85 78.5255 217.921 78.4713 217.942 78.3932L218.255 77.2309Z" fill="#D6BBFB"/>
<path d="M224.45 77.2309C224.497 77.0545 224.748 77.0545 224.795 77.2309L225.108 78.3932C225.129 78.4713 225.2 78.5255 225.281 78.5255H226.356C226.521 78.5255 226.598 78.7301 226.474 78.8389L225.55 79.6484C225.499 79.6934 225.477 79.7636 225.495 79.8294L225.834 81.0872C225.88 81.2581 225.676 81.3849 225.543 81.2682L224.74 80.5645C224.673 80.5054 224.572 80.5054 224.505 80.5645L223.701 81.2682C223.568 81.3849 223.365 81.2581 223.411 81.0872L223.75 79.8294C223.767 79.7636 223.746 79.6934 223.695 79.6484L222.771 78.8389C222.647 78.7301 222.724 78.5255 222.889 78.5255H223.964C224.045 78.5255 224.116 78.4713 224.137 78.3932L224.45 77.2309Z" fill="#D6BBFB"/>
<path d="M230.644 77.2309C230.692 77.0545 230.942 77.0545 230.989 77.2309L231.303 78.3932C231.324 78.4713 231.394 78.5255 231.475 78.5255H232.55C232.715 78.5255 232.792 78.7301 232.668 78.8389L231.744 79.6484C231.693 79.6934 231.672 79.7636 231.689 79.8294L232.028 81.0872C232.074 81.2581 231.871 81.3849 231.738 81.2682L230.935 80.5645C230.867 80.5054 230.766 80.5054 230.699 80.5645L229.896 81.2682C229.763 81.3849 229.559 81.2581 229.605 81.0872L229.944 79.8294C229.962 79.7636 229.94 79.6934 229.889 79.6484L228.965 78.8389C228.841 78.7301 228.918 78.5255 229.083 78.5255H230.158C230.239 78.5255 230.31 78.4713 230.331 78.3932L230.644 77.2309Z" fill="#D6BBFB"/>
<path d="M236.836 77.2309C236.884 77.0545 237.134 77.0545 237.182 77.2309L237.495 78.3932C237.516 78.4713 237.587 78.5255 237.668 78.5255H238.743C238.908 78.5255 238.985 78.7301 238.86 78.8389L237.937 79.6484C237.885 79.6934 237.864 79.7636 237.882 79.8294L238.221 81.0872C238.267 81.2581 238.063 81.3849 237.93 81.2682L237.127 80.5645C237.06 80.5054 236.959 80.5054 236.891 80.5645L236.088 81.2682C235.955 81.3849 235.752 81.2581 235.798 81.0872L236.136 79.8294C236.154 79.7636 236.133 79.6934 236.082 79.6484L235.158 78.8389C235.034 78.7301 235.111 78.5255 235.276 78.5255H236.351C236.431 78.5255 236.502 78.4713 236.523 78.3932L236.836 77.2309Z" fill="#D6BBFB"/>
</svg>
