<svg width="264" height="149" viewBox="0 0 264 149" fill="none" xmlns="http://www.w3.org/2000/svg">
<rect x="0.5" y="0.5" width="263" height="147.5" fill="white" stroke="#E9D7FE"/>
<rect x="8" y="9.89941" width="248" height="66.825" fill="#F2F4F7"/>
<rect x="8" y="100.999" width="7.425" height="81.7918" transform="rotate(-90 8 100.999)" fill="#F2F4F7"/>
<rect x="8" y="140.599" width="34.65" height="57.6178" transform="rotate(-90 8 140.599)" fill="#F2F4F7"/>
<rect x="71.46" y="140.599" width="34.65" height="57.6178" transform="rotate(-90 71.46 140.599)" fill="#F2F4F7"/>
<rect x="134.921" y="140.599" width="34.65" height="57.6178" transform="rotate(-90 134.921 140.599)" fill="#F2F4F7"/>
<rect x="198.382" y="140.599" width="34.65" height="57.6178" transform="rotate(-90 198.382 140.599)" fill="#F2F4F7"/>
<rect x="8.5" y="79" width="80" height="61.5385" rx="1.26923" fill="#E9D7FE"/>
<rect x="38.8965" y="86.6924" width="18.4615" height="21.5385" rx="0.920192" fill="#D6BBFB"/>
<rect x="32.7422" y="111.308" width="30.7692" height="2.30769" rx="0.920192" fill="#D6BBFB"/>
<rect x="32.7422" y="116.692" width="30.7692" height="2.30769" rx="0.920192" fill="#D6BBFB"/>
<rect x="41.2266" y="124.384" width="14.5455" height="6.15385" rx="0.920192" fill="#D6BBFB"/>
<circle cx="83.1856" cy="84.3858" r="2.30769" fill="#D6BBFB"/>
</svg>
