<svg width="265" height="149" viewBox="0 0 265 149" fill="none" xmlns="http://www.w3.org/2000/svg">
<rect x="1" y="0.5" width="263" height="147.5" fill="white" stroke="#EAECF0"/>
<rect x="8.5" y="9.89941" width="248" height="66.825" fill="#F9FAFB"/>
<rect x="8.5" y="100.999" width="7.425" height="81.7918" transform="rotate(-90 8.5 100.999)" fill="#F9FAFB"/>
<rect x="8.5" y="140.599" width="34.65" height="57.6178" transform="rotate(-90 8.5 140.599)" fill="#F9FAFB"/>
<rect x="71.96" y="140.599" width="34.65" height="57.6178" transform="rotate(-90 71.96 140.599)" fill="#F9FAFB"/>
<rect x="135.421" y="140.599" width="34.65" height="57.6178" transform="rotate(-90 135.421 140.599)" fill="#F9FAFB"/>
<rect x="198.882" y="140.599" width="34.65" height="57.6178" transform="rotate(-90 198.882 140.599)" fill="#F9FAFB"/>
<rect x="8.5" y="79" width="80" height="61.5385" rx="1.26923" fill="#EAECF0"/>
<rect x="38.8965" y="86.6924" width="18.4615" height="21.5385" rx="0.920192" fill="#D0D5DD"/>
<rect x="32.7422" y="111.308" width="30.7692" height="2.30769" rx="0.920192" fill="#D0D5DD"/>
<rect x="32.7422" y="116.692" width="30.7692" height="2.30769" rx="0.920192" fill="#D0D5DD"/>
<rect x="41.2266" y="124.384" width="14.5455" height="6.15385" rx="0.920192" fill="#D0D5DD"/>
<circle cx="83.1856" cy="84.3858" r="2.30769" fill="#D0D5DD"/>
</svg>
