<svg width="265" height="149" viewBox="0 0 265 149" fill="none" xmlns="http://www.w3.org/2000/svg">
<rect x="1" y="1" width="263" height="147.5" fill="white" stroke="#EAECF0"/>
<rect x="11.0596" y="22.7754" width="242.88" height="64.35" rx="2" fill="#F9FAFB"/>
<rect x="11.0605" y="99.501" width="7.425" height="80.1034" rx="1.43089" transform="rotate(-90 11.0605 99.501)" fill="#F9FAFB"/>
<rect x="11.0605" y="139.102" width="34.65" height="56.4285" rx="2" transform="rotate(-90 11.0605 139.102)" fill="#F9FAFB"/>
<rect x="73.2109" y="139.102" width="34.65" height="56.4285" rx="2" transform="rotate(-90 73.2109 139.102)" fill="#F9FAFB"/>
<rect x="135.361" y="139.102" width="34.65" height="56.4285" rx="2" transform="rotate(-90 135.361 139.102)" fill="#F9FAFB"/>
<rect x="197.513" y="139.102" width="34.65" height="56.4285" rx="2" transform="rotate(-90 197.513 139.102)" fill="#F9FAFB"/>
<path d="M0.5 12.875H264.5V22.775H0.5V12.875Z" fill="#EAECF0"/>
<rect x="106.5" y="15.875" width="47" height="4" rx="1" fill="#D0D5DD"/>
<rect x="154.5" y="15.875" width="4" height="4" rx="1" fill="#D0D5DD"/>
</svg>
