<svg width="266" height="149" viewBox="0 0 266 149" fill="none" xmlns="http://www.w3.org/2000/svg">
<rect x="1.25" y="1" width="263" height="147.5" fill="white" stroke="#E9D7FE"/>
<rect x="11.3096" y="22.7754" width="242.88" height="64.35" rx="2" fill="#F2F4F7"/>
<rect x="11.3105" y="99.501" width="7.425" height="80.1034" rx="1.43089" transform="rotate(-90 11.3105 99.501)" fill="#F2F4F7"/>
<rect x="11.3105" y="139.102" width="34.65" height="56.4285" rx="2" transform="rotate(-90 11.3105 139.102)" fill="#F2F4F7"/>
<rect x="73.4609" y="139.102" width="34.65" height="56.4285" rx="2" transform="rotate(-90 73.4609 139.102)" fill="#F2F4F7"/>
<rect x="135.611" y="139.102" width="34.65" height="56.4285" rx="2" transform="rotate(-90 135.611 139.102)" fill="#F2F4F7"/>
<rect x="197.763" y="139.102" width="34.65" height="56.4285" rx="2" transform="rotate(-90 197.763 139.102)" fill="#F2F4F7"/>
<path d="M1.25 12.875H265.25V22.775H1.25V12.875Z" fill="#E9D7FE"/>
<rect x="107.25" y="15.875" width="47" height="4" rx="1" fill="#D6BBFB"/>
<rect x="155.25" y="15.875" width="4" height="4" rx="1" fill="#D6BBFB"/>
</svg>
