<svg width="52" height="52" viewBox="0 0 52 52" fill="none" xmlns="http://www.w3.org/2000/svg">
<g filter="url(#filter0_d_2270_202677)">
<rect x="2" y="1" width="48" height="48" rx="10" fill="white"/>
<path d="M16 24.9996L25.6422 29.8207C25.7734 29.8863 25.839 29.9191 25.9078 29.932C25.9687 29.9434 26.0313 29.9434 26.0922 29.932C26.161 29.9191 26.2266 29.8863 26.3578 29.8207L36 24.9996M16 29.9996L25.6422 34.8207C25.7734 34.8863 25.839 34.9191 25.9078 34.932C25.9687 34.9434 26.0313 34.9434 26.0922 34.932C26.161 34.9191 26.2266 34.8863 26.3578 34.8207L36 29.9996M16 19.9996L25.6422 15.1785C25.7734 15.1129 25.839 15.0801 25.9078 15.0672C25.9687 15.0557 26.0313 15.0557 26.0922 15.0672C26.161 15.0801 26.2266 15.1129 26.3578 15.1785L36 19.9996L26.3578 24.8207C26.2266 24.8863 26.161 24.9191 26.0922 24.932C26.0313 24.9434 25.9687 24.9434 25.9078 24.932C25.839 24.9191 25.7734 24.8863 25.6422 24.8207L16 19.9996Z" stroke="#344054" stroke-width="2" stroke-linecap="round" stroke-linejoin="round"/>
<rect x="2.5" y="1.5" width="47" height="47" rx="9.5" stroke="#EAECF0"/>
</g>
<defs>
<filter id="filter0_d_2270_202677" x="0" y="0" width="52" height="52" filterUnits="userSpaceOnUse" color-interpolation-filters="sRGB">
<feFlood flood-opacity="0" result="BackgroundImageFix"/>
<feColorMatrix in="SourceAlpha" type="matrix" values="0 0 0 0 0 0 0 0 0 0 0 0 0 0 0 0 0 0 127 0" result="hardAlpha"/>
<feOffset dy="1"/>
<feGaussianBlur stdDeviation="1"/>
<feColorMatrix type="matrix" values="0 0 0 0 0.0627451 0 0 0 0 0.0941176 0 0 0 0 0.156863 0 0 0 0.05 0"/>
<feBlend mode="normal" in2="BackgroundImageFix" result="effect1_dropShadow_2270_202677"/>
<feBlend mode="normal" in="SourceGraphic" in2="effect1_dropShadow_2270_202677" result="shape"/>
</filter>
</defs>
</svg>
