<svg width="20" height="20" viewBox="0 0 20 20" fill="none" xmlns="http://www.w3.org/2000/svg">
<path d="M10.0003 10.8334C10.4606 10.8334 10.8337 10.4603 10.8337 10C10.8337 9.5398 10.4606 9.16671 10.0003 9.16671C9.54009 9.16671 9.16699 9.5398 9.16699 10C9.16699 10.4603 9.54009 10.8334 10.0003 10.8334Z" stroke="#475467" stroke-width="2" stroke-linecap="round" stroke-linejoin="round"/>
<path d="M10.0003 5.00004C10.4606 5.00004 10.8337 4.62694 10.8337 4.16671C10.8337 3.70647 10.4606 3.33337 10.0003 3.33337C9.54009 3.33337 9.16699 3.70647 9.16699 4.16671C9.16699 4.62694 9.54009 5.00004 10.0003 5.00004Z" stroke="#475467" stroke-width="2" stroke-linecap="round" stroke-linejoin="round"/>
<path d="M10.0003 16.6667C10.4606 16.6667 10.8337 16.2936 10.8337 15.8334C10.8337 15.3731 10.4606 15 10.0003 15C9.54009 15 9.16699 15.3731 9.16699 15.8334C9.16699 16.2936 9.54009 16.6667 10.0003 16.6667Z" stroke="#475467" stroke-width="2" stroke-linecap="round" stroke-linejoin="round"/>
</svg>
