<svg width="18" height="18" viewBox="0 0 18 18" fill="none" xmlns="http://www.w3.org/2000/svg">
<path d="M13.9997 7.33326L10.6664 3.99993M1.08301 16.9166L3.90331 16.6032C4.24789 16.5649 4.42018 16.5458 4.58121 16.4937C4.72408 16.4474 4.86005 16.3821 4.98541 16.2994C5.12672 16.2062 5.2493 16.0836 5.49445 15.8385L16.4997 4.83326C17.4202 3.91279 17.4202 2.4204 16.4997 1.49993C15.5792 0.579452 14.0868 0.579451 13.1664 1.49992L2.16112 12.5052C1.91596 12.7503 1.79339 12.8729 1.70021 13.0142C1.61753 13.1396 1.55219 13.2755 1.50594 13.4184C1.4538 13.5794 1.43466 13.7517 1.39637 14.0963L1.08301 16.9166Z" stroke="#344054" stroke-width="1.5" stroke-linecap="round" stroke-linejoin="round"/>
</svg>
