<svg width="65" height="64" viewBox="0 0 65 64" fill="none" xmlns="http://www.w3.org/2000/svg">
<rect x="4.5" y="4" width="56" height="56" rx="28" fill="#F9F5FF"/>
<rect x="4.5" y="4" width="56" height="56" rx="28" stroke="#FCFAFF" stroke-width="8"/>
<path d="M44.5 32L28.5 32M44.5 24L28.5 24M44.5 40L28.5 40M23.1667 32C23.1667 32.7364 22.5697 33.3333 21.8333 33.3333C21.097 33.3333 20.5 32.7364 20.5 32C20.5 31.2636 21.097 30.6667 21.8333 30.6667C22.5697 30.6667 23.1667 31.2636 23.1667 32ZM23.1667 24C23.1667 24.7364 22.5697 25.3333 21.8333 25.3333C21.097 25.3333 20.5 24.7364 20.5 24C20.5 23.2636 21.097 22.6667 21.8333 22.6667C22.5697 22.6667 23.1667 23.2636 23.1667 24ZM23.1667 40C23.1667 40.7364 22.5697 41.3333 21.8333 41.3333C21.097 41.3333 20.5 40.7364 20.5 40C20.5 39.2636 21.097 38.6667 21.8333 38.6667C22.5697 38.6667 23.1667 39.2636 23.1667 40Z" stroke="#7F56D9" stroke-width="1.5" stroke-linecap="round" stroke-linejoin="round"/>
</svg>
