<svg width="64" height="64" viewBox="0 0 64 64" fill="none" xmlns="http://www.w3.org/2000/svg">
<rect x="4" y="4" width="56" height="56" rx="28" fill="#F9F5FF"/>
<rect x="4" y="4" width="56" height="56" rx="28" stroke="#FCFAFF" stroke-width="8"/>
<path d="M38.2234 19.808C37.1142 19.3814 35.8862 19.3814 34.777 19.808L29.2394 21.936C28.7865 22.11 28.3969 22.4172 28.1222 22.8171C27.8474 23.217 27.7003 23.6908 27.7002 24.176V25.9376C28.2314 25.8707 28.769 25.8707 29.3002 25.9376V24.1776C29.3 24.0159 29.3489 23.8579 29.4403 23.7246C29.5317 23.5912 29.6613 23.4886 29.8122 23.4304L35.3514 21.3008C36.0909 21.0164 36.9095 21.0164 37.649 21.3008L43.1866 23.4304C43.3375 23.4886 43.4671 23.5912 43.5585 23.7246C43.6499 23.8579 43.6988 24.0159 43.6986 24.1776V36.6256C43.6984 36.787 43.6495 36.9446 43.5581 37.0777C43.4667 37.2108 43.3372 37.3131 43.1866 37.3712L38.8986 39.0208V39.8256C38.8986 40.152 38.8602 40.472 38.7834 40.7792L43.761 38.8656C44.2139 38.6916 44.6034 38.3844 44.8782 37.9845C45.153 37.5846 45.3001 37.1108 45.3002 36.6256V24.176C45.3001 23.6908 45.153 23.217 44.8782 22.8171C44.6034 22.4172 44.2139 22.11 43.761 21.936L38.2234 19.808ZM42.2458 24.472C42.1696 24.2741 42.0179 24.1145 41.8241 24.0284C41.6302 23.9423 41.4102 23.9367 41.2122 24.0128L36.7866 25.7152C36.6017 25.7863 36.3971 25.7863 36.2122 25.7152L31.7866 24.0128C31.688 23.972 31.5822 23.9513 31.4754 23.952C31.3687 23.9527 31.2631 23.9748 31.1651 24.0169C31.067 24.059 30.9783 24.1203 30.9043 24.1972C30.8302 24.2741 30.7724 24.3651 30.734 24.4647C30.6957 24.5643 30.6777 24.6706 30.6811 24.7773C30.6844 24.884 30.7091 24.9889 30.7537 25.0859C30.7983 25.1829 30.8618 25.2701 30.9405 25.3421C31.0193 25.4142 31.1116 25.4698 31.2122 25.5056L35.6378 27.208C36.1924 27.4213 36.8064 27.4213 37.361 27.208L41.7866 25.5056C41.9845 25.4294 42.1441 25.2777 42.2302 25.0839C42.3163 24.89 42.3219 24.67 42.2458 24.472ZM34.2458 32.472C34.1696 32.2741 34.0179 32.1145 33.8241 32.0284C33.6302 31.9423 33.4102 31.9367 33.2122 32.0128L28.5002 33.8256L23.7866 32.0128C23.5884 31.9366 23.3681 31.9423 23.1741 32.0286C22.9801 32.1148 22.8284 32.2746 22.7522 32.4728C22.676 32.671 22.6817 32.8913 22.768 33.0853C22.8542 33.2793 23.014 33.431 23.2122 33.5072L27.7002 35.232V39.216C27.7002 39.4282 27.7845 39.6317 27.9345 39.7817C28.0845 39.9317 28.288 40.016 28.5002 40.016C28.7124 40.016 28.9159 39.9317 29.0659 39.7817C29.2159 39.6317 29.3002 39.4282 29.3002 39.216V35.232L33.7866 33.5056C33.9845 33.4294 34.1441 33.2777 34.2302 33.0839C34.3163 32.89 34.3219 32.67 34.2458 32.472ZM30.2234 27.808C29.1142 27.3814 27.8862 27.3814 26.777 27.808L21.2394 29.936C20.7865 30.11 20.3969 30.4172 20.1222 30.8171C19.8474 31.217 19.7003 31.6908 19.7002 32.176V39.824C19.7003 40.3092 19.8474 40.783 20.1222 41.1829C20.3969 41.5828 20.7865 41.89 21.2394 42.064L26.7754 44.1952C27.8851 44.6223 29.1137 44.6223 30.2234 44.1952L35.761 42.0656C36.2136 41.8913 36.6028 41.584 36.8773 41.1841C37.1518 40.7843 37.2987 40.3106 37.2986 39.8256V32.1776C37.2987 31.6926 37.1518 31.2189 36.8773 30.8191C36.6028 30.4192 36.2136 30.1119 35.761 29.9376L30.2234 27.808ZM27.3514 29.3008C28.0909 29.0164 28.9095 29.0164 29.649 29.3008L35.1866 31.4304C35.3375 31.4886 35.4671 31.5912 35.5585 31.7246C35.6499 31.8579 35.6988 32.0159 35.6986 32.1776V39.8256C35.6984 39.987 35.6495 40.1446 35.5581 40.2777C35.4667 40.4108 35.3372 40.5131 35.1866 40.5712L29.649 42.704C28.9095 42.9884 28.0909 42.9884 27.3514 42.704L21.8122 40.5712C21.6618 40.5132 21.5325 40.4111 21.4412 40.2784C21.3498 40.1456 21.3007 39.9884 21.3002 39.8272V32.1792C21.3 32.0175 21.3489 31.8595 21.4403 31.7262C21.5317 31.5928 21.6613 31.4902 21.8122 31.432L27.3514 29.3024V29.3008Z" fill="#7F56D9"/>
</svg>
