<svg width="33" height="32" viewBox="0 0 33 32" fill="none" xmlns="http://www.w3.org/2000/svg">
<g id="fluent:box-multiple-20-regular">
<path id="Vector" d="M22.2234 3.808C21.1142 3.38136 19.8862 3.38136 18.777 3.808L13.2394 5.936C12.7865 6.11003 12.3969 6.41724 12.1222 6.81713C11.8474 7.21702 11.7003 7.6908 11.7002 8.176V9.9376C12.2314 9.87069 12.769 9.87069 13.3002 9.9376V8.1776C13.3 8.0159 13.3489 7.85795 13.4403 7.72456C13.5317 7.59117 13.6613 7.48861 13.8122 7.4304L19.3514 5.3008C20.0909 5.01637 20.9095 5.01637 21.649 5.3008L27.1866 7.4304C27.3375 7.48861 27.4671 7.59117 27.5585 7.72456C27.6499 7.85795 27.6988 8.0159 27.6986 8.1776V20.6256C27.6984 20.787 27.6495 20.9446 27.5581 21.0777C27.4667 21.2108 27.3372 21.3131 27.1866 21.3712L22.8986 23.0208V23.8256C22.8986 24.152 22.8602 24.472 22.7834 24.7792L27.761 22.8656C28.2139 22.6916 28.6034 22.3844 28.8782 21.9845C29.153 21.5846 29.3001 21.1108 29.3002 20.6256V8.176C29.3001 7.6908 29.153 7.21702 28.8782 6.81713C28.6034 6.41724 28.2139 6.11003 27.761 5.936L22.2234 3.808ZM26.2458 8.472C26.1696 8.27409 26.0179 8.11454 25.8241 8.02843C25.6302 7.94232 25.4102 7.9367 25.2122 8.0128L20.7866 9.7152C20.6017 9.78631 20.3971 9.78631 20.2122 9.7152L15.7866 8.0128C15.688 7.97198 15.5822 7.95131 15.4754 7.95201C15.3687 7.95271 15.2631 7.97476 15.1651 8.01688C15.067 8.05899 14.9783 8.12031 14.9043 8.19722C14.8302 8.27413 14.7724 8.36507 14.734 8.4647C14.6957 8.56433 14.6777 8.67062 14.6811 8.77731C14.6844 8.88401 14.7091 8.98895 14.7537 9.08595C14.7983 9.18295 14.8618 9.27005 14.9405 9.34212C15.0193 9.4142 15.1116 9.46978 15.2122 9.5056L19.6378 11.208C20.1924 11.4213 20.8064 11.4213 21.361 11.208L25.7866 9.5056C25.9845 9.42938 26.1441 9.27768 26.2302 9.08386C26.3163 8.89004 26.3219 8.66996 26.2458 8.472ZM18.2458 16.472C18.1696 16.2741 18.0179 16.1145 17.8241 16.0284C17.6302 15.9423 17.4102 15.9367 17.2122 16.0128L12.5002 17.8256L7.7866 16.0128C7.58843 15.9366 7.36811 15.9423 7.17413 16.0286C6.98014 16.1148 6.82837 16.2746 6.7522 16.4728C6.67603 16.671 6.6817 16.8913 6.76796 17.0853C6.85423 17.2793 7.01403 17.431 7.2122 17.5072L11.7002 19.232V23.216C11.7002 23.4282 11.7845 23.6317 11.9345 23.7817C12.0845 23.9317 12.288 24.016 12.5002 24.016C12.7124 24.016 12.9159 23.9317 13.0659 23.7817C13.2159 23.6317 13.3002 23.4282 13.3002 23.216V19.232L17.7866 17.5056C17.9845 17.4294 18.1441 17.2777 18.2302 17.0839C18.3163 16.89 18.3219 16.67 18.2458 16.472ZM14.2234 11.808C13.1142 11.3814 11.8862 11.3814 10.777 11.808L5.2394 13.936C4.78648 14.11 4.39695 14.4172 4.12216 14.8171C3.84738 15.217 3.70026 15.6908 3.7002 16.176V23.824C3.70026 24.3092 3.84738 24.783 4.12216 25.1829C4.39695 25.5828 4.78648 25.89 5.2394 26.064L10.7754 28.1952C11.8851 28.6223 13.1137 28.6223 14.2234 28.1952L19.761 26.0656C20.2136 25.8913 20.6028 25.584 20.8773 25.1841C21.1518 24.7843 21.2987 24.3106 21.2986 23.8256V16.1776C21.2987 15.6926 21.1518 15.2189 20.8773 14.8191C20.6028 14.4192 20.2136 14.1119 19.761 13.9376L14.2234 11.808ZM11.3514 13.3008C12.0909 13.0164 12.9095 13.0164 13.649 13.3008L19.1866 15.4304C19.3375 15.4886 19.4671 15.5912 19.5585 15.7246C19.6499 15.8579 19.6988 16.0159 19.6986 16.1776V23.8256C19.6984 23.987 19.6495 24.1446 19.5581 24.2777C19.4667 24.4108 19.3372 24.5131 19.1866 24.5712L13.649 26.704C12.9095 26.9884 12.0909 26.9884 11.3514 26.704L5.8122 24.5712C5.66185 24.5132 5.53252 24.4111 5.44117 24.2784C5.34981 24.1456 5.30067 23.9884 5.3002 23.8272V16.1792C5.30003 16.0175 5.34886 15.8595 5.44026 15.7262C5.53166 15.5928 5.66134 15.4902 5.8122 15.432L11.3514 13.3024V13.3008Z" fill="#7F56D9"/>
</g>
</svg>
