<svg width="32" height="32" viewBox="0 0 32 32" fill="none" xmlns="http://www.w3.org/2000/svg">
<g id="lightbulb-05">
<path id="Icon" d="M16.0003 2.66666V3.99999M4.00033 16H2.66699M7.33366 7.33332L6.53353 6.53319M24.667 7.33332L25.4673 6.53319M29.3337 16H28.0003M13.3337 18H18.667M16.0003 18V24.6667M20.667 22.4986C22.6858 21.0464 24.0003 18.6767 24.0003 16C24.0003 11.5817 20.4186 7.99999 16.0003 7.99999C11.582 7.99999 8.00033 11.5817 8.00033 16C8.00033 18.6767 9.3149 21.0464 11.3337 22.4986V25.0667C11.3337 26.5601 11.3337 27.3069 11.6243 27.8773C11.88 28.3791 12.2879 28.787 12.7897 29.0427C13.3601 29.3333 14.1069 29.3333 15.6003 29.3333H16.4003C17.8938 29.3333 18.6405 29.3333 19.211 29.0427C19.7127 28.787 20.1207 28.3791 20.3763 27.8773C20.667 27.3069 20.667 26.5601 20.667 25.0667V22.4986Z" stroke="#7F56D9" stroke-width="1.5" stroke-linecap="round" stroke-linejoin="round"/>
</g>
</svg>
