<svg width="20" height="16" viewBox="0 0 20 16" fill="none" xmlns="http://www.w3.org/2000/svg">
<path d="M1.66699 3.83331L8.47109 8.59618C9.02207 8.98187 9.29756 9.17471 9.59721 9.2494C9.8619 9.31538 10.1387 9.31538 10.4034 9.2494C10.7031 9.17471 10.9786 8.98187 11.5296 8.59618L18.3337 3.83331M5.66699 14.6666H14.3337C15.7338 14.6666 16.4339 14.6666 16.9686 14.3942C17.439 14.1545 17.8215 13.772 18.0612 13.3016C18.3337 12.7668 18.3337 12.0668 18.3337 10.6666V5.33331C18.3337 3.93318 18.3337 3.23312 18.0612 2.69834C17.8215 2.22793 17.439 1.84548 16.9686 1.6058C16.4339 1.33331 15.7338 1.33331 14.3337 1.33331H5.66699C4.26686 1.33331 3.5668 1.33331 3.03202 1.6058C2.56161 1.84548 2.17916 2.22793 1.93948 2.69834C1.66699 3.23312 1.66699 3.93318 1.66699 5.33331V10.6666C1.66699 12.0668 1.66699 12.7668 1.93948 13.3016C2.17916 13.772 2.56161 14.1545 3.03202 14.3942C3.5668 14.6666 4.26686 14.6666 5.66699 14.6666Z" stroke="white" stroke-width="1.66667" stroke-linecap="round" stroke-linejoin="round"/>
</svg>
