<svg width="56" height="56" viewBox="0 0 56 56" fill="none" xmlns="http://www.w3.org/2000/svg">
<rect x="4" y="4" width="48" height="48" rx="24" fill="#DCFAE6"/>
<path d="M18 28C18 24.6863 20.6863 22 24 22H32C35.3137 22 38 24.6863 38 28C38 31.3137 35.3137 34 32 34H24C20.6863 34 18 31.3137 18 28Z" stroke="#079455" stroke-width="2" stroke-linecap="round" stroke-linejoin="round"/>
<path d="M24 30.5C25.3807 30.5 26.5 29.3807 26.5 28C26.5 26.6193 25.3807 25.5 24 25.5C22.6193 25.5 21.5 26.6193 21.5 28C21.5 29.3807 22.6193 30.5 24 30.5Z" stroke="#079455" stroke-width="2" stroke-linecap="round" stroke-linejoin="round"/>
<rect x="4" y="4" width="48" height="48" rx="24" stroke="#ECFDF3" stroke-width="8"/>
</svg>
