<svg width="64" height="64" viewBox="0 0 64 64" fill="none" xmlns="http://www.w3.org/2000/svg">
<rect x="4" y="4" width="56" height="56" rx="28" fill="#F9F5FF"/>
<rect x="4" y="4" width="56" height="56" rx="28" stroke="#FCFAFF" stroke-width="8"/>
<path d="M45.3327 44V41.3333C45.3327 38.8482 43.633 36.7601 41.3327 36.168M36.666 20.3877C38.6206 21.1789 39.9993 23.0951 39.9993 25.3333C39.9993 27.5716 38.6206 29.4878 36.666 30.279M38.666 44C38.666 41.515 38.666 40.2725 38.26 39.2924C37.7187 37.9855 36.6805 36.9473 35.3737 36.406C34.3935 36 33.151 36 30.666 36H26.666C24.181 36 22.9385 36 21.9584 36.406C20.6516 36.9473 19.6133 37.9855 19.072 39.2924C18.666 40.2725 18.666 41.515 18.666 44M33.9993 25.3333C33.9993 28.2789 31.6115 30.6667 28.666 30.6667C25.7205 30.6667 23.3327 28.2789 23.3327 25.3333C23.3327 22.3878 25.7205 20 28.666 20C31.6115 20 33.9993 22.3878 33.9993 25.3333Z" stroke="#7F56D9" stroke-width="1.5" stroke-linecap="round" stroke-linejoin="round"/>
</svg>
