<svg width="64" height="64" viewBox="0 0 64 64" fill="none" xmlns="http://www.w3.org/2000/svg">
<rect x="4" y="4" width="56" height="56" rx="28" fill="#F9F5FF"/>
<rect x="4" y="4" width="56" height="56" rx="28" stroke="#FCFAFF" stroke-width="8"/>
<path d="M32.0003 18.6667V20M20.0003 32H18.667M23.3337 23.3333L22.5335 22.5332M40.667 23.3333L41.4673 22.5332M45.3337 32H44.0003M29.3337 34H34.667M32.0003 34V40.6667M36.667 38.4986C38.6858 37.0464 40.0003 34.6767 40.0003 32C40.0003 27.5817 36.4186 24 32.0003 24C27.582 24 24.0003 27.5817 24.0003 32C24.0003 34.6767 25.3149 37.0464 27.3337 38.4986V41.0667C27.3337 42.5601 27.3337 43.3069 27.6243 43.8773C27.88 44.3791 28.2879 44.787 28.7897 45.0427C29.3601 45.3333 30.1069 45.3333 31.6003 45.3333H32.4003C33.8938 45.3333 34.6405 45.3333 35.211 45.0427C35.7127 44.787 36.1207 44.3791 36.3763 43.8773C36.667 43.3069 36.667 42.5601 36.667 41.0667V38.4986Z" stroke="#7F56D9" stroke-width="1.5" stroke-linecap="round" stroke-linejoin="round"/>
</svg>
