<svg width="64" height="64" viewBox="0 0 64 64" fill="none" xmlns="http://www.w3.org/2000/svg">
<rect x="4" y="4" width="56" height="56" rx="28" fill="#F9F5FF"/>
<rect x="4" y="4" width="56" height="56" rx="28" stroke="#FCFAFF" stroke-width="8"/>
<path d="M45.3337 44V41.3333C45.3337 38.8482 43.634 36.7601 41.3337 36.168M36.667 20.3877C38.6215 21.1789 40.0003 23.0951 40.0003 25.3333C40.0003 27.5716 38.6215 29.4878 36.667 30.279M38.667 44C38.667 41.515 38.667 40.2725 38.261 39.2924C37.7197 37.9855 36.6815 36.9473 35.3746 36.406C34.3945 36 33.152 36 30.667 36H26.667C24.182 36 22.9395 36 21.9593 36.406C20.6525 36.9473 19.6143 37.9855 19.073 39.2924C18.667 40.2725 18.667 41.515 18.667 44M34.0003 25.3333C34.0003 28.2789 31.6125 30.6667 28.667 30.6667C25.7215 30.6667 23.3337 28.2789 23.3337 25.3333C23.3337 22.3878 25.7215 20 28.667 20C31.6125 20 34.0003 22.3878 34.0003 25.3333Z" stroke="#7F56D9" stroke-width="1.5" stroke-linecap="round" stroke-linejoin="round"/>
</svg>
