<svg width="64" height="64" viewBox="0 0 64 64" fill="none" xmlns="http://www.w3.org/2000/svg">
<rect x="4" y="4" width="56" height="56" rx="28" fill="#F9F5FF"/>
<rect x="4" y="4" width="56" height="56" rx="28" stroke="#FCFAFF" stroke-width="8"/>
<path d="M37.3327 20.6237C39.3083 21.6055 40.666 23.6442 40.666 26C40.666 28.3558 39.3083 30.3945 37.3327 31.3763M39.9993 38.3552C42.0146 39.2671 43.8294 40.7533 45.3327 42.6667M18.666 42.6667C21.2613 39.3634 24.7849 37.3333 28.666 37.3333C32.5471 37.3333 36.0707 39.3634 38.666 42.6667M34.666 26C34.666 29.3137 31.9797 32 28.666 32C25.3523 32 22.666 29.3137 22.666 26C22.666 22.6863 25.3523 20 28.666 20C31.9797 20 34.666 22.6863 34.666 26Z" stroke="#7F56D9" stroke-width="1.5" stroke-linecap="round" stroke-linejoin="round"/>
</svg>
