<svg width="33" height="32" viewBox="0 0 33 32" fill="none" xmlns="http://www.w3.org/2000/svg">
<g id="users-02">
<path id="Icon" d="M21.8327 4.62368C23.8083 5.60548 25.166 7.64419 25.166 10C25.166 12.3558 23.8083 14.3945 21.8327 15.3763M24.4993 22.3552C26.5146 23.2671 28.3294 24.7533 29.8327 26.6667M3.16602 26.6667C5.76134 23.3634 9.28492 21.3333 13.166 21.3333C17.0471 21.3333 20.5707 23.3634 23.166 26.6667M19.166 10C19.166 13.3137 16.4797 16 13.166 16C9.85231 16 7.16602 13.3137 7.16602 10C7.16602 6.68629 9.85231 4 13.166 4C16.4797 4 19.166 6.68629 19.166 10Z" stroke="#7F56D9" stroke-width="1.5" stroke-linecap="round" stroke-linejoin="round"/>
</g>
</svg>
