<svg width="20" height="20" viewBox="0 0 20 20" fill="none" xmlns="http://www.w3.org/2000/svg">
<g id="marker-pin-04" clip-path="url(#clip0_8060_58776)">
<path id="Icon" d="M4.16663 11.9046C2.62382 12.5852 1.66663 13.5337 1.66663 14.5827C1.66663 16.6538 5.39759 18.3327 9.99996 18.3327C14.6023 18.3327 18.3333 16.6538 18.3333 14.5827C18.3333 13.5337 17.3761 12.5852 15.8333 11.9046M15 6.66602C15 10.0524 11.25 11.666 9.99996 14.166C8.74996 11.666 4.99996 10.0524 4.99996 6.66602C4.99996 3.90459 7.23854 1.66602 9.99996 1.66602C12.7614 1.66602 15 3.90459 15 6.66602ZM10.8333 6.66602C10.8333 7.12625 10.4602 7.49935 9.99996 7.49935C9.53972 7.49935 9.16663 7.12625 9.16663 6.66602C9.16663 6.20578 9.53972 5.83268 9.99996 5.83268C10.4602 5.83268 10.8333 6.20578 10.8333 6.66602Z" stroke="#344054" stroke-width="1.75" stroke-linecap="round" stroke-linejoin="round"/>
</g>
<defs>
<clipPath id="clip0_8060_58776">
<rect width="20" height="20" fill="white"/>
</clipPath>
</defs>
</svg>
