<svg width="20" height="20" viewBox="0 0 20 20" fill="none" xmlns="http://www.w3.org/2000/svg">
<g id="signal-02">
<path id="Icon" d="M13.5356 4.79838C15.4882 6.751 15.4882 9.91683 13.5356 11.8694M6.46449 11.8694C4.51187 9.91683 4.51187 6.751 6.46449 4.79838M4.10728 14.2265C0.852912 10.9721 0.852912 5.69578 4.10728 2.44141M15.8928 2.44141C19.1471 5.69578 19.1471 10.9721 15.8928 14.2265M10 10.0006C10.9205 10.0006 11.6667 9.25442 11.6667 8.33394C11.6667 7.41347 10.9205 6.66728 10 6.66728C9.07955 6.66728 8.33335 7.41347 8.33335 8.33394C8.33335 9.25442 9.07955 10.0006 10 10.0006ZM10 10.0006V17.5006" stroke="#344054" stroke-width="1.75" stroke-linecap="round" stroke-linejoin="round"/>
</g>
</svg>
