<svg xmlns="http://www.w3.org/2000/svg" width="20" height="20" viewBox="0 0 20 20" fill="none">
<g clip-path="url(#clip0_5880_42284)">
<path d="M17.6402 6.66406C16.9911 5.17778 15.9227 3.9131 14.5656 3.02499C13.2086 2.13688 11.622 1.66392 10.0002 1.66406C5.67933 1.66406 2.12516 4.95323 1.7085 9.16406" stroke="#98A2B3" stroke-width="1.5" stroke-linecap="round" stroke-linejoin="round"/>
<path d="M14.1667 6.66667H17.8334C17.899 6.66667 17.9641 6.65373 18.0247 6.62861C18.0854 6.60348 18.1405 6.56665 18.1869 6.52022C18.2334 6.47379 18.2702 6.41867 18.2953 6.35801C18.3204 6.29735 18.3334 6.23233 18.3334 6.16667V2.5M2.40088 13.3333C3.68755 16.2767 6.62421 18.3333 10.0409 18.3333C14.3625 18.3333 17.9159 15.0442 18.3334 10.8333" stroke="#98A2B3" stroke-width="1.5" stroke-linecap="round" stroke-linejoin="round"/>
<path d="M5.87516 13.3359H2.2085C2.07589 13.3359 1.94871 13.3886 1.85494 13.4824C1.76117 13.5762 1.7085 13.7033 1.7085 13.8359V17.5026" stroke="#98A2B3" stroke-width="1.5" stroke-linecap="round" stroke-linejoin="round"/>
</g>
<defs>
<clipPath id="clip0_5880_42284">
<rect width="20" height="20" fill="white"/>
</clipPath>
</defs>
</svg>